<svg xmlns="http://www.w3.org/2000/svg" width="120" height="42"><path d="m181.97.51 114.06.2c1.6 0 3.02-.23 3.02 3.18l-.14 37.57H179.09V3.76c0-1.7.16-3.25 2.88-3.25z" style="fill:#aab2ab" transform="matrix(.99377 0 0 .99367 -177.7 0)"/><path d="M117.75 0H2.25C1 0 0 1 0 2.25v39.24c0 .28.23.51.5.51h119a.5.5 0 0 0 .5-.5V2.24C120 1 119 0 117.75 0zM2.25 1.02h115.5c.68 0 1.23.55 1.23 1.23v27.27H36.16a17.76 17.76 0 0 1-31.1 0H1.03V2.25c0-.68.55-1.23 1.23-1.23z"/><path d="M253.08 32.96c.31 0 .6.02.87.08.26.06.48.15.67.28.19.12.33.3.44.5.1.22.15.48.15.79 0 .33-.08.61-.23.84-.15.22-.38.4-.68.55.41.12.72.32.93.62.2.3.3.65.3 1.07a1.7 1.7 0 0 1-.72 1.47c-.23.16-.48.27-.76.35a3.4 3.4 0 0 1-.88.11h-3.23v-6.66h3.14zm-.19 2.7c.26 0 .48-.07.65-.2.16-.12.25-.32.25-.6a.77.77 0 0 0-.09-.38.63.63 0 0 0-.22-.23.95.95 0 0 0-.32-.12 2.17 2.17 0 0 0-.38-.03h-1.38v1.55h1.49zm.09 2.82c.14 0 .28-.01.4-.04.14-.03.25-.08.35-.14a.7.7 0 0 0 .24-.27.9.9 0 0 0 .1-.43c0-.34-.1-.58-.3-.73-.2-.15-.45-.22-.77-.22h-1.6v1.83h1.58zM255.79 32.96h1.64l1.56 2.63 1.55-2.63h1.64l-2.48 4.1v2.56h-1.47v-2.6l-2.44-4.06z" style="fill:#fff" transform="matrix(.99377 0 0 .99367 -177.7 0)"/><path d="M186.9-141.46a15.72 15.72 0 0 1-31.43.02v-.02a15.72 15.72 0 1 1 31.43-.02v.02z" style="fill:#fff" transform="matrix(.86749 0 0 .8674 -127.88 142.3)"/><path d="M31.7 8.5a15.1 15.1 0 0 1 4.54 11.1c0 4.39-1.49 8.05-4.46 11a15.41 15.41 0 0 1-11.18 4.65 15 15 0 0 1-10.99-4.62A15.05 15.05 0 0 1 5 19.61 15.3 15.3 0 0 1 9.6 8.5c3-3.03 6.66-4.54 10.99-4.54A15.1 15.1 0 0 1 31.7 8.5zm-20.05 2.04A12.49 12.49 0 0 0 7.8 19.6a12.3 12.3 0 0 0 3.8 9 12.34 12.34 0 0 0 9.04 3.79c3.5 0 6.53-1.28 9.11-3.83a11.94 11.94 0 0 0 3.68-8.96c0-3.57-1.25-6.6-3.74-9.1a12.33 12.33 0 0 0-9.05-3.73c-3.55 0-6.55 1.25-9 3.76zm6.73 7.54c-.4-.85-.98-1.27-1.76-1.27-1.38 0-2.07.93-2.07 2.78 0 1.86.7 2.78 2.07 2.78.91 0 1.56-.45 1.95-1.35l1.91 1.01a4.42 4.42 0 0 1-4.1 2.43c-1.4 0-2.53-.43-3.37-1.29a4.86 4.86 0 0 1-1.27-3.56 4.8 4.8 0 0 1 1.3-3.55 4.42 4.42 0 0 1 3.27-1.3c1.92 0 3.3.75 4.13 2.27l-2.06 1.05zm8.99 0c-.4-.85-.97-1.27-1.72-1.27-1.41 0-2.11.93-2.11 2.78 0 1.86.7 2.78 2.1 2.78.92 0 1.56-.45 1.92-1.35l1.95 1.01a4.41 4.41 0 0 1-4.09 2.43c-1.4 0-2.52-.43-3.37-1.29a4.88 4.88 0 0 1-1.27-3.56c0-1.5.43-2.67 1.3-3.55a4.39 4.39 0 0 1 3.26-1.3c1.93 0 3.3.75 4.13 2.27l-2.1 1.05z"/><g transform="matrix(.99377 0 0 .99367 -177.7 0)"><circle cx="255.55" cy="15.31" r="10.81" style="fill:#fff"/><path d="M258.68 12.19a.75.75 0 0 0-.75-.76h-4.78a.75.75 0 0 0-.75.76v4.77h1.33v5.65h3.62v-5.65h1.33v-4.77z"/><circle cx="255.54" cy="9.17" r="1.63"/><path d="M255.52 3.4c-3.23 0-5.96 1.14-8.2 3.4a11.41 11.41 0 0 0-3.45 8.28c0 3.18 1.15 5.93 3.45 8.22 2.3 2.3 5.03 3.44 8.2 3.44 3.22 0 6-1.15 8.36-3.47a11.07 11.07 0 0 0 3.33-8.2c0-3.26-1.13-6.02-3.39-8.28a11.3 11.3 0 0 0-8.3-3.38zm.03 2.1c2.65 0 4.9.94 6.75 2.8a9.15 9.15 0 0 1 2.8 6.78 8.9 8.9 0 0 1-2.74 6.68 9.36 9.36 0 0 1-6.8 2.85 9.21 9.21 0 0 1-6.75-2.82 9.16 9.16 0 0 1-2.84-6.71 9.3 9.3 0 0 1 2.87-6.77 9.05 9.05 0 0 1 6.71-2.8z" clip-rule="evenodd" style="fill-rule:evenodd"/></g></svg>
