<svg xmlns="http://www.w3.org/2000/svg" width="400" height="116" viewBox="0 0 400 116"><defs><style>.ue853,.u85cb,.u6a40{fill:none;}.u85cb{stroke:#ed6103;}.u85cb,.u6a40{stroke-miterlimit:10;}.u85cb,.u6a40,.uf7e7,.u9f1f{stroke-width:3px;}.u85cb,.u9f1f{stroke-linecap:round;}.u6a40,.uf7e7,.u9f1f{stroke:#626262;}.u79e8{fill:#ed6103;}.u5965,.uf7e7,.u9f1f{fill:#fff;}.ud053{fill:#626262;}.uf7e7,.u9f1f{stroke-linejoin:round;}.u1100{clip-path:url(#uf464);}</style><clipPath id="uf464"><rect class="ue853" width="400" height="116"/></clipPath></defs><g class="u1100"><polygon class="u5965" points="439 26.695 367.793 49.733 343.052 63.247 354.096 79.053 397.747 81.671 409.444 88.972 439 81.148 439 26.695"/><path id="ud5c3" class="uf7e7" d="m439.524,27.219l-54.403,16.06s-68.091-21.865-75.697-21.819c-5.653.034-25.964,9.046-36.023,13.673-3.735,1.718-6.935,4.13-9.364,7.062-7.356,8.88-23.572,28.469-26.706,32.375-4.671,5.821-.509,15.512,7.446,12.774,2.976-1.024,12.576-6.946,24.582-8.29,23.796-2.664,55.811-.729,55.811-.729"/><path class="u79e8" d="m239.088,99.271l-14.551,9.092c-1.449.728-2.823-.639-2.103-2.092l8.867-14.249c.688-1.388,1.607-2.67,2.714-3.782l124.932-125.62,8.509,8.462-125.196,125.886c-.932.937-2.006,1.717-3.172,2.303Z"/><path id="u1a9a" class="u9f1f" d="m439,80.101l-63.122,13.8c-3.181,1.123-6.544,1.628-9.914,1.489-9.543-.393-91.543-6.805-107.054-7.998-13.485-1.037-7.159-15.511,0-16.705,9.489-1.581,38.404-6.476,44.761-7.262,13.334-1.65,16.475-7.933,13.334-12.121"/><path class="u85cb" d="m223,106.62h-41.5c-3.3,0-6-2.7-6-6v-22.5c0-3.3,2.7-6,6-6h22.5c3.3,0,6,2.7,6,6v18"/><path class="ud053" d="m206,14.62c1.654,0,3,1.346,3,3v38c0,1.654-1.346,3-3,3h-75.5c-1.654,0-3-1.346-3-3V17.62c0-1.654,1.346-3,3-3h75.5m0-3h-75.5c-3.3,0-6,2.7-6,6v38c0,3.3,2.7,6,6,6h75.5c3.3,0,6-2.7,6-6V17.62c0-3.3-2.7-6-6-6h0Z"/><rect class="u79e8" x="124.5" y="77.37" width="31.5" height="6" rx="2.56" ry="2.56"/><rect class="u79e8" x="124.5" y="95.37" width="31.5" height="6" rx="2.56" ry="2.56"/><rect class="ud053" x="35.967" y="29.12" width="52.668" height="6.694" rx="2.744" ry="2.744"/><rect class="ud053" x="35.967" y="87.814" width="52.668" height="3.5" rx="1.75" ry="1.75"/><rect class="ud053" x="35.967" y="98.814" width="52.668" height="3.5" rx="1.75" ry="1.75"/><rect class="u79e8" x="35.674" y="45.882" width="29.181" height="31.742" rx="2.603" ry="2.603"/><path class="u79e8" d="m97,14.62c1.654,0,3,1.346,3,3v105.5c0,1.654-1.346,3-3,3H27.626c-1.654,0-3-1.346-3-3V17.62c0-1.654,1.346-3,3-3h69.374m0-3H27.626c-3.3,0-6,2.7-6,6v105.5c0,3.3,2.7,6,6,6h69.374c3.3,0,6-2.7,6-6V17.62c0-3.3-2.7-6-6-6h0Z"/><line class="u6a40" x1="208.5" y1="15.62" x2="127.303" y2="58.911"/></g></svg>
