<svg xmlns="http://www.w3.org/2000/svg" width="400" height="116"><defs><style>.u30a8{fill:#ed6103}.u0f0e{fill:#626262}</style></defs><path d="m439 26.7-71.2 23-24.7 13.5 11 15.9 43.6 2.6 11.7 7.3 29.6-7.9V26.7z" style="fill:#fff"/><path d="m439.5 27.2-54.4 16s-68-21.8-75.7-21.7c-5.6 0-26 9-36 13.6-3.7 1.8-7 4.2-9.4 7l-26.7 32.5c-4.6 5.8-.5 15.5 7.5 12.7 3-1 12.6-6.9 24.6-8.2 23.8-2.7 55.8-.8 55.8-.8" style="stroke-linejoin:round;fill:#fff;stroke:#626262;stroke-width:3px"/><path d="m239 99.3-14.5 9c-1.4.8-2.8-.6-2-2l8.8-14.3c.7-1.4 1.6-2.6 2.7-3.8L359-37.4l8.5 8.5L242.3 97c-1 1-2 1.7-3.2 2.3Z" class="u30a8"/><path d="m439 80.1-63.1 13.8a26.5 26.5 0 0 1-10 1.5c-9.5-.4-91.5-6.8-107-8-13.5-1-7.1-15.5 0-16.7 9.5-1.6 38.4-6.5 44.8-7.3 13.3-1.6 16.4-8 13.3-12.1" style="stroke-linejoin:round;fill:#fff;stroke:#626262;stroke-linecap:round;stroke-width:3px"/><path d="M223 106.6h-41.5a6 6 0 0 1-6-6V78.1a6 6 0 0 1 6-6H204a6 6 0 0 1 6 6v18" style="stroke-linecap:round;stroke-width:3px;stroke-miterlimit:10;stroke:#ed6103;fill:none"/><path d="M206 14.6a3 3 0 0 1 3 3v38a3 3 0 0 1-3 3h-75.5a3 3 0 0 1-3-3v-38a3 3 0 0 1 3-3H206m0-3h-75.5a6 6 0 0 0-6 6v38a6 6 0 0 0 6 6H206a6 6 0 0 0 6-6v-38a6 6 0 0 0-6-6Z" class="u0f0e"/><rect width="31.5" height="6" x="124.5" y="77.4" class="u30a8" rx="2.6" ry="2.6"/><rect width="31.5" height="6" x="124.5" y="95.4" class="u30a8" rx="2.6" ry="2.6"/><rect width="52.7" height="6.7" x="36" y="29.1" class="u0f0e" rx="2.7" ry="2.7"/><rect width="52.7" height="3.5" x="36" y="87.8" class="u0f0e" rx="1.8" ry="1.8"/><rect width="52.7" height="3.5" x="36" y="98.8" class="u0f0e" rx="1.8" ry="1.8"/><rect width="29.2" height="31.7" x="35.7" y="45.9" class="u30a8" rx="2.6" ry="2.6"/><path d="M97 14.6a3 3 0 0 1 3 3v105.5a3 3 0 0 1-3 3H27.6a3 3 0 0 1-3-3V17.6a3 3 0 0 1 3-3H97m0-3H27.6a6 6 0 0 0-6 6v105.5a6 6 0 0 0 6 6H97a6 6 0 0 0 6-6V17.6a6 6 0 0 0-6-6Z" class="u30a8"/><path d="m208.5 15.6-81.2 43.3" style="stroke:#626262;stroke-width:3px;stroke-miterlimit:10;fill:none"/></svg>
