<svg xmlns="http://www.w3.org/2000/svg" width="400" height="116"><defs><style>.ua778,.u9980{fill:none}.u56ac,.ud673,.ua778{stroke:#626262;stroke-width:3px;stroke-linejoin:round}.u56ac,.ua778{stroke-linecap:round}.ucb03,.u32ad{fill:#ed6103}.u56ac,.ud673,.uf4e0{fill:#fff}.u030e{fill:#626262}.ucb03{isolation:isolate}</style></defs><path d="M31.7 28h136.6c4.8 0 8.7 4 8.7 8.7v85.6c0 4.8-3.9 8.7-8.7 8.7h-134c-4.7 0-8.6-3.9-8.6-8.7V34a6 6 0 0 1 6-6Z" style="stroke-miterlimit:10;stroke-width:2px;fill:#fff;stroke:#626262"/><path d="m43.7 53.8-3.7 4 3.7 4" class="ua778"/><path d="m63 61.7 3.6-4-3.7-4" class="ua778"/><path d="m55.8 54-5 7.7" style="fill:#fff3ea;stroke-linecap:round;stroke-width:3px;stroke:#626262"/><rect width="66.5" height="4.1" x="38" y="72.2" class="u030e" rx="1.8" ry="1.8"/><rect width="60.7" height="4.1" x="43.6" y="84" class="ucb03" rx="1.7" ry="1.7"/><rect width="60.7" height="4.1" x="43.6" y="95.9" class="ucb03" rx="1.7" ry="1.7"/><path d="M34.4 28h133.9c4.8 0 8.7 4 8.7 8.7v.9H25.7v-.9c0-4.8 3.9-8.7 8.7-8.7Z" class="u030e"/><ellipse cx="32.6" cy="33.2" class="uf4e0" rx="2.1" ry="2.2"/><ellipse cx="38.8" cy="33.2" class="uf4e0" rx="2.1" ry="2.2"/><ellipse cx="45" cy="33.2" class="uf4e0" rx="2.1" ry="2.2"/><path d="M134.3-11h236.4c4.6 0 8.3 3.7 8.3 8.3V65c0 3-2.4 5.4-5.4 5.4H131.4c-3 0-5.4-2.4-5.4-5.4V-2.7c0-4.6 3.7-8.3 8.3-8.3Z" class="uf4e0"/><rect width="21.6" height="21.7" x="125.8" y="-2.6" class="u32ad" rx="3.2" ry="3.2"/><rect width="21.6" height="21.7" x="151.5" y="-2.6" class="u32ad" rx="3.2" ry="3.2"/><rect width="21.6" height="21.7" x="177.2" y="-2.6" class="u32ad" rx="3.2" ry="3.2"/><rect width="21.6" height="21.7" x="202.9" y="-2.6" class="u32ad" rx="3.2" ry="3.2"/><rect width="21.6" height="21.7" x="228.6" y="-2.6" class="u32ad" rx="3.2" ry="3.2"/><rect width="21.6" height="21.7" x="254.3" y="-2.6" class="u32ad" rx="3.2" ry="3.2"/><rect width="21.6" height="21.7" x="280" y="-2.6" class="u32ad" rx="3.2" ry="3.2"/><rect width="21.6" height="21.7" x="305.7" y="-2.6" class="u32ad" rx="3.2" ry="3.2"/><rect width="21.6" height="21.7" x="331.5" y="-2.6" class="u32ad" rx="3.2" ry="3.2"/><rect width="21.6" height="21.7" x="357.2" y="-2.6" class="u32ad" rx="3.2" ry="3.2"/><rect width="21.6" height="21.7" x="125.8" y="48.7" class="u32ad" rx="3.2" ry="3.2"/><rect width="21.6" height="21.7" x="151.5" y="48.7" class="u32ad" rx="3.2" ry="3.2"/><rect width="21.6" height="21.7" x="177.2" y="48.7" class="u32ad" rx="3.2" ry="3.2"/><rect width="94.5" height="21.7" x="204.5" y="48.7" class="u32ad" rx="3.3" ry="3.3"/><rect width="21.6" height="21.7" x="305.7" y="48.7" class="u32ad" rx="3.2" ry="3.2"/><rect width="21.6" height="21.7" x="331.5" y="48.7" class="u32ad" rx="3.2" ry="3.2"/><rect width="21.6" height="21.7" x="357.2" y="48.7" class="u32ad" rx="3.2" ry="3.2"/><rect width="35" height="21.7" x="125.8" y="23" class="u32ad" rx="4.1" ry="4.1"/><rect width="21.6" height="21.7" x="190.5" y="23" class="u32ad" rx="3.2" ry="3.2"/><rect width="21.6" height="21.7" x="216.2" y="23" class="u32ad" rx="3.2" ry="3.2"/><rect width="21.6" height="21.7" x="241.9" y="23" class="u32ad" rx="3.2" ry="3.2"/><rect width="21.6" height="21.7" x="267.6" y="23" class="u32ad" rx="3.2" ry="3.2"/><rect width="21.6" height="21.7" x="293.4" y="23" class="u32ad" rx="3.2" ry="3.2"/><rect width="34" height="21.7" x="344.8" y="23" class="u32ad" rx="4" ry="4"/><path d="M220.6 129.2s9.8-32.4 12.5-40.4c2.7-8.2-6.6-11-11.3-6l-15.5 17.3-17.7-13-11-17.5-19.1-33.5c-1.1-6.5-12.1-7.6-13.8 1.7C143.1 47 131 136 131 136" class="ud673"/><path d="M152.2 78s5.5-50 5.7-53.4c.6-8.8 11.2-11.2 15.4-4.4" class="u56ac"/><path d="m158.6 43 6-20.5 27.5 2 13 49 7 43-50.7-9-2.8-64.5z" class="uf4e0"/><path d="M188.6 24c.6-6.5 13.8-7.6 15.4 1.7 1.2 6.5 4.4 73 6 81.8" class="u56ac"/><path d="M169.3 78s4-55.4 4-59.4c0-12.6 15.9-10.4 15.4-1.3-.5 9.2 0 60.7 0 60.7" class="u56ac"/><path d="M284 129.2s-9.8-32.4-12.5-40.4c-2.7-8.2 6.6-11 11.3-6l15.5 17.3 17.7-13 11-17.5L346 36.1c1.1-6.5 12.1-7.6 13.8 1.7 1.6 9.3 13.7 98.2 13.7 98.2" class="ud673"/><path d="M352.4 78s-5.5-50-5.7-53.4c-.6-8.8-11.2-11.2-15.4-4.4" class="u56ac"/><path d="m346 43-6-20.5-27.5 2-13 49-7 43 50.8-9L346 43z" class="uf4e0"/><path d="M316 24c-.6-6.5-13.7-7.6-15.4 1.7-1.1 6.5-4.4 73-6 81.8" class="u56ac"/><path d="M335.3 78s-4-55.4-4-59.4c0-12.6-15.9-10.4-15.4-1.3.6 9.2 0 60.7 0 60.7" class="u56ac"/></svg>
