<svg xmlns="http://www.w3.org/2000/svg" width="400" height="116" viewBox="0 0 400 116"><defs><style>.uc059,.u77a4{fill:none;}.u77a4,.ua7b4,.u1d3e,.u6d7f,.u28f4{stroke:#626262;}.u77a4,.u1d3e,.u6d7f,.u28f4{stroke-width:3px;}.u77a4,.u1d3e,.u28f4{stroke-linejoin:round;}.u77a4,.u6d7f,.u28f4{stroke-linecap:round;}.ue044,.ub77f{fill:#ed6103;}.u2186,.ua7b4,.u1d3e,.u28f4{fill:#fff;}.u9ec4{fill:#626262;}.ua7b4{stroke-miterlimit:10;stroke-width:2px;}.u96f5{clip-path:url(#u65e4);}.ub40a{clip-path:url(#u0ed0);}.u405a{fill:url(#uf751);}.u6d7f{fill:#fff3ea;}.ub77f{isolation:isolate;}</style><clipPath id="u65e4"><rect class="uc059" width="400" height="116"/></clipPath><clipPath id="u0ed0"><rect class="uc059" width="400" height="116"/></clipPath><linearGradient id="uf751" x1="141.598" y1="970.88" x2="141.598" y2="978.842" gradientTransform="translate(79.902 -970.13)" gradientUnits="userSpaceOnUse"><stop offset="0" stop-color="#fff" stop-opacity="0"/><stop offset=".512" stop-color="#fff"/></linearGradient></defs><g class="u96f5"><g class="ub40a"><g id="u8e61"><path id="u4713" class="ua7b4" d="m31.664,28h136.626c4.821,0,8.73,3.908,8.73,8.73v85.553c0,4.821-3.908,8.73-8.73,8.73H34.394c-4.821,0-8.73-3.908-8.73-8.73V34c0-3.314,2.686-6,6-6Z"/><g id="u05b3"><g id="uad82"><path id="u358f" class="u77a4" d="m43.688,53.758l-3.717,3.953,3.717,4.003"/><path id="ua9a5" class="u77a4" d="m62.918,61.714l3.717-3.953-3.717-4.003"/><path id="u1dca" class="u6d7f" d="m55.801,53.928l-4.996,7.755"/></g><rect class="u9ec4" x="38" y="72.217" width="66.5" height="4.066" rx="1.825" ry="1.825"/><rect class="ub77f" x="43.642" y="84.05" width="60.73" height="4.066" rx="1.744" ry="1.744"/><rect class="ub77f" x="43.642" y="95.884" width="60.73" height="4.066" rx="1.744" ry="1.744"/></g><path id="ubd93" class="u9ec4" d="m34.394,28h133.896c4.821,0,8.73,3.908,8.73,8.73v.873H25.664v-.873c0-4.821,3.908-8.73,8.73-8.73Z"/><ellipse id="u5b83" class="u2186" cx="32.607" cy="33.238" rx="2.064" ry="2.154"/><ellipse id="ub1b0" class="u2186" cx="38.8" cy="33.238" rx="2.064" ry="2.154"/><ellipse id="u9fbe" class="u2186" cx="44.991" cy="33.238" rx="2.064" ry="2.154"/></g><rect class="u405a" x="143" y=".339" width="157" height="8.661" transform="translate(443 9.339) rotate(180)"/><path class="u2186" d="m134.288-11h236.424c4.574,0,8.288,3.714,8.288,8.288v67.806c0,2.984-2.423,5.406-5.406,5.406h-242.187c-2.984,0-5.406-2.423-5.406-5.406V-2.712c0-4.574,3.714-8.288,8.288-8.288Z"/><rect class="ue044" x="125.801" y="-2.618" width="21.649" height="21.694" rx="3.191" ry="3.191"/><rect class="ue044" x="151.508" y="-2.618" width="21.649" height="21.694" rx="3.191" ry="3.191"/><rect class="ue044" x="177.214" y="-2.618" width="21.649" height="21.694" rx="3.191" ry="3.191"/><rect class="ue044" x="202.921" y="-2.618" width="21.649" height="21.694" rx="3.191" ry="3.191"/><rect class="ue044" x="228.627" y="-2.618" width="21.649" height="21.694" rx="3.191" ry="3.191"/><rect class="ue044" x="254.334" y="-2.618" width="21.649" height="21.694" rx="3.191" ry="3.191"/><rect class="ue044" x="280.04" y="-2.618" width="21.649" height="21.694" rx="3.191" ry="3.191"/><rect class="ue044" x="305.747" y="-2.618" width="21.649" height="21.694" rx="3.191" ry="3.191"/><rect class="ue044" x="331.453" y="-2.618" width="21.649" height="21.694" rx="3.191" ry="3.191"/><rect class="ue044" x="357.16" y="-2.618" width="21.649" height="21.694" rx="3.191" ry="3.191"/><rect class="ue044" x="125.801" y="48.658" width="21.649" height="21.694" rx="3.191" ry="3.191"/><rect class="ue044" x="151.508" y="48.658" width="21.649" height="21.694" rx="3.191" ry="3.191"/><rect class="ue044" x="177.214" y="48.658" width="21.649" height="21.694" rx="3.191" ry="3.191"/><rect class="ue044" x="204.541" y="48.658" width="94.528" height="21.694" rx="3.292" ry="3.292"/><rect class="ue044" x="305.747" y="48.658" width="21.649" height="21.694" rx="3.191" ry="3.191"/><rect class="ue044" x="331.453" y="48.658" width="21.649" height="21.694" rx="3.191" ry="3.191"/><rect class="ue044" x="357.16" y="48.658" width="21.649" height="21.694" rx="3.191" ry="3.191"/><rect class="ue044" x="125.801" y="23.02" width="34.965" height="21.694" rx="4.056" ry="4.056"/><rect class="ue044" x="190.53" y="23.02" width="21.649" height="21.694" rx="3.191" ry="3.191"/><rect class="ue044" x="216.237" y="23.02" width="21.649" height="21.694" rx="3.191" ry="3.191"/><rect class="ue044" x="241.943" y="23.02" width="21.649" height="21.694" rx="3.191" ry="3.191"/><rect class="ue044" x="267.65" y="23.02" width="21.649" height="21.694" rx="3.191" ry="3.191"/><rect class="ue044" x="293.356" y="23.02" width="21.649" height="21.694" rx="3.191" ry="3.191"/><rect class="ue044" x="344.769" y="23.02" width="34.039" height="21.694" rx="4.001" ry="4.001"/><path class="u1d3e" d="m220.612,129.22s9.799-32.384,12.473-40.408c2.743-8.23-6.584-10.974-11.285-5.982-2.486,2.64-15.483,17.305-15.483,17.305l-17.676-13.125-10.974-17.402-19.204-33.47c-1.097-6.584-12.071-7.682-13.717,1.646-1.646,9.328-13.717,98.216-13.717,98.216"/><path class="u28f4" d="m152.202,77.955s5.505-50.008,5.713-53.339c.549-8.779,11.212-11.194,15.363-4.39"/><polygon class="u2186" points="158.596 43 164.596 22.5 192.096 24.5 205.096 73.5 212.096 116.5 161.357 107.468 158.596 43"/><path class="u28f4" d="m188.641,24.066c.549-6.584,13.717-7.682,15.363,1.646,1.152,6.529,4.39,72.976,6.036,81.755"/><path class="u28f4" d="m169.28,77.955s3.998-55.38,3.998-59.375c0-12.62,15.912-10.425,15.396-1.285-.52,9.209,0,60.66,0,60.66"/><path class="u1d3e" d="m283.997,129.22s-9.799-32.384-12.473-40.408c-2.743-8.23,6.584-10.974,11.285-5.982,2.486,2.64,15.483,17.305,15.483,17.305l17.676-13.125,10.974-17.402,19.204-33.47c1.097-6.584,12.071-7.682,13.717,1.646,1.646,9.328,13.717,98.216,13.717,98.216"/><path class="u28f4" d="m352.408,77.955s-5.505-50.008-5.713-53.339c-.549-8.779-11.212-11.194-15.363-4.39"/><polygon class="u2186" points="346.013 43 340.013 22.5 312.513 24.5 299.513 73.5 292.513 116.5 343.253 107.468 346.013 43"/><path class="u28f4" d="m315.968,24.066c-.549-6.584-13.717-7.682-15.363,1.646-1.152,6.529-4.39,72.976-6.036,81.755"/><path class="u28f4" d="m335.33,77.955s-3.998-55.38-3.998-59.375c0-12.62-15.912-10.425-15.396-1.285.52,9.209,0,60.66,0,60.66"/></g><rect class="uc059" width="400" height="116"/><rect class="uc059" width="400" height="116"/></g></svg>
