<svg xmlns="http://www.w3.org/2000/svg" viewBox="0 0 24 24"><g fill="#1f1f1f"><path class="st0" d="m5.28 11.37 6.44 6.43c.14.14.42.15.56 0l6.44-6.43c.14-.14.42-.14.56 0l.85.85c.14.14.14.42 0 .56l-7.85 7.85c-.14.14-.42.14-.56 0l-7.85-7.85c-.14-.14-.14-.42 0-.56l.85-.85c.14-.14.42-.14.56 0z"/><path class="st0" d="m5.28 3.37 6.44 6.43c.14.14.42.15.56 0l6.44-6.43c.14-.14.42-.14.56 0l.85.85c.14.14.14.42 0 .56l-7.85 7.85c-.14.14-.42.14-.56 0L3.87 4.78c-.14-.14-.14-.42 0-.56l.85-.85c.14-.14.42-.14.56 0z"/></g></svg>
