<svg xmlns="http://www.w3.org/2000/svg" width="400" height="116" viewBox="0 0 400 116"><defs><style>.uaa49,.ud86c,.u5148,.uff5d{fill:none;}.ud86c,.u5148,.uff5d,.u3bab,.uadfa,.u92d3{stroke-width:3px;}.ud86c,.u5148,.uff5d,.u92d3{stroke-linecap:round;}.ud86c,.u5148,.uadfa{stroke-miterlimit:10;}.ud86c,.uff5d,.u3bab,.uadfa,.u92d3{stroke:#626262;}.u5148{stroke:#ed6103;}.u0237{clip-path:url(#u593b);}.uff5d,.u3bab,.u92d3{stroke-linejoin:round;}.ue04d{fill:#ed6103;}.u388c,.u3bab,.uadfa,.u92d3{fill:#fff;}.ua21c{fill:#626262;}</style><clipPath id="u593b"><rect class="uaa49" width="400" height="116"/></clipPath></defs><g class="u0237"><path class="ue04d" d="m387.494,115.906V30.69c0-2.017-.913-3.916-2.461-5.12l-12.033-8.57-1,99.24"/><path class="uadfa" d="m240,116.24V21.764c0-3.459,2.686-6.264,6-6.264h123c3.314,0,6,2.804,6,6.264v94.477"/><rect class="uaa49" width="400" height="116"/><path class="ua21c" d="m260.1,37.696c.048-.144.168-.216.288-.216l4.709-.006c.168,0,.288.119.288.287l.021,17.491c0,.168-.12.288-.288.289l-3.123.004c-.168,0-.289-.121-.289-.288l-.017-13.935c0-.072-.073-.144-.144-.144l-2.355.003c-.216,0-.36-.216-.289-.432l1.198-3.052Z"/><path class="ua21c" d="m274.7,51.687h3.267c.159,0,.288.129.288.288v3.267c0,.159-.129.288-.288.288h-3.268c-.159,0-.288-.129-.288-.288v-3.267c0-.159.129-.289.289-.289Z" transform="translate(-.067 .347) rotate(-.072)"/><path class="ua21c" d="m268.541,96.908c.168,0,.289.12.289.288l.004,3.027c0,.168-.12.289-.288.289l-12.181.015c-.264,0-.385-.288-.24-.457l7.797-9.859c.84-.914,1.103-1.515,1.054-2.188,0-1.274-1.179-2.329-2.501-2.327-1.466.002-2.522,1.012-2.664,2.382-.024.167-.143.287-.312.288l-3.123.004c-.168,0-.337-.144-.313-.336.189-3.34,2.852-6.058,6.408-6.062,3.363-.004,6.106,2.683,6.229,5.639.097,1.177-.068,2.739-1.413,4.326l-3.838,4.738c-.072.072-.048.24.121.24l4.973-.006Z"/><rect class="ua21c" x="274.412" y="96.662" width="3.844" height="3.844" rx=".288" ry=".288" transform="translate(-.124 .347) rotate(-.072)"/><line class="u5148" x1="285.83" y1="34.036" x2="355.5" y2="33.954"/><line class="ud86c" x1="296.459" y1="44.629" x2="355.524" y2="44.559"/><line class="ud86c" x1="310.999" y1="55.205" x2="355.706" y2="55.152"/><line class="u5148" x1="285.83" y1="79.036" x2="355.5" y2="78.954"/><line class="ud86c" x1="296.459" y1="89.629" x2="355.524" y2="89.559"/><line class="ud86c" x1="310.999" y1="100.205" x2="355.706" y2="100.152"/><path class="u3bab" d="m194.5,119.24s18.385-13.637,23.196-17.012c10.304-7.228-.696-18.228-11.641-14.947-7.969,2.389-10.056,3.719-18.055,7.719l-94.5,23.24"/><path class="u92d3" d="m72.5,121l26.307-57.579c6.693-15.421,15.379-8.524,20.689-6.544,1.359.507,2.842.446,4.198-.071,6.89-2.629,9.755-1.108,18.235,4.194,1.259.787,2.568,1.49,3.899.827,7.823-3.9,17.942,3.465,24.467,5.739,1.659-3.312,2.719-5.635,4.082-8.789,8.035-18.596,18.208-39.487,20.622-45.277,4.447-10.666,19.5-6,15.143,7.654-3.572,11.194-19.571,66.02-25.143,84.846"/><line class="uff5d" x1="178.5" y1="49.5" x2="167.5" y2="74"/><path class="uff5d" d="m146.5,61.5c-3.5,1.5-6,5.5-6,5.5"/><path class="uff5d" d="m124.5,56.5c-4.087,1.816-5.5,5.5-5.5,5.5"/><rect class="ua21c" x="12.5" y="64" width="52.5" height="40" rx="20" ry="20"/><polyline class="ua21c" points="63 88.668 74 79 63 79"/><path class="u388c" d="m39.522,95.639c-1.479.703-3.214.017-3.873-1.533-.66-1.549.005-3.375,1.484-4.078,1.479-.703,3.214-.017,3.873,1.533.66,1.55-.005,3.375-1.484,4.078Z"/><path class="u388c" d="m40.585,86.138c-.022.74-.639,1.322-1.379,1.3l-1.364-.085c-.74.004-1.343-.593-1.347-1.333l-.856-14.131c.022-.74.639-1.322,1.379-1.3l3.408.04c.74-.004,1.343.592,1.348,1.332l-1.188,14.177Z"/><rect class="ue04d" x="45" y="11" width="52.5" height="40" rx="20" ry="20"/><polyline class="ue04d" points="71.092 50.256 83.908 57.122 81.412 48.934"/><path class="u388c" d="m73.476,40.257c.002,1.558-1.141,2.735-2.657,2.737-1.478.002-2.638-1.176-2.64-2.681-.002-1.854,1.367-2.856,2.657-2.857,1.528-.002,2.638,1.176,2.64,2.802Z"/><path class="u388c" d="m77.807,24.182c.003,2.498-1.669,4.128-3.532,5.711-1.378,1.167-1.553,1.983-1.553,2.564,0,.13.018.261.035.405l.119.743c.058.36-.044.727-.279,1.005-.236.278-.582.438-.946.438l-1.803.002c-.602,0-1.118-.43-1.225-1.021-.168-.93-.213-1.179-.214-1.71-.002-1.79.827-3.336,2.689-5.014,1.646-1.467,2.229-2.128,2.227-2.924-.002-1.233-2.104-1.326-2.749-1.325-1.192.002-2.523.312-3.391.789-.302.165-.658.199-.985.093-.327-.107-.595-.345-.74-.656l-.651-1.393c-.283-.607-.035-1.328.561-1.633,1.526-.779,3.551-1.246,5.418-1.248,5.175-.007,7.015,2.784,7.018,5.176Z"/><rect class="uaa49" width="400" height="116"/></g></svg>
