<svg xmlns="http://www.w3.org/2000/svg" width="400" height="116"><defs><style>.ucf66,.u75de,.u40de,.ub33a{fill:none}.ucf66,.u75de,.u40de{stroke-width:3px;stroke-linecap:round}.u75de,.u40de{stroke-miterlimit:10}.ucf66,.u75de{stroke:#626262}.u40de{stroke:#ed6103}.ucf66{stroke-linejoin:round}.u4027{fill:#ed6103}.u0e69{fill:#fff}.u1587{fill:#626262}</style></defs><g><path d="M387.5 116V30.6c0-2-1-4-2.5-5.1L373 17l-1 99.2" class="u4027"/><path d="M240 116.2V21.8c0-3.5 2.7-6.3 6-6.3h123c3.3 0 6 2.8 6 6.3v94.4" style="fill:#fff;stroke:#626262;stroke-miterlimit:10;stroke-width:3px"/><path d="m260.1 37.7.3-.2h4.7c.2 0 .3 0 .3.3v17.5c0 .1-.1.2-.3.2H262a.3.3 0 0 1-.3-.2v-14l-.2-.1h-2.3c-.2 0-.4-.2-.3-.5l1.2-3ZM274.7 51.7h3.3c.1 0 .3.1.3.3v3.2c0 .2-.2.3-.3.3h-3.3a.3.3 0 0 1-.3-.3V52c0-.2.1-.3.3-.3ZM268.5 97c.2 0 .3 0 .3.2v3c0 .2 0 .3-.3.3h-12.1c-.3 0-.4-.3-.3-.4l7.8-9.9c.9-.9 1.1-1.5 1-2.2 0-1.3-1.1-2.3-2.4-2.3-1.5 0-2.5 1-2.7 2.4 0 .1-.1.3-.3.3h-3.1c-.2 0-.4-.2-.3-.4.2-3.3 2.8-6 6.4-6 3.3 0 6 2.7 6.2 5.6.1 1.2 0 2.8-1.4 4.3l-3.9 4.8s0 .2.2.2h5Z" class="u1587"/><rect width="3.8" height="3.8" x="274.4" y="96.7" class="u1587" rx=".3" ry=".3" transform="rotate(-.1 276 98.8)"/><path d="M285.8 34h69.7" class="u40de"/><path d="M296.5 44.6h59M311 55.2h44.7" class="u75de"/><path d="M285.8 79h69.7" class="u40de"/><path d="M296.5 89.6h59M311 100.2h44.7" class="u75de"/><path d="M194.5 119.2s18.4-13.6 23.2-17c10.3-7.2-.7-18.2-11.6-15C198 89.8 196 91 188 95l-94.5 23.2" style="fill:#fff;stroke-linejoin:round;stroke:#626262;stroke-width:3px"/><path d="m72.5 121 26.3-57.6c6.7-15.4 15.4-8.5 20.7-6.5a6 6 0 0 0 4.2 0c6.9-2.7 9.7-1.2 18.2 4.1 1.3.8 2.6 1.5 4 .8 7.8-3.9 17.9 3.5 24.4 5.8a155 155 0 0 0 4-8.8c8.1-18.6 18.3-39.5 20.7-45.3 4.4-10.7 19.5-6 15.1 7.7-3.5 11.1-19.5 66-25.1 84.8" style="fill:#fff;stroke-linejoin:round;stroke:#626262;stroke-linecap:round;stroke-width:3px"/><path d="m178.5 49.5-11 24.5M146.5 61.5c-3.5 1.5-6 5.5-6 5.5M124.5 56.5A11 11 0 0 0 119 62" class="ucf66"/><rect width="52.5" height="40" x="12.5" y="64" class="u1587" rx="20" ry="20"/><path d="M63 88.7 74 79H63" class="u1587"/><path d="M39.5 95.6c-1.5.7-3.2 0-3.9-1.5-.6-1.5 0-3.4 1.5-4 1.5-.8 3.2 0 4 1.5.6 1.5-.1 3.3-1.6 4ZM40.6 86.1c0 .8-.7 1.4-1.4 1.3h-1.4c-.7 0-1.3-.6-1.3-1.4L35.6 72c0-.8.7-1.3 1.4-1.3h3.4c.8 0 1.4.6 1.4 1.4L40.6 86Z" class="u0e69"/><rect width="52.5" height="40" x="45" y="11" class="u4027" rx="20" ry="20"/><path d="m71.1 50.3 12.8 6.8-2.5-8.2" class="u4027"/><path d="M73.5 40.3c0 1.5-1.2 2.7-2.7 2.7a2.6 2.6 0 0 1-2.6-2.7c0-1.8 1.3-2.8 2.6-2.8 1.6 0 2.7 1.1 2.7 2.8ZM77.8 24.2c0 2.5-1.7 4.1-3.5 5.7-1.4 1.2-1.6 2-1.6 2.6v.4l.2.7a1.2 1.2 0 0 1-1.2 1.4h-1.9c-.6 0-1-.4-1.2-1l-.2-1.7c0-1.8.8-3.3 2.7-5 1.6-1.5 2.2-2.1 2.2-3 0-1.2-2-1.2-2.7-1.2-1.2 0-2.5.3-3.4.7a1.2 1.2 0 0 1-1.7-.5l-.7-1.4c-.3-.6 0-1.3.6-1.6 1.5-.8 3.5-1.3 5.4-1.3 5.2 0 7 2.8 7 5.2Z" class="u0e69"/></g></svg>
