<svg xmlns="http://www.w3.org/2000/svg" viewBox="0 0 209.5 72.2"><g fill="#ed6103"><path d="M15 38.5H19a.4.4 0 0 1 .3.4v14a.5.5 0 0 0 .6.5H29a.4.4 0 0 1 .4.3v3.9a.4.4 0 0 1-.4.3h-13a1.4 1.4 0 0 1-1.4-1.4V39a.4.4 0 0 1 .3-.4M38.7 57.6v-3.9a.4.4 0 0 1 .3-.3h14a.5.5 0 0 0 .5-.6v-9.3a.4.4 0 0 1 .4-.4h3.9a.4.4 0 0 1 .3.4v13a1.4 1.4 0 0 1-1.4 1.4H39a.4.4 0 0 1-.3-.3M57.8 34h-4a.4.4 0 0 1-.3-.4v-14a.5.5 0 0 0-.5-.5h-9.4a.4.4 0 0 1-.3-.4V15a.4.4 0 0 1 .3-.4h13a1.4 1.4 0 0 1 1.5 1.4v17.7a.4.4 0 0 1-.3.3M34 14.9v3.8a.4.4 0 0 1-.3.4h-14a.5.5 0 0 0-.4.5V29a.4.4 0 0 1-.4.3H15a.4.4 0 0 1-.3-.3V16a1.4 1.4 0 0 1 1.4-1.5h17.6a.4.4 0 0 1 .4.4M94.9 26.5h3.9a.4.4 0 0 1 .3.4v18.7a.4.4 0 0 1-.3.3h-3.9a.4.4 0 0 1-.4-.3V26.9a.4.4 0 0 1 .4-.4M158.9 26.5h3.8a.4.4 0 0 1 .4.4v14a.5.5 0 0 0 .5.4h9.4a.4.4 0 0 1 .3.4v3.9a.4.4 0 0 1-.3.3h-13a1.4 1.4 0 0 1-1.5-1.4V27a.4.4 0 0 1 .4-.4M180.2 26.5h3.9a.4.4 0 0 1 .3.4v14a.5.5 0 0 0 .5.4h9.4a.4.4 0 0 1 .4.4v3.9a.4.4 0 0 1-.4.3h-13a1.4 1.4 0 0 1-1.5-1.4V27a.4.4 0 0 1 .4-.4M73.3 26.5h3.9a.4.4 0 0 1 .3.4v14a.5.5 0 0 0 .6.4h9.3a.4.4 0 0 1 .4.4v3.9a.4.4 0 0 1-.4.3h-13a1.4 1.4 0 0 1-1.5-1.4V27a.4.4 0 0 1 .4-.4M150.9 36.2V27a.4.4 0 0 0-.4-.4h-3.9a.4.4 0 0 0-.3.4v9.3c0 4-2.6 5.7-5.7 5.7S135 40 135 36.2V27a.4.4 0 0 0-.4-.4h-3.9a.4.4 0 0 0-.3.4v9.3a10.2 10.2 0 1 0 20.5 0M123 26.5a.4.4 0 0 1 .4.4v3.9a.4.4 0 0 1-.3.3h-9.4a.5.5 0 0 0-.5.5v2.2a.2.2 0 0 0 .2.1h9.7a.4.4 0 0 1 .3.4v3.9a.4.4 0 0 1-.3.3h-9.7a.2.2 0 0 0-.2.2v6.9a.4.4 0 0 1-.4.3H109a.4.4 0 0 1-.3-.3V27.9a1.4 1.4 0 0 1 1.4-1.4Z"/></g></svg>