<svg xmlns="http://www.w3.org/2000/svg" viewBox="0 0 24 24"><g fill="#626262"><path class="st0" d="m10.3 14.55-.85-.85a.43.43 0 0 1 0-.57l3.68-3.68a.43.43 0 0 1 .57 0l.85.85c.14.14.14.43 0 .57l-3.68 3.68a.43.43 0 0 1-.57 0z"/><path class="st0" d="M18.36 5.64c-1.76-1.77-5.3-1.77-7.07 0L9.45 7.47a.43.43 0 0 0 0 .57l.85.85c.14.14.43.14.57 0l1.84-1.84c1.06-1.06 3.18-1.06 4.24 0s1.06 3.18 0 4.24l-1.84 1.84a.43.43 0 0 0 0 .57l.85.85c.14.14.42.14.57 0l1.83-1.84c1.77-1.77 1.77-5.3 0-7.07zM5.64 18.36c1.76 1.77 5.3 1.77 7.07 0l1.84-1.83a.43.43 0 0 0 0-.57l-.85-.85a.43.43 0 0 0-.57 0l-1.84 1.84c-1.06 1.06-3.18 1.06-4.24 0s-1.06-3.18 0-4.24l1.84-1.84a.43.43 0 0 0 0-.57l-.85-.85a.43.43 0 0 0-.57 0L5.64 11.3c-1.77 1.77-1.77 5.3 0 7.07z"/></g></svg>
