<svg xmlns="http://www.w3.org/2000/svg" viewBox="0 0 201.03 15.55"><path  d="M6.48.77a.14.14 0 0 0-.15-.11H4.72a.17.17 0 0 0-.15.1L.02 12.47a.17.17 0 0 0 .15.23H1.8c.08 0 .12-.05.15-.11l.94-2.34c.02-.03.02-.05.05-.05h5.17c.03 0 .03.02.05.05l.94 2.34a.17.17 0 0 0 .14.1h1.64a.18.18 0 0 0 .16-.22ZM3.6 8.48c-.02 0-.05 0-.04-.03L5.5 3.52q.03-.05.05 0l1.94 4.93c.01.03 0 .03-.02.03Zm12.96 4.54a4.82 4.82 0 0 0 3.3-1.3.16.16 0 0 0 0-.25l-1-1a.2.2 0 0 0-.25-.02 3.17 3.17 0 0 1-2.15.78 3.13 3.13 0 0 1-3.02-2.96 3.14 3.14 0 0 1 3.07-3.25 3.06 3.06 0 0 1 2.1.8.18.18 0 0 0 .25-.01l1-1.02a.17.17 0 0 0 0-.26 4.84 4.84 0 0 0-3.4-1.3 4.9 4.9 0 0 0-4.8 4.74 4.9 4.9 0 0 0 4.9 5.05Zm9.39 0a4.82 4.82 0 0 0 3.31-1.3.16.16 0 0 0 0-.25l-1-1a.2.2 0 0 0-.26-.02 3.17 3.17 0 0 1-2.15.78 3.13 3.13 0 0 1-3.02-2.96 3.14 3.14 0 0 1 3.07-3.25 3.06 3.06 0 0 1 2.1.8.18.18 0 0 0 .26-.01l1-1.02a.17.17 0 0 0 0-.26 4.84 4.84 0 0 0-3.4-1.3 4.9 4.9 0 0 0-4.8 4.74 4.9 4.9 0 0 0 4.89 5.05Zm8.94-9.79a4.7 4.7 0 0 0-4.52 4.88 5.01 5.01 0 0 0 4.96 4.9 4.94 4.94 0 0 0 3.39-1.23.18.18 0 0 0 .01-.28l-.99-.99a.17.17 0 0 0-.24-.01 3.2 3.2 0 0 1-2.17.76 3.17 3.17 0 0 1-2.96-2.16c-.02-.04.01-.04.03-.04h7.07c.14 0 .29-.13.32-.37a1.74 1.74 0 0 1 .02-.3 5.01 5.01 0 0 0-1.43-3.87 4.82 4.82 0 0 0-3.49-1.29ZM32.25 7.6c-.03 0-.04-.02-.04-.07v-.06a2.87 2.87 0 0 1 2.9-2.48 2.76 2.76 0 0 1 1.91.7 3.1 3.1 0 0 1 .95 1.84c0 .03 0 .06-.02.06Zm13.14-.1c-1.17-.34-2.45-.67-2.3-1.6.11-.74 1.07-1 2-.95a4.19 4.19 0 0 1 2.05.7.15.15 0 0 0 .2-.03l1.03-1.04a.17.17 0 0 0-.02-.24 5.64 5.64 0 0 0-3.52-1.12 4.15 4.15 0 0 0-2.38.67 2.61 2.61 0 0 0-1.14 1.84c-.2 1.64 1.15 2.48 2.93 3.01 1.7.48 2.5.95 2.42 1.6-.1.75-.92 1-2.04.95a3.2 3.2 0 0 1-2.06-.72.18.18 0 0 0-.2.03l-1.02 1.03a.17.17 0 0 0 0 .25 5.4 5.4 0 0 0 3.52 1.14c2.1 0 3.43-1.04 3.57-2.51.11-1.28-.6-2.32-3.04-3.01Zm8.97 0c-1.16-.34-2.44-.67-2.3-1.6.12-.74 1.08-1 2-.95a4.19 4.19 0 0 1 2.05.7.15.15 0 0 0 .21-.03l1.02-1.04a.17.17 0 0 0-.01-.24 5.64 5.64 0 0 0-3.52-1.12 4.15 4.15 0 0 0-2.4.68 2.61 2.61 0 0 0-1.13 1.84c-.2 1.63 1.16 2.48 2.94 3 1.7.49 2.5.95 2.41 1.6-.1.76-.9 1-2.03.95a3.2 3.2 0 0 1-2.06-.72.18.18 0 0 0-.21.03l-1.01 1.03a.17.17 0 0 0 0 .25 5.4 5.4 0 0 0 3.52 1.14c2.1 0 3.42-1.04 3.56-2.51.12-1.28-.58-2.32-3.03-3.01Zm6.98-5.35a.15.15 0 0 0 .16-.16V.16a.15.15 0 0 0-.16-.16h-1.63a.15.15 0 0 0-.16.16v1.83a.15.15 0 0 0 .16.16ZM61.3 12.7a.15.15 0 0 0 .16-.16V3.66a.15.15 0 0 0-.16-.16h-1.53a.15.15 0 0 0-.16.16v8.87a.15.15 0 0 0 .16.16Zm2.63-.16a.15.15 0 0 0 .16.16h1.58a.07.07 0 0 0 .07-.07v-1.26a3.8 3.8 0 0 0 3 1.49 4.75 4.75 0 0 0 4.82-4.9 4.71 4.71 0 0 0-4.66-4.6 3.96 3.96 0 0 0-3.17 1.48V.16a.15.15 0 0 0-.16-.16h-1.48a.15.15 0 0 0-.16.16Zm4.99-7.4a2.96 2.96 0 0 1 2.86 2.84 3 3 0 0 1-3.08 3.1 2.97 2.97 0 0 1-2.84-2.9 2.95 2.95 0 0 1 3.06-3.03Zm8.35-2.99a.15.15 0 0 0 .16-.16V.16a.15.15 0 0 0-.16-.16h-1.63a.15.15 0 0 0-.16.16v1.83a.15.15 0 0 0 .16.16Zm-.04 10.55a.15.15 0 0 0 .16-.16V3.66a.15.15 0 0 0-.16-.16h-1.54a.15.15 0 0 0-.16.16v8.87a.15.15 0 0 0 .16.16Zm2.7-.16a.15.15 0 0 0 .16.16h1.54a.15.15 0 0 0 .16-.16V.16a.15.15 0 0 0-.16-.16h-1.54a.15.15 0 0 0-.16.16Zm6.14-10.39a.15.15 0 0 0 .16-.16V.16a.15.15 0 0 0-.16-.16h-1.63a.15.15 0 0 0-.16.16v1.83a.15.15 0 0 0 .16.16Zm-.04 10.55a.15.15 0 0 0 .16-.16V3.66a.15.15 0 0 0-.16-.16h-1.54a.15.15 0 0 0-.16.16v8.87a.15.15 0 0 0 .16.16Zm6.14-7.27a.07.07 0 0 1 .06-.06h1.94a.15.15 0 0 0 .16-.16V3.66a.15.15 0 0 0-.16-.16h-1.94a.07.07 0 0 1-.07-.06V.16A.15.15 0 0 0 92 0h-1.53a.15.15 0 0 0-.16.16v3.28a.07.07 0 0 1-.06.06h-1.95a.17.17 0 0 0-.17.16V5.2a.17.17 0 0 0 .16.16h1.96a.07.07 0 0 1 .06.06v3.5a3.9 3.9 0 0 0 1.25 3.22 4.25 4.25 0 0 0 2.6.85.16.16 0 0 0 .17-.16v-1.55a.14.14 0 0 0-.16-.16 2.21 2.21 0 0 1-1.44-.46 2.06 2.06 0 0 1-.56-1.75Zm10.5-1.92a.2.2 0 0 0-.16.12l-2.42 6.16a.04.04 0 0 1-.08 0L97.6 3.62a.2.2 0 0 0-.16-.12h-1.6a.16.16 0 0 0-.15.23l3.39 8.85-1.05 2.73a.2.2 0 0 0 .17.24h1.59a.2.2 0 0 0 .17-.14l4.45-11.68a.16.16 0 0 0-.16-.23Zm20.68 2.84a.52.52 0 0 0-.54-.48h-5.47a.15.15 0 0 0-.16.16v1.34a.15.15 0 0 0 .16.16h4.05a4.15 4.15 0 0 1-4.26 3.63 4.49 4.49 0 0 1-4.42-4.29 4.47 4.47 0 0 1 4.46-4.65 4.35 4.35 0 0 1 3.06 1.2c.06.06.16.05.24-.03l1.07-1.06a.16.16 0 0 0-.01-.22 6.33 6.33 0 0 0-4.47-1.73 6.34 6.34 0 0 0-6.2 5.97 6.33 6.33 0 0 0 6.31 6.67 6.15 6.15 0 0 0 6.1-5.4 7.26 7.26 0 0 0 .08-1.27Zm6.22 6.41a3.8 3.8 0 0 0 2.88-1.26v1.13a.07.07 0 0 0 .07.07h1.63a.15.15 0 0 0 .16-.16V3.66a.15.15 0 0 0-.16-.16h-1.53a.15.15 0 0 0-.17.16V7.7a3.15 3.15 0 0 1-.88 2.38 2.73 2.73 0 0 1-1.8.78 2.8 2.8 0 0 1-1.95-.75 2.59 2.59 0 0 1-.82-2.08V3.66a.15.15 0 0 0-.16-.16h-1.54a.15.15 0 0 0-.16.16v4.55a4.52 4.52 0 0 0 4.44 4.54Zm8.9-10.6a.15.15 0 0 0 .16-.17V.16a.15.15 0 0 0-.16-.16h-1.63a.15.15 0 0 0-.16.16v1.83a.15.15 0 0 0 .16.16Zm-.04 10.54a.15.15 0 0 0 .16-.16V3.66a.15.15 0 0 0-.16-.16h-1.54a.15.15 0 0 0-.16.16v8.87a.15.15 0 0 0 .16.16ZM150.16.16A.15.15 0 0 0 150 0h-1.5a.15.15 0 0 0-.15.16v4.67a3.96 3.96 0 0 0-3.17-1.47 4.71 4.71 0 0 0-4.66 4.6 4.75 4.75 0 0 0 4.82 4.9 3.8 3.8 0 0 0 3-1.5v1.26a.07.07 0 0 0 .08.07H150a.15.15 0 0 0 .16-.16Zm-5 4.98a2.95 2.95 0 0 1 3.06 3.04 2.97 2.97 0 0 1-2.83 2.9 3 3 0 0 1-3.09-3.1 2.96 2.96 0 0 1 2.86-2.84Zm11.35-1.9a4.7 4.7 0 0 0-4.53 4.88 5.01 5.01 0 0 0 4.96 4.9 4.94 4.94 0 0 0 3.4-1.24.18.18 0 0 0 0-.27l-.98-.99a.17.17 0 0 0-.24-.02 3.2 3.2 0 0 1-2.18.77 3.17 3.17 0 0 1-2.96-2.16c-.01-.05.02-.05.03-.05h7.08c.14 0 .28-.12.32-.36a1.74 1.74 0 0 1 .01-.3A5.01 5.01 0 0 0 160 4.52a4.82 4.82 0 0 0-3.5-1.29Zm-2.64 4.35c-.03 0-.05-.02-.05-.07v-.06a2.87 2.87 0 0 1 2.9-2.48 2.76 2.76 0 0 1 1.92.7 3.1 3.1 0 0 1 .95 1.84c0 .03 0 .06-.02.06Zm9.5 4.94a.15.15 0 0 0 .16.16h1.53a.15.15 0 0 0 .16-.16V.16a.15.15 0 0 0-.16-.16h-1.53a.15.15 0 0 0-.16.16Zm6.15-10.39a.15.15 0 0 0 .16-.16V.16a.15.15 0 0 0-.16-.16h-1.64a.15.15 0 0 0-.16.16v1.83a.15.15 0 0 0 .16.16Zm-.05 10.55a.15.15 0 0 0 .16-.16V3.66a.15.15 0 0 0-.16-.16h-1.54a.15.15 0 0 0-.16.16v8.87a.15.15 0 0 0 .16.16Zm2.62-.16a.15.15 0 0 0 .16.16h1.54a.15.15 0 0 0 .16-.16V8.56a2.87 2.87 0 0 1 2.7-3.15 2.68 2.68 0 0 1 2.78 2.81v4.3a.15.15 0 0 0 .16.16h1.54a.15.15 0 0 0 .16-.16V8.06a4.51 4.51 0 0 0-4.42-4.54 3.89 3.89 0 0 0-2.92 1.27V3.57a.07.07 0 0 0-.07-.07h-1.63a.15.15 0 0 0-.16.16Zm15.4-9.3a4.7 4.7 0 0 0-4.53 4.88 5.01 5.01 0 0 0 4.96 4.9 4.94 4.94 0 0 0 3.39-1.23.18.18 0 0 0 .01-.28l-.99-.99a.17.17 0 0 0-.24-.01 3.2 3.2 0 0 1-2.17.76 3.17 3.17 0 0 1-2.96-2.16c-.02-.04.01-.04.03-.04h7.07c.15 0 .29-.13.32-.37a1.74 1.74 0 0 1 .02-.3 5.01 5.01 0 0 0-1.43-3.87 4.82 4.82 0 0 0-3.49-1.29Zm-2.65 4.36c-.03 0-.04-.02-.04-.07v-.06a2.87 2.87 0 0 1 2.9-2.48 2.76 2.76 0 0 1 1.92.7 3.1 3.1 0 0 1 .94 1.84c0 .03 0 .06-.02.06Zm13.14-.1c-1.17-.34-2.45-.67-2.3-1.6.11-.74 1.07-1 2-.95a4.19 4.19 0 0 1 2.05.7.15.15 0 0 0 .2-.03l1.03-1.04a.17.17 0 0 0-.02-.24 5.64 5.64 0 0 0-3.52-1.12 4.15 4.15 0 0 0-2.38.67 2.61 2.61 0 0 0-1.13 1.84c-.21 1.64 1.15 2.48 2.92 3.01 1.7.48 2.5.95 2.42 1.6-.1.75-.91 1-2.03.95a3.2 3.2 0 0 1-2.07-.72.18.18 0 0 0-.2.03l-1.01 1.02a.17.17 0 0 0 0 .26 5.4 5.4 0 0 0 3.51 1.14c2.1 0 3.43-1.04 3.57-2.51.11-1.28-.6-2.32-3.04-3.01Z" fill="#ed6103"/></svg>
