<svg xmlns="http://www.w3.org/2000/svg" viewBox="0 0 182.72 67.56"><path d="M11.33 1.34a.24.24 0 0 0-.25-.2H8.25a.3.3 0 0 0-.25.2L.02 21.81a.29.29 0 0 0 .28.4h2.85c.14 0 .2-.09.26-.2l1.65-4.09c.03-.06.03-.08.09-.08h9.04c.06 0 .06.02.08.08L15.93 22a.3.3 0 0 0 .25.2h2.85a.31.31 0 0 0 .28-.39ZM6.3 14.84c-.02 0-.08 0-.05-.06l3.39-8.62q.04-.08.08 0l3.39 8.62c.03.06 0 .06-.03.06Zm22.68 7.95a8.44 8.44 0 0 0 5.8-2.3.28.28 0 0 0 0-.42l-1.76-1.76a.34.34 0 0 0-.46-.03 5.54 5.54 0 0 1-3.75 1.38 5.48 5.48 0 0 1-5.29-5.18 5.5 5.5 0 0 1 5.38-5.69 5.36 5.36 0 0 1 3.66 1.4.32.32 0 0 0 .45-.03l1.77-1.79a.3.3 0 0 0 0-.45 8.47 8.47 0 0 0-5.97-2.26 8.57 8.57 0 0 0-8.4 8.28 8.56 8.56 0 0 0 8.57 8.85Zm16.44 0a8.44 8.44 0 0 0 5.8-2.3.28.28 0 0 0 0-.42l-1.77-1.76a.34.34 0 0 0-.45-.03 5.54 5.54 0 0 1-3.75 1.38 5.48 5.48 0 0 1-5.29-5.18 5.5 5.5 0 0 1 5.38-5.69A5.36 5.36 0 0 1 49 10.2a.32.32 0 0 0 .45-.03l1.76-1.79a.3.3 0 0 0 0-.45 8.47 8.47 0 0 0-5.96-2.26 8.57 8.57 0 0 0-8.4 8.28 8.56 8.56 0 0 0 8.56 8.85ZM61.06 5.66a8.23 8.23 0 0 0-7.92 8.54 8.78 8.78 0 0 0 8.68 8.56 8.65 8.65 0 0 0 5.93-2.16.32.32 0 0 0 .03-.47l-1.73-1.73a.3.3 0 0 0-.42-.03 5.6 5.6 0 0 1-3.81 1.34 5.56 5.56 0 0 1-5.18-3.78c-.03-.08.03-.08.05-.08h12.38c.25 0 .5-.23.56-.65a3.05 3.05 0 0 1 .03-.53 8.77 8.77 0 0 0-2.5-6.77 8.43 8.43 0 0 0-6.1-2.24Zm-4.62 7.61c-.05 0-.08-.03-.08-.11v-.11a5.01 5.01 0 0 1 5.07-4.34 4.83 4.83 0 0 1 3.36 1.23 5.44 5.44 0 0 1 1.65 3.22c0 .06 0 .11-.03.11Zm22.99-.17c-2.04-.58-4.28-1.17-4.03-2.8.2-1.28 1.87-1.73 3.5-1.65a7.33 7.33 0 0 1 3.58 1.23.27.27 0 0 0 .37-.05L84.64 8a.3.3 0 0 0-.03-.42 9.87 9.87 0 0 0-6.16-1.96 7.26 7.26 0 0 0-4.17 1.17 4.57 4.57 0 0 0-1.99 3.22c-.36 2.86 2.02 4.34 5.12 5.27 2.97.84 4.37 1.65 4.23 2.8-.17 1.31-1.6 1.73-3.55 1.65a5.6 5.6 0 0 1-3.62-1.26.3.3 0 0 0-.36.06l-1.76 1.79a.3.3 0 0 0 0 .45 9.45 9.45 0 0 0 6.16 1.98c3.66 0 5.99-1.82 6.24-4.4.2-2.23-1.04-4.06-5.32-5.26Zm15.7 0c-2.04-.58-4.28-1.17-4.02-2.8.2-1.28 1.87-1.73 3.5-1.65a7.33 7.33 0 0 1 3.58 1.23.27.27 0 0 0 .36-.05l1.8-1.82a.3.3 0 0 0-.03-.42 9.87 9.87 0 0 0-6.17-1.96A7.26 7.26 0 0 0 90 6.8a4.57 4.57 0 0 0-2 3.22c-.36 2.86 2.02 4.34 5.13 5.27 2.97.84 4.37 1.65 4.23 2.8-.17 1.31-1.6 1.73-3.56 1.65a5.6 5.6 0 0 1-3.6-1.26.3.3 0 0 0-.37.06l-1.77 1.79a.3.3 0 0 0 0 .45 9.45 9.45 0 0 0 6.16 1.98c3.67 0 6-1.82 6.25-4.4.2-2.23-1.04-4.06-5.32-5.26Zm12.22-9.35a.27.27 0 0 0 .28-.28V.28a.27.27 0 0 0-.28-.28h-2.86a.27.27 0 0 0-.28.28v3.2a.27.27 0 0 0 .28.27Zm-.09 18.45a.27.27 0 0 0 .28-.28V6.42a.27.27 0 0 0-.28-.29h-2.69a.27.27 0 0 0-.28.28v15.51a.27.27 0 0 0 .28.28Zm4.6-.28a.27.27 0 0 0 .27.28h2.78a.12.12 0 0 0 .1-.1v-2.22a6.66 6.66 0 0 0 5.27 2.6 8.31 8.31 0 0 0 8.43-8.57 8.24 8.24 0 0 0-8.15-8.03c-2.13 0-4.53 1-5.54 2.57V.28a.27.27 0 0 0-.28-.28h-2.6a.27.27 0 0 0-.28.28ZM120.58 9a5.19 5.19 0 0 1 5.01 4.95 5.24 5.24 0 0 1-5.4 5.44 5.2 5.2 0 0 1-4.96-5.08A5.16 5.16 0 0 1 120.6 9Zm14.62-5.24a.27.27 0 0 0 .28-.28V.28a.27.27 0 0 0-.28-.28h-2.86a.27.27 0 0 0-.28.28v3.2a.27.27 0 0 0 .28.27Zm-.09 18.45a.27.27 0 0 0 .28-.28V6.42a.27.27 0 0 0-.28-.29h-2.69a.27.27 0 0 0-.28.28v15.51a.27.27 0 0 0 .28.28Zm4.73-.28a.27.27 0 0 0 .28.28h2.7a.27.27 0 0 0 .27-.28V.28a.27.27 0 0 0-.28-.28h-2.69a.27.27 0 0 0-.28.28Zm10.76-18.17a.27.27 0 0 0 .28-.28V.28a.27.27 0 0 0-.28-.28h-2.86a.27.27 0 0 0-.28.28v3.2a.27.27 0 0 0 .28.27Zm-.09 18.45a.27.27 0 0 0 .28-.28V6.42a.27.27 0 0 0-.28-.29h-2.69a.27.27 0 0 0-.28.28v15.51a.27.27 0 0 0 .28.28Zm10.75-12.7a.12.12 0 0 1 .12-.12h3.38a.27.27 0 0 0 .28-.28V6.41a.27.27 0 0 0-.28-.28h-3.38a.12.12 0 0 1-.12-.11V.28A.27.27 0 0 0 161 0h-2.68a.27.27 0 0 0-.28.28v5.74a.12.12 0 0 1-.12.11h-3.41a.3.3 0 0 0-.28.28v2.7a.3.3 0 0 0 .28.27h3.41a.12.12 0 0 1 .12.12v6.1c0 2.15.47 4.34 2.18 5.65a7.44 7.44 0 0 0 4.54 1.49.29.29 0 0 0 .3-.28v-2.72a.25.25 0 0 0-.28-.28 3.87 3.87 0 0 1-2.52-.81c-1-.79-.98-2.13-.98-3.05Zm18.37-3.37a.34.34 0 0 0-.28.2l-4.23 10.77a.08.08 0 0 1-.14 0l-4.22-10.78a.34.34 0 0 0-.28-.2h-2.78a.28.28 0 0 0-.28.4L173.37 22l-1.85 4.8a.34.34 0 0 0 .31.41h2.77a.36.36 0 0 0 .31-.25l7.78-20.44a.28.28 0 0 0-.28-.4ZM22.45 55.9a.9.9 0 0 0-.95-.84h-9.58a.27.27 0 0 0-.28.28v2.35a.27.27 0 0 0 .28.28h7.09a7.26 7.26 0 0 1-7.46 6.36 7.83 7.83 0 0 1 .09-15.66 7.6 7.6 0 0 1 5.35 2.1c.1.12.28.09.42-.05l1.87-1.85a.27.27 0 0 0-.03-.4 11.07 11.07 0 1 0-7.61 19.1 10.77 10.77 0 0 0 10.67-9.43 12.71 12.71 0 0 0 .14-2.24Zm10.9 11.23a6.64 6.64 0 0 0 5.03-2.22v2a.12.12 0 0 0 .11.1h2.86a.27.27 0 0 0 .28-.28v-15.5a.27.27 0 0 0-.28-.29h-2.69a.27.27 0 0 0-.28.28v7.06a5.51 5.51 0 0 1-1.54 4.17 4.78 4.78 0 0 1-3.16 1.37 4.9 4.9 0 0 1-3.42-1.31 4.53 4.53 0 0 1-1.43-3.64V51.2a.27.27 0 0 0-.28-.28h-2.68a.27.27 0 0 0-.28.28v7.95a7.9 7.9 0 0 0 7.75 7.96ZM48.9 48.55a.27.27 0 0 0 .28-.28v-3.19a.27.27 0 0 0-.28-.28h-2.86a.27.27 0 0 0-.28.28v3.2a.27.27 0 0 0 .28.27ZM48.83 67a.27.27 0 0 0 .28-.28v-15.5a.27.27 0 0 0-.28-.29h-2.7a.27.27 0 0 0-.27.28v15.51a.27.27 0 0 0 .28.28Zm20.55-21.92a.27.27 0 0 0-.28-.28h-2.6a.27.27 0 0 0-.28.28v8.18c-1.01-1.57-3.42-2.58-5.55-2.58a8.3 8.3 0 0 0 .28 16.6 6.66 6.66 0 0 0 5.27-2.6v2.21a.12.12 0 0 0 .11.11h2.77a.27.27 0 0 0 .28-.28Zm-8.74 8.7a5.2 5.2 0 0 1 .4 10.4 5.24 5.24 0 0 1-5.4-5.44 5.19 5.19 0 0 1 5-4.95Zm19.85-3.32A8.23 8.23 0 0 0 72.57 59a8.78 8.78 0 0 0 8.68 8.56 8.65 8.65 0 0 0 5.94-2.16.32.32 0 0 0 .02-.47l-1.73-1.74a.3.3 0 0 0-.42-.03 5.65 5.65 0 0 1-8.99-2.43c-.03-.09.03-.09.06-.09H88.5c.25 0 .5-.22.56-.64a3.05 3.05 0 0 1 .03-.53 8.77 8.77 0 0 0-2.5-6.78 8.43 8.43 0 0 0-6.1-2.23Zm-4.62 7.61c-.05 0-.08-.03-.08-.11v-.11a5.01 5.01 0 0 1 5.06-4.35 4.83 4.83 0 0 1 3.36 1.24 5.44 5.44 0 0 1 1.66 3.22c0 .05 0 .1-.03.1Zm16.64 8.65a.27.27 0 0 0 .28.28h2.68a.27.27 0 0 0 .28-.28V45.08a.27.27 0 0 0-.28-.28H92.8a.27.27 0 0 0-.28.28Zm10.74-18.17a.27.27 0 0 0 .28-.28v-3.19a.27.27 0 0 0-.28-.28h-2.85a.27.27 0 0 0-.28.28v3.2a.27.27 0 0 0 .28.27ZM103.17 67a.27.27 0 0 0 .28-.28v-15.5a.27.27 0 0 0-.28-.29h-2.68a.27.27 0 0 0-.28.28v15.51a.27.27 0 0 0 .28.28Zm4.6-.28a.27.27 0 0 0 .28.28h2.68a.27.27 0 0 0 .28-.28v-6.94c0-3.02 1.8-5.43 4.74-5.52a4.69 4.69 0 0 1 4.87 4.93v7.53a.27.27 0 0 0 .28.28h2.69a.27.27 0 0 0 .28-.28v-7.8a7.9 7.9 0 0 0-7.73-7.96 6.8 6.8 0 0 0-5.13 2.21v-2.13a.12.12 0 0 0-.1-.1h-2.86a.27.27 0 0 0-.28.27Zm26.93-16.26a8.23 8.23 0 0 0-7.92 8.54 8.78 8.78 0 0 0 8.68 8.56 8.65 8.65 0 0 0 5.93-2.16.32.32 0 0 0 .03-.47l-1.73-1.74a.3.3 0 0 0-.42-.03 5.65 5.65 0 0 1-9-2.43c-.02-.09.04-.09.06-.09h12.38c.25 0 .5-.22.56-.64a3.05 3.05 0 0 1 .03-.53 8.77 8.77 0 0 0-2.5-6.78 8.43 8.43 0 0 0-6.1-2.23Zm-4.62 7.61c-.05 0-.08-.03-.08-.11v-.11a5.01 5.01 0 0 1 5.07-4.34 4.83 4.83 0 0 1 3.36 1.23 5.44 5.44 0 0 1 1.65 3.22c0 .06 0 .11-.03.11Zm22.99-.17c-2.04-.58-4.28-1.17-4.03-2.8.2-1.28 1.87-1.73 3.5-1.65a7.33 7.33 0 0 1 3.58 1.23.27.27 0 0 0 .37-.05l1.79-1.82a.3.3 0 0 0-.03-.42 9.87 9.87 0 0 0-6.16-1.96 7.26 7.26 0 0 0-4.17 1.17 4.57 4.57 0 0 0-1.99 3.22c-.36 2.86 2.02 4.34 5.12 5.27 2.97.84 4.37 1.65 4.23 2.8-.17 1.31-1.6 1.73-3.55 1.65a5.6 5.6 0 0 1-3.62-1.26.3.3 0 0 0-.36.06l-1.76 1.79a.3.3 0 0 0 0 .45 9.45 9.45 0 0 0 6.16 1.98c3.66 0 5.99-1.82 6.24-4.4.2-2.23-1.04-4.06-5.32-5.26Z" fill="#ed6103"/></svg>
