<svg xmlns="http://www.w3.org/2000/svg" viewBox="0 0 400 260"><defs><style>.cls-1,.cls-4,.cls-6,.cls-7{fill:#fff;}.cls-1,.cls-4,.cls-7{stroke:#626262;}.cls-1,.cls-3,.cls-7,.cls-8{stroke-miterlimit:10;}.cls-1,.cls-3,.cls-4,.cls-7{stroke-width:3px;}.cls-2{fill:#626262;}.cls-3,.cls-8{fill:none;stroke:#ed6103;}.cls-3,.cls-4,.cls-7,.cls-8{stroke-linecap:round;}.cls-4{stroke-linejoin:round;}.cls-5{fill:#ed6103;}.cls-8{stroke-width:7.15px;}</style></defs><path class="cls-1" d="M213.5,170.5l5.86-22.74a3.89,3.89,0,0,0-2.43-4.75h0a3.9,3.9,0,0,0-4.76,1.89L197.5,177.5c-.26.5-.95-.21-1,.35l-3.12,22.4a3.89,3.89,0,0,0,2.58,3.81l5.51,8.44a27.84,27.84,0,0,0,9.47,1.79,11.44,11.44,0,0,0,9.62-5.78l11.21-19.2a3.83,3.83,0,0,0-1.52-4.93l-15.77-9.72C213,173.74,213,172.18,213.5,170.5Z"/><path class="cls-1" d="M158.29,95.32a48.52,48.52,0,0,0,.83-8.92h0a48,48,0,0,0-20.05-39,49.25,49.25,0,0,0-7.08-4.2c-.37-.18-.74-.37-1.11-.54a48,48,0,0,0-19.36-4.24h-3.18a48,48,0,0,0-48,48h0a48.52,48.52,0,0,0,.89,9.25c-4.64,2.29-7.77,6.56-7.77,11.47,0,6,4.66,11,11.06,12.68A45.26,45.26,0,0,0,96,159.6l-4.62,27.51a1.13,1.13,0,0,0-.1.44h0l-.42,1.93h2.47c3.07,1.37,9.27,2.3,16.42,2.3s13.35-.93,16.42-2.3h2.48l-.42-2a1,1,0,0,0-.08-.38l-4.6-27.34a45.22,45.22,0,0,0,32.16-40c6.4-1.64,11.06-6.69,11.06-12.68C166.77,102,163.32,97.51,158.29,95.32Z"/><circle class="cls-2" cx="93.02" cy="104.17" r="4.1"/><circle class="cls-2" cx="127.24" cy="104.17" r="4.1"/><path class="cls-3" d="M97.51,132a14.65,14.65,0,0,0,25,0"/><path class="cls-2" d="M151,185.34l-23.62-4.77-2,2.88c-2.92,2-7.42,3.35-15.55,3.37h-.26c-8.24,0-12.85-1.38-15.81-3.38l-2-2.76-23.09,4.65a62.89,62.89,0,0,0-48,54.66H199A62.89,62.89,0,0,0,151,185.34Z"/><path class="cls-4" d="M150.44,93.23a41.71,41.71,0,0,1-26-27.35C114.35,88,83.5,93.21,70.4,94.43"/><circle class="cls-5" cx="356" cy="216" r="24"/><rect class="cls-6" x="347.5" y="206" width="5" height="20" rx="1"/><rect class="cls-6" x="359.5" y="206" width="5" height="20" rx="1"/><path class="cls-7" d="M205.5,186.5l-5.62-7.13a7.71,7.71,0,0,1-.52-.75l-6.66-10.75a3.94,3.94,0,0,0-5.35-1.31h0a3.94,3.94,0,0,0-1.78,4.47l5.57,26.52s1,7.83,11.77,11.67"/><path class="cls-1" d="M233.26,181.63c-2.76-4.13-10.34-13.5-12.51-14.51a4.47,4.47,0,0,0-5.83,1.92l-4.2,8.23c-1.05,2.06.25,3.88,2,5.56s10.52,9.42,12.24,10.53a4.07,4.07,0,0,0,5.48-1l3.88-5.49C235.54,185.13,234.5,183.5,233.26,181.63Z"/><polygon class="cls-2" points="209 240 174 240 192.79 202.43 216.5 212.09 209 240"/><line class="cls-8" x1="211.81" y1="58.71" x2="321.81" y2="58.71"/><line class="cls-8" x1="211.81" y1="85.79" x2="287" y2="85.79"/><line class="cls-8" x1="211.81" y1="112.43" x2="338" y2="112.43"/></svg>
