<svg xmlns="http://www.w3.org/2000/svg" viewBox="0 0 400 260"><defs><style>.cls-1,.cls-4{fill:none;stroke-miterlimit:10;}.cls-1{stroke:#626262;stroke-width:3px;}.cls-2{fill:#fff;}.cls-3{fill:#626262;}.cls-4{stroke:#ed6103;stroke-linecap:round;stroke-width:7px;}.cls-5{fill:#ed6103;}.cls-6{fill:#f39a5e;}</style></defs><line class="cls-1" x1="82.13" y1="61.5" x2="140" y2="49.5"/><line class="cls-1" x1="82.13" y1="61.5" x2="138.87" y2="133.5"/><line class="cls-1" x1="140" y1="49.5" x2="82.13" y2="201.5"/><line class="cls-1" x1="81" y1="126.5" x2="138.87" y2="133.5"/><line class="cls-1" x1="247.5" y1="210.5" x2="285.5" y2="165.5"/><rect class="cls-2" x="137.5" y="186.5" width="109" height="49" rx="5.5"/><path class="cls-3" d="M241,188a4,4,0,0,1,4,4v38a4,4,0,0,1-4,4H143a4,4,0,0,1-4-4V192a4,4,0,0,1,4-4h98m0-3H143a7,7,0,0,0-7,7v38a7,7,0,0,0,7,7h98a7,7,0,0,0,7-7V192a7,7,0,0,0-7-7Z"/><rect class="cls-2" x="137.5" y="105.54" width="109" height="49" rx="5.5"/><path class="cls-3" d="M241,107a4,4,0,0,1,4,4v38a4,4,0,0,1-4,4H143a4,4,0,0,1-4-4V111a4,4,0,0,1,4-4h98m0-3H143a7,7,0,0,0-7,7v38a7,7,0,0,0,7,7h98a7,7,0,0,0,7-7V111a7,7,0,0,0-7-7Z"/><line class="cls-4" x1="154" y1="122.04" x2="230" y2="122.04"/><line class="cls-4" x1="154" y1="138.04" x2="209" y2="138.04"/><rect class="cls-2" x="137.5" y="24.47" width="109" height="49" rx="5.5"/><path class="cls-3" d="M241,26a4,4,0,0,1,4,4V68a4,4,0,0,1-4,4H143a4,4,0,0,1-4-4V30a4,4,0,0,1,4-4h98m0-3H143a7,7,0,0,0-7,7V68a7,7,0,0,0,7,7h98a7,7,0,0,0,7-7V30a7,7,0,0,0-7-7Z"/><line class="cls-4" x1="266" y1="40.53" x2="375.5" y2="40.53"/><line class="cls-4" x1="266" y1="57.41" x2="322.29" y2="57.41"/><rect class="cls-2" x="284.5" y="105.5" width="94" height="129" rx="5.5"/><path class="cls-3" d="M373,107a4,4,0,0,1,4,4V229a4,4,0,0,1-4,4H290a4,4,0,0,1-4-4V111a4,4,0,0,1,4-4h83m0-3H290a7,7,0,0,0-7,7V229a7,7,0,0,0,7,7h83a7,7,0,0,0,7-7V111a7,7,0,0,0-7-7Z"/><line class="cls-1" x1="193.53" y1="155" x2="193.53" y2="186"/><rect class="cls-2" x="22" y="182.5" width="60" height="32" rx="5.5"/><path class="cls-3" d="M76.5,184a4,4,0,0,1,4,4v21a4,4,0,0,1-4,4h-49a4,4,0,0,1-4-4V188a4,4,0,0,1,4-4h49m0-3h-49a7,7,0,0,0-7,7v21a7,7,0,0,0,7,7h49a7,7,0,0,0,7-7V188a7,7,0,0,0-7-7Z"/><rect class="cls-5" x="22" y="45.5" width="60" height="32" rx="5.5"/><path class="cls-3" d="M76.5,47a4,4,0,0,1,4,4V72a4,4,0,0,1-4,4h-49a4,4,0,0,1-4-4V51a4,4,0,0,1,4-4h49m0-3h-49a7,7,0,0,0-7,7V72a7,7,0,0,0,7,7h49a7,7,0,0,0,7-7V51a7,7,0,0,0-7-7Z"/><rect class="cls-6" x="22" y="114" width="60" height="32" rx="5.5"/><path class="cls-3" d="M76.5,115.5a4,4,0,0,1,4,4v21a4,4,0,0,1-4,4h-49a4,4,0,0,1-4-4v-21a4,4,0,0,1,4-4h49m0-3h-49a7,7,0,0,0-7,7v21a7,7,0,0,0,7,7h49a7,7,0,0,0,7-7v-21a7,7,0,0,0-7-7Z"/></svg>
