<svg xmlns="http://www.w3.org/2000/svg" viewBox="0 0 400 214"><defs><style>.cls-1{fill:#fff;}.cls-2{fill:#626262;}.cls-3{fill:none;stroke:#ed6103;stroke-linecap:round;stroke-miterlimit:10;stroke-width:7px;}.cls-4{fill:#ed6103;}</style></defs><path class="cls-1" d="M188.62,128.5H118a6.51,6.51,0,0,1-6.5-6.5V28a6.51,6.51,0,0,1,6.5-6.5H282a6.51,6.51,0,0,1,6.5,6.5v94a6.51,6.51,0,0,1-6.5,6.5H211.38L200,140.79Z"/><path class="cls-2" d="M282,23a5,5,0,0,1,5,5v94a5,5,0,0,1-5,5H210.73l-.89,1L200,138.58,190.16,128l-.89-1H118a5,5,0,0,1-5-5V28a5,5,0,0,1,5-5H282m0-3H118a8,8,0,0,0-8,8v94a8,8,0,0,0,8,8h70l12,13,12-13h70a8,8,0,0,0,8-8V28a8,8,0,0,0-8-8Z"/><line class="cls-3" x1="140" y1="55.5" x2="260" y2="55.5"/><line class="cls-3" x1="140" y1="75.5" x2="206" y2="75.5"/><line class="cls-3" x1="140" y1="95.5" x2="240" y2="95.5"/><circle class="cls-1" cx="200" cy="162" r="14.5"/><path class="cls-4" d="M200,149a13,13,0,1,1-13,13,13,13,0,0,1,13-13m0-3a16,16,0,1,0,16,16,16,16,0,0,0-16-16Z"/><circle class="cls-4" cx="200" cy="156" r="3"/><rect class="cls-4" x="198" y="161" width="4" height="10"/><polygon class="cls-2" points="222.83 186.78 218.13 191.47 205.58 164.58 232.47 177.13 227.78 181.83 234.85 188.9 229.9 193.85 222.83 186.78"/><path class="cls-1" d="M208.69,167.69l21.21,9.9-4.24,4.24,7.07,7.07-2.83,2.83-7.07-7.07-4.24,4.24-9.9-21.21m-6.21-6.21L206,169l9.9,21.22,1.81,3.88,3-3,2.12-2.12,4.95,4.95L229.9,196l2.12-2.12,2.83-2.83L237,188.9l-2.12-2.12-4.95-4.95,2.12-2.12,3-3-3.88-1.81L210,165l-7.47-3.49Z"/></svg>
