<svg xmlns="http://www.w3.org/2000/svg" viewBox="0 0 400 214"><defs><style>.cls-1{fill:#fff;}.cls-2{fill:#ed6103;}.cls-3{fill:#626262;}</style></defs><circle class="cls-1" cx="200" cy="96" r="43.5"/><path class="cls-2" d="M200,57a39,39,0,1,1-39,39,39.05,39.05,0,0,1,39-39m0-9a48,48,0,1,0,48,48,48,48,0,0,0-48-48Z"/><circle class="cls-2" cx="200" cy="78" r="9"/><rect class="cls-2" x="194" y="93" width="12" height="30"/><path class="cls-3" d="M288.7,183.68a4.49,4.49,0,0,1-3.18-1.31l-18-18-9.55,9.55a4.51,4.51,0,0,1-3.18,1.32,4.11,4.11,0,0,1-.78-.07,4.49,4.49,0,0,1-3.3-2.53L221,109a4.5,4.5,0,0,1,4.08-6.4,4.56,4.56,0,0,1,1.9.42l63.64,29.7a4.5,4.5,0,0,1,1.28,7.26l-9.55,9.55,18,18a4.51,4.51,0,0,1,0,6.36l-8.49,8.49a4.5,4.5,0,0,1-3.18,1.31Z"/><path class="cls-1" d="M225.06,107.06l63.64,29.7L276,149.49l21.21,21.21-8.48,8.48L267.49,158,254.76,170.7l-29.7-63.64m0-9a9,9,0,0,0-8.16,12.8l29.7,63.64a9,9,0,0,0,6.6,5.06,9.14,9.14,0,0,0,1.56.14,9,9,0,0,0,6.36-2.64l6.37-6.36,14.84,14.85a9,9,0,0,0,12.73,0l8.49-8.49a9,9,0,0,0,0-12.73L288.7,149.48l6.36-6.36a9,9,0,0,0-2.56-14.52L228.86,98.9a8.9,8.9,0,0,0-3.8-.84Z"/></svg>
