<svg xmlns="http://www.w3.org/2000/svg" viewBox="0 0 400 260"><style>.st0{fill:#FFFFFF;}.st1{fill:#626262;}.st2{fill:#ED6103;}.st3{fill:#F39A5E;}.st5{fill:none;stroke:#626262;stroke-width:3;stroke-miterlimit:10;}</style><path class="st0" d="M278.5,182.5h49c3,0,5.5,2.5,5.5,5.5v21c0,3-2.5,5.5-5.5,5.5h-49c-3,0-5.5-2.5-5.5-5.5v-21C273,185,275.5,182.5,278.5,182.5z"/><path class="st1" d="M327.5,184c2.2,0,4,1.8,4,4v21c0,2.2-1.8,4-4,4h-49c-2.2,0-4-1.8-4-4v-21c0-2.2,1.8-4,4-4H327.5 M327.5,181h-49c-3.9,0-7,3.1-7,7v21c0,3.9,3.1,7,7,7h49c3.9,0,7-3.1,7-7v-21C334.5,184.1,331.4,181,327.5,181L327.5,181z"/><path class="st2" d="M278.5,45.5h49c3,0,5.5,2.5,5.5,5.5v21c0,3-2.5,5.5-5.5,5.5h-49c-3,0-5.5-2.5-5.5-5.5V51C273,48,275.5,45.5,278.5,45.5z"/><path class="st1" d="M327.5,47c2.2,0,4,1.8,4,4v21c0,2.2-1.8,4-4,4h-49c-2.2,0-4-1.8-4-4V51c0-2.2,1.8-4,4-4H327.5 M327.5,44h-49c-3.9,0-7,3.1-7,7v21c0,3.9,3.1,7,7,7h49c3.9,0,7-3.1,7-7V51C334.5,47.1,331.4,44,327.5,44L327.5,44z"/><path class="st3" d="M278.5,114h49c3,0,5.5,2.5,5.5,5.5v21c0,3-2.5,5.5-5.5,5.5h-49c-3,0-5.5-2.5-5.5-5.5v-21C273,116.5,275.5,114,278.5,114z"/><path class="st1" d="M327.5,115.5c2.2,0,4,1.8,4,4v21c0,2.2-1.8,4-4,4h-49c-2.2,0-4-1.8-4-4v-21c0-2.2,1.8-4,4-4H327.5 M327.5,112.5h-49c-3.9,0-7,3.1-7,7v21c0,3.9,3.1,7,7,7h49c3.9,0,7-3.1,7-7v-21C334.5,115.6,331.4,112.5,327.5,112.5L327.5,112.5z"/><path class="st1" d="M364.3,69.9c0.1,0.2-0.1,0.4-0.3,0.4h-2.8c-0.1,0-0.2-0.1-0.2-0.2l-1.6-3.9c0-0.1,0-0.1-0.1-0.1h-8.7c-0.1,0-0.1,0-0.1,0.1l-1.6,3.9c-0.1,0.1-0.1,0.2-0.2,0.2H346c-0.2,0-0.4-0.2-0.3-0.4l7.7-19.7c0.1-0.1,0.1-0.2,0.2-0.2h2.7c0.1,0,0.2,0.1,0.2,0.2L364.3,69.9z M358.3,63.2C358.3,63.2,358.3,63.2,358.3,63.2l-3.2-8.4c0-0.1-0.1-0.1-0.1,0l-3.3,8.3c0,0.1,0,0.1,0.1,0.1H358.3z"/><path class="st1" d="M363.8,133.1c-0.1,3.2-2.7,5.7-5.9,5.7h-9.5c-0.8,0-1.5-0.7-1.5-1.5V120c0-0.8,0.7-1.5,1.5-1.5h7.7c3.2,0,5.9,2.6,5.9,5.8c0,1.4-0.5,2.7-1.5,3.6C362.5,128.8,363.9,130.8,363.8,133.1z M350.4,121.5c-0.2,0-0.3,0.1-0.3,0.3v5.3c0,0.1,0.1,0.1,0.1,0.1h5.8c1.6,0,2.8-1.3,2.8-2.8c0.1-1.6-1.2-2.9-2.8-2.9H350.4z M357.8,135.8c1.6,0,2.9-1.2,2.9-2.8c0.1-1.6-1.3-2.9-2.9-2.9h-7.6c-0.1,0-0.1,0.1-0.1,0.1v5.3c0,0.2,0.1,0.3,0.3,0.3H357.8z"/><path class="st1" d="M356.8,186.5c2.8,0,5.5,1.1,7.3,2.9c0.1,0.1,0.1,0.3,0,0.4l-1.8,1.8c-0.1,0.1-0.3,0.2-0.4,0c-1.3-1.3-3.1-2-5.1-2c-4.2,0-7.5,3.4-7.5,7.5c0,4.2,3.3,7.5,7.5,7.5c2,0,3.8-0.7,5.1-2c0.2-0.2,0.3-0.1,0.4,0l1.8,1.8c0.1,0.1,0.1,0.3,0,0.4c-1.9,1.9-4.5,2.9-7.3,2.9c-5.9,0-10.6-4.8-10.6-10.7S351,186.5,356.8,186.5z"/><circle class="st0" cx="130" cy="130" r="110"/><path class="st0" d="M107.1,22.4c-34.8,7.4-63.5,31.1-77.6,62.9L130,130V20C122.2,20,114.5,20.8,107.1,22.4z"/><path class="st3" d="M130,130L29.5,85.2C23.4,98.9,20,114.1,20,130c0,60.8,49.2,110,110,110c7.8,0,15.5-0.8,22.9-2.4L130,130z"/><path class="st2" d="M130,20v110l22.9,107.6c34.8-7.4,63.5-31.1,77.6-62.9c6.1-13.7,9.5-28.8,9.5-44.8C240,69.2,190.8,20,130,20z"/><polyline class="st5" points="130,20 130,130 152.9,237.6 "/><line class="st5" x1="29.5" y1="85.2" x2="130" y2="130"/><path class="st1" d="M130,23c28.6,0,55.5,11.1,75.7,31.3C225.9,74.6,237,101.4,237,130s-11.1,55.5-31.3,75.7C185.5,225.9,158.6,237,130,237s-55.5-11.1-75.7-31.3C34.1,185.5,23,158.6,23,130s11.1-55.5,31.3-75.7C74.5,34.1,101.4,23,130,23M130,20C69.2,20,20,69.2,20,130s49.2,110,110,110s110-49.2,110-110S190.8,20,130,20C130,20,130,20,130,20z"/></svg>
