<svg xmlns="http://www.w3.org/2000/svg" viewBox="0 0 400 260"><style>.st0{fill:#FFFFFF;}.st1{fill:#F39A5E;}.st2{fill:#ED6103;}.st3{fill:none;stroke:#626262;stroke-width:3;stroke-miterlimit:10;}.st4{fill:#626262;}.st6{fill:none;stroke:#626262;stroke-width:2;stroke-miterlimit:10;}</style><circle class="st0" cx="200" cy="130" r="110"/><path class="st0" d="M177.1,22.4c-34.8,7.4-63.5,31.1-77.6,62.9L200,130V20C192.2,20,184.5,20.8,177.1,22.4z"/><path class="st1" d="M200,130L99.5,85.2C93.4,98.9,90,114.1,90,130c0,60.8,49.2,110,110,110c7.8,0,15.5-0.8,22.9-2.4L200,130z"/><path class="st2" d="M200,20v110l22.9,107.6c34.8-7.4,63.5-31.1,77.6-62.9c6.1-13.7,9.5-28.8,9.5-44.8C310,69.2,260.8,20,200,20z"/><polyline class="st3" points="200,20 200,130 222.9,237.6 "/><line class="st3" x1="99.5" y1="85.2" x2="200" y2="130"/><path class="st4" d="M200,23c28.6,0,55.5,11.1,75.7,31.3C295.9,74.6,307,101.4,307,130s-11.1,55.5-31.3,75.7C255.5,225.9,228.6,237,200,237s-55.5-11.1-75.7-31.3C104.1,185.5,93,158.6,93,130s11.1-55.5,31.3-75.7C144.5,34.1,171.4,23,200,23M200,20C139.2,20,90,69.2,90,130s49.2,110,110,110s110-49.2,110-110S260.8,20,200,20C200,20,200,20,200,20z"/><path class="st4" d="M362.8,96.2c0.1,0.2-0.1,0.4-0.3,0.4h-2.8c-0.1,0-0.2-0.1-0.2-0.2l-1.6-3.9c0-0.1,0-0.1-0.1-0.1h-8.7c-0.1,0-0.1,0-0.1,0.1l-1.6,3.9c-0.1,0.1-0.1,0.2-0.2,0.2h-2.8c-0.2,0-0.4-0.2-0.3-0.4l7.7-19.7c0.1-0.1,0.1-0.2,0.2-0.2h2.7c0.1,0,0.2,0.1,0.2,0.2L362.8,96.2z M356.8,89.5C356.8,89.5,356.8,89.5,356.8,89.5l-3.2-8.4c0-0.1-0.1-0.1-0.1,0l-3.3,8.3c0,0.1,0,0.1,0.1,0.1H356.8z"/><path class="st4" d="M53.3,197.9c-0.1,3.2-2.7,5.7-5.9,5.7H38c-0.8,0-1.5-0.7-1.5-1.5v-17.3c0-0.8,0.7-1.5,1.5-1.5h7.7c3.2,0,5.9,2.6,5.9,5.8c0,1.4-0.5,2.7-1.5,3.6C52,193.6,53.4,195.6,53.3,197.9z M39.9,186.3c-0.2,0-0.3,0.1-0.3,0.3v5.3c0,0.1,0.1,0.1,0.1,0.1h5.8c1.6,0,2.8-1.3,2.8-2.8c0.1-1.6-1.2-2.9-2.8-2.9H39.9z M47.3,200.7c1.6,0,2.9-1.2,2.9-2.8c0.1-1.6-1.3-2.9-2.9-2.9h-7.6c-0.1,0-0.1,0.1-0.1,0.1v5.3c0,0.2,0.1,0.3,0.3,0.3H47.3z"/><path class="st4" d="M68.3,25.8c2.8,0,5.5,1.1,7.3,2.9c0.1,0.1,0.1,0.3,0,0.4l-1.8,1.8c-0.1,0.1-0.3,0.2-0.4,0c-1.3-1.3-3.1-2-5.1-2c-4.2,0-7.5,3.4-7.5,7.5c0,4.2,3.3,7.5,7.5,7.5c2,0,3.8-0.7,5.1-2c0.2-0.2,0.3-0.1,0.4,0l1.8,1.8c0.1,0.1,0.1,0.3,0,0.4c-1.9,1.9-4.5,2.9-7.3,2.9c-5.9,0-10.6-4.8-10.6-10.7S62.5,25.8,68.3,25.8z"/><line class="st6" x1="269" y1="109.5" x2="331.4" y2="92.5"/><line class="st6" x1="78.2" y1="192" x2="139.7" y2="163.9"/><line class="st6" x1="94" y1="40.4" x2="155" y2="70.2"/></svg>
