<svg xmlns="http://www.w3.org/2000/svg" viewBox="0 0 400 376"><defs><style>.cls-1{fill:#ed6103;}.cls-2{fill:#fff;}.cls-3{fill:#626262;}</style></defs><rect class="cls-1" x="20" y="67" width="360" height="88"/><path class="cls-2" d="M82.07,96.44c-1.8,0-2.44,0-2.56,0s-.22,0-.22-.22V94.72c0-.2,0-.22.22-.22s.76,0,2.56,0h4.62V91.7H83.83c-1.94,0-2.64,0-2.76,0s-.2,0-.2-.22V89.94c0-.2,0-.22.2-.22s.82,0,2.76,0h2.86v-.7a11.66,11.66,0,0,0-.14-2.38c.74,0,1.52.06,2.2.14.2,0,.32.12.32.22a3.25,3.25,0,0,1-.14.52,7,7,0,0,0-.1,1.46v.74H92c1.94,0,2.64,0,2.76,0s.2,0,.2.22v1.58c0,.2,0,.22-.2.22s-.82,0-2.76,0h-3.2v2.84h4.92c1.82,0,2.44,0,2.56,0s.24,0,.24.22v1.54c0,.2,0,.22-.24.22s-.74,0-2.56,0h-4A18.53,18.53,0,0,0,97.29,102a5.65,5.65,0,0,0-1,1.46c-.14.34-.22.46-.34.46a1.49,1.49,0,0,1-.48-.2,18.15,18.15,0,0,1-6.66-5.92c0,3,.1,6,.1,7,0,.2,0,.22-.22.22h-1.8c-.2,0-.22,0-.22-.22,0-.92.1-4,.12-7a19,19,0,0,1-6.34,5.84,1.11,1.11,0,0,1-.46.22c-.12,0-.2-.14-.36-.48a4.87,4.87,0,0,0-1-1.38,16.92,16.92,0,0,0,7-5.56Z"/><path class="cls-2" d="M108.55,87.84c1.44,0,1.88,0,2,0s.26,0,.26.24a11.17,11.17,0,0,0,.12,2.22,15.66,15.66,0,0,0,7.78,12.36,5.89,5.89,0,0,0-1.18,1.52c-.16.32-.24.46-.36.46s-.24-.1-.46-.26a17.19,17.19,0,0,1-6.86-9.92,16.83,16.83,0,0,1-7.36,10c-.24.14-.36.24-.46.24s-.22-.16-.42-.48a4.79,4.79,0,0,0-1.18-1.32c5-2.44,7.78-7.22,8-12.94H106c-1.44,0-1.88,0-2,0s-.24,0-.24-.22V88c0-.2,0-.22.24-.22s.56,0,2,0Z"/><path class="cls-2" d="M131.31,93.18a17.64,17.64,0,0,1-1,4.82,12.11,12.11,0,0,1-6,6.54,1.86,1.86,0,0,1-.48.18c-.16,0-.26-.12-.48-.42a4.47,4.47,0,0,0-1.26-1.16c3.26-1.42,5.28-3.32,6.22-5.94a15.8,15.8,0,0,0,.84-4H126c-1.92,0-2.58,0-2.68,0s-.24,0-.24-.22V91.36c0-.2,0-.22.24-.22s.76,0,2.68,0h3.22c0-.58,0-1.16,0-1.74a16.35,16.35,0,0,0-.18-2.66,21.06,21.06,0,0,1,2.36.22c.3,0,.4.14.4.28a.84.84,0,0,1-.18.5,5.66,5.66,0,0,0-.16,1.7c0,.54,0,1.12,0,1.7h4.2c1.94,0,2.6,0,2.74,0s.24,0,.24.24c0,.6,0,1.28,0,1.8A57.92,57.92,0,0,1,138,102c-.36,1.92-1.34,2.62-3.34,2.64a14.18,14.18,0,0,1-1.92-.08c-.62-.06-.62-.08-.74-.72a5,5,0,0,0-.58-1.58,15.7,15.7,0,0,0,3,.26c.74,0,1.26-.28,1.46-1.34a48.36,48.36,0,0,0,.52-8Z"/><path class="cls-2" d="M154,91.18a25,25,0,0,1-2.5,8.62,3.8,3.8,0,0,1-3.4,2.3c-1.76,0-3.54-1.88-3.54-5.14a7.37,7.37,0,0,1,2.26-5.2,8.75,8.75,0,0,1,6.5-2.56c4.8,0,7.62,3,7.62,6.94,0,3.72-2.1,6.06-6.16,7.28-.42.12-.6,0-.86-.36a4.24,4.24,0,0,0-1.4-1.26c3.38-.8,6-2.2,6-6a4.54,4.54,0,0,0-4.48-4.64Zm-5.74,1.94a5.76,5.76,0,0,0-1.56,3.7c0,1.84.74,2.86,1.36,2.86s1-.26,1.5-1.22a22.85,22.85,0,0,0,2.12-7.16A6,6,0,0,0,148.25,93.12Z"/><path class="cls-2" d="M172.79,101.4c0,.48.08.74.4.9a3.57,3.57,0,0,0,1.6.2c1.32,0,1.64-.12,2-.38.5-.36.64-1,.64-3.18a6.46,6.46,0,0,0,1.7.6c.52.12.52.14.48.68-.1,2.34-.48,3.14-1.26,3.68-.6.42-1.64.66-3.66.66a6.08,6.08,0,0,1-3.08-.46c-.6-.34-.94-.84-.94-2V102a22.73,22.73,0,0,1-3.48,2,1.31,1.31,0,0,1-.48.18c-.16,0-.24-.14-.44-.48a5.13,5.13,0,0,0-1.1-1.24,23.73,23.73,0,0,0,5.5-3.1V93.72a12.91,12.91,0,0,0-.1-1.92,18.91,18.91,0,0,1,2.14.2c.24,0,.36.16.36.26a.68.68,0,0,1-.12.4c-.1.14-.14.46-.14,1.28V97.6c.44-.42.86-.86,1.26-1.28a23.87,23.87,0,0,0,3.84-5.9,11.42,11.42,0,0,0,.82-2.22,17.18,17.18,0,0,1,2,1,.41.41,0,0,1,.28.38c0,.14-.12.24-.24.36a5.32,5.32,0,0,0-.9,1.38,29.22,29.22,0,0,1-4.08,6.2,27.85,27.85,0,0,1-3,2.94Zm-3.74-7.32c.3.06.32.1.28.34a22.47,22.47,0,0,1-1.74,5.84c-.1.2-.14.18-.4.08l-1.44-.56c-.28-.1-.3-.2-.22-.38a17.85,17.85,0,0,0,1.72-5.5c0-.22.08-.2.36-.14Zm2.6-6.94c.16-.22.2-.24.4-.16a21.77,21.77,0,0,1,4.42,2.24c.1.06.14.12.14.18s0,.12-.12.26l-.82,1.26c-.18.26-.22.28-.38.14a19.09,19.09,0,0,0-4.42-2.4c-.12,0-.16-.08-.16-.14a.48.48,0,0,1,.12-.22ZM180.71,94c.24-.1.28-.1.4.1a24.08,24.08,0,0,1,2.36,5.9c.06.22,0,.3-.22.42l-1.46.66c-.3.14-.34.08-.4-.16a23.17,23.17,0,0,0-2.2-6c-.1-.16-.08-.26.18-.38Z"/><path class="cls-2" d="M192.87,88a.41.41,0,0,1,.16.34c0,.12-.08.18-.24.26a2.27,2.27,0,0,0-.58.52,14.56,14.56,0,0,1-4,3.12,1.49,1.49,0,0,1-.48.2c-.14,0-.2-.14-.34-.46a4,4,0,0,0-.88-1.24,11.45,11.45,0,0,0,4.24-2.9,4.85,4.85,0,0,0,.6-.88A8.81,8.81,0,0,1,192.87,88Zm-1.62,10.46a9.44,9.44,0,0,0,.68-1.1,8.14,8.14,0,0,1,1.58,1.1c.16.14.24.22.24.34s-.08.2-.22.28a2.34,2.34,0,0,0-.62.68,17.94,17.94,0,0,1-4.54,4.16.87.87,0,0,1-.44.2c-.14,0-.24-.14-.42-.46a4.11,4.11,0,0,0-1-1.12A14.18,14.18,0,0,0,191.25,98.48Zm1.86-5.42c.14.14.24.24.24.36s-.08.18-.2.24a3.81,3.81,0,0,0-.66.64,18.69,18.69,0,0,1-4.12,3.4,1.11,1.11,0,0,1-.46.22c-.12,0-.2-.14-.36-.48a5.42,5.42,0,0,0-.8-1.3A12.62,12.62,0,0,0,191,92.86a4.71,4.71,0,0,0,.62-.9A7.91,7.91,0,0,1,193.11,93.06Zm4.58,8.86c.16.12.22.18.22.28s-.1.18-.26.26a3.39,3.39,0,0,0-.58.4,13.49,13.49,0,0,1-3.84,2,1.53,1.53,0,0,1-.46.12c-.14,0-.2-.1-.36-.36a5.58,5.58,0,0,0-1.06-1.26,11.9,11.9,0,0,0,4.16-1.82,3.43,3.43,0,0,0,.64-.58A7.83,7.83,0,0,1,197.69,101.92Zm-1.4-12.58c-1.92,0-2.58,0-2.7,0s-.22,0-.22-.24V87.68c0-.2,0-.22.22-.22s.78,0,2.7,0h5.76c1.92,0,2.58,0,2.7,0s.2,0,.2.22v1.46c0,.22,0,.24-.2.24s-.78,0-2.7,0h-2.3l-.54,1.34h1.84c1.78,0,2.38,0,2.52,0s.22,0,.22.22,0,.8,0,2.3v5.32c0,1.52,0,2.22,0,2.34s0,.2-.22.2-.74,0-2.52,0h-4.18c-1.78,0-2.38,0-2.52,0s-.22,0-.22-.2,0-.82,0-2.34V93.16c0-1.5,0-2.18,0-2.3s0-.22.22-.22.74,0,2.52,0h.32a10.8,10.8,0,0,0,.5-1.34Zm-.1,4.22h5.52v-1.2h-5.52Zm5.52,2.8V95.12h-5.52v1.24Zm0,1.58h-5.52v1.32h5.52Zm-.58,3.2c.24-.16.3-.18.44-.06a11.79,11.79,0,0,0,3.74,2.24,4.66,4.66,0,0,0-.9,1.1c-.22.34-.3.48-.46.48a1.86,1.86,0,0,1-.48-.18,13.66,13.66,0,0,1-3.42-2.48c-.16-.16-.12-.22.06-.34Z"/><path class="cls-2" d="M212.61,97.92a21.3,21.3,0,0,0,2-1,10.82,10.82,0,0,0,0,1.38c0,.66,0,.66-.48,1-1.38.72-3,1.4-4.24,1.9a3,3,0,0,0-.62.3.51.51,0,0,1-.3.14c-.12,0-.2-.08-.28-.26a18.79,18.79,0,0,1-.52-1.88,14.19,14.19,0,0,0,1.72-.48l.62-.2v-8.3h-.06c-1.3,0-1.7,0-1.82,0s-.2,0-.2-.24v-1.5c0-.2,0-.22.2-.22s.52,0,1.82,0h1.88c1.28,0,1.68,0,1.8,0s.22,0,.22.22v1.5c0,.22,0,.24-.22.24s-.5,0-1.56,0Zm6.5,4.06c.16.12.2.18.2.3s-.08.18-.24.26a1.8,1.8,0,0,0-.58.38,14.05,14.05,0,0,1-3.88,2,1.49,1.49,0,0,1-.48.12c-.16,0-.24-.12-.46-.48a5.06,5.06,0,0,0-1-1.18,12,12,0,0,0,4.22-1.68,4.28,4.28,0,0,0,.66-.58A15.43,15.43,0,0,1,219.11,102Zm-1.42-12.54c-1.9,0-2.56,0-2.68,0s-.24,0-.24-.2V87.8c0-.22,0-.24.24-.24s.78,0,2.68,0h5.76c1.92,0,2.58,0,2.7,0s.22,0,.22.24v1.48c0,.18,0,.2-.22.2s-.78,0-2.7,0h-2.18a13.65,13.65,0,0,1-.6,1.32h1.78c1.76,0,2.36,0,2.5,0s.22,0,.22.22,0,.78,0,2.32v5.3c0,1.5,0,2.18,0,2.3s0,.24-.22.24-.74,0-2.5,0h-4.08c-1.78,0-2.4,0-2.52,0s-.24,0-.24-.24,0-.8,0-2.3v-5.3c0-1.54,0-2.18,0-2.32s0-.22.24-.22.74,0,2.52,0h.22a12.42,12.42,0,0,0,.56-1.32Zm-.06,3v1.26h5.5V92.4Zm5.5,4.1V95.24h-5.5V96.5Zm0,1.56h-5.5v1.3h5.5Zm-.64,3.12a.32.32,0,0,1,.2-.08.24.24,0,0,1,.18.06,12.51,12.51,0,0,0,4.08,2,7.1,7.1,0,0,0-1,1.4c-.14.22-.22.3-.34.3a1.55,1.55,0,0,1-.52-.18,15.49,15.49,0,0,1-3.76-2.36c-.16-.14-.16-.18.08-.36Z"/><path class="cls-2" d="M232.65,104.82c-.2,0-.22,0-.22-.22s0-1.42,0-7.4V93.28c0-3.94,0-5.24,0-5.38s0-.22.22-.22.84,0,2.78,0h7.4c1.94,0,2.64,0,2.78,0s.22,0,.22.22,0,1.42,0,4.72v4.54c0,6,0,7.24,0,7.36s0,.22-.22.22h-1.78c-.2,0-.22,0-.22-.22v-1.08h-9v1.16c0,.2,0,.22-.24.22Zm2-12.54h9V89.66h-9Zm9,4.56V94.18h-9v2.66Zm0,4.66V98.74h-9v2.76Z"/><path class="cls-2" d="M257.73,89.74a13.61,13.61,0,0,0,.2-2.22,14.64,14.64,0,0,1,2.4.66.42.42,0,0,1,.32.4.42.42,0,0,1-.14.3,2.53,2.53,0,0,0-.4.76c-.26.82-.46,1.56-.72,2.4A15.28,15.28,0,0,1,261,92c1.86,0,2.86,1.3,2.86,3.86a17,17,0,0,1-1.08,6.26,2.86,2.86,0,0,1-2.7,1.88,5.3,5.3,0,0,1-2.08-.3.53.53,0,0,1-.36-.56,5.71,5.71,0,0,0-.38-1.86,5.32,5.32,0,0,0,2.3.52c.66,0,1-.24,1.28-1.06a15.45,15.45,0,0,0,.78-5c0-1.4-.26-1.84-1.14-1.84a13.25,13.25,0,0,0-1.68.14,55.23,55.23,0,0,1-4,9.4.33.33,0,0,1-.52.18,9.1,9.1,0,0,1-1.38-.88.41.41,0,0,1-.16-.3.37.37,0,0,1,.08-.22,42.17,42.17,0,0,0,3.66-7.84c-.78.12-1.42.24-2,.34a5.88,5.88,0,0,0-1.1.32.44.44,0,0,1-.64-.26,18.27,18.27,0,0,1-.62-2.06c.88,0,1.76-.06,2.64-.14s1.58-.18,2.36-.3C257.45,91.12,257.59,90.42,257.73,89.74Zm7.92,1.34c.14-.08.24,0,.38.1A13.38,13.38,0,0,1,269.35,96a.29.29,0,0,1-.08.4,8.16,8.16,0,0,1-1.5,1c-.2.1-.4.08-.46-.16A13.54,13.54,0,0,0,264,92.1,17,17,0,0,1,265.65,91.08Zm.54-2.8c.1-.08.18-.06.3,0a9.2,9.2,0,0,1,1.9,2.14.2.2,0,0,1-.06.32l-.84.62a.21.21,0,0,1-.34-.06,9.92,9.92,0,0,0-2-2.32ZM268,87c.12-.08.18-.06.3,0a8.35,8.35,0,0,1,1.9,2.06.23.23,0,0,1-.06.36l-.8.62A.21.21,0,0,1,269,90a9.46,9.46,0,0,0-2-2.3Z"/><path class="cls-2" d="M281.73,87.64q.36.12.36.36a.44.44,0,0,1-.1.32,1.55,1.55,0,0,0-.28.72c-.06.36-.1.66-.16,1a38.45,38.45,0,0,0,5.2-.84c.24-.06.3,0,.34.2a6.2,6.2,0,0,1,.2,1.36c0,.26-.2.36-.42.4a42.43,42.43,0,0,1-5.68.84c-.08.84-.12,1.32-.14,2a12,12,0,0,1,3.06-.44,4.91,4.91,0,0,0,.34-1.46,8,8,0,0,1,1.78.74c.24.16.36.32.36.44a.35.35,0,0,1-.12.24,1.73,1.73,0,0,0-.26.4c2.58.68,4.1,2.38,4.1,4.88,0,2.9-2.38,4.78-5.56,5.64-.44.12-.66.06-.88-.38a5.08,5.08,0,0,0-1.18-1.24,11.51,11.51,0,0,0,3.72-1.46,3.44,3.44,0,0,0,1.6-3,3,3,0,0,0-2.48-2.9,21.15,21.15,0,0,1-3.78,5.24,6,6,0,0,0,.36.9c.12.26,0,.36-.16.5a6.36,6.36,0,0,1-1.2.7c-.2.1-.28.1-.4-.1a4,4,0,0,1-.34-.78,6.29,6.29,0,0,1-3.48,1.44,2.18,2.18,0,0,1-2.22-2.48c0-2.56,2.22-5,4.68-6.22,0-.86.06-1.74.1-2.5-1.18,0-1.72,0-2.06,0a8,8,0,0,1-1.14,0c-.22,0-.34-.12-.36-.46s-.06-1-.1-1.52a30.5,30.5,0,0,0,3.88.08c.08-.72.16-1.62.16-2.18a4.7,4.7,0,0,0-.08-.9A11,11,0,0,1,281.73,87.64Zm-5.32,12.84a.68.68,0,0,0,.66.76,4.29,4.29,0,0,0,2.32-1.16,25.93,25.93,0,0,1-.4-3.44C277.45,97.74,276.41,99.18,276.41,100.48Zm7.1-5.2a9.39,9.39,0,0,0-2.56.46,21.42,21.42,0,0,0,.24,3A18.35,18.35,0,0,0,283.51,95.28Z"/><path class="cls-2" d="M301.61,88.06c.26.1.38.22.38.4a.46.46,0,0,1-.14.32,2.31,2.31,0,0,0-.36.94c-.28,1.36-.44,2.78-.56,3.82a20.2,20.2,0,0,0-.06,2.2c.44-.78.86-1.54,1.4-2.56a4.15,4.15,0,0,0,.62,1.3.46.46,0,0,1,.12.32.94.94,0,0,1-.2.5,16.37,16.37,0,0,0-1.18,2.56,2.5,2.5,0,0,0-.1.6.28.28,0,0,1-.26.32c-.24.06-1.1.18-1.6.24-.14,0-.24-.12-.28-.26a12.8,12.8,0,0,1-.6-4.06,42.27,42.27,0,0,1,.48-5,18.51,18.51,0,0,0,.16-2.28A10.48,10.48,0,0,1,301.61,88.06Zm6.5-.34c.4.1.44.2.4.54a7.08,7.08,0,0,0,0,.92c.14,1.9.28,3.72.28,5.16a13.14,13.14,0,0,1-1.52,6.94,11,11,0,0,1-3.3,3.22.69.69,0,0,1-.4.14.58.58,0,0,1-.42-.22,4.64,4.64,0,0,0-1.7-.92,9.9,9.9,0,0,0,3.4-2.68c1.16-1.58,1.68-3.22,1.68-6.38,0-1.42-.1-3.5-.24-4.78a9.58,9.58,0,0,0-.42-2.18A11.55,11.55,0,0,1,308.11,87.72Z"/><path class="cls-2" d="M324.59,96.66a35.41,35.41,0,0,1-4.12-.08c-.22,0-.3-.08-.32-.34a11.94,11.94,0,0,1-.12-1.7,28.14,28.14,0,0,0,4.5.16c0-.76,0-1.54,0-2.3a32.91,32.91,0,0,1-4.78-.1c-.22,0-.32-.08-.34-.28-.06-.5-.1-1-.14-1.8a45.73,45.73,0,0,0,5.24.2c0-.74,0-1.26,0-1.94a5.75,5.75,0,0,0-.24-1.34,11.59,11.59,0,0,1,2.52.36.41.41,0,0,1,.22.6,2.57,2.57,0,0,0-.3,1c0,.4,0,.68,0,1.28a33.65,33.65,0,0,0,4.38-.6c.24-.06.32,0,.34.24a10.69,10.69,0,0,1,.1,1.46c0,.26-.06.3-.22.32a40.91,40.91,0,0,1-4.62.52c0,.8,0,1.54,0,2.26,1.52-.1,2.48-.3,3.92-.52.24-.06.3,0,.32.16,0,.38.06,1,.06,1.64,0,.2-.08.26-.3.28a36.22,36.22,0,0,1-3.92.48c0,.92.08,1.9.14,2.82a17.83,17.83,0,0,1,5.3,2.42c.2.18.2.24.14.48a6,6,0,0,1-.88,1.48.29.29,0,0,1-.26.16.31.31,0,0,1-.22-.1,15.87,15.87,0,0,0-4-2.28c0,2.16-1.32,3-4.06,3s-4.08-1.14-4.08-2.8,1.58-2.84,4-2.84c.5,0,1,0,1.92.08C324.65,98.16,324.61,97.34,324.59,96.66Zm-1.72,4c-1.46,0-2.16.42-2.16,1.06s.6.9,2,.9a2.47,2.47,0,0,0,1.82-.6,1.92,1.92,0,0,0,.22-1.12A8.63,8.63,0,0,0,322.87,100.7Z"/><path class="cls-2" d="M347,88.68a6.36,6.36,0,0,0-.24-1.46,20.32,20.32,0,0,1,2.34.28c.34.06.56.2.56.38a.84.84,0,0,1-.18.46,2.09,2.09,0,0,0-.16.58c0,.26,0,.52,0,1.28,2.16-.08,4.22-.1,6.14-.1.24,0,.28,0,.3.3,0,.5,0,1,0,1.52,0,.22-.1.28-.34.26-2.08-.06-4-.06-6.1,0,0,1.22,0,2.5,0,3.72a6.23,6.23,0,0,1,.3,2,7.47,7.47,0,0,1-3.56,6.46,1.91,1.91,0,0,1-.78.38,1.13,1.13,0,0,1-.6-.3,4.46,4.46,0,0,0-1.52-.8,6.68,6.68,0,0,0,4.1-4.4,2.31,2.31,0,0,1-1.88.8,2.77,2.77,0,0,1-2.78-3.06,2.91,2.91,0,0,1,3-3,2.45,2.45,0,0,1,1.52.4c0-.7,0-1.38,0-2-2.52.14-5.34.38-6.92.6-.44.06-.76.24-.94.24s-.28-.08-.34-.28a14,14,0,0,1-.5-2,13.19,13.19,0,0,0,2.44-.08c1.22-.1,3.8-.26,6.2-.4C347,89.72,347,89.22,347,88.68Zm-2.56,8.1a1.24,1.24,0,0,0,1.28,1.36,1.28,1.28,0,0,0,1.36-1.38,1.2,1.2,0,0,0-1.32-1.28A1.27,1.27,0,0,0,344.45,96.78Z"/><path class="cls-2" d="M58.76,86c-2.07-3.58-5.45-3.58-7.52,0l-9.43,16.34c-2.07,3.58-.38,6.51,3.76,6.51H64.43c4.14,0,5.83-2.93,3.76-6.51Z"/><path class="cls-1" d="M53.5,99a.27.27,0,0,1-.28-.28V90a.27.27,0,0,1,.28-.28h3a.27.27,0,0,1,.28.28v8.74a.27.27,0,0,1-.28.28Zm0,5.74a.27.27,0,0,1-.28-.28v-3a.27.27,0,0,1,.28-.28h3a.27.27,0,0,1,.28.28v3a.27.27,0,0,1-.28.28Z"/><rect class="cls-2" x="21.5" y="238.5" width="357" height="45" rx="4.5"/><path class="cls-3" d="M374,240a3,3,0,0,1,3,3v36a3,3,0,0,1-3,3H26a3,3,0,0,1-3-3V243a3,3,0,0,1,3-3H374m0-3H26a6,6,0,0,0-6,6v36a6,6,0,0,0,6,6H374a6,6,0,0,0,6-6V243a6,6,0,0,0-6-6Z"/><path class="cls-3" d="M25.34,191.35A50.18,50.18,0,0,0,30.2,190a11.56,11.56,0,0,0-.06,1.44c0,.66,0,.66-.62.84-2.08.7-4.32,1.3-6.5,1.84a3.2,3.2,0,0,0-.8.28.58.58,0,0,1-.32.12c-.12,0-.22-.12-.28-.28a16.9,16.9,0,0,1-.44-2c.58-.06,1.16-.14,1.86-.28a.88.88,0,0,0,.2,0v-9.75a30.71,30.71,0,0,0-.12-3.38c.68.12,1.38.32,2,.5a46.07,46.07,0,0,0,8.7-1.78,4.92,4.92,0,0,0,1.32-.58,11.26,11.26,0,0,1,1.58,1.36.48.48,0,0,1,.2.36c0,.16-.14.22-.42.24a7,7,0,0,0-1,.26c-1.26.38-2.52.7-3.78,1q.09,2.22.3,4l3.3-.16c1.84-.08,2.54-.13,2.78-.15s.2,0,.2.23l0,1.61c0,.22,0,.24-.22.24s-.94,0-2.8.08l-2.94.14a17.76,17.76,0,0,0,1,3.38c.76,1.74,2,2.84,2.7,2.84s.92-.94,1-2.84a4.4,4.4,0,0,0,1.34.82c.6.26.62.28.52.88-.46,2.64-1.4,3.48-2.86,3.48S32.66,193,31.44,190a19.28,19.28,0,0,1-1.1-3.88l-5,.24ZM30,184.11c-.16-1.15-.28-2.36-.34-3.65-1.4.26-2.82.44-4.34.6v3.27Z"/><path class="cls-3" d="M49.46,180.64a22.9,22.9,0,0,1-4.8,3.69,1.12,1.12,0,0,1-.46.2c-.14,0-.24-.15-.42-.46a4.16,4.16,0,0,0-1-1.12,18.22,18.22,0,0,0,6.52-5.27A5,5,0,0,0,50,176.5,14.16,14.16,0,0,1,52,177c.2.06.28.14.28.28a.41.41,0,0,1-.26.36,2.33,2.33,0,0,0-.6.64l-.4.54H55.4a1.9,1.9,0,0,0,.58,0,1,1,0,0,1,.36-.1c.18,0,.4.12.84.52s.62.68.62.84-.06.28-.28.4a2.73,2.73,0,0,0-.66.64,25.92,25.92,0,0,1-5.66,5.49h5.14c1.72,0,2.6,0,2.72,0s.22,0,.22.2,0,.72,0,2.58v1.84c0,2.8,0,3.36,0,3.48s0,.22-.22.22h-1.7c-.22,0-.24,0-.24-.22v-.9h-7v1c0,.2,0,.22-.2.22H48.16c-.2,0-.22,0-.22-.22s0-.74,0-3.54v-2.62a40.09,40.09,0,0,1-3.7,1.78,1.38,1.38,0,0,1-.46.16c-.16,0-.22-.16-.4-.52a4.57,4.57,0,0,0-1-1.28,29,29,0,0,0,7-3.34,17,17,0,0,0-2.08-1.87c-.08-.05-.14-.12-.14-.16s.06-.12.16-.2l1.06-.85a.44.44,0,0,1,.24-.12.55.55,0,0,1,.24.09,18.92,18.92,0,0,1,2.2,1.82,23.81,23.81,0,0,0,3.38-3.44Zm.62,7.75v3.54h7v-3.54Z"/><path class="cls-1" d="M28.85,218.09h2.29c1.07,0,2.15,0,3.23-.06.18,0,.26.06.26.26,0,.41,0,.86,0,1.28,0,.2-.05.28-.24.28-.77,0-2.19-.06-3.23-.06H24.72c-.65,0-1.69.05-2.94.06-.26,0-.29,0-.34-.32a9.73,9.73,0,0,1-.11-1.5c1.15.06,2.37.08,3.39.08H26.9v-5.47H25.65c-1.15,0-1.82,0-2.48.06-.19,0-.22-.1-.27-.34a8.19,8.19,0,0,1-.13-1.48,27.42,27.42,0,0,0,2.77.06h4.53c1,0,1.85,0,2.8-.05.16,0,.21.08.21.26,0,.4,0,.85,0,1.25,0,.2,0,.3-.23.3-1.07,0-1.85-.06-2.75-.06H28.85Z"/><path class="cls-1" d="M42.66,214.3q-1.2,0-2.4.06c-.15,0-.21-.09-.24-.3a11.68,11.68,0,0,1-.18-1.62,27.27,27.27,0,0,0,2.95.13h5.49a1.76,1.76,0,0,0,.84-.17.36.36,0,0,1,.21-.1.43.43,0,0,1,.24.11,10.86,10.86,0,0,1,1.08,1,.51.51,0,0,1,.16.34.37.37,0,0,1-.18.3,1.77,1.77,0,0,0-.54.76,14,14,0,0,1-6.54,7.07.65.65,0,0,1-.32.11.51.51,0,0,1-.35-.19,4.72,4.72,0,0,0-1.49-.83,12.51,12.51,0,0,0,6.73-6.68Zm1.07-3.44c-.72,0-1.52,0-2.19.06-.16,0-.21-.09-.23-.35s-.08-1-.08-1.54a21.24,21.24,0,0,0,2.63.12h2.88c1,0,1.89-.05,2.51-.08.15,0,.2.08.2.25a8.69,8.69,0,0,1,0,1.25c0,.27-.05.34-.29.32-.53,0-1.28,0-2.26,0Z"/><path class="cls-1" d="M59.2,216.38a12.94,12.94,0,0,0-2.35.19.35.35,0,0,1-.37-.33,16.48,16.48,0,0,1-.24-1.94,20.61,20.61,0,0,0,3.46.19h5.15c1.22,0,2.45,0,3.68-.05.24,0,.29,0,.29.23a12.51,12.51,0,0,1,0,1.5c0,.2-.06.26-.29.24l-3.57,0Z"/><path class="cls-1" d="M81.2,211.88a1.35,1.35,0,0,1-1.37,1.38,1.33,1.33,0,0,1-1.36-1.38,1.35,1.35,0,0,1,1.36-1.36A1.37,1.37,0,0,1,81.2,211.88Zm0,6.77A1.35,1.35,0,0,1,79.83,220a1.33,1.33,0,0,1-1.36-1.38,1.35,1.35,0,0,1,1.36-1.36A1.37,1.37,0,0,1,81.2,218.65Z"/><path class="cls-1" d="M93.39,219.74a39.46,39.46,0,0,0,3.89-1.12,8.9,8.9,0,0,0,0,1.15c0,.53,0,.53-.5.68-1.67.56-3.46,1-5.2,1.47a2.53,2.53,0,0,0-.64.22.45.45,0,0,1-.26.1c-.1,0-.18-.1-.22-.22a13.77,13.77,0,0,1-.36-1.64c.47,0,.93-.11,1.49-.22l.16,0v-7.8a24.72,24.72,0,0,0-.09-2.7,14,14,0,0,1,1.61.4,36.37,36.37,0,0,0,7-1.43,3.77,3.77,0,0,0,1-.46,8.5,8.5,0,0,1,1.27,1.09.38.38,0,0,1,.16.28c0,.13-.11.18-.34.2a5.16,5.16,0,0,0-.77.2c-1,.31-2,.56-3,.79,0,1.18.13,2.24.24,3.17l2.64-.13c1.47-.06,2-.11,2.22-.13s.16,0,.16.19l0,1.28c0,.18,0,.2-.18.2s-.75,0-2.24.06l-2.35.11a14,14,0,0,0,.82,2.71c.6,1.39,1.6,2.27,2.16,2.27s.73-.75.83-2.27a3.57,3.57,0,0,0,1.07.65c.48.21.5.23.42.71-.37,2.11-1.12,2.78-2.29,2.78s-2.82-1.25-3.79-3.66a15.23,15.23,0,0,1-.88-3.11l-4,.19ZM97.14,214c-.13-.91-.22-1.89-.27-2.91-1.12.2-2.26.35-3.48.48v2.6Z"/><path class="cls-1" d="M112.69,211.18a18.32,18.32,0,0,1-3.84,2.94.73.73,0,0,1-.37.16c-.11,0-.19-.11-.33-.36a3.46,3.46,0,0,0-.82-.9,14.57,14.57,0,0,0,5.22-4.21,4.23,4.23,0,0,0,.54-.94,10.81,10.81,0,0,1,1.65.4c.16,0,.22.11.22.22a.33.33,0,0,1-.2.29,1.82,1.82,0,0,0-.48.51l-.32.43h3.49a1.61,1.61,0,0,0,.46,0,.77.77,0,0,1,.29-.08c.14,0,.32.1.67.42s.5.54.5.67-.05.22-.23.32a2.4,2.4,0,0,0-.53.51,20.57,20.57,0,0,1-4.53,4.39h4.12c1.37,0,2.08,0,2.17,0s.18,0,.18.16,0,.58,0,2.07v1.47c0,2.24,0,2.69,0,2.79s0,.17-.18.17H119c-.17,0-.19,0-.19-.17v-.72h-5.63v.8c0,.16,0,.17-.16.17h-1.38c-.16,0-.18,0-.18-.17s0-.59,0-2.84v-2.09c-.9.49-1.88,1-3,1.42a1,1,0,0,1-.36.13c-.13,0-.18-.13-.32-.42a3.7,3.7,0,0,0-.77-1,23.05,23.05,0,0,0,5.6-2.67,14.24,14.24,0,0,0-1.66-1.49c-.07-.05-.12-.1-.12-.13s0-.1.13-.16l.85-.69a.39.39,0,0,1,.19-.09.34.34,0,0,1,.19.08,14.44,14.44,0,0,1,1.77,1.45,18.41,18.41,0,0,0,2.7-2.75Zm.5,6.19v2.84h5.63v-2.84Z"/><path class="cls-1" d="M129.3,210.36a10.83,10.83,0,0,0,.16-1.77,11.23,11.23,0,0,1,1.92.52.34.34,0,0,1,.25.32.33.33,0,0,1-.11.24,2.11,2.11,0,0,0-.32.61c-.2.66-.37,1.25-.57,1.92.43,0,.91-.06,1.28-.06,1.49,0,2.29,1,2.29,3.09a13.5,13.5,0,0,1-.87,5,2.29,2.29,0,0,1-2.16,1.5,4.2,4.2,0,0,1-1.66-.24.42.42,0,0,1-.29-.45,4.41,4.41,0,0,0-.31-1.48,4.35,4.35,0,0,0,1.84.41c.53,0,.77-.19,1-.85a12.2,12.2,0,0,0,.62-4c0-1.12-.2-1.47-.91-1.47a9.52,9.52,0,0,0-1.34.11,44.41,44.41,0,0,1-3.22,7.52c-.1.21-.22.24-.42.15a7.2,7.2,0,0,1-1.1-.71.33.33,0,0,1-.13-.24.38.38,0,0,1,.06-.18,33.29,33.29,0,0,0,2.93-6.27l-1.56.27a4.75,4.75,0,0,0-.89.26.35.35,0,0,1-.51-.21,14.22,14.22,0,0,1-.49-1.65c.7,0,1.4,0,2.11-.11s1.26-.14,1.89-.24C129.07,211.47,129.19,210.91,129.3,210.36Zm6.34,1.08c.11-.07.19,0,.3.08a10.65,10.65,0,0,1,2.66,3.88c.06.15.05.23-.07.32a6.32,6.32,0,0,1-1.2.81c-.16.08-.32.06-.37-.13a10.77,10.77,0,0,0-2.62-4.15A12.31,12.31,0,0,1,135.64,211.44Zm.43-2.25c.08-.06.14,0,.24,0a7.41,7.41,0,0,1,1.52,1.71.17.17,0,0,1-.05.26l-.67.49c-.11.08-.19.06-.27-.05a8.1,8.1,0,0,0-1.62-1.85Zm1.42-1c.1-.06.15,0,.24,0a6.34,6.34,0,0,1,1.52,1.64.19.19,0,0,1,0,.29l-.64.5a.17.17,0,0,1-.28-.05,7.34,7.34,0,0,0-1.6-1.84Z"/><path class="cls-1" d="M148.2,208.84c1.15,0,1.5,0,1.6,0s.2,0,.2.19a8.85,8.85,0,0,0,.1,1.78,12.52,12.52,0,0,0,6.23,9.89,4.61,4.61,0,0,0-1,1.22c-.13.25-.19.37-.29.37s-.19-.08-.36-.21a13.76,13.76,0,0,1-5.49-7.94,13.49,13.49,0,0,1-5.9,8c-.19.11-.28.19-.36.19s-.18-.13-.34-.38a3.93,3.93,0,0,0-.94-1.06,11.67,11.67,0,0,0,6.43-10.36h-2c-1.16,0-1.51,0-1.61,0s-.19,0-.19-.18V209c0-.16,0-.18.19-.18s.45,0,1.61,0Z"/><path class="cls-1" d="M166.4,213.12a13.94,13.94,0,0,1-.8,3.85,9.68,9.68,0,0,1-4.83,5.24,1.43,1.43,0,0,1-.39.14c-.12,0-.2-.09-.38-.33a3.45,3.45,0,0,0-1-.93c2.61-1.14,4.23-2.66,5-4.76a12.22,12.22,0,0,0,.67-3.21h-2.49c-1.54,0-2.07,0-2.15,0s-.19,0-.19-.18v-1.31c0-.16,0-.18.19-.18s.61,0,2.15,0h2.57c0-.47,0-.93,0-1.4a12.28,12.28,0,0,0-.15-2.13,17.59,17.59,0,0,1,1.89.18c.24,0,.32.11.32.22a.64.64,0,0,1-.14.4,4.56,4.56,0,0,0-.13,1.36c0,.44,0,.9,0,1.37h3.36c1.55,0,2.08,0,2.19,0s.19,0,.19.19c0,.49,0,1,0,1.45a46,46,0,0,1-.5,7c-.28,1.54-1.07,2.1-2.67,2.12a12,12,0,0,1-1.54-.07c-.49-.05-.49-.06-.59-.57a3.92,3.92,0,0,0-.46-1.27,12.23,12.23,0,0,0,2.4.21c.59,0,1-.23,1.17-1.07a39.1,39.1,0,0,0,.41-6.37Z"/><path class="cls-1" d="M182.05,209.93a5.2,5.2,0,0,0-.8-1.3,12.89,12.89,0,0,1,1.9-.25c.42,0,.55.11.55.33a2.24,2.24,0,0,0,0,.45c0,.19.12.42.26.8s.34.87.55,1.3a25.36,25.36,0,0,0,3.34-1c.16-.08.21-.07.31.11a7.09,7.09,0,0,1,.39,1.23c.05.16,0,.24-.12.27a25,25,0,0,1-3.19.93,18.54,18.54,0,0,0,2.45,3.38,3.54,3.54,0,0,0,.42.35c.09.08.16.13.16.21a.49.49,0,0,1-.1.27,6.2,6.2,0,0,1-.62,1c-.13.18-.21.24-.32.24s-.13,0-.26-.13a5.58,5.58,0,0,0-.66-.41,7.22,7.22,0,0,0-3.39-.82c-1.66,0-2.67.5-2.67,1.51,0,1.2,1.45,1.69,4,1.69a16.3,16.3,0,0,0,2.56-.22,10.45,10.45,0,0,1-.34,1.71c0,.16-.11.19-.3.23a16.32,16.32,0,0,1-1.78.11c-3.78,0-5.81-1.2-5.81-3.32,0-1.82,1.57-3.1,4.21-3.1a8.19,8.19,0,0,1,2.85.43,10.37,10.37,0,0,1-2.07-2.83c-1,.17-1.93.3-3.08.4-.44,0-1.17.08-1.57.08-.15,0-.21-.1-.26-.29a13,13,0,0,1-.37-1.44,18.05,18.05,0,0,0,2,0,22.39,22.39,0,0,0,2.53-.3C182.53,211,182.31,210.54,182.05,209.93Z"/><path class="cls-1" d="M197.22,210a5.8,5.8,0,0,0-.16-1.56,9.4,9.4,0,0,1,1.82.31c.26.06.34.16.34.32a.69.69,0,0,1-.11.3,1.93,1.93,0,0,0-.15.79c0,.52-.05.86-.08,1.6a4.72,4.72,0,0,1,.61.35.25.25,0,0,1,.14.22.31.31,0,0,1-.08.18c-.3.5-.57,1-.83,1.52v.08c.51-.58.87-.94,1.49-1.55,1.27-1.2,2.15-1.57,2.9-1.57a1.87,1.87,0,0,1,1.92,2.13c0,.46,0,1.44-.13,2.91s-.16,2.19-.16,2.69c0,.8.19.91.59.91a2.13,2.13,0,0,0,1.19-.57,4.2,4.2,0,0,0,1-1.35,3.82,3.82,0,0,0,.59,1.2.63.63,0,0,1,.18.37.48.48,0,0,1-.12.27,3.84,3.84,0,0,1-3.07,1.84c-1.38,0-2.05-.78-2.05-2.45,0-.43.05-1.32.13-2.68s.11-1.94.11-2.63-.17-1.06-.49-1.06-1,.34-1.8,1-1.41,1.4-2.24,2.36c0,2,.07,4.32.07,6.06a.2.2,0,0,1-.23.23c-.21,0-.83.06-1.25.06-.16,0-.22-.08-.22-.27,0-1.46,0-3.14,0-4.58l-1.86,2.88c-.06.12-.11.16-.18.16a.45.45,0,0,1-.19-.08,5.42,5.42,0,0,1-1-.89c-.06-.07-.1-.12-.1-.18A.41.41,0,0,1,194,219c1.33-1.7,2.16-2.83,3.14-4.21,0-.4,0-.71,0-1.09a13.93,13.93,0,0,0-1.92.64c-.14.06-.3.22-.46.22a.38.38,0,0,1-.32-.25,8.58,8.58,0,0,1-.63-1.47,7.8,7.8,0,0,0,1.17-.15c.54-.13,1.44-.35,2.26-.61Z"/><path class="cls-1" d="M219.22,211.64c-1.95.37-3.67.71-5.38,1.06a9.86,9.86,0,0,0-1,.26,1,1,0,0,1-.35.12.36.36,0,0,1-.3-.24,11.06,11.06,0,0,1-.6-1.72,23.4,23.4,0,0,0,2.55-.28c2-.29,5.49-.81,9.62-1.36.24,0,.32.07.34.18a8.51,8.51,0,0,1,.17,1.41c0,.19-.09.24-.3.24a7.46,7.46,0,0,0-2,.35c-2.72.93-4.08,2.8-4.08,4.72,0,2.07,1.48,3.19,4.26,3.36.26,0,.35.07.35.24a5.79,5.79,0,0,1-.17,1.38c-.05.24-.11.34-.31.34-2.81,0-5.9-1.62-5.9-4.95,0-2.27,1.13-3.81,3.07-5.08Z"/><path class="cls-1" d="M231.27,210.73a.38.38,0,0,1,.25.29,1.38,1.38,0,0,1-.13.45,7.53,7.53,0,0,0-.14,1.57,19.91,19.91,0,0,0,.29,3.65c.22,1.26.64,2.35,1.31,2.35.51,0,.91-.56,1.54-2.23a6.3,6.3,0,0,0,1,1.24.49.49,0,0,1,.11.59c-.6,1.63-1.6,2.49-2.72,2.49s-2.56-1.47-3-4.17a28.64,28.64,0,0,1-.39-4.66,8.63,8.63,0,0,0-.19-2.1A7.09,7.09,0,0,1,231.27,210.73Zm7.42,1a.6.6,0,0,1,.18-.07.26.26,0,0,1,.17.1,10.61,10.61,0,0,1,3.14,5.48c0,.2-.05.27-.17.35a5.92,5.92,0,0,1-1.25.64c-.19.06-.31,0-.34-.18a10.74,10.74,0,0,0-3-5.58C238,212.09,238.44,211.87,238.69,211.74Z"/><path class="cls-1" d="M251.91,215.9a30.24,30.24,0,0,1-3.3-.06c-.18,0-.24-.07-.26-.28a10.13,10.13,0,0,1-.09-1.36,21.6,21.6,0,0,0,3.6.13c0-.61,0-1.23,0-1.84a25.86,25.86,0,0,1-3.83-.08c-.17,0-.25-.06-.27-.22,0-.4-.08-.79-.11-1.44a36.51,36.51,0,0,0,4.19.16c0-.6,0-1,0-1.56a5,5,0,0,0-.19-1.07,9.66,9.66,0,0,1,2,.29.33.33,0,0,1,.18.48,2.17,2.17,0,0,0-.24.77c0,.32,0,.54,0,1a26.7,26.7,0,0,0,3.5-.48c.2-.05.26,0,.28.19a9.39,9.39,0,0,1,.08,1.17c0,.21-.05.24-.18.26a34.17,34.17,0,0,1-3.7.42c0,.64,0,1.23,0,1.8,1.21-.08,2-.24,3.13-.41.2,0,.24,0,.26.13,0,.3.05.83.05,1.31,0,.16-.07.21-.24.22a28.88,28.88,0,0,1-3.14.39c0,.73.07,1.52.11,2.25a14.36,14.36,0,0,1,4.24,1.94c.16.14.16.19.12.39a5.07,5.07,0,0,1-.71,1.18.22.22,0,0,1-.21.13.26.26,0,0,1-.17-.08,12.81,12.81,0,0,0-3.19-1.83c0,1.73-1,2.44-3.25,2.44s-3.26-.92-3.26-2.25,1.26-2.27,3.2-2.27a14.33,14.33,0,0,1,1.54.07C252,217.1,251.92,216.45,251.91,215.9Zm-1.38,3.23c-1.17,0-1.73.34-1.73.85s.48.72,1.59.72a2,2,0,0,0,1.45-.48,1.5,1.5,0,0,0,.18-.89A6.5,6.5,0,0,0,250.53,219.13Z"/><path class="cls-1" d="M266.15,211.42a6.78,6.78,0,0,0-.23-1.7,16.23,16.23,0,0,1,1.92.27.42.42,0,0,1,.34.34.93.93,0,0,1-.1.34,2.45,2.45,0,0,0-.16.7c0,.38,0,1,0,1.54,1.11-.15,2.8-.32,3.95-.45,0-.8,0-1.67,0-2.26a7.07,7.07,0,0,0-.21-1.82,10.78,10.78,0,0,1,1.94.32c.22.06.3.14.3.3a.77.77,0,0,1-.09.32,2.59,2.59,0,0,0-.16.72c0,.87-.05,1.49-.07,2.24,1.3-.09,2.26-.14,3.12-.17.13,0,.2,0,.2.16,0,.43,0,.88,0,1.31,0,.21,0,.22-.21.22-1.06,0-2.13,0-3.19.13a24.3,24.3,0,0,1-.19,2.47,1.86,1.86,0,0,1-2.1,1.77,8.7,8.7,0,0,1-1,0c-.25,0-.32-.13-.32-.42a3.9,3.9,0,0,0-.35-1.44,5.2,5.2,0,0,0,1.36.19c.43,0,.67-.13.75-.69a14,14,0,0,0,.11-1.69c-1.28.09-2.67.25-3.9.44,0,1.75,0,2.71,0,3.62.1,1.31.45,1.57,2.4,1.57a29.17,29.17,0,0,0,4.15-.32c.24,0,.28,0,.32.21a10.4,10.4,0,0,1,.09,1.34c0,.19-.06.27-.2.29a37.56,37.56,0,0,1-4,.24c-3.24,0-4.18-.67-4.37-2.77-.08-.86-.11-2.21-.11-3.9-.82.11-1.33.2-1.94.33a6,6,0,0,0-.72.24c-.21.1-.32,0-.42-.17a6.42,6.42,0,0,1-.45-1.6,17,17,0,0,0,1.72-.16l1.81-.31Z"/><path class="cls-1" d="M284.64,215.93a3.16,3.16,0,0,1,1.95-.81c1.73,0,2.17,1.49,2.34,3,.13,1.17.32,1.7.93,1.7a2.06,2.06,0,0,0,1.51-.77,7.88,7.88,0,0,0,1.61-2.61,3.89,3.89,0,0,0,.93,1.33.43.43,0,0,1,.18.34.57.57,0,0,1-.07.27,8.77,8.77,0,0,1-1.37,2,4,4,0,0,1-2.95,1.35c-1.62,0-2.3-.85-2.51-3.11-.15-1.6-.5-2.06-1.06-2.06a2.79,2.79,0,0,0-2,1.36,19.41,19.41,0,0,0-1.87,3.55c-.09.23-.17.26-.38.19a4.86,4.86,0,0,1-1.24-.69.28.28,0,0,1-.14-.2.46.46,0,0,1,.08-.23c2.34-4.58,3.81-7.63,4.69-9.63a10,10,0,0,0,.8-2.34,8.7,8.7,0,0,1,1.79.9.39.39,0,0,1,.23.33.5.5,0,0,1-.18.32,4.12,4.12,0,0,0-.49.69c-1,2-1.89,3.65-2.77,5.09Z"/><path class="cls-2" d="M83.59,127.25a1.6,1.6,0,1,1-1.6-1.61A1.61,1.61,0,0,1,83.59,127.25Z"/><path class="cls-2" d="M95.55,131.74a39.46,39.46,0,0,0,3.89-1.12,8.9,8.9,0,0,0,0,1.15c0,.53,0,.53-.5.68-1.67.56-3.46,1-5.2,1.47a2.53,2.53,0,0,0-.64.22.45.45,0,0,1-.26.1c-.09,0-.18-.1-.22-.22a13.77,13.77,0,0,1-.36-1.64c.47,0,.93-.11,1.49-.22l.16,0v-7.8a24.72,24.72,0,0,0-.09-2.7,14,14,0,0,1,1.61.4,36.37,36.37,0,0,0,7-1.43,3.77,3.77,0,0,0,1-.46,8.5,8.5,0,0,1,1.27,1.09.38.38,0,0,1,.16.28c0,.13-.11.18-.34.2a5.5,5.5,0,0,0-.77.2c-1,.31-2,.56-3,.79.05,1.18.13,2.24.24,3.17l2.64-.13c1.47-.06,2-.11,2.22-.13s.16,0,.16.19l0,1.28c0,.18,0,.2-.18.2s-.75,0-2.24.06l-2.35.11a14,14,0,0,0,.82,2.71c.6,1.39,1.6,2.27,2.16,2.27s.73-.75.83-2.27a3.57,3.57,0,0,0,1.07.65c.48.21.5.23.42.71-.37,2.11-1.12,2.78-2.29,2.78s-2.82-1.25-3.79-3.66a15.23,15.23,0,0,1-.88-3.11l-4,.19ZM99.3,126c-.13-.91-.22-1.89-.27-2.91-1.12.2-2.26.35-3.48.48v2.6Z"/><path class="cls-2" d="M114.85,123.18a18.32,18.32,0,0,1-3.84,2.94.73.73,0,0,1-.37.16c-.11,0-.19-.11-.34-.36a3.43,3.43,0,0,0-.81-.9,14.57,14.57,0,0,0,5.22-4.21,4.23,4.23,0,0,0,.54-.94,11.11,11.11,0,0,1,1.65.4c.16,0,.22.11.22.22a.33.33,0,0,1-.2.29,1.8,1.8,0,0,0-.49.51l-.32.43h3.49a1.65,1.65,0,0,0,.47,0,.77.77,0,0,1,.29-.08c.14,0,.32.1.67.42s.49.54.49.67,0,.22-.22.32a2.2,2.2,0,0,0-.53.51,20.57,20.57,0,0,1-4.53,4.39h4.12c1.37,0,2.08,0,2.17,0s.18,0,.18.16,0,.58,0,2.07v1.47c0,2.24,0,2.69,0,2.79s0,.17-.18.17h-1.36c-.17,0-.19,0-.19-.17v-.72h-5.63v.8c0,.16,0,.17-.16.17h-1.38c-.16,0-.18,0-.18-.17s0-.59,0-2.84v-2.09c-.9.49-1.88,1-3,1.42a1,1,0,0,1-.36.13c-.13,0-.18-.13-.32-.42a3.7,3.7,0,0,0-.77-1,23.05,23.05,0,0,0,5.6-2.67,14.24,14.24,0,0,0-1.66-1.49c-.07,0-.12-.1-.12-.13s.05-.1.13-.16l.85-.69a.35.35,0,0,1,.19-.09.34.34,0,0,1,.19.08,13.65,13.65,0,0,1,1.76,1.45,18,18,0,0,0,2.71-2.75Zm.5,6.19v2.84H121v-2.84Z"/><path class="cls-3" d="M28.76,30.75c-1.4.11-2.83.22-4.7.22-.48,0-.62-.17-.67-.59s-.2-1.45-.31-2.43a14.51,14.51,0,0,0,2.18.14,35.45,35.45,0,0,0,3.56-.23c0-.92,0-2,0-3.19a10.25,10.25,0,0,0-.2-2.27,15.72,15.72,0,0,1,3.33.51c.34.08.56.28.56.53a.94.94,0,0,1-.17.45A3.67,3.67,0,0,0,32,25c-.08.73-.11,1.43-.14,2.32a27.56,27.56,0,0,0,3.59-1c.25-.09.44,0,.47.25a14.35,14.35,0,0,1,.17,2.18c0,.28-.08.37-.36.45a27.57,27.57,0,0,1-4,1.06c0,1.35,0,2.72-.05,4.07a17.6,17.6,0,0,1,6.88-1.54c3.47,0,6,2.24,6,5.59,0,3.59-2.3,5.69-6.08,5.69a10.93,10.93,0,0,1-2.3-.25.75.75,0,0,1-.61-.84,4.89,4.89,0,0,0-.84-2.38,10.35,10.35,0,0,0,3.5.5,2.77,2.77,0,0,0,3-2.88c0-1.82-1.12-2.83-3.08-2.83a13.88,13.88,0,0,0-6.41,1.9c0,1.18.06,2.13.11,3.36s.23,3,.23,3.64c0,.39.05.81-.42.93a11.35,11.35,0,0,1-2.08.33c-.3,0-.42-.19-.67-.56a17.17,17.17,0,0,0-4-3.58A4.79,4.79,0,0,0,24,42a.68.68,0,0,1-.47.19.79.79,0,0,1-.62-.45c-.31-.5-.87-1.68-1.29-2.6a10.66,10.66,0,0,0,2.58-1c1.2-.67,2.52-1.43,4.56-2.6Zm-2.6,9.63a26.76,26.76,0,0,0,2.63,1.26c.22.06.31,0,.28-.22-.06-.73-.11-2-.17-2.94C28.12,39,27.17,39.65,26.16,40.38Zm13.38-14.7c.2-.31.28-.39.48-.34A13.37,13.37,0,0,1,46,28.76a.41.41,0,0,1,.17.28.67.67,0,0,1-.11.28c-.36.56-1.09,1.43-1.51,2-.09.11-.48.14-.56,0a13,13,0,0,0-5.69-3.45A19.2,19.2,0,0,1,39.54,25.68Z"/><path class="cls-3" d="M59.87,21.82c1.82,0,2.63-.06,2.8-.06s.28,0,.28.31-.06,1-.06,2.77v3.64c0,1.73.06,2.58.06,2.74s0,.31-.28.31-1-.05-2.8-.05H55.39v8.73c0,3.87.06,5.77.06,6s0,.31-.31.31H52.76c-.28,0-.31,0-.31-.31s.06-2.09.06-6V28.09c0-3.87-.06-5.83-.06-6s0-.31.31-.31,1.23.06,3.27.06Zm-4.48,2.12V25.6h4.76V23.94Zm4.76,3.59H55.39v1.9h4.76Zm-1,16.29c-.28,0-.31,0-.31-.28s.06-.87.06-4.56V37c0-2-.06-2.77-.06-3s0-.31.31-.31.87.05,3,.05h3.67c2.1,0,2.77-.05,3-.05s.3,0,.3.31,0,.89,0,2.43v2.16c0,3.53,0,4.2,0,4.37s0,.33-.3.33h-2c-.31,0-.33,0-.33-.33V42H61.52v1.51c0,.28,0,.28-.33.28Zm2.38-4.17h4.85V36.12H61.52Zm14.11-2.38c0,2,.12,4.2.12,5.57s-.17,2-.82,2.58-1.4.75-3.89.75c-.89,0-.89,0-1.06-.86a7.76,7.76,0,0,0-.65-2.07,16.73,16.73,0,0,0,2.27.14c.93,0,1.15-.26,1.15-1.1V31.48H68.27c-2.18,0-2.91.05-3.08.05s-.34,0-.34-.31.06-.84.06-2.52V24.62c0-1.68-.06-2.36-.06-2.55s0-.31.34-.31.9.06,3.08.06h4c2.16,0,2.91-.06,3.08-.06s.31,0,.31.31-.06,1.34-.06,3.72Zm-8-13.33V25.6h5.1V23.94Zm5.1,5.49v-1.9h-5.1v1.9Z"/><path class="cls-3" d="M88.65,30.1a34.21,34.21,0,0,1-5.18,3.31,1.92,1.92,0,0,1-.64.28c-.2,0-.31-.2-.53-.7A6.85,6.85,0,0,0,81,31.11a24.82,24.82,0,0,0,10.78-8.57,8.48,8.48,0,0,0,1.09-2c1.1.16,2.13.33,2.94.53.34.11.51.19.51.45A.5.5,0,0,1,96,22a.71.71,0,0,0-.23.19,25.3,25.3,0,0,0,12,8.54,7.45,7.45,0,0,0-1.18,2.13c-.16.53-.28.73-.5.73a1.7,1.7,0,0,1-.67-.26,30.21,30.21,0,0,1-5.46-3.13v2c0,.28,0,.31-.31.31s-.92-.06-3.16-.06H92.13c-2.24,0-3,.06-3.17.06s-.31,0-.31-.31ZM86,46.43c-.28,0-.3,0-.3-.31s0-.92,0-5v-2.4c0-2.41,0-3.22,0-3.39s0-.31.3-.31,1.15.06,3.84.06h9c2.69,0,3.67-.06,3.84-.06s.33,0,.33.31,0,1,0,3v2.74c0,4,0,4.79,0,4.93s0,.31-.33.31h-2.38c-.28,0-.31,0-.31-.31v-.93H88.71v1.07c0,.28,0,.31-.34.31Zm2.72-3.92H99.94V37.63H88.71Zm7.76-12.74c1.65,0,2.49,0,2.88,0a24.94,24.94,0,0,1-5.15-5.32,27.51,27.51,0,0,1-5.1,5.29c.34,0,1.12.06,3,.06Z"/><path class="cls-3" d="M117.88,27a11,11,0,0,0-.39-3,24,24,0,0,1,3.36.47.72.72,0,0,1,.59.59,1.47,1.47,0,0,1-.17.59,4,4,0,0,0-.28,1.23c0,.67,0,1.74,0,2.69,1.93-.25,4.9-.56,6.91-.78,0-1.4,0-2.92,0-3.95a12.47,12.47,0,0,0-.36-3.2,19.28,19.28,0,0,1,3.39.57c.39.11.53.25.53.53a1.32,1.32,0,0,1-.17.56,4.9,4.9,0,0,0-.28,1.26c-.06,1.51-.08,2.6-.11,3.92,2.27-.17,4-.26,5.46-.31.22,0,.33,0,.33.28a19.61,19.61,0,0,1,0,2.3c0,.36,0,.39-.36.39-1.85,0-3.73.08-5.57.22-.09,1.85-.17,3.22-.34,4.31-.31,2.19-1.57,3.11-3.67,3.11a13.11,13.11,0,0,1-1.73-.08c-.45,0-.56-.23-.56-.73a7,7,0,0,0-.62-2.52,8.94,8.94,0,0,0,2.38.34c.76,0,1.18-.23,1.32-1.21a28.18,28.18,0,0,0,.19-3c-2.24.17-4.67.45-6.83.79,0,3,0,4.73.06,6.32.17,2.3.78,2.75,4.2,2.75a51.6,51.6,0,0,0,7.25-.56c.42,0,.5,0,.56.36a17.6,17.6,0,0,1,.17,2.36c0,.33-.12.47-.37.5a63.43,63.43,0,0,1-7,.42c-5.65,0-7.3-1.18-7.64-4.84-.14-1.52-.2-3.87-.2-6.84-1.42.2-2.32.37-3.38.59a9.16,9.16,0,0,0-1.26.42c-.37.17-.56.06-.73-.31a10.87,10.87,0,0,1-.78-2.8,26.32,26.32,0,0,0,3-.28c.78-.11,2.13-.36,3.16-.53Z"/><rect class="cls-1" x="130" y="307" width="140" height="48" rx="6"/><path class="cls-2" d="M186.08,336.09a3.07,3.07,0,0,0,1.66,1.66,11.54,11.54,0,0,0,3.71.4c2.58,0,5.62-.12,8.61-.42a3.71,3.71,0,0,0-.54,1.54c-.1.64-.1.64-.74.68-2.55.14-4.93.18-7,.18a13.81,13.81,0,0,1-4.69-.56,3.87,3.87,0,0,1-2-1.78,22.6,22.6,0,0,1-2.06,1.76,1.85,1.85,0,0,0-.4.4.33.33,0,0,1-.3.18.38.38,0,0,1-.28-.24,17.47,17.47,0,0,1-.82-1.88,10.58,10.58,0,0,0,1.18-.62,12.85,12.85,0,0,0,1.68-1.28v-4.44h-.94c-1.08,0-1.36,0-1.46,0s-.24,0-.24-.24V330c0-.2,0-.22.24-.22s.38,0,1.46,0h1.22c1.06,0,1.38,0,1.5,0s.22,0,.22.22,0,.68,0,1.9Zm-2.9-13.16c.2-.14.26-.16.42,0a17.41,17.41,0,0,1,2.5,2.94c.1.16.1.24-.12.4l-1.12.9c-.12.08-.18.12-.24.12s-.12,0-.18-.14A17.31,17.31,0,0,0,182,324c-.14-.16-.12-.22.1-.36Zm7,8.6c-1.94,0-2.59,0-2.71,0s-.22,0-.22-.22v-1.42c0-.2,0-.22.22-.22s.77,0,2.71,0h1.74a20.69,20.69,0,0,0,0-2.28h-1.4c-1.87,0-2.53,0-2.65,0s-.2,0-.2-.22v-1.4c0-.22,0-.24.2-.24s.73,0,2.43,0a9.5,9.5,0,0,0-1.35-2.34c-.14-.18-.08-.24.15-.32l1.34-.54c.26-.1.28-.1.42.08a12.21,12.21,0,0,1,1.32,2.16c.08.2,0,.28-.22.38l-1.5.58h3a22,22,0,0,0,1.22-2.28,5,5,0,0,0,.34-1.12,16.91,16.91,0,0,1,2.06.58c.16.06.27.16.27.28a.4.4,0,0,1-.25.36,1.1,1.1,0,0,0-.37.46c-.37.64-.69,1.18-1,1.72h.16c1.89,0,2.53,0,2.65,0s.22,0,.22.24v1.4c0,.2,0,.22-.22.22s-.76,0-2.65,0H194c0,.84,0,1.6-.12,2.28h2.42c1.95,0,2.61,0,2.73,0s.22,0,.22.22v1.42c0,.2,0,.22-.22.22s-.78,0-2.73,0h-2.08a8.22,8.22,0,0,0,5.37,3.78,5.46,5.46,0,0,0-.78,1.38c-.14.4-.22.56-.4.56a1.32,1.32,0,0,1-.44-.12,8.83,8.83,0,0,1-4.83-4.1,8,8,0,0,1-4.3,4,1.28,1.28,0,0,1-.49.18c-.16,0-.22-.16-.42-.5a4.37,4.37,0,0,0-1-1.16c2.65-1,4.05-2,4.65-4Z"/><path class="cls-2" d="M203.86,330.23a18.3,18.3,0,0,1-1.18,1.6c-.14.18-.26.26-.36.26s-.16-.12-.22-.34a6,6,0,0,0-.64-1.72,19.27,19.27,0,0,0,3.47-6.44,7.09,7.09,0,0,0,.34-1.44,15.73,15.73,0,0,1,1.84.54c.24.08.34.18.34.3a.58.58,0,0,1-.22.36,2.24,2.24,0,0,0-.4.84c-.28.8-.6,1.62-1,2.44v10.64c0,2,0,2.94,0,3s0,.22-.22.22H204c-.18,0-.2,0-.2-.22s0-1.08,0-3Zm6.07-2.54c-2,0-2.64,0-2.76,0s-.22,0-.22-.24v-1.4c0-.22,0-.24.22-.24s.78,0,2.76,0h7.21c2,0,2.62,0,2.74,0s.24,0,.24.24v1.4c0,.22,0,.24-.24.24s-.78,0-2.74,0Zm-1.6,12.78c-.2,0-.22,0-.22-.22s0-.6,0-2.66v-1.36c0-1.18,0-1.66,0-1.78s0-.2.22-.2.78,0,2.62,0h4.79c1.82,0,2.46,0,2.58,0s.22,0,.22.2,0,.6,0,1.54v1.56c0,2,0,2.52,0,2.64s0,.2-.22.2h-1.66c-.2,0-.22,0-.22-.2v-.6h-6.27v.66c0,.2,0,.22-.22.22Zm2.9-15.68c-1.78,0-2.38,0-2.5,0s-.22,0-.22-.22v-1.34c0-.2,0-.22.22-.22s.72,0,2.5,0h4.33c1.76,0,2.34,0,2.46,0s.24,0,.24.22v1.34c0,.2,0,.22-.24.22s-.7,0-2.46,0Zm0,5.64c-1.76,0-2.36,0-2.48,0s-.22,0-.22-.2V329c0-.2,0-.22.22-.22s.72,0,2.48,0h4.15c1.76,0,2.34,0,2.46,0s.22,0,.22.22v1.32c0,.18,0,.2-.22.2s-.7,0-2.46,0Zm0,2.76c-1.76,0-2.36,0-2.48,0s-.22,0-.22-.22v-1.3c0-.2,0-.22.22-.22s.72,0,2.48,0h4.15c1.76,0,2.34,0,2.46,0s.22,0,.22.22V333c0,.2,0,.22-.22.22s-.7,0-2.46,0Zm-1.08,4.7h6.27V336h-6.27Z"/></svg>
