<svg xmlns="http://www.w3.org/2000/svg" viewBox="0 0 400 135"><defs><style>.cls-1{fill:#626262;}.cls-2{fill:#ed6103;}.cls-3{fill:#fff;}</style></defs><path class="cls-1" d="M92.93,54.8c1,0,2.08,0,3.1,0,.38,0,.44.06.44.34a9.9,9.9,0,0,1,0,1.54c0,.32-.06.4-.34.38-1.14,0-2.38,0-3.56,0H83.13C81.77,57,80.71,57,80,57c-.34,0-.4-.06-.44-.38a17.26,17.26,0,0,1-.14-1.94c1.14.08,2.4.1,3.56.1h6.1l.94-6.6H85.61c-1,0-2,0-2.84.1-.2,0-.24-.12-.28-.4a15.71,15.71,0,0,1-.18-2q1.53.12,3.42.12h3.56a3.11,3.11,0,0,0,1.48-.2.8.8,0,0,1,.32-.12.43.43,0,0,1,.28.12A7.74,7.74,0,0,1,93,47.24a.52.52,0,0,1,.18.36.55.55,0,0,1-.2.4,2.25,2.25,0,0,0-.54,1.32l-.82,5.48Z"/><path class="cls-1" d="M105.31,52.76a16,16,0,0,0-2.94.24c-.24,0-.4-.12-.46-.42a21.71,21.71,0,0,1-.3-2.42,25.69,25.69,0,0,0,4.32.24h6.44c1.52,0,3.06,0,4.6-.06.3,0,.36,0,.36.28a14.74,14.74,0,0,1,0,1.88c0,.24-.08.32-.36.3-1.5,0-3,0-4.46,0Z"/><path class="cls-1" d="M136.19,47.9c1,0,2.1,0,3-.06.24,0,.26.1.28.32a10.42,10.42,0,0,1,0,1.58c0,.26-.06.34-.34.32l-2.88,0h-.82a11.9,11.9,0,0,1-1.54,6.16,9.42,9.42,0,0,1-4.72,3.72,1.68,1.68,0,0,1-.56.18c-.12,0-.22-.06-.38-.22a4.62,4.62,0,0,0-1.66-1.2c2.84-.88,4.38-1.9,5.4-3.54a9.68,9.68,0,0,0,1.18-5.1h-4.26v.72c0,1.18,0,2.26.06,3.32,0,.22-.12.26-.34.28a12.34,12.34,0,0,1-1.72,0c-.26,0-.38-.06-.36-.28.06-1,.1-2,.1-3.28V50h-.6c-1.08,0-2.68.06-3.3.1-.16,0-.22-.12-.24-.38a17.94,17.94,0,0,1-.14-1.94c.84.06,2.14.1,3.68.1h.6V46.46a13.9,13.9,0,0,0-.24-2.94,19.42,19.42,0,0,1,2.44.32c.22,0,.3.14.3.28a1.36,1.36,0,0,1-.12.42,5,5,0,0,0-.14,1.92v1.46h4.3l0-2a13.3,13.3,0,0,0-.18-2.74,18.59,18.59,0,0,1,2.34.34c.28.06.36.16.36.32a1.07,1.07,0,0,1-.08.36,5.51,5.51,0,0,0-.16,1.76v1.9Zm1-4.84a.21.21,0,0,1,.28.08A9.33,9.33,0,0,1,139,45.56c.06.14,0,.22-.12.3l-.82.42a.22.22,0,0,1-.34-.12,9.52,9.52,0,0,0-1.62-2.6Zm1.88-.86c.12-.06.18,0,.28.08a8.45,8.45,0,0,1,1.54,2.34.22.22,0,0,1-.12.34l-.8.4c-.18.08-.26,0-.32-.1a9.58,9.58,0,0,0-1.62-2.6Z"/><path class="cls-1" d="M148.51,52.76a16,16,0,0,0-2.94.24c-.24,0-.4-.12-.46-.42a21.71,21.71,0,0,1-.3-2.42,25.69,25.69,0,0,0,4.32.24h6.44c1.52,0,3.06,0,4.6-.06.3,0,.36,0,.36.28a14.74,14.74,0,0,1,0,1.88c0,.24-.08.32-.36.3-1.5,0-3,0-4.46,0Z"/><path class="cls-1" d="M172.17,46.26a22.88,22.88,0,0,1-4.8,3.68,1,1,0,0,1-.46.2c-.14,0-.24-.14-.42-.46a4.32,4.32,0,0,0-1-1.12A18.1,18.1,0,0,0,172,43.3a5,5,0,0,0,.68-1.18,14.16,14.16,0,0,1,2.06.5c.2.06.28.14.28.28a.41.41,0,0,1-.26.36,2.33,2.33,0,0,0-.6.64l-.4.54h4.36a1.9,1.9,0,0,0,.58,0,1,1,0,0,1,.36-.1c.18,0,.4.12.84.52s.62.68.62.84-.06.28-.28.4a2.73,2.73,0,0,0-.66.64,25.88,25.88,0,0,1-5.66,5.48h5.14c1.72,0,2.6,0,2.72,0s.22,0,.22.2,0,.72,0,2.58v1.84c0,2.8,0,3.36,0,3.48s0,.22-.22.22h-1.7c-.22,0-.24,0-.24-.22v-.9h-7v1c0,.2,0,.22-.2.22h-1.72c-.2,0-.22,0-.22-.22s0-.74,0-3.54V54.18A40.09,40.09,0,0,1,167,56a1.38,1.38,0,0,1-.46.16c-.16,0-.22-.16-.4-.52a4.57,4.57,0,0,0-1-1.28,29,29,0,0,0,7-3.34,16.84,16.84,0,0,0-2.08-1.86C170,49.06,170,49,170,49s.06-.12.16-.2l1.06-.86a.44.44,0,0,1,.24-.12.47.47,0,0,1,.24.1,18,18,0,0,1,2.2,1.82,23.81,23.81,0,0,0,3.38-3.44Zm.62,7.74v3.54h7V54Z"/><path class="cls-1" d="M191.79,44c.22.12.3.24.3.4a1,1,0,0,1-.14.44,4.06,4.06,0,0,0-.36,1.1,39.71,39.71,0,0,0-1,7.28c0,.8,0,1.72.06,2.56.4-.92.82-1.78,1.24-2.78a5.32,5.32,0,0,0,.7,1.26.43.43,0,0,1,.12.28.58.58,0,0,1-.12.32,11.85,11.85,0,0,0-1,3,3.78,3.78,0,0,0,0,1.06c0,.14-.06.2-.24.26a8.38,8.38,0,0,1-1.5.34c-.22.06-.3,0-.4-.24a18.63,18.63,0,0,1-.86-6.1,43.44,43.44,0,0,1,.82-7.58,10.06,10.06,0,0,0,.14-2.36A15.62,15.62,0,0,1,191.79,44Zm6.88,5.34a40.44,40.44,0,0,1-4.12,0c-.26,0-.34-.06-.36-.26a12.25,12.25,0,0,1-.14-1.82,28.93,28.93,0,0,0,4.56.06c0-.72,0-1.36,0-2.1a8.24,8.24,0,0,0-.26-2,11.13,11.13,0,0,1,2.42.38c.22.06.36.16.36.34a.86.86,0,0,1-.12.34,2.26,2.26,0,0,0-.16.7c0,.68,0,1.2,0,2.12.94-.08,2-.22,2.84-.36.24-.06.28,0,.32.24a8,8,0,0,1,.12,1.42c0,.18-.08.28-.22.3a22.54,22.54,0,0,1-3.08.42c0,2.24,0,3.64.14,5.36a13.09,13.09,0,0,1,3.32,1.92c.18.12.2.18.1.4a10.8,10.8,0,0,1-.92,1.54.24.24,0,0,1-.18.12.28.28,0,0,1-.18-.1,11.88,11.88,0,0,0-2.16-1.6c-.16,1.68-1.3,2.6-3.66,2.6s-3.58-1.08-3.58-2.8,1.48-2.82,3.5-2.82a8.35,8.35,0,0,1,1.6.16C198.71,52.42,198.69,51,198.67,49.38Zm-1.62,6.22c-.94,0-1.5.34-1.5,1s.44,1,1.62,1c1,0,1.64-.58,1.64-1.3a2.82,2.82,0,0,0,0-.4A5.57,5.57,0,0,0,197.05,55.6Z"/><path class="cls-1" d="M83.13,84.34c-1.92,0-2.56,0-2.68,0s-.22,0-.22-.24V82.66c0-.2,0-.22.22-.22s.76,0,2.68,0h3.58V78.84a18.1,18.1,0,0,0-.16-3c.76,0,1.58.06,2.26.14.18,0,.3.1.3.22a1.22,1.22,0,0,1-.12.42,8.46,8.46,0,0,0-.14,2.2v3.68h3.9c1.92,0,2.56,0,2.68,0s.24,0,.24.22v1.48c0,.22,0,.24-.24.24s-.76,0-2.68,0h-3.9v2.58h5.38c1.76,0,2.36,0,2.48,0s.2,0,.2.22v1.52c0,.2,0,.22-.2.22s-.72,0-2.48,0H88.85v1.6c0,2.26,0,3.4,0,3.5s0,.22-.24.22H86.89c-.2,0-.22,0-.22-.22s0-1.24,0-3.5V88.8H81.65c-1.76,0-2.36,0-2.48,0s-.2,0-.2-.22V87.1c0-.2,0-.22.2-.22s.72,0,2.48,0h5.06V84.34Zm-.9-7.16a.55.55,0,0,1,.26-.12c.06,0,.12,0,.18.14a24.07,24.07,0,0,1,2.22,3.46c.08.18.08.22-.18.38l-1.22.74a.62.62,0,0,1-.24.12c-.06,0-.1-.06-.14-.16A18,18,0,0,0,81,78.24c-.12-.16-.12-.2.1-.34Zm10.26.8a3.81,3.81,0,0,0,.36-1,13.24,13.24,0,0,1,1.76.84c.2.1.26.16.26.28s-.06.22-.24.34a1.35,1.35,0,0,0-.34.46c-.46.8-1,1.62-1.78,2.78-.2.26-.28.38-.42.38s-.24-.08-.5-.24a6.46,6.46,0,0,0-1.2-.56A22.9,22.9,0,0,0,92.49,78Z"/><path class="cls-1" d="M116.67,88.88c0,1,0,2,0,2.84a1.84,1.84,0,0,1-.64,1.6c-.44.36-1.28.52-3.32.52-.56,0-.6,0-.74-.62a5.8,5.8,0,0,0-.54-1.5c.94.08,1.72.12,2.28.12s.92-.16.92-.78v-2h-9.9a10.94,10.94,0,0,1-2.2,4.54c-.2.24-.3.36-.4.36s-.22-.1-.44-.32a4.26,4.26,0,0,0-1.34-1c2.12-2,2.8-4.1,2.8-7.92V82.1c-.4.3-.8.58-1.24.86a.87.87,0,0,1-.44.2c-.12,0-.2-.14-.32-.46a4.39,4.39,0,0,0-.78-1.26,13.61,13.61,0,0,0,5.12-4.52,5.41,5.41,0,0,0,.58-1.26c.84.14,1.38.26,1.94.4.22.08.3.18.3.32a.45.45,0,0,1-.24.36,2.16,2.16,0,0,0-.58.68h3.74a1,1,0,0,0,.44-.06.67.67,0,0,1,.3-.08c.14,0,.32.1.82.52s.54.54.54.7-.1.22-.3.32a2.15,2.15,0,0,0-.64.62c-.32.42-.66.86-1,1.28h2.3c1.94,0,2.64,0,2.78,0s.22,0,.22.22,0,.82,0,2.2Zm-7.62-8.16c.42-.54.8-1.1,1.16-1.66h-3.82a15,15,0,0,1-1.54,1.66Zm-.28,6.74V85.72h-3.58q0,.93-.12,1.74Zm0-3.38v-1.7h-3.56v1.7Zm1.94-1.7v1.7h4v-1.7Zm4,5.08V85.72h-4v1.74Z"/><path class="cls-1" d="M125,88.42c-1.78,0-2.4,0-2.52,0s-.22,0-.22-.22V86.8c0-.2,0-.22.22-.22s.7,0,2.24,0V84c0-1.08,0-1.6,0-1.74s0-.22.24-.22.82,0,2.76,0H130c0-.6,0-1.2-.12-1.8.8,0,1.42.06,2.08.14.22,0,.32.12.32.26a1.65,1.65,0,0,1-.12.38,4.18,4.18,0,0,0-.12,1h2.42c1.94,0,2.64,0,2.78,0s.22,0,.22.22,0,.64,0,1.72v2.64c1.52,0,2.1,0,2.22,0s.24,0,.24.22v1.44c0,.2,0,.22-.24.22s-.74,0-2.52,0h-4.5c1.62,2,4.22,3.18,7.6,3.54a4.88,4.88,0,0,0-.8,1.54c-.12.42-.18.54-.42.54a2.28,2.28,0,0,1-.42-.06,11.77,11.77,0,0,1-7.62-4.7,5.83,5.83,0,0,1-.58,1c-1.26,1.76-3.42,3-6.56,3.74a2.24,2.24,0,0,1-.44.06c-.22,0-.28-.12-.44-.52a5,5,0,0,0-.84-1.32c3.6-.54,5.76-1.82,6.74-3.24a3.5,3.5,0,0,0,.32-.54Zm2.2-10.7a10.84,10.84,0,0,0-.12-1.9,19.62,19.62,0,0,1,2,.14c.16,0,.28.08.28.2a.53.53,0,0,1-.12.3,3.47,3.47,0,0,0-.12,1.26h3.74a11.08,11.08,0,0,0-.12-1.92,18.87,18.87,0,0,1,2,.16c.18,0,.28.08.28.2a.53.53,0,0,1-.1.3,3.39,3.39,0,0,0-.12,1.26h2.4c1.78,0,2.38,0,2.5,0s.24,0,.24.22v1.46c0,.2,0,.22-.24.22s-.72,0-2.5,0h-2.4c0,.82,0,1.2,0,1.3s0,.24-.22.24h-1.58c-.2,0-.22,0-.22-.24s0-.48,0-1.3h-3.74c0,.82,0,1.22,0,1.32s0,.22-.22.22h-1.58c-.2,0-.22,0-.22-.22s0-.52,0-1.32h-2.26c-1.78,0-2.38,0-2.5,0s-.22,0-.22-.22V77.9c0-.2,0-.22.22-.22s.72,0,2.5,0Zm-.44,6.14v2.76h3a19.36,19.36,0,0,0,.26-2.76Zm8.6,2.76V83.86H132a21.84,21.84,0,0,1-.24,2.76Z"/><path class="cls-1" d="M150.67,79.54c1.76,0,2.36,0,2.48,0s.24,0,.24.24v1.2c0,.2,0,.22-.24.22s-.72,0-2.48,0h-.14a8,8,0,0,0,2.28,1.62,4.77,4.77,0,0,0-.9,1.1c-.08.12-.14.2-.24.2s-.26-.1-.54-.34a10.49,10.49,0,0,1-1.44-1.56c0,1.2.1,2,.1,2.22s0,.22-.22.22h-1.44c-.2,0-.22,0-.22-.22s.06-1,.08-2.16A11.79,11.79,0,0,1,145.13,85a1,1,0,0,1-.5.26c-.12,0-.18-.12-.3-.34a3.42,3.42,0,0,0-.86-1.06,11.18,11.18,0,0,0,3.5-2.72h-.42c-1.76,0-2.36,0-2.48,0s-.2,0-.2-.22v-1.2c0-.22,0-.24.2-.24s.72,0,2.48,0h1.36V77.6a9.64,9.64,0,0,0-.12-1.74c.72,0,1.24,0,1.92.12a.26.26,0,0,1,.26.22,3.48,3.48,0,0,1-.1.44,4.2,4.2,0,0,0-.08,1.2v1.7ZM151,93c-.12.16-.2.22-.26.22s-.1,0-.18-.1a14,14,0,0,0-1.22-1,9.58,9.58,0,0,1-4,1.88c-.58.14-.64.14-.92-.44a3.59,3.59,0,0,0-.74-1,9.21,9.21,0,0,0,4.06-1.5c-.42-.24-.86-.48-1.32-.7l-.3.44c-.24.32-.32.44-.76.24l-.84-.38c-.22-.1-.32-.16-.32-.24a.58.58,0,0,1,.1-.2,12.59,12.59,0,0,0,.84-1.16,13.25,13.25,0,0,0,.78-1.34l-2,0c-.18,0-.2,0-.2-.22V86.28c0-.2,0-.22.2-.22s.54,0,2.5,0h.28a5.6,5.6,0,0,0,.52-1.5,10.45,10.45,0,0,1,1.8.42c.16.06.24.12.24.22s-.06.18-.18.28a1.8,1.8,0,0,0-.4.58h2.08c1.78,0,2.38,0,2.5,0s.24,0,.24.22V87.5c0,.2,0,.22-.24.22l-1.36,0a10.37,10.37,0,0,1-1.32,3c.4.26.78.54,1.18.84a.38.38,0,0,1,.14.24.43.43,0,0,1-.12.26Zm-5.4-16.52c.2-.1.26-.1.38.06a9.66,9.66,0,0,1,1.12,1.78c.08.16.06.24-.14.34l-1,.5c-.22.12-.3.12-.38-.08a9.6,9.6,0,0,0-1-1.78c-.14-.18-.14-.24.1-.36ZM148,87.68c-.24.5-.48,1-.7,1.32a15.94,15.94,0,0,1,1.78.78,6.84,6.84,0,0,0,1-2.1Zm3.3-10.52a3.07,3.07,0,0,0,.28-.82,9.15,9.15,0,0,1,1.48.58c.14.08.24.16.24.24s0,.18-.16.28a1.27,1.27,0,0,0-.32.38c-.2.32-.48.78-.78,1.2-.14.24-.2.34-.32.34a1.5,1.5,0,0,1-.52-.22c-.3-.14-.62-.28-.9-.38A11,11,0,0,0,151.31,77.16ZM161.85,81c0,.2,0,.22-.22.22l-1.18,0a17,17,0,0,1-2,7.68,15.9,15.9,0,0,0,3.7,3.16,5.21,5.21,0,0,0-.94,1.52c-.14.3-.22.44-.34.44s-.22-.08-.42-.24a20.53,20.53,0,0,1-3.16-3.2,13.36,13.36,0,0,1-4,3.36,1.39,1.39,0,0,1-.5.2c-.16,0-.24-.14-.4-.46a3.4,3.4,0,0,0-.86-1.18,11.9,11.9,0,0,0,4.66-3.64,16.55,16.55,0,0,1-1.64-4.6,10.13,10.13,0,0,1-.72,1.08c-.18.22-.28.32-.38.32s-.24-.12-.42-.36a3.79,3.79,0,0,0-1-.92,15.31,15.31,0,0,0,3.18-6.86,8.62,8.62,0,0,0,.22-1.68c.56.12,1.38.28,1.82.42.26.08.36.16.36.3s-.1.26-.22.44a2.65,2.65,0,0,0-.3.88c-.12.52-.28,1.06-.44,1.62h2.58c1.68,0,2.24,0,2.36,0s.22,0,.22.22Zm-5.76.18-.28.66A17.16,17.16,0,0,0,157.29,87a15.74,15.74,0,0,0,1.24-5.78Z"/><path class="cls-1" d="M175.53,80.54c-2.44.46-4.58.88-6.72,1.32-.76.18-1,.22-1.26.32a1.17,1.17,0,0,1-.44.16.47.47,0,0,1-.38-.3,13.94,13.94,0,0,1-.74-2.16,27.59,27.59,0,0,0,3.18-.34c2.46-.36,6.86-1,12-1.7.3,0,.4.08.42.22a11.43,11.43,0,0,1,.22,1.76c0,.24-.12.3-.38.3a8.92,8.92,0,0,0-2.44.44c-3.4,1.16-5.1,3.5-5.1,5.9,0,2.58,1.84,4,5.32,4.2.32,0,.44.08.44.3a7.11,7.11,0,0,1-.22,1.72c-.06.3-.14.42-.38.42-3.52,0-7.38-2-7.38-6.18,0-2.84,1.42-4.76,3.84-6.34Zm4,2.16c.1-.08.18-.06.3,0a9.2,9.2,0,0,1,1.9,2.14.2.2,0,0,1-.06.32l-.84.62a.21.21,0,0,1-.34-.06,9.92,9.92,0,0,0-2-2.32Zm1.78-1.3c.12-.08.18-.06.3,0a8.35,8.35,0,0,1,1.9,2.06.23.23,0,0,1-.06.36l-.8.62a.21.21,0,0,1-.34-.06,9.46,9.46,0,0,0-2-2.3Z"/><path class="cls-1" d="M195,76.94c1.44,0,1.88,0,2,0s.26,0,.26.24a11.17,11.17,0,0,0,.12,2.22,15.66,15.66,0,0,0,7.78,12.36,5.89,5.89,0,0,0-1.18,1.52c-.16.32-.24.46-.36.46s-.24-.1-.46-.26a17.19,17.19,0,0,1-6.86-9.92,16.83,16.83,0,0,1-7.36,10c-.24.14-.36.24-.46.24s-.22-.16-.42-.48a4.79,4.79,0,0,0-1.18-1.32c5-2.44,7.78-7.22,8-12.94h-2.48c-1.44,0-1.88,0-2,0s-.24,0-.24-.22V77.12c0-.2,0-.22.24-.22s.56,0,2,0Z"/><path class="cls-1" d="M217.71,82.28a17.64,17.64,0,0,1-1,4.82,12.11,12.11,0,0,1-6,6.54,1.86,1.86,0,0,1-.48.18c-.16,0-.26-.12-.48-.42a4.47,4.47,0,0,0-1.26-1.16c3.26-1.42,5.28-3.32,6.22-5.94a15.8,15.8,0,0,0,.84-4h-3.12c-1.92,0-2.58,0-2.68,0s-.24,0-.24-.22V80.46c0-.2,0-.22.24-.22s.76,0,2.68,0h3.22c0-.58,0-1.16,0-1.74a16.35,16.35,0,0,0-.18-2.66,21.06,21.06,0,0,1,2.36.22c.3,0,.4.14.4.28a.84.84,0,0,1-.18.5,5.66,5.66,0,0,0-.16,1.7c0,.54,0,1.12,0,1.7h4.2c1.94,0,2.6,0,2.74,0s.24,0,.24.24c0,.6,0,1.28,0,1.8a57.92,57.92,0,0,1-.62,8.78C224,93,223,93.68,221,93.7a14.18,14.18,0,0,1-1.92-.08c-.62-.06-.62-.08-.74-.72a5,5,0,0,0-.58-1.58,15.7,15.7,0,0,0,3,.26c.74,0,1.26-.28,1.46-1.34a48.36,48.36,0,0,0,.52-8Z"/><path class="cls-1" d="M237,77.12c.34.08.48.18.48.38a1.94,1.94,0,0,1-.2.66A12,12,0,0,0,237,80.6c-.2,3.08-.3,5.12-.3,7.74,0,2,.24,2.48,1.84,2.48,1.78,0,4.56-1.08,7-3.68A7,7,0,0,0,246,89a1.31,1.31,0,0,1,.16.48c0,.18-.08.34-.4.62a11.43,11.43,0,0,1-7.58,3c-2.56,0-3.76-1-3.76-4.08,0-3.36.18-6.24.28-8.64a13.3,13.3,0,0,0-.2-3.66A20.69,20.69,0,0,1,237,77.12Z"/><path class="cls-1" d="M262.13,80.44c-2.44.46-4.58.88-6.72,1.32-.76.18-1,.22-1.26.32a1.17,1.17,0,0,1-.44.16.47.47,0,0,1-.38-.3,13.94,13.94,0,0,1-.74-2.16,27.59,27.59,0,0,0,3.18-.34c2.46-.36,6.86-1,12-1.7.3,0,.4.08.42.22a11.43,11.43,0,0,1,.22,1.76c0,.24-.12.3-.38.3a8.92,8.92,0,0,0-2.44.44c-3.4,1.16-5.1,3.5-5.1,5.9,0,2.58,1.84,4,5.32,4.2.32,0,.44.08.44.3a7.11,7.11,0,0,1-.22,1.72c-.06.3-.14.42-.38.42-3.52,0-7.38-2-7.38-6.18,0-2.84,1.42-4.76,3.84-6.34Z"/><path class="cls-1" d="M286.09,77.82a.49.49,0,0,1,.16.32.4.4,0,0,1-.28.38,3.79,3.79,0,0,0-1,.7c-1.72,1.54-3.92,3.6-5.46,5.2-.18.22-.26.34-.26.44s.08.22.26.36a55.49,55.49,0,0,1,7.44,6.3.48.48,0,0,1,.14.26c0,.08,0,.14-.14.24-.46.5-1,1.08-1.38,1.38-.12.1-.2.16-.28.16s-.14-.06-.24-.18a50.48,50.48,0,0,0-7.28-6.76c-.76-.58-1.06-1-1.06-1.68s.36-1.1,1-1.76c1.7-1.84,3.36-3.5,5.08-5.38a5.77,5.77,0,0,0,1.08-1.5A15.92,15.92,0,0,1,286.09,77.82Z"/><path class="cls-1" d="M305.47,79.36c.22-.06.3,0,.32.2.06.44.12,1,.14,1.44,0,.26,0,.32-.3.38a31.94,31.94,0,0,1-3.48.76c-1.36,4.44-2.38,7.5-3.66,10.82-.1.28-.22.26-.44.2s-1.18-.5-1.6-.74a.32.32,0,0,1-.16-.4,75.07,75.07,0,0,0,3.46-9.48c-1.16.12-2.56.22-3.5.22-.3,0-.38-.06-.42-.32-.08-.42-.18-1.1-.28-1.82a9.23,9.23,0,0,0,1.48.06,27,27,0,0,0,3.24-.2c.2-.8.36-1.68.5-2.5a13.76,13.76,0,0,0,.12-1.84,11.66,11.66,0,0,1,2.52.56.33.33,0,0,1,.22.32.48.48,0,0,1-.1.32,3.81,3.81,0,0,0-.42.8c-.2.72-.34,1.4-.48,1.9C303.41,79.9,304.49,79.64,305.47,79.36Zm-.78,9.56c.2,0,.28.08.3.28.16,1.46,1.14,1.88,3.06,1.88a29.9,29.9,0,0,0,3.36-.28c.16,0,.22,0,.24.18a12.5,12.5,0,0,1,.16,1.74c0,.24,0,.3-.32.32a22.1,22.1,0,0,1-2.78.22c-2.56,0-3.92-.36-4.82-1.3a3.9,3.9,0,0,1-.9-2.74A10.19,10.19,0,0,1,304.69,88.92Zm-.22-5.3c0-.28.06-.34.36-.4a20.89,20.89,0,0,1,3.9-.46,14.56,14.56,0,0,1,2.34.2c.28,0,.34.06.34.3a14.11,14.11,0,0,1,0,1.6c0,.34-.1.42-.38.36a13.37,13.37,0,0,0-2.48-.24,22.13,22.13,0,0,0-4,.46C304.51,84.74,304.47,84,304.47,83.62Zm4.62-5.7c.1-.08.18-.06.3,0a9.2,9.2,0,0,1,1.9,2.14.2.2,0,0,1-.06.32l-.84.62a.21.21,0,0,1-.34-.06,9.92,9.92,0,0,0-2-2.32Zm1.78-1.3c.12-.08.18-.06.3,0a8.35,8.35,0,0,1,1.9,2.06.23.23,0,0,1-.06.36l-.8.62a.21.21,0,0,1-.34-.06,9.46,9.46,0,0,0-2-2.3Z"/><path class="cls-1" d="M323.67,78.3a6.6,6.6,0,0,0-1-1.62,15.74,15.74,0,0,1,2.38-.32c.52,0,.68.14.68.42a2.63,2.63,0,0,0,0,.56,8.62,8.62,0,0,0,.32,1c.24.6.42,1.08.68,1.62a30.78,30.78,0,0,0,4.18-1.24c.2-.1.26-.08.38.14a8.68,8.68,0,0,1,.5,1.54c.06.2,0,.3-.16.34a31.92,31.92,0,0,1-4,1.16,22.78,22.78,0,0,0,3.06,4.22,5.49,5.49,0,0,0,.52.44c.12.1.2.16.2.26a.63.63,0,0,1-.12.34,8,8,0,0,1-.78,1.3c-.16.22-.26.3-.4.3s-.16,0-.32-.16a6.59,6.59,0,0,0-.82-.52,9.15,9.15,0,0,0-4.24-1c-2.08,0-3.34.62-3.34,1.88,0,1.5,1.82,2.12,5,2.12a19.78,19.78,0,0,0,3.2-.28,12.22,12.22,0,0,1-.42,2.14c-.06.2-.14.24-.38.28a17.86,17.86,0,0,1-2.22.14c-4.72,0-7.26-1.5-7.26-4.14,0-2.28,2-3.88,5.26-3.88a10.21,10.21,0,0,1,3.56.54,12.86,12.86,0,0,1-2.58-3.54c-1.26.22-2.42.38-3.86.5-.54,0-1.46.1-2,.1-.18,0-.26-.12-.32-.36a15.64,15.64,0,0,1-.46-1.8,24.86,24.86,0,0,0,2.5,0,27.45,27.45,0,0,0,3.16-.38C324.27,79.64,324,79.06,323.67,78.3Z"/><path class="cls-1" d="M342,79.3c.18.08.32.22.32.36a1.74,1.74,0,0,1-.16.56,9,9,0,0,0-.18,2,25.19,25.19,0,0,0,.36,4.56c.28,1.58.8,2.94,1.64,2.94.64,0,1.14-.7,1.92-2.78a7.65,7.65,0,0,0,1.28,1.54.61.61,0,0,1,.14.74c-.76,2-2,3.12-3.4,3.12-1.56,0-3.2-1.84-3.74-5.22a36.26,36.26,0,0,1-.48-5.82,10.72,10.72,0,0,0-.24-2.62A8.66,8.66,0,0,1,342,79.3Zm9.28,1.26a.59.59,0,0,1,.22-.08.31.31,0,0,1,.22.12,13.22,13.22,0,0,1,3.92,6.84c.06.26-.06.34-.22.44a6.79,6.79,0,0,1-1.56.8c-.24.08-.38,0-.42-.22a13.48,13.48,0,0,0-3.74-7C350.45,81,351,80.72,351.27,80.56Z"/><path class="cls-2" d="M58.76,41.52c-2.07-3.58-5.45-3.58-7.52,0L41.81,57.86c-2.07,3.58-.38,6.51,3.76,6.51H64.43c4.14,0,5.83-2.93,3.76-6.51Z"/><path class="cls-3" d="M53.5,54.47a.27.27,0,0,1-.28-.28V45.45a.27.27,0,0,1,.28-.28h3a.27.27,0,0,1,.28.28v8.74a.27.27,0,0,1-.28.28Zm0,5.74a.27.27,0,0,1-.28-.28v-3a.27.27,0,0,1,.28-.28h3a.27.27,0,0,1,.28.28v3a.27.27,0,0,1-.28.28Z"/></svg>
