<svg xmlns="http://www.w3.org/2000/svg" viewBox="0 0 400 135"><style>.st1{fill:#626262;}.st2{fill:#ED6103;}.st3{fill:#FFFFFF;}</style><path class="st1" d="M83,72.6v1.2c0,0.3-0.1,0.4-0.4,0.4c-0.5,0-1.1,0-1.6,0c-0.3,0-0.4-0.1-0.4-0.3c0-1,0.1-2.5,0.1-4V65c0-1.1,0-2.2,0-3.3c0-0.2,0.1-0.3,0.2-0.3c1.1,0.1,2.2,0.1,3.6,0.1h4.8c1.3,0,2.8,0,3.8,0c0.2,0,0.3,0.1,0.3,0.4c0,1,0,2.1,0,3.2v4.8c0,1.7,0.1,2.7,0.1,3.8c0,0.3-0.1,0.3-0.4,0.3c-0.6,0-1.2,0-1.8,0c-0.2,0-0.3,0-0.3-0.3v-1.1H83z M90.8,63.6H83v6.9h7.8V63.6z"/><path class="st1" d="M109.7,62.3c0.5,0,0.8-0.1,1-0.2c0.1-0.1,0.2-0.1,0.3-0.1s0.2,0,0.3,0.1c0.5,0.3,1,0.7,1.4,1.1c0.2,0.2,0.3,0.3,0.3,0.5c0,0.2-0.1,0.3-0.2,0.4c-0.3,0.2-0.5,0.5-0.7,0.9c-1.3,2.7-2.6,4.7-4,6.2c-1.7,1.9-4.1,3.9-6.1,5c-0.1,0.1-0.2,0.1-0.3,0.1c-0.2,0-0.3-0.1-0.5-0.2c-0.5-0.4-1.1-0.7-1.9-0.9c3.1-1.7,4.7-3,6.7-5.1c1.6-1.8,2.5-3.1,3.7-5.7l-4.8,0.1c-1.6,2-2.6,3.2-3.8,4.1c-0.1,0.1-0.3,0.2-0.4,0.2c-0.1,0-0.2,0-0.3-0.1c-0.5-0.4-1.2-0.7-1.9-0.9c2.6-2.1,4.1-4,5.4-5.9c0.7-1.1,1-1.7,1.2-2.7c1.1,0.4,1.9,0.7,2.3,1.1c0.1,0.1,0.2,0.2,0.2,0.3s-0.1,0.2-0.2,0.3c-0.2,0.1-0.3,0.3-0.5,0.5c-0.2,0.3-0.4,0.6-0.7,1L109.7,62.3z M112.2,59.6c0.1-0.1,0.2-0.1,0.3,0c0.6,0.5,1.3,1.3,1.9,2.1c0.1,0.1,0.1,0.2-0.1,0.3l-0.8,0.6c-0.1,0.1-0.2,0.1-0.3-0.1c-0.6-0.9-1.2-1.7-2-2.3L112.2,59.6z M114,58.3c0.1-0.1,0.2-0.1,0.3,0c0.7,0.6,1.5,1.4,1.9,2.1c0.1,0.1,0.1,0.2-0.1,0.4l-0.8,0.6c-0.2,0.1-0.3,0.1-0.3-0.1c-0.5-0.9-1.2-1.6-2-2.3L114,58.3z"/><path class="st1" d="M127.8,71.2c0,1.4,0,2.6,0.1,4.2c0,0.3-0.1,0.3-0.3,0.3c-0.6,0-1.4,0-2,0c-0.2,0-0.3-0.1-0.3-0.3c0-1.4,0.1-2.7,0.1-4.1v-4.7c-1.8,1.5-3.9,3-5.5,3.8c-0.1,0.1-0.2,0.1-0.3,0.1c-0.2,0-0.3-0.1-0.4-0.2c-0.5-0.5-1.1-0.9-1.7-1.2c2.8-1.4,4.5-2.6,6.3-4.1c1.6-1.3,3-2.7,4.3-4.2c0.7-0.8,0.9-1.2,1.3-2.1c0.9,0.5,1.8,1,2.2,1.4c0.1,0.1,0.2,0.2,0.2,0.3c0,0.2-0.1,0.3-0.3,0.4c-0.3,0.2-0.7,0.5-1.2,1.1c-0.8,0.9-1.5,1.7-2.3,2.5V71.2z"/><path class="st1" d="M137.8,60.9c0.1-0.1,0.2-0.2,0.3-0.2c0.1,0,0.2,0,0.3,0.1c1,0.5,2.7,1.8,3.8,2.8c0.1,0.1,0.2,0.2,0.2,0.3c0,0.1,0,0.2-0.1,0.3c-0.3,0.4-1,1.2-1.2,1.5c-0.1,0.1-0.2,0.2-0.2,0.2s-0.2-0.1-0.3-0.2c-1.2-1.2-2.6-2.4-4.1-3.3C136.9,61.9,137.5,61.3,137.8,60.9z M139.6,71.5c2.4-1.3,3.7-2.1,5.8-3.7c2.4-2,3.8-3.3,5.5-5.4c0.1,1,0.3,1.7,0.6,2.3c0.1,0.1,0.1,0.3,0.1,0.4c0,0.2-0.1,0.3-0.3,0.6c-1.1,1.2-2.8,2.8-4.6,4.2c-1.7,1.3-3.3,2.4-6,3.9c-0.9,0.5-1.2,0.7-1.3,0.9c-0.1,0.1-0.2,0.2-0.4,0.2c-0.1,0-0.2-0.1-0.3-0.2c-0.5-0.6-1.1-1.4-1.6-2.2C137.9,72.2,138.5,72,139.6,71.5z"/><path class="st1" d="M164.8,62.9c-2.4,0.5-4.6,0.9-6.7,1.3c-0.8,0.2-1,0.2-1.3,0.3c-0.1,0.1-0.3,0.2-0.4,0.2c-0.1,0-0.3-0.1-0.4-0.3c-0.3-0.5-0.5-1.2-0.7-2.2c1,0,1.6-0.1,3.2-0.3c2.5-0.4,6.9-1,12-1.7c0.3,0,0.4,0.1,0.4,0.2c0.1,0.5,0.2,1.2,0.2,1.8c0,0.2-0.1,0.3-0.4,0.3c-0.9,0.1-1.6,0.2-2.4,0.4c-3.4,1.2-5.1,3.5-5.1,5.9c0,2.6,1.8,4,5.3,4.2c0.3,0,0.4,0.1,0.4,0.3c0,0.5-0.1,1.2-0.2,1.7c-0.1,0.3-0.1,0.4-0.4,0.4c-3.5,0-7.4-2-7.4-6.2C161,66.5,162.4,64.6,164.8,62.9L164.8,62.9z M168.8,65.1c0.1-0.1,0.2-0.1,0.3,0c0.6,0.5,1.3,1.3,1.9,2.1c0.1,0.1,0.1,0.2-0.1,0.3l-0.8,0.6c-0.1,0.1-0.2,0.1-0.3-0.1c-0.6-0.9-1.2-1.7-2-2.3L168.8,65.1z M170.6,63.8c0.1-0.1,0.2-0.1,0.3,0c0.7,0.6,1.5,1.4,1.9,2.1c0.1,0.1,0.1,0.2-0.1,0.4l-0.8,0.6c-0.2,0.1-0.3,0.1-0.3-0.1c-0.5-0.9-1.2-1.6-2-2.3L170.6,63.8z"/><path class="st1" d="M181.6,60.4c-0.2-0.4-0.4-0.8-0.7-1.3c0.8-0.1,1.6-0.2,2.4-0.2c0.3,0,0.4,0.2,0.4,0.4c0,0.1,0,0.3,0,0.4c0,0.2,0,0.4,0.1,0.6c0.1,0.5,0.2,0.7,0.3,1c1.6-0.3,2.7-0.6,4.1-1.1c0.2-0.1,0.3-0.1,0.3,0.1c0.1,0.4,0.3,0.9,0.3,1.3c0,0.2-0.1,0.3-0.2,0.4c-1.3,0.4-2.6,0.7-3.9,1c0.2,0.5,0.4,1.1,0.7,1.7c1.6-0.3,2.7-0.7,3.6-1c0.2-0.1,0.3-0.1,0.4,0.1c0.2,0.5,0.3,0.8,0.4,1.3c0,0.2,0,0.3-0.2,0.4c-1,0.4-2.3,0.7-3.4,1c0.9,1.4,1.6,2.6,2.6,3.5c0.2,0.2,0.2,0.3,0.1,0.5c-0.2,0.5-0.5,0.9-0.8,1.2c-0.1,0.1-0.2,0.2-0.3,0.2c-0.1,0-0.2,0-0.3-0.1c-0.3-0.3-0.7-0.4-1.2-0.6c-1-0.4-2.3-0.6-3.8-0.6c-1.9,0-3,0.6-3,1.5c0,1.3,1.7,1.7,4.8,1.7c0.7,0,1.5-0.1,2.2-0.1c0.2,0,0.3,0.1,0.2,0.3c-0.1,0.5-0.2,1.3-0.4,1.8c-0.1,0.2-0.1,0.3-0.4,0.3c-0.5,0-0.9,0.1-1.4,0.1c-4.6,0-7-1.3-7-3.8c0-2.1,1.8-3.5,5-3.5c1.5,0,2.6,0.2,3.4,0.5c-0.5-0.5-1.1-1.5-1.7-2.4c-2.1,0.3-4,0.6-5.5,0.6c-0.2,0-0.3-0.1-0.4-0.3c-0.1-0.4-0.3-1.1-0.4-1.6c2,0,3.6-0.2,5.4-0.5c-0.2-0.4-0.5-1.1-0.8-1.7c-1.8,0.3-3.3,0.5-4.9,0.5c-0.2,0-0.4-0.1-0.4-0.3c-0.1-0.2-0.2-1-0.3-1.6c2,0,3.6-0.1,5-0.3C181.9,61.2,181.8,60.9,181.6,60.4z"/><path class="st1" d="M200.7,68.2c-1.4,0-2.7,0-4.1-0.1c-0.2,0-0.3-0.1-0.3-0.3c-0.1-0.4-0.1-1.2-0.1-1.7c1.5,0.2,3,0.2,4.5,0.2c0-0.8,0-1.5,0-2.3c-1.9,0.1-3.4,0.1-4.8-0.1c-0.2,0-0.3-0.1-0.3-0.3c-0.1-0.5-0.1-1-0.1-1.8c1.7,0.2,3.5,0.2,5.2,0.2c0-0.7,0-1.3,0-1.9c0-0.5-0.1-0.8-0.2-1.3c1.1,0.1,1.9,0.2,2.5,0.4c0.2,0.1,0.4,0.4,0.2,0.6c-0.1,0.3-0.3,0.6-0.3,1c0,0.4,0,0.7,0,1.3c1.9-0.1,3.2-0.4,4.4-0.6c0.2-0.1,0.3,0,0.3,0.2c0.1,0.6,0.1,1.1,0.1,1.5c0,0.3-0.1,0.3-0.2,0.3c-1.4,0.2-2.7,0.4-4.6,0.5c0,0.8,0,1.5,0,2.3c1.5-0.1,2.5-0.3,3.9-0.5c0.2-0.1,0.3,0,0.3,0.2c0,0.4,0.1,1,0.1,1.6c0,0.2-0.1,0.3-0.3,0.3c-1.3,0.2-2.2,0.4-3.9,0.5c0,0.9,0.1,1.9,0.1,2.8c1.9,0.5,3.6,1.3,5.3,2.4c0.2,0.2,0.2,0.2,0.1,0.5c-0.1,0.4-0.6,1.1-0.9,1.5c-0.1,0.1-0.2,0.2-0.3,0.2c-0.1,0-0.1,0-0.2-0.1c-1.2-1-2.5-1.7-4-2.3c0,2.2-1.3,3-4.1,3c-2.6,0-4.1-1.1-4.1-2.8c0-1.6,1.6-2.8,4-2.8c0.5,0,1,0,1.9,0.1C200.7,69.7,200.7,68.8,200.7,68.2z M198.9,72.2c-1.5,0-2.2,0.4-2.2,1.1c0,0.5,0.6,0.9,2,0.9c0.8,0,1.5-0.2,1.8-0.6c0.2-0.2,0.2-0.6,0.2-1.1C200.2,72.3,199.5,72.2,198.9,72.2z"/><path class="st1" d="M217,62.6c0-1-0.1-1.3-0.3-2.1c1,0.1,1.9,0.2,2.4,0.3c0.2,0,0.4,0.2,0.4,0.4c0,0.1-0.1,0.3-0.1,0.4c-0.1,0.3-0.2,0.6-0.2,0.9c0,0.5,0,1.2,0,1.9c1.4-0.2,3.5-0.4,4.9-0.6c0-1,0-2.1,0-2.8c0-0.8-0.1-1.5-0.3-2.3c1.2,0.1,1.9,0.2,2.4,0.4c0.3,0.1,0.4,0.2,0.4,0.4c0,0.2-0.1,0.3-0.1,0.4c-0.1,0.3-0.2,0.6-0.2,0.9c0,1.1-0.1,1.9-0.1,2.8c1.6-0.1,2.8-0.2,3.9-0.2c0.2,0,0.2,0,0.2,0.2c0,0.5,0,1.1,0,1.6c0,0.3,0,0.3-0.3,0.3c-1.3,0-2.7,0.1-4,0.2c-0.1,1.3-0.1,2.3-0.2,3.1c-0.2,1.6-1.1,2.2-2.6,2.2c-0.4,0-0.8,0-1.2-0.1c-0.3,0-0.4-0.2-0.4-0.5c0-0.7-0.2-1.2-0.4-1.8c0.7,0.2,1.2,0.2,1.7,0.2c0.5,0,0.8-0.2,0.9-0.9c0.1-0.6,0.1-1.3,0.1-2.1c-1.6,0.1-3.3,0.3-4.9,0.6c0,2.2,0,3.4,0,4.5c0.1,1.6,0.6,2,3,2c1.8,0,3.7-0.2,5.2-0.4c0.3,0,0.4,0,0.4,0.3c0.1,0.4,0.1,1.3,0.1,1.7c0,0.2-0.1,0.3-0.3,0.4c-0.9,0.1-3.4,0.3-5,0.3c-4,0-5.2-0.8-5.5-3.5c-0.1-1.1-0.1-2.8-0.1-4.9c-1,0.1-1.7,0.3-2.4,0.4c-0.2,0.1-0.5,0.1-0.9,0.3c-0.3,0.1-0.4,0-0.5-0.2c-0.2-0.5-0.5-1.3-0.6-2c0.4,0,1.3-0.1,2.1-0.2c0.6-0.1,1.5-0.3,2.3-0.4V62.6z"/><path class="st1" d="M238.6,68.2c0.8-0.7,1.7-1,2.4-1c2.2,0,2.7,1.9,2.9,3.8c0.2,1.5,0.4,2.1,1.2,2.1c0.7,0,1.3-0.4,1.9-1c0.7-0.7,1.5-1.9,2-3.3c0.4,0.9,0.8,1.3,1.2,1.7c0.2,0.1,0.2,0.3,0.2,0.4c0,0.1,0,0.2-0.1,0.3c-0.4,0.8-1.1,1.8-1.7,2.5c-1,1.1-2.3,1.7-3.7,1.7c-2,0-2.9-1.1-3.1-3.9c-0.2-2-0.6-2.6-1.3-2.6c-0.9,0-1.7,0.6-2.5,1.7c-0.7,1-1.6,2.6-2.3,4.4c-0.1,0.3-0.2,0.3-0.5,0.2c-0.5-0.2-1.1-0.5-1.5-0.9c-0.1-0.1-0.2-0.2-0.2-0.3s0-0.2,0.1-0.3c2.9-5.7,4.8-9.5,5.9-12c0.6-1.3,0.8-2,1-2.9c0.9,0.4,1.7,0.7,2.2,1.1c0.2,0.1,0.3,0.3,0.3,0.4c0,0.1-0.1,0.3-0.2,0.4c-0.2,0.3-0.4,0.6-0.6,0.9C240.8,64.3,239.7,66.4,238.6,68.2L238.6,68.2z"/><path class="st1" d="M261.8,62.9c-2.4,0.5-4.6,0.9-6.7,1.3c-0.8,0.2-1,0.2-1.3,0.3c-0.1,0.1-0.3,0.2-0.4,0.2c-0.1,0-0.3-0.1-0.4-0.3c-0.3-0.5-0.5-1.2-0.7-2.2c1,0,1.6-0.1,3.2-0.3c2.5-0.4,6.9-1,12-1.7c0.3,0,0.4,0.1,0.4,0.2c0.1,0.5,0.2,1.2,0.2,1.8c0,0.2-0.1,0.3-0.4,0.3c-0.9,0.1-1.6,0.2-2.4,0.4c-3.4,1.2-5.1,3.5-5.1,5.9c0,2.6,1.8,4,5.3,4.2c0.3,0,0.4,0.1,0.4,0.3c0,0.5-0.1,1.2-0.2,1.7c-0.1,0.3-0.1,0.4-0.4,0.4c-3.5,0-7.4-2-7.4-6.2C258,66.5,259.4,64.6,261.8,62.9L261.8,62.9z M265.8,65.1c0.1-0.1,0.2-0.1,0.3,0c0.6,0.5,1.3,1.3,1.9,2.1c0.1,0.1,0.1,0.2-0.1,0.3l-0.8,0.6c-0.1,0.1-0.2,0.1-0.3-0.1c-0.6-0.9-1.2-1.7-2-2.3L265.8,65.1z M267.6,63.8c0.1-0.1,0.2-0.1,0.3,0c0.7,0.6,1.5,1.4,1.9,2.1c0.1,0.1,0.1,0.2-0.1,0.4l-0.8,0.6c-0.2,0.1-0.3,0.1-0.3-0.1c-0.5-0.9-1.2-1.6-2-2.3L267.6,63.8z"/><path class="st1" d="M277.5,59.5c0.3,0.1,0.5,0.2,0.5,0.4c0,0.2-0.1,0.5-0.2,0.7c-0.1,0.3-0.2,0.9-0.3,2.4c-0.2,3.1-0.3,5.1-0.3,7.7c0,2,0.2,2.5,1.8,2.5c1.8,0,4.6-1.1,7-3.7c0.1,0.8,0.3,1.4,0.5,1.9c0.1,0.2,0.2,0.4,0.2,0.5c0,0.2-0.1,0.3-0.4,0.6c-2.2,2-5,3-7.6,3c-2.6,0-3.8-1-3.8-4.1c0-3.4,0.2-6.2,0.3-8.6c0-1.2,0.1-2.5-0.2-3.7C275.9,59.3,276.8,59.4,277.5,59.5z"/><path class="st1" d="M300.3,61.8c0.2-0.1,0.3,0,0.3,0.2c0.1,0.4,0.1,1,0.1,1.4c0,0.3,0,0.3-0.3,0.4c-1.2,0.3-2.3,0.6-3.5,0.8c-1.4,4.4-2.4,7.5-3.7,10.8c-0.1,0.3-0.2,0.3-0.4,0.2c-0.2-0.1-1.2-0.5-1.6-0.7c-0.2-0.1-0.2-0.3-0.2-0.4c1.5-3.5,2.5-6.1,3.5-9.5c-1.2,0.1-2.6,0.2-3.5,0.2c-0.3,0-0.4-0.1-0.4-0.3c-0.1-0.4-0.2-1.1-0.3-1.8c0.4,0.1,0.7,0.1,1.5,0.1c1,0,2.1-0.1,3.2-0.2c0.2-0.8,0.4-1.7,0.5-2.5c0.1-0.6,0.1-1.2,0.1-1.8c1.1,0.2,1.9,0.3,2.5,0.6c0.2,0.1,0.2,0.2,0.2,0.3c0,0.1,0,0.2-0.1,0.3c-0.2,0.3-0.3,0.5-0.4,0.8c-0.2,0.7-0.3,1.4-0.5,1.9C298.2,62.3,299.3,62,300.3,61.8z M299.5,71.3c0.2,0,0.3,0.1,0.3,0.3c0.2,1.5,1.1,1.9,3.1,1.9c1.1,0,2.6-0.2,3.4-0.3c0.2,0,0.2,0,0.2,0.2c0.1,0.5,0.2,1.2,0.2,1.7c0,0.2,0,0.3-0.3,0.3c-0.7,0.1-2,0.2-2.7,0.2c-2.6,0-4-0.4-4.9-1.3c-0.6-0.6-0.9-1.6-0.9-2.7C298.4,71.5,299.2,71.3,299.5,71.3z M299.3,66c0-0.3,0.1-0.3,0.4-0.4c1.3-0.3,2.7-0.5,3.9-0.5c0.8,0,1.6,0.1,2.3,0.2c0.3,0,0.3,0.1,0.3,0.3c0,0.5,0,1.1,0,1.6c0,0.3-0.1,0.4-0.4,0.4c-0.7-0.1-1.6-0.2-2.5-0.2c-1.2,0-2.7,0.2-4,0.5C299.3,67.1,299.3,66.4,299.3,66z"/><path class="st2" d="M58.8,57c-2.1-3.6-5.5-3.6-7.5,0l-9.4,16.3c-2.1,3.6-0.4,6.5,3.8,6.5h18.9c4.1,0,5.8-2.9,3.8-6.5L58.8,57L58.8,57z"/><path class="st3" d="M53.5,70c-0.2,0-0.3-0.1-0.3-0.3v-8.7c0-0.2,0.1-0.3,0.3-0.3h3c0.2,0,0.3,0.1,0.3,0.3v8.7c0,0.2-0.1,0.3-0.3,0.3H53.5z M53.5,75.7c-0.2,0-0.3-0.1-0.3-0.3v-3c0-0.2,0.1-0.3,0.3-0.3h3c0.2,0,0.3,0.1,0.3,0.3v3c0,0.2-0.1,0.3-0.3,0.3H53.5z"/></svg>
