<svg xmlns="http://www.w3.org/2000/svg" viewBox="0 0 400 135"><style>.st1{fill:#626262;}.st2{fill:#ED6103;}.st3{fill:#FFFFFF;}</style><path class="st1" d="M92.6,54.8c1,0,2.1,0,3.1,0c0.4,0,0.4,0.1,0.4,0.3c0,0.5,0,1,0,1.5c0,0.3-0.1,0.4-0.3,0.4c-1.1,0-2.4,0-3.6,0h-9.4c-1.4,0-2.4,0.1-3.2,0.1c-0.3,0-0.4-0.1-0.4-0.4c-0.1-0.5-0.1-1.3-0.1-1.9c1.1,0.1,2.4,0.1,3.6,0.1h6.1l0.9-6.6h-4.4c-1,0-2,0-2.8,0.1c-0.2,0-0.2-0.1-0.3-0.4c-0.1-0.3-0.1-1.2-0.2-2c1,0.1,2.2,0.1,3.4,0.1H89c0.8,0,1.2,0,1.5-0.2c0.1-0.1,0.2-0.1,0.3-0.1c0.1,0,0.2,0,0.3,0.1c0.5,0.3,1.1,0.9,1.6,1.4c0.1,0.1,0.2,0.2,0.2,0.4c0,0.1-0.1,0.3-0.2,0.4c-0.3,0.3-0.4,0.6-0.5,1.3l-0.8,5.5H92.6z"/><path class="st1" d="M103.9,52.8c-2,0-2.7,0.2-2.9,0.2c-0.2,0-0.4-0.1-0.5-0.4c-0.1-0.5-0.2-1.4-0.3-2.4c1.3,0.2,2.3,0.2,4.3,0.2h6.4c1.5,0,3.1,0,4.6-0.1c0.3,0,0.4,0,0.4,0.3c0,0.6,0,1.3,0,1.9c0,0.2-0.1,0.3-0.4,0.3c-1.5,0-3,0-4.5,0H103.9z"/><path class="st1" d="M133.9,47.9c1,0,2.1,0,3-0.1c0.2,0,0.3,0.1,0.3,0.3c0,0.5,0,1.1,0,1.6c0,0.3-0.1,0.3-0.3,0.3c-0.7,0-1.9,0-2.9,0h-0.8c-0.1,2.9-0.6,4.5-1.5,6.2c-1,1.7-2.6,2.9-4.7,3.7c-0.3,0.1-0.4,0.2-0.6,0.2s-0.2-0.1-0.4-0.2c-0.6-0.6-1-0.9-1.7-1.2c2.8-0.9,4.4-1.9,5.4-3.5c0.8-1.3,1.1-2.7,1.2-5.1h-4.3v0.7c0,1.2,0,2.3,0.1,3.3c0,0.2-0.1,0.3-0.3,0.3c-0.5,0-1.2,0-1.7,0c-0.3,0-0.4-0.1-0.4-0.3c0.1-1,0.1-2,0.1-3.3V50h-0.6c-1.1,0-2.7,0.1-3.3,0.1c-0.2,0-0.2-0.1-0.2-0.4c-0.1-0.4-0.1-1.1-0.1-1.9c0.8,0.1,2.1,0.1,3.7,0.1h0.6v-1.5c0-1.3,0-1.8-0.2-2.9c1,0.1,2,0.2,2.4,0.3c0.2,0,0.3,0.1,0.3,0.3c0,0.1-0.1,0.3-0.1,0.4c-0.1,0.4-0.1,0.6-0.1,1.9v1.5h4.3l0-2c0-1.1,0-2-0.2-2.7c0.8,0.1,1.9,0.2,2.3,0.3c0.3,0.1,0.4,0.2,0.4,0.3c0,0.1,0,0.2-0.1,0.4c-0.1,0.4-0.2,0.9-0.2,1.8v1.9H133.9z M134.9,43.1c0.1,0,0.2,0,0.3,0.1c0.5,0.6,1.1,1.5,1.5,2.4c0.1,0.1,0,0.2-0.1,0.3l-0.8,0.4c-0.2,0.1-0.3,0-0.3-0.1c-0.4-1-0.9-1.8-1.6-2.6L134.9,43.1z M136.8,42.2c0.1-0.1,0.2,0,0.3,0.1c0.6,0.7,1.2,1.6,1.5,2.3c0.1,0.1,0.1,0.3-0.1,0.3l-0.8,0.4c-0.2,0.1-0.3,0-0.3-0.1c-0.4-0.9-0.9-1.8-1.6-2.6L136.8,42.2z"/><path class="st1" d="M145.9,52.8c-2,0-2.7,0.2-2.9,0.2c-0.2,0-0.4-0.1-0.5-0.4c-0.1-0.5-0.2-1.4-0.3-2.4c1.3,0.2,2.3,0.2,4.3,0.2h6.4c1.5,0,3.1,0,4.6-0.1c0.3,0,0.4,0,0.4,0.3c0,0.6,0,1.3,0,1.9c0,0.2-0.1,0.3-0.4,0.3c-1.5,0-3,0-4.5,0H145.9z"/><path class="st1" d="M168.7,46.3c-1.3,1.3-2.8,2.5-4.8,3.7c-0.2,0.1-0.4,0.2-0.5,0.2c-0.1,0-0.2-0.1-0.4-0.5c-0.3-0.5-0.7-0.9-1-1.1c3.1-1.6,4.9-3.2,6.5-5.3c0.3-0.4,0.5-0.8,0.7-1.2c0.8,0.1,1.5,0.3,2.1,0.5c0.2,0.1,0.3,0.1,0.3,0.3c0,0.1-0.1,0.3-0.3,0.4c-0.2,0.1-0.3,0.2-0.6,0.6l-0.4,0.5h4.4c0.4,0,0.4,0,0.6,0c0.1,0,0.2-0.1,0.4-0.1c0.2,0,0.4,0.1,0.8,0.5c0.5,0.5,0.6,0.7,0.6,0.8c0,0.2-0.1,0.3-0.3,0.4c-0.2,0.1-0.4,0.3-0.7,0.6c-1.6,2.1-3.4,3.9-5.7,5.5h5.1c1.7,0,2.6,0,2.7,0c0.2,0,0.2,0,0.2,0.2c0,0.1,0,0.7,0,2.6v1.8c0,2.8,0,3.4,0,3.5c0,0.2,0,0.2-0.2,0.2h-1.7c-0.2,0-0.2,0-0.2-0.2v-0.9h-7v1c0,0.2,0,0.2-0.2,0.2h-1.7c-0.2,0-0.2,0-0.2-0.2c0-0.1,0-0.7,0-3.5v-2.6c-1.1,0.6-2.3,1.2-3.7,1.8c-0.2,0.1-0.4,0.2-0.5,0.2c-0.2,0-0.2-0.2-0.4-0.5c-0.3-0.5-0.6-1-1-1.3c2.9-1,5.2-2.1,7-3.3c-0.7-0.8-1.4-1.4-2.1-1.9c-0.1-0.1-0.1-0.1-0.1-0.2c0-0.1,0.1-0.1,0.2-0.2l1.1-0.9c0.1-0.1,0.2-0.1,0.2-0.1c0.1,0,0.1,0,0.2,0.1c0.8,0.5,1.4,1.1,2.2,1.8c1.3-1.1,2.4-2.2,3.4-3.4H168.7z M169.4,54v3.5h7V54H169.4z"/><path class="st1" d="M190.1,52.2c-1.4,0-2.7,0-4.1-0.1c-0.2,0-0.3-0.1-0.3-0.3c-0.1-0.4-0.1-1.2-0.1-1.7c1.5,0.2,3,0.2,4.5,0.2c0-0.8,0-1.5,0-2.3c-1.9,0.1-3.4,0.1-4.8-0.1c-0.2,0-0.3-0.1-0.3-0.3c-0.1-0.5-0.1-1-0.1-1.8c1.7,0.2,3.5,0.2,5.2,0.2c0-0.7,0-1.3,0-1.9c0-0.5-0.1-0.8-0.2-1.3c1.1,0.1,1.9,0.2,2.5,0.4c0.2,0.1,0.4,0.4,0.2,0.6c-0.1,0.3-0.3,0.6-0.3,1c0,0.4,0,0.7,0,1.3c1.9-0.1,3.2-0.4,4.4-0.6c0.2-0.1,0.3,0,0.3,0.2c0.1,0.6,0.1,1.1,0.1,1.5c0,0.3-0.1,0.3-0.2,0.3c-1.4,0.2-2.7,0.4-4.6,0.5c0,0.8,0,1.5,0,2.3c1.5-0.1,2.5-0.3,3.9-0.5c0.2-0.1,0.3,0,0.3,0.2c0,0.4,0.1,1,0.1,1.6c0,0.2-0.1,0.3-0.3,0.3c-1.3,0.2-2.2,0.4-3.9,0.5c0,0.9,0.1,1.9,0.1,2.8c1.9,0.5,3.6,1.3,5.3,2.4c0.2,0.2,0.2,0.2,0.1,0.5c-0.1,0.4-0.6,1.1-0.9,1.5c-0.1,0.1-0.2,0.2-0.3,0.2c-0.1,0-0.1,0-0.2-0.1c-1.2-1-2.5-1.7-4-2.3c0,2.2-1.3,3-4.1,3c-2.6,0-4.1-1.1-4.1-2.8c0-1.6,1.6-2.8,4-2.8c0.5,0,1,0,1.9,0.1C190.1,53.7,190.1,52.8,190.1,52.2z M188.4,56.2c-1.5,0-2.2,0.4-2.2,1.1c0,0.5,0.6,0.9,2,0.9c0.8,0,1.5-0.2,1.8-0.6c0.2-0.2,0.2-0.6,0.2-1.1C189.6,56.3,188.9,56.2,188.4,56.2z"/><path class="st1" d="M212.1,45.8c0.2-0.1,0.3,0,0.3,0.2c0.1,0.4,0.1,1,0.1,1.4c0,0.3,0,0.3-0.3,0.4c-1.2,0.3-2.3,0.6-3.5,0.8c-1.4,4.4-2.4,7.5-3.7,10.8c-0.1,0.3-0.2,0.3-0.4,0.2c-0.2-0.1-1.2-0.5-1.6-0.7c-0.2-0.1-0.2-0.3-0.2-0.4c1.5-3.5,2.5-6.1,3.5-9.5c-1.2,0.1-2.6,0.2-3.5,0.2c-0.3,0-0.4-0.1-0.4-0.3c-0.1-0.4-0.2-1.1-0.3-1.8c0.4,0.1,0.7,0.1,1.5,0.1c1,0,2.1-0.1,3.2-0.2c0.2-0.8,0.4-1.7,0.5-2.5c0.1-0.6,0.1-1.2,0.1-1.8c1.1,0.2,1.9,0.3,2.5,0.6c0.2,0.1,0.2,0.2,0.2,0.3c0,0.1,0,0.2-0.1,0.3c-0.2,0.3-0.3,0.5-0.4,0.8c-0.2,0.7-0.3,1.4-0.5,1.9C210,46.3,211.1,46,212.1,45.8z M211.3,55.3c0.2,0,0.3,0.1,0.3,0.3c0.2,1.5,1.1,1.9,3.1,1.9c1.1,0,2.6-0.2,3.4-0.3c0.2,0,0.2,0,0.2,0.2c0.1,0.5,0.2,1.2,0.2,1.7c0,0.2,0,0.3-0.3,0.3c-0.7,0.1-2,0.2-2.7,0.2c-2.6,0-4-0.4-4.9-1.3c-0.6-0.6-0.9-1.6-0.9-2.7C210.2,55.5,211.1,55.3,211.3,55.3z M211.1,50c0-0.3,0.1-0.3,0.4-0.4c1.3-0.3,2.7-0.5,3.9-0.5c0.8,0,1.6,0.1,2.3,0.2c0.3,0,0.3,0.1,0.3,0.3c0,0.5,0,1.1,0,1.6c0,0.3-0.1,0.4-0.4,0.4c-0.7-0.1-1.6-0.2-2.5-0.2c-1.2,0-2.7,0.2-4,0.5C211.1,51.1,211.1,50.4,211.1,50z"/><path class="st1" d="M227,44c0.2,0.1,0.3,0.2,0.3,0.4c0,0.1-0.1,0.3-0.1,0.4c-0.1,0.2-0.2,0.5-0.4,1.1c-0.7,3-1,5.8-1,7.3c0,0.8,0,1.7,0.1,2.6c0.4-0.9,0.8-1.8,1.2-2.8c0.3,0.6,0.4,0.9,0.7,1.3c0.1,0.1,0.1,0.2,0.1,0.3c0,0.1,0,0.2-0.1,0.3c-0.7,1.6-0.9,2.5-1,3c-0.1,0.6,0,0.9,0,1.1c0,0.1-0.1,0.2-0.2,0.3c-0.4,0.1-1,0.3-1.5,0.3c-0.2,0.1-0.3,0-0.4-0.2c-0.6-1.4-0.9-3.8-0.9-6.1c0-1.9,0.2-3.5,0.8-7.6c0.1-0.7,0.2-1.6,0.1-2.4C225.5,43.5,226.6,43.8,227,44z M233.9,49.4c-1.4,0-2.8,0.1-4.1,0c-0.3,0-0.3-0.1-0.4-0.3c-0.1-0.5-0.1-1.2-0.1-1.8c1.5,0.1,3.1,0.2,4.6,0.1c0-0.7,0-1.4,0-2.1c0-0.7-0.1-1.2-0.3-2c1.2,0.1,1.8,0.2,2.4,0.4c0.2,0.1,0.4,0.2,0.4,0.3c0,0.1,0,0.2-0.1,0.3c-0.1,0.2-0.1,0.4-0.2,0.7c0,0.7,0,1.2,0,2.1c0.9-0.1,2-0.2,2.8-0.4c0.2-0.1,0.3,0,0.3,0.2c0.1,0.4,0.1,1,0.1,1.4c0,0.2-0.1,0.3-0.2,0.3c-0.7,0.2-2,0.3-3.1,0.4c0,2.2,0,3.6,0.1,5.4c1.2,0.5,2.2,1,3.3,1.9c0.2,0.1,0.2,0.2,0.1,0.4c-0.3,0.5-0.6,1.1-0.9,1.5c-0.1,0.1-0.1,0.1-0.2,0.1c-0.1,0-0.1,0-0.2-0.1c-0.6-0.6-1.3-1.1-2.2-1.6c-0.2,1.7-1.3,2.6-3.7,2.6c-2.3,0-3.6-1.1-3.6-2.8c0-1.6,1.5-2.8,3.5-2.8c0.5,0,1.1,0.1,1.6,0.2C233.9,52.4,233.9,51,233.9,49.4z M232.2,55.6c-0.9,0-1.5,0.3-1.5,1s0.4,1,1.6,1c1,0,1.6-0.6,1.6-1.3c0-0.1,0-0.2,0-0.4C233.3,55.7,232.8,55.6,232.2,55.6z"/><path class="st1" d="M83.2,83.4c0.5-1.2,0.8-2.2,0.9-3c1,0.4,1.9,0.7,2.5,1c0.2,0.1,0.2,0.2,0.2,0.3c0,0.1-0.1,0.3-0.2,0.4c-0.2,0.2-0.4,0.5-0.7,1.2c-1.2,2.7-2.4,4.7-4.3,6.7c-0.2,0.2-0.4,0.3-0.6,0.3c-0.2,0-0.3-0.1-0.5-0.2c-0.4-0.3-1-0.6-1.8-0.9C81,87.5,82.4,85.2,83.2,83.4z M90.7,80.7c0.1-0.1,0.2-0.1,0.3-0.1c0.1,0,0.2,0,0.3,0.2c2.2,2.2,3.9,4.8,5,7.3c0.1,0.1,0.1,0.2,0.1,0.3c0,0.1-0.1,0.2-0.2,0.3c-0.4,0.3-1,0.7-1.7,1.1c-0.3,0.1-0.4,0.1-0.5-0.2c-1.5-3.3-3-5.7-4.9-7.8C89.8,81.3,90.4,80.9,90.7,80.7z M97.5,79.3c0,1.2-1,2.1-2.2,2.1s-2.2-0.9-2.2-2.1c0-1.2,1-2.1,2.2-2.1S97.5,78.1,97.5,79.3zM94.1,79.3c0,0.7,0.5,1.2,1.2,1.2c0.7,0,1.2-0.5,1.2-1.2c0-0.7-0.5-1.2-1.2-1.2C94.6,78.1,94.1,78.6,94.1,79.3z"/><path class="st1" d="M111.3,78.6c0.7,0,1.1,0,1.4-0.2c0.1-0.1,0.1-0.1,0.2-0.1c0.1,0,0.2,0.1,0.3,0.2c0.5,0.4,0.9,0.9,1.3,1.4c0.1,0.1,0.1,0.2,0.1,0.3c0,0.1-0.1,0.3-0.3,0.4c-0.3,0.2-0.5,0.5-0.7,0.9c-0.8,1.4-1.6,2.5-2.6,3.7c1.9,1.4,3.7,3,5.5,4.8c0.1,0.1,0.2,0.2,0.2,0.3s0,0.2-0.1,0.3c-0.4,0.5-0.8,0.9-1.3,1.4c-0.1,0.1-0.2,0.1-0.2,0.1c-0.1,0-0.2-0.1-0.3-0.2c-1.7-2-3.4-3.5-5.2-5c-2.3,2.4-4.5,4.1-6.7,5.3c-0.2,0.1-0.3,0.2-0.5,0.2c-0.1,0-0.2-0.1-0.3-0.2c-0.4-0.5-1-0.9-1.7-1.3c3.1-1.6,5-3,7-5.1c1.4-1.5,2.5-2.9,3.8-5l-5.2,0c-1,0-2.1,0-3.2,0.1c-0.2,0-0.2-0.1-0.3-0.3c-0.1-0.4-0.2-1.4-0.2-2.1c1.1,0.1,2.1,0.1,3.4,0.1H111.3z"/><path class="st1" d="M124.7,82.7c0,0.7,0,1.7,0,2.4c0,0.3,0,0.3-0.4,0.4c-0.6,0-1.2,0-1.8,0c-0.3,0-0.4,0-0.4-0.2c0.1-0.8,0.1-1.7,0.1-2.5v-1.9c0-1.2,0-1.9-0.1-2.6c0-0.1,0.1-0.2,0.3-0.2c0.9,0,2.1,0.1,3.3,0.1h6.7c0.7,0,1-0.1,1.2-0.2c0.1-0.1,0.2-0.1,0.3-0.1c0.1,0,0.2,0.1,0.4,0.2c0.5,0.4,1.2,1,1.5,1.3c0.1,0.1,0.1,0.2,0.1,0.4s-0.1,0.3-0.2,0.4c-0.3,0.3-0.4,0.8-0.5,1.2c-0.6,2.2-1.4,4.3-2.4,6.2c-1.1,2-2.6,3.9-4.5,5.5c-0.2,0.2-0.3,0.2-0.5,0.2c-0.1,0-0.3,0-0.4-0.1c-0.6-0.4-1.1-0.6-1.9-0.8c2.4-1.8,3.8-3.5,5.1-5.8c1.1-1.9,1.7-3.7,2.3-6.2h-8.3V82.7z"/><path class="st1" d="M144.7,86.4c-2,0-2.7,0.2-2.9,0.2c-0.2,0-0.4-0.1-0.5-0.4c-0.1-0.5-0.2-1.4-0.3-2.4c1.3,0.2,2.3,0.2,4.3,0.2h6.4c1.5,0,3.1,0,4.6-0.1c0.3,0,0.4,0,0.4,0.3c0,0.6,0,1.3,0,1.9c0,0.2-0.1,0.3-0.4,0.3c-1.5,0-3,0-4.5,0H144.7z"/><path class="st1" d="M166.1,82.3c2.4,0.8,4.4,1.5,6.4,2.7c0.2,0.1,0.3,0.3,0.2,0.5c-0.3,0.7-0.6,1.3-0.9,1.7c-0.1,0.1-0.2,0.2-0.3,0.2c-0.1,0-0.1,0-0.2-0.1c-1.8-1.2-3.6-2.1-5.3-2.6v4.4c0,1.3,0,2.5,0.1,3.9c0,0.2-0.1,0.3-0.4,0.3c-0.6,0-1.2,0-1.8,0c-0.3,0-0.4-0.1-0.4-0.3c0.1-1.5,0.1-2.7,0.1-3.9v-9.8c0-1.5-0.1-2.2-0.2-3c0.9,0.1,1.9,0.2,2.5,0.3c0.3,0.1,0.4,0.2,0.4,0.3c0,0.1-0.1,0.3-0.2,0.5c-0.1,0.3-0.1,0.8-0.1,1.9V82.3z M170.8,77.3c0.1-0.1,0.2-0.1,0.3,0c0.6,0.5,1.3,1.3,1.9,2.1c0.1,0.1,0.1,0.2-0.1,0.3l-0.8,0.6c-0.1,0.1-0.2,0.1-0.3-0.1c-0.6-0.9-1.2-1.7-2-2.3L170.8,77.3zM172.6,76c0.1-0.1,0.2-0.1,0.3,0c0.7,0.6,1.5,1.4,1.9,2.1c0.1,0.1,0.1,0.2-0.1,0.4l-0.8,0.6c-0.2,0.1-0.3,0.1-0.3-0.1c-0.5-0.9-1.2-1.6-2-2.3L172.6,76z"/><path class="st1" d="M184,78.8c0.1-0.6,0.2-1.4,0.2-2.2c1,0.2,1.6,0.4,2.4,0.7c0.2,0.1,0.3,0.2,0.3,0.4c0,0.1,0,0.2-0.1,0.3c-0.2,0.3-0.3,0.5-0.4,0.8c-0.3,0.8-0.5,1.6-0.7,2.4c0.5-0.1,1.1-0.1,1.6-0.1c1.9,0,2.9,1.3,2.9,3.9c0,2.2-0.4,4.8-1.1,6.3c-0.6,1.3-1.5,1.9-2.7,1.9c-1,0-1.6-0.1-2.1-0.3c-0.2-0.1-0.4-0.3-0.4-0.6c-0.1-0.6-0.1-1.2-0.4-1.9c0.9,0.4,1.7,0.5,2.3,0.5c0.7,0,1-0.2,1.3-1.1c0.4-1.1,0.8-3,0.8-5c0-1.4-0.3-1.8-1.1-1.8c-0.5,0-1.1,0.1-1.7,0.1c-1.3,3.8-2.5,6.6-4,9.4c-0.1,0.3-0.3,0.3-0.5,0.2c-0.4-0.2-1.1-0.7-1.4-0.9c-0.1-0.1-0.2-0.2-0.2-0.3c0-0.1,0-0.1,0.1-0.2c1.6-2.8,2.6-4.9,3.7-7.8c-0.8,0.1-1.4,0.2-2,0.3c-0.5,0.1-0.8,0.2-1.1,0.3c-0.3,0.1-0.5,0.1-0.6-0.3c-0.2-0.5-0.4-1.2-0.6-2.1c0.9,0,1.8-0.1,2.6-0.1c0.8-0.1,1.6-0.2,2.4-0.3C183.7,80.2,183.9,79.5,184,78.8z M192,80.2c0.1-0.1,0.2,0,0.4,0.1c1.4,1.3,2.6,2.9,3.3,4.9c0.1,0.2,0.1,0.3-0.1,0.4c-0.3,0.3-1.1,0.8-1.5,1c-0.2,0.1-0.4,0.1-0.5-0.2c-0.8-2.1-1.8-3.8-3.3-5.2C190.8,80.9,191.4,80.5,192,80.2z M192.5,77.4c0.1-0.1,0.2-0.1,0.3,0c0.6,0.5,1.3,1.3,1.9,2.1c0.1,0.1,0.1,0.2-0.1,0.3l-0.8,0.6c-0.1,0.1-0.2,0.1-0.3-0.1c-0.6-0.9-1.2-1.7-2-2.3L192.5,77.4z M194.3,76.1c0.1-0.1,0.2-0.1,0.3,0c0.7,0.6,1.5,1.4,1.9,2.1c0.1,0.1,0.1,0.2-0.1,0.4l-0.8,0.6c-0.2,0.1-0.3,0.1-0.3-0.1c-0.5-0.9-1.2-1.6-2-2.3L194.3,76.1z"/><path class="st1" d="M205.8,76.4c1.3,0,1.9,0,2,0c0.2,0,0.2,0,0.2,0.2c0,0.1,0,0.7,0,1.9V81c0,1.2,0,1.8,0,1.9c0,0.2,0,0.2-0.2,0.2c-0.1,0-0.7,0-2,0h-3.2v6.5c0,2.8,0,4.1,0,4.3c0,0.2,0,0.2-0.2,0.2h-1.7c-0.2,0-0.2,0-0.2-0.2c0-0.1,0-1.5,0-4.3v-8.7c0-2.8,0-4.2,0-4.3c0-0.2,0-0.2,0.2-0.2c0.1,0,0.9,0,2.4,0H205.8z M202.6,77.9v1.2h3.5v-1.2H202.6z M206,80.5h-3.5v1.2h3.5V80.5zM205.3,92.7c-0.2,0-0.2,0-0.2-0.2c0-0.1,0-0.7,0-3.6v-1.8c0-1.8,0-2.4,0-2.5c0-0.2,0-0.2,0.2-0.2c0.1,0,0.6,0,2.1,0h2.7c1.5,0,2,0,2.1,0c0.2,0,0.2,0,0.2,0.2c0,0.1,0,0.7,0,2.2v2c0,2.9,0,3.4,0,3.5c0,0.2,0,0.2-0.2,0.2h-1.4c-0.2,0-0.2,0-0.2-0.2v-0.6h-3.7v0.8c0,0.2,0,0.2-0.2,0.2H205.3z M206.9,87.3h3.7v-1.3h-3.7V87.3z M210.6,90.1v-1.4h-3.7v1.4H210.6z M217.2,87.5c0,1.4,0.1,3,0.1,4c0,1-0.1,1.4-0.6,1.8c-0.4,0.4-1,0.5-2.9,0.5c-0.6,0-0.6,0-0.7-0.6c-0.1-0.6-0.3-1.1-0.5-1.5c0.6,0.1,1.3,0.1,1.7,0.1c0.7,0,0.8-0.2,0.8-0.8v-8h-3.3c-1.6,0-2.1,0-2.2,0c-0.2,0-0.2,0-0.2-0.2c0-0.1,0-0.6,0-1.8v-2.8c0-1.2,0-1.6,0-1.8c0-0.2,0-0.2,0.2-0.2c0.1,0,0.6,0,2.2,0h2.9c1.6,0,2.1,0,2.2,0c0.2,0,0.2,0,0.2,0.2c0,0.1,0,0.9,0,2.6V87.5zM211.4,77.9v1.2h3.7v-1.2H211.4z M215.1,81.7v-1.2h-3.7v1.2H215.1z"/><path class="st1" d="M225.8,89.8c0.5,1,1.1,1.4,1.9,1.7c0.7,0.2,2,0.4,4,0.4c2.3,0,5.4-0.1,8.3-0.4c-0.3,0.4-0.5,0.8-0.5,1.3c-0.1,0.6-0.1,0.6-0.7,0.7c-2.5,0.1-4.9,0.2-7,0.2c-2.1,0-3.8-0.1-4.7-0.5c-0.9-0.4-1.6-0.9-2.1-1.8c-0.6,0.6-1.2,1.1-1.8,1.7c-0.2,0.2-0.4,0.3-0.5,0.4c-0.1,0.1-0.2,0.2-0.3,0.2c-0.1,0-0.2,0-0.3-0.2c-0.3-0.6-0.5-1.1-0.8-1.8c0.5-0.2,0.8-0.4,1.2-0.6c0.5-0.3,1.1-0.8,1.5-1.2v-4.5H223c-1,0-1.3,0-1.4,0c-0.2,0-0.2,0-0.2-0.2v-1.5c0-0.2,0-0.2,0.2-0.2c0.1,0,0.4,0,1.4,0h1.1c1,0,1.3,0,1.5,0c0.2,0,0.2,0,0.2,0.2c0,0.1,0,0.7,0,1.9V89.8z M223,76.5c0.2-0.1,0.3-0.2,0.4,0c0.9,0.9,1.8,1.8,2.5,3c0.1,0.2,0.1,0.3-0.1,0.4l-1.1,0.9c-0.1,0.1-0.2,0.1-0.3,0.1c-0.1,0-0.1,0-0.2-0.1c-0.7-1.2-1.6-2.3-2.4-3.1c-0.2-0.2-0.2-0.2,0.1-0.4L223,76.5z M229.4,80.9c-2,0-2.7,0-2.8,0c-0.2,0-0.2,0-0.2-0.2v-1.1c0-0.2,0-0.2,0.2-0.2c0.1,0,0.8,0,2.8,0h0.3c0.2-0.4,0.4-0.7,0.5-1c-1.5,0-2.1,0-2.2,0c-0.2,0-0.2,0-0.2-0.2v-1c0-0.2,0-0.2,0.2-0.2c0.1,0,0.7,0,2.4,0h0.4l0.1-0.3c0.1-0.3,0.2-0.7,0.3-1.1c0.7,0,1.3,0.1,2,0.2c0.2,0,0.3,0.1,0.3,0.2s-0.1,0.2-0.2,0.3s-0.2,0.2-0.3,0.5L233,77h1.5c1.7,0,2.3,0,2.5,0c0.2,0,0.2,0,0.2,0.2c0,0.1,0,0.4,0,1v1.2c1.4,0,1.9,0,2,0c0.2,0,0.2,0,0.2,0.2v1.1c0,0.2,0,0.2-0.2,0.2c-0.1,0-0.8,0-2.8,0H229.4z M229.5,90c-1.9,0-2.6,0-2.7,0c-0.2,0-0.2,0-0.2-0.2v-1.1c0-0.2,0-0.2,0.2-0.2c0.1,0,0.6,0,2,0v-1.1c-0.8,0-1.2,0-1.3,0c-0.2,0-0.2,0-0.2-0.2v-1.1c0-0.2,0-0.2,0.2-0.2c0.1,0,0.8,0,2.6,0h2.8v-0.9h-2.1c-1.7,0-2.4,0-2.5,0c-0.2,0-0.2,0-0.2-0.2c0-0.1,0-0.3,0-1.1V83c0-0.7,0-0.9,0-1.1c0-0.2,0-0.2,0.2-0.2c0.1,0,0.7,0,2.5,0h4.1c1.8,0,2.4,0,2.5,0c0.2,0,0.2,0,0.2,0.2c0,0.1,0,0.4,0,1.1v0.9c0,0.7,0,0.9,0,1.1c0,0.2,0,0.2-0.2,0.2c-0.2,0-0.8,0-2.5,0V86h0.6c1.9,0,2.5,0,2.6,0c0.2,0,0.2,0,0.2,0.2v1.1c0,0.2,0,0.2-0.2,0.2c-0.1,0-0.8,0-2.6,0h-0.6v1.1h1.5c2,0,2.6,0,2.8,0c0.2,0,0.2,0,0.2,0.2v1.1c0,0.2,0,0.2-0.2,0.2c-0.1,0-0.8,0-2.8,0h-1.5c0,0.7,0,1.1,0,1.2c0,0.2,0,0.2-0.2,0.2h-1.6c-0.2,0-0.2,0-0.2-0.2c0-0.1,0-0.5,0-1.2H229.5z M235.5,83H230v0.9h5.5V83z M232.9,88.6v-1.1h-2.2v1.1H232.9z M232.4,78.4l-0.5,1h3.3v-1H232.4z"/><path class="st1" d="M245.9,84c2.5-0.8,4.4-1.2,5.8-1.2c2.7,0,4.6,1.8,4.6,4.3c0,2-1,3.5-2.9,4.5c-1,0.6-2.4,1.1-4.1,1.3c-0.4,0.1-0.5,0-0.7-0.3c-0.2-0.4-0.6-0.8-1.2-1.3c2.3-0.4,3.4-0.7,4.8-1.4c1.1-0.6,1.8-1.5,1.8-3c0-1.4-0.9-2.2-2.5-2.2c-1.4,0-3.5,0.7-5.7,1.6c-0.5,0.2-0.9,0.5-1.1,0.6c-0.2,0.1-0.3,0.2-0.4,0.2c-0.2,0-0.3-0.1-0.5-0.4c-0.5-0.6-0.8-1.3-1.1-1.9C243.8,84.6,244.8,84.3,245.9,84z"/><path class="st1" d="M269.7,80.4c-2.4,0.5-4.6,0.9-6.7,1.3c-0.8,0.2-1,0.2-1.3,0.3c-0.1,0.1-0.3,0.2-0.4,0.2c-0.1,0-0.3-0.1-0.4-0.3c-0.3-0.5-0.5-1.2-0.7-2.2c1,0,1.6-0.1,3.2-0.3c2.5-0.4,6.9-1,12-1.7c0.3,0,0.4,0.1,0.4,0.2c0.1,0.5,0.2,1.2,0.2,1.8c0,0.2-0.1,0.3-0.4,0.3c-0.9,0.1-1.6,0.2-2.4,0.4c-3.4,1.2-5.1,3.5-5.1,5.9c0,2.6,1.8,4,5.3,4.2c0.3,0,0.4,0.1,0.4,0.3c0,0.5-0.1,1.2-0.2,1.7c-0.1,0.3-0.1,0.4-0.4,0.4c-3.5,0-7.4-2-7.4-6.2C265.8,84,267.2,82.1,269.7,80.4L269.7,80.4z"/><path class="st1" d="M283.4,79.3c0.2,0.1,0.3,0.2,0.3,0.4c0,0.1-0.1,0.3-0.2,0.6c-0.1,0.2-0.2,1.1-0.2,2c0,1.3,0,2.7,0.4,4.6c0.3,1.6,0.8,2.9,1.6,2.9c0.6,0,1.1-0.7,1.9-2.8c0.4,0.7,0.9,1.2,1.3,1.5c0.2,0.2,0.2,0.5,0.1,0.7c-0.8,2-2,3.1-3.4,3.1c-1.6,0-3.2-1.8-3.7-5.2c-0.3-1.9-0.5-4-0.5-5.8c0-1.1,0-1.7-0.2-2.6C281.9,78.8,282.8,79,283.4,79.3z M292.7,80.6c0.1,0,0.2-0.1,0.2-0.1c0.1,0,0.1,0,0.2,0.1c1.8,1.6,3.4,4.3,3.9,6.8c0.1,0.3-0.1,0.3-0.2,0.4c-0.5,0.3-1,0.6-1.6,0.8c-0.2,0.1-0.4,0-0.4-0.2c-0.7-2.9-1.7-4.9-3.7-7C291.9,81,292.4,80.7,292.7,80.6z"/><path class="st1" d="M307.7,85.8c-1.4,0-2.7,0-4.1-0.1c-0.2,0-0.3-0.1-0.3-0.3c-0.1-0.4-0.1-1.2-0.1-1.7c1.5,0.2,3,0.2,4.5,0.2c0-0.8,0-1.5,0-2.3c-1.9,0.1-3.4,0.1-4.8-0.1c-0.2,0-0.3-0.1-0.3-0.3c-0.1-0.5-0.1-1-0.1-1.8c1.7,0.2,3.5,0.2,5.2,0.2c0-0.7,0-1.3,0-1.9c0-0.5-0.1-0.8-0.2-1.3c1.1,0.1,1.9,0.2,2.5,0.4c0.2,0.1,0.4,0.4,0.2,0.6c-0.1,0.3-0.3,0.6-0.3,1c0,0.4,0,0.7,0,1.3c1.9-0.1,3.2-0.4,4.4-0.6c0.2-0.1,0.3,0,0.3,0.2c0.1,0.6,0.1,1.1,0.1,1.5c0,0.3-0.1,0.3-0.2,0.3c-1.4,0.2-2.7,0.4-4.6,0.5c0,0.8,0,1.5,0,2.3c1.5-0.1,2.5-0.3,3.9-0.5c0.2-0.1,0.3,0,0.3,0.2c0,0.4,0.1,1,0.1,1.6c0,0.2-0.1,0.3-0.3,0.3c-1.3,0.2-2.2,0.4-3.9,0.5c0,0.9,0.1,1.9,0.1,2.8c1.9,0.5,3.6,1.3,5.3,2.4c0.2,0.2,0.2,0.2,0.1,0.5c-0.1,0.4-0.6,1.1-0.9,1.5c-0.1,0.1-0.2,0.2-0.3,0.2c-0.1,0-0.1,0-0.2-0.1c-1.2-1-2.5-1.7-4-2.3c0,2.2-1.3,3-4.1,3c-2.6,0-4.1-1.1-4.1-2.8c0-1.6,1.6-2.8,4-2.8c0.5,0,1,0,1.9,0.1C307.7,87.3,307.7,86.4,307.7,85.8z M306,89.8c-1.5,0-2.2,0.4-2.2,1.1c0,0.5,0.6,0.9,2,0.9c0.8,0,1.5-0.2,1.8-0.6c0.2-0.2,0.2-0.6,0.2-1.1C307.2,89.9,306.5,89.8,306,89.8z"/><path class="st1" d="M328.2,77.8c0-0.6-0.1-0.9-0.2-1.5c0.9,0.1,1.9,0.2,2.3,0.3c0.3,0.1,0.6,0.2,0.6,0.4c0,0.2-0.1,0.3-0.2,0.5c-0.1,0.1-0.1,0.3-0.2,0.6c0,0.3,0,0.5,0,1.3c2.2-0.1,4.2-0.1,6.1-0.1c0.2,0,0.3,0,0.3,0.3c0,0.5,0,1,0,1.5c0,0.2-0.1,0.3-0.3,0.3c-2.1-0.1-4-0.1-6.1,0c0,1.2,0,2.5,0,3.7c0.2,0.5,0.3,1.3,0.3,2c0,2.3-0.9,4.7-3.6,6.5c-0.3,0.2-0.6,0.4-0.8,0.4c-0.2,0-0.4-0.1-0.6-0.3c-0.5-0.4-1-0.6-1.5-0.8c2.3-1,3.7-2.7,4.1-4.4c-0.4,0.6-1.2,0.8-1.9,0.8c-1.6,0-2.8-1.1-2.8-3.1c0-1.9,1.4-3,3-3c0.6,0,1.2,0.1,1.5,0.4c0-0.7,0-1.4,0-2c-2.5,0.1-5.3,0.4-6.9,0.6c-0.4,0.1-0.8,0.2-0.9,0.2c-0.2,0-0.3-0.1-0.3-0.3c-0.2-0.4-0.3-1.2-0.5-2c0.7,0.1,1.4,0,2.4-0.1c1.2-0.1,3.8-0.3,6.2-0.4C328.2,78.8,328.2,78.3,328.2,77.8zM325.7,85.9c0,0.9,0.6,1.4,1.3,1.4c0.7,0,1.4-0.5,1.4-1.4c0-0.8-0.5-1.3-1.3-1.3C326.3,84.6,325.7,85,325.7,85.9z"/><path class="st2" d="M58.8,41.5c-2.1-3.6-5.5-3.6-7.5,0l-9.4,16.3c-2.1,3.6-0.4,6.5,3.8,6.5h18.9c4.1,0,5.8-2.9,3.8-6.5L58.8,41.5L58.8,41.5z"/><path class="st3" d="M53.5,54.5c-0.2,0-0.3-0.1-0.3-0.3v-8.7c0-0.2,0.1-0.3,0.3-0.3h3c0.2,0,0.3,0.1,0.3,0.3v8.7c0,0.2-0.1,0.3-0.3,0.3H53.5z M53.5,60.2c-0.2,0-0.3-0.1-0.3-0.3v-3c0-0.2,0.1-0.3,0.3-0.3h3c0.2,0,0.3,0.1,0.3,0.3v3c0,0.2-0.1,0.3-0.3,0.3H53.5z"/></svg>
