<svg xmlns="http://www.w3.org/2000/svg" viewBox="0 0 400 135"><defs><style>.cls-1{fill:#626262;}.cls-2{fill:#ed6103;}.cls-3{fill:#fff;}</style></defs><path class="cls-1" d="M92.93,54.8c1,0,2.08,0,3.1,0,.38,0,.44.06.44.34a9.9,9.9,0,0,1,0,1.54c0,.32-.06.4-.34.38-1.14,0-2.38,0-3.56,0H83.13C81.77,57,80.71,57,80,57c-.34,0-.4-.06-.44-.38a17.26,17.26,0,0,1-.14-1.94c1.14.08,2.4.1,3.56.1h6.1l.94-6.6H85.61c-1,0-2,0-2.84.1-.2,0-.24-.12-.28-.4a15.71,15.71,0,0,1-.18-2q1.53.12,3.42.12h3.56a3.11,3.11,0,0,0,1.48-.2.8.8,0,0,1,.32-.12.43.43,0,0,1,.28.12A7.74,7.74,0,0,1,93,47.24a.52.52,0,0,1,.18.36.55.55,0,0,1-.2.4,2.25,2.25,0,0,0-.54,1.32l-.82,5.48Z"/><path class="cls-1" d="M105.31,52.76a16,16,0,0,0-2.94.24c-.24,0-.4-.12-.46-.42a21.71,21.71,0,0,1-.3-2.42,25.69,25.69,0,0,0,4.32.24h6.44c1.52,0,3.06,0,4.6-.06.3,0,.36,0,.36.28a14.74,14.74,0,0,1,0,1.88c0,.24-.08.32-.36.3-1.5,0-3,0-4.46,0Z"/><path class="cls-1" d="M136.19,47.9c1,0,2.1,0,3-.06.24,0,.26.1.28.32a10.42,10.42,0,0,1,0,1.58c0,.26-.06.34-.34.32l-2.88,0h-.82a11.9,11.9,0,0,1-1.54,6.16,9.42,9.42,0,0,1-4.72,3.72,1.68,1.68,0,0,1-.56.18c-.12,0-.22-.06-.38-.22a4.62,4.62,0,0,0-1.66-1.2c2.84-.88,4.38-1.9,5.4-3.54a9.68,9.68,0,0,0,1.18-5.1h-4.26v.72c0,1.18,0,2.26.06,3.32,0,.22-.12.26-.34.28a12.34,12.34,0,0,1-1.72,0c-.26,0-.38-.06-.36-.28.06-1,.1-2,.1-3.28V50h-.6c-1.08,0-2.68.06-3.3.1-.16,0-.22-.12-.24-.38a17.94,17.94,0,0,1-.14-1.94c.84.06,2.14.1,3.68.1h.6V46.46a13.9,13.9,0,0,0-.24-2.94,19.42,19.42,0,0,1,2.44.32c.22,0,.3.14.3.28a1.36,1.36,0,0,1-.12.42,5,5,0,0,0-.14,1.92v1.46h4.3l0-2a13.3,13.3,0,0,0-.18-2.74,18.59,18.59,0,0,1,2.34.34c.28.06.36.16.36.32a1.07,1.07,0,0,1-.08.36,5.51,5.51,0,0,0-.16,1.76v1.9Zm1-4.84a.21.21,0,0,1,.28.08A9.33,9.33,0,0,1,139,45.56c.06.14,0,.22-.12.3l-.82.42a.22.22,0,0,1-.34-.12,9.52,9.52,0,0,0-1.62-2.6Zm1.88-.86c.12-.06.18,0,.28.08a8.45,8.45,0,0,1,1.54,2.34.22.22,0,0,1-.12.34l-.8.4c-.18.08-.26,0-.32-.1a9.58,9.58,0,0,0-1.62-2.6Z"/><path class="cls-1" d="M148.51,52.76a16,16,0,0,0-2.94.24c-.24,0-.4-.12-.46-.42a21.71,21.71,0,0,1-.3-2.42,25.69,25.69,0,0,0,4.32.24h6.44c1.52,0,3.06,0,4.6-.06.3,0,.36,0,.36.28a14.74,14.74,0,0,1,0,1.88c0,.24-.08.32-.36.3-1.5,0-3,0-4.46,0Z"/><path class="cls-1" d="M172.17,46.26a22.88,22.88,0,0,1-4.8,3.68,1,1,0,0,1-.46.2c-.14,0-.24-.14-.42-.46a4.32,4.32,0,0,0-1-1.12A18.1,18.1,0,0,0,172,43.3a5,5,0,0,0,.68-1.18,14.16,14.16,0,0,1,2.06.5c.2.06.28.14.28.28a.41.41,0,0,1-.26.36,2.33,2.33,0,0,0-.6.64l-.4.54h4.36a1.9,1.9,0,0,0,.58,0,1,1,0,0,1,.36-.1c.18,0,.4.12.84.52s.62.68.62.84-.06.28-.28.4a2.73,2.73,0,0,0-.66.64,25.88,25.88,0,0,1-5.66,5.48h5.14c1.72,0,2.6,0,2.72,0s.22,0,.22.2,0,.72,0,2.58v1.84c0,2.8,0,3.36,0,3.48s0,.22-.22.22h-1.7c-.22,0-.24,0-.24-.22v-.9h-7v1c0,.2,0,.22-.2.22h-1.72c-.2,0-.22,0-.22-.22s0-.74,0-3.54V54.18A40.09,40.09,0,0,1,167,56a1.38,1.38,0,0,1-.46.16c-.16,0-.22-.16-.4-.52a4.57,4.57,0,0,0-1-1.28,29,29,0,0,0,7-3.34,16.84,16.84,0,0,0-2.08-1.86C170,49.06,170,49,170,49s.06-.12.16-.2l1.06-.86a.44.44,0,0,1,.24-.12.47.47,0,0,1,.24.1,18,18,0,0,1,2.2,1.82,23.81,23.81,0,0,0,3.38-3.44Zm.62,7.74v3.54h7V54Z"/><path class="cls-1" d="M198.07,56.06c0,.22-.12.32-.38.36a10.82,10.82,0,0,1-1.42.1c-.18,0-.26-.12-.26-.32,0-.72,0-1.72,0-2.44-1.78.92-2.42,1.7-2.42,2.66s.68,1.38,2.78,1.38a34.18,34.18,0,0,0,5-.4c.18,0,.26,0,.28.22a9,9,0,0,1,.18,1.64c0,.24-.06.38-.22.38a35.57,35.57,0,0,1-5,.26c-3.28,0-5-1-5-3.3,0-1.92,1.2-3.32,4.22-4.88-.06-1-.3-1.42-1.2-1.38a4.83,4.83,0,0,0-2.76,1.44,27,27,0,0,0-2,2.18c-.1.12-.16.18-.24.18a.4.4,0,0,1-.22-.14,9.51,9.51,0,0,1-1.14-1.32.33.33,0,0,1-.08-.18c0-.08,0-.14.14-.22a20.44,20.44,0,0,0,4.18-5c-.94,0-2,.06-3.2.06-.18,0-.24-.1-.28-.32s-.14-1.06-.2-1.66a44.11,44.11,0,0,0,4.6,0,15.41,15.41,0,0,0,.6-1.72,4.87,4.87,0,0,0,.14-1.22,12.63,12.63,0,0,1,2.28.56.36.36,0,0,1,.24.34.39.39,0,0,1-.14.3,1.56,1.56,0,0,0-.34.48c-.12.28-.22.54-.46,1.08a32.17,32.17,0,0,0,3.64-.62c.22,0,.28,0,.32.2a6.74,6.74,0,0,1,.2,1.44c0,.2-.06.28-.34.32-1.5.22-3.22.44-4.68.6a20.64,20.64,0,0,1-1.5,2.22l0,0a4,4,0,0,1,2-.62,2.21,2.21,0,0,1,2.44,2.16c.78-.36,1.92-.88,2.94-1.4a6,6,0,0,0,1.52-1.08,12.32,12.32,0,0,1,1.4,1.76.79.79,0,0,1,.16.44c0,.16-.1.24-.3.28a6.4,6.4,0,0,0-1.22.3c-1.3.46-2.6.9-4.3,1.6Z"/><path class="cls-1" d="M212.11,45.3c-1.86,0-2.52,0-2.64,0s-.22,0-.22-.22V43.48c0-.2,0-.22.22-.22s.78,0,2.64,0H223c1.86,0,2.52,0,2.64,0s.22,0,.22.22v1.64c0,.2,0,.22-.22.22s-.78,0-2.64,0h-3.88V50h2.78c1.72,0,2.32,0,2.44,0s.2,0,.2.22v1.62c0,.2,0,.22-.2.22s-.72,0-2.44,0h-2.78v5.36h4.68c1.78,0,2.38,0,2.5,0s.2,0,.2.22V59.2c0,.2,0,.22-.2.22s-.72,0-2.5,0h-12.5c-1.76,0-2.36,0-2.48,0s-.2,0-.2-.22V57.54c0-.2,0-.22.2-.22s.72,0,2.48,0h.3v-5.8a18.78,18.78,0,0,0-.16-3c.76,0,1.6.06,2.3.14.22,0,.34.12.34.24a.88.88,0,0,1-.14.44,7.54,7.54,0,0,0-.14,2.18v5.84h3.1V45.3Z"/><path class="cls-1" d="M237,43.52c.34.08.48.18.48.38a1.94,1.94,0,0,1-.2.66A12,12,0,0,0,237,47c-.2,3.08-.3,5.12-.3,7.74,0,2,.24,2.48,1.84,2.48,1.78,0,4.56-1.08,7-3.68a7,7,0,0,0,.46,1.9,1.31,1.31,0,0,1,.16.48c0,.18-.08.34-.4.62a11.43,11.43,0,0,1-7.58,3c-2.56,0-3.76-1-3.76-4.08,0-3.36.18-6.24.28-8.64a13.3,13.3,0,0,0-.2-3.66A20.69,20.69,0,0,1,237,43.52Z"/><path class="cls-1" d="M255.59,45.7c.18.08.32.22.32.36a1.74,1.74,0,0,1-.16.56,9,9,0,0,0-.18,2,25.19,25.19,0,0,0,.36,4.56c.28,1.58.8,2.94,1.64,2.94.64,0,1.14-.7,1.92-2.78a7.65,7.65,0,0,0,1.28,1.54.61.61,0,0,1,.14.74c-.76,2-2,3.12-3.4,3.12-1.56,0-3.2-1.84-3.74-5.22a36.26,36.26,0,0,1-.48-5.82,10.72,10.72,0,0,0-.24-2.62A8.66,8.66,0,0,1,255.59,45.7ZM264.87,47a.59.59,0,0,1,.22-.08.31.31,0,0,1,.22.12,13.22,13.22,0,0,1,3.92,6.84c.06.26-.06.34-.22.44a6.79,6.79,0,0,1-1.56.8c-.24.08-.38,0-.42-.22a13.48,13.48,0,0,0-3.74-7C264.05,47.4,264.55,47.12,264.87,47Z"/><path class="cls-1" d="M277.65,51.34a25.76,25.76,0,0,1-.28,3.2,11.9,11.9,0,0,1-2.3,5.36c-.18.22-.28.34-.38.34s-.22-.12-.4-.34A4.62,4.62,0,0,0,273,58.78a8.58,8.58,0,0,0,2.4-5c.1-.68.16-1.52.2-2.48l-2.12,0c-.18,0-.2,0-.2-.24V49.58c0-.2,0-.22.2-.22s.68,0,2.16,0c0-.74,0-1.52,0-2.38V45.2l-1.62,0c-.2,0-.22,0-.22-.22V43.46c0-.22,0-.24.22-.24s.72,0,2.52,0H281c1.8,0,2.42,0,2.52,0s.22,0,.22.24V45c0,.2,0,.22-.22.22l-1.58,0v4.2c1.28,0,1.78,0,1.88,0s.22,0,.22.22v1.56c0,.22,0,.24-.22.24l-1.88,0V57c0,1.86,0,3,0,3.14s0,.2-.24.2h-1.62c-.22,0-.24,0-.24-.2s0-1.28,0-3.14v-5.7Zm2.24-1.94V45.2h-2.18v4.2Zm9.34,4.5a10.16,10.16,0,0,0,.76-1.12A10.55,10.55,0,0,1,291.61,54c.14.14.18.2.18.34s-.12.18-.26.24a3,3,0,0,0-.7.72,18.28,18.28,0,0,1-6.24,4.7,1.31,1.31,0,0,1-.48.18c-.16,0-.22-.14-.42-.48a5.1,5.1,0,0,0-1.06-1.28A14.78,14.78,0,0,0,289.23,53.9Zm1-10.3a.45.45,0,0,1,.2.32c0,.14-.1.22-.24.28a2.12,2.12,0,0,0-.68.48A17.57,17.57,0,0,1,284.81,48a1.14,1.14,0,0,1-.46.18c-.16,0-.24-.16-.4-.52a4.71,4.71,0,0,0-.86-1.24,13.46,13.46,0,0,0,4.8-3,5.7,5.7,0,0,0,.72-1A8.07,8.07,0,0,1,290.25,43.6Zm.68,4.88c.18.18.22.24.22.34s-.12.2-.24.24a2.31,2.31,0,0,0-.66.6,17.82,17.82,0,0,1-5.22,4,1.09,1.09,0,0,1-.44.18c-.14,0-.24-.14-.42-.48a4.54,4.54,0,0,0-1-1.2,14.72,14.72,0,0,0,5.5-3.84,3.57,3.57,0,0,0,.66-1A9.8,9.8,0,0,1,290.93,48.48Z"/><path class="cls-1" d="M298.11,48c-1.82,0-2.44,0-2.56,0s-.2,0-.2-.24V46.2c0-.22,0-.24.2-.24s.74,0,2.56,0h7.18c0-.26,0-.54,0-.82a19.06,19.06,0,0,0-.16-2.86c.72,0,1.5,0,2.18.12.2,0,.32.12.32.24a1.29,1.29,0,0,1-.12.42,6.75,6.75,0,0,0-.1,2V46h2.46c1.82,0,2.44,0,2.56,0s.22,0,.22.24v1.58c0,.22,0,.24-.22.24s-.74,0-2.56,0h-2.38a25.3,25.3,0,0,0,1.14,6.84c.58,1.8,1.2,3,1.8,3s.78-1.1.9-2.92a6.47,6.47,0,0,0,1.3.9c.58.32.58.32.5.94-.4,2.56-1.24,3.64-2.42,3.62-1.52,0-2.92-1.44-3.92-4.4A31.43,31.43,0,0,1,305.39,48Zm3.24,4.44v3.92c1.32-.32,2.7-.7,3.9-1.12,0,.36-.06.86-.06,1.26,0,.66,0,.66-.6.84-2,.66-5,1.48-7.16,1.94a2.68,2.68,0,0,0-.84.3.75.75,0,0,1-.36.14c-.12,0-.22-.08-.28-.26-.16-.48-.36-1.32-.52-2a11,11,0,0,0,1.92-.24l1.92-.36v-4.4h-.68c-1.7,0-2.26,0-2.38,0s-.22,0-.22-.2v-1.5c0-.22,0-.24.22-.24s.68,0,2.38,0h3.54c1.68,0,2.24,0,2.36,0s.24,0,.24.24v1.5c0,.18,0,.2-.24.2s-.68,0-2.36,0Zm8.06-9.76c.12-.08.18-.12.24-.12s.12,0,.2.12a9.43,9.43,0,0,1,1.72,1.84c.12.16.1.24-.14.4l-.94.64a.55.55,0,0,1-.26.12c-.06,0-.12-.06-.18-.16a8.91,8.91,0,0,0-1.56-1.9c-.16-.16-.12-.22.08-.36Z"/><path class="cls-1" d="M326.73,46.94c-2.44.46-4.58.88-6.72,1.32-.76.18-1,.22-1.26.32a1.17,1.17,0,0,1-.44.16.47.47,0,0,1-.38-.3,13.94,13.94,0,0,1-.74-2.16,27.59,27.59,0,0,0,3.18-.34c2.46-.36,6.86-1,12-1.7.3,0,.4.08.42.22a11.43,11.43,0,0,1,.22,1.76c0,.24-.12.3-.38.3a8.92,8.92,0,0,0-2.44.44c-3.4,1.16-5.1,3.5-5.1,5.9,0,2.58,1.84,4,5.32,4.2.32,0,.44.08.44.3a7.11,7.11,0,0,1-.22,1.72c-.06.3-.14.42-.38.42-3.52,0-7.38-2-7.38-6.18,0-2.84,1.42-4.76,3.84-6.34Zm4,2.16c.1-.08.18-.06.3,0a9.2,9.2,0,0,1,1.9,2.14.2.2,0,0,1-.06.32l-.84.62a.21.21,0,0,1-.34-.06,9.92,9.92,0,0,0-2-2.32Zm1.78-1.3c.12-.08.18-.06.3,0a8.35,8.35,0,0,1,1.9,2.06.23.23,0,0,1-.06.36l-.8.62a.21.21,0,0,1-.34-.06,9.46,9.46,0,0,0-2-2.3Z"/><path class="cls-1" d="M87,76.94c1.44,0,1.88,0,2,0s.26,0,.26.24a11.17,11.17,0,0,0,.12,2.22,15.66,15.66,0,0,0,7.78,12.36,5.89,5.89,0,0,0-1.18,1.52c-.16.32-.24.46-.36.46s-.24-.1-.46-.26a17.19,17.19,0,0,1-6.86-9.92,16.83,16.83,0,0,1-7.36,10c-.24.14-.36.24-.46.24s-.22-.16-.42-.48a4.79,4.79,0,0,0-1.18-1.32c5-2.44,7.78-7.22,8-12.94H84.39c-1.44,0-1.88,0-2,0s-.24,0-.24-.22V77.12c0-.2,0-.22.24-.22s.56,0,2,0Z"/><path class="cls-1" d="M109.71,82.28a17.64,17.64,0,0,1-1,4.82,12.11,12.11,0,0,1-6,6.54,1.86,1.86,0,0,1-.48.18c-.16,0-.26-.12-.48-.42a4.47,4.47,0,0,0-1.26-1.16c3.26-1.42,5.28-3.32,6.22-5.94a15.8,15.8,0,0,0,.84-4h-3.12c-1.92,0-2.58,0-2.68,0s-.24,0-.24-.22V80.46c0-.2,0-.22.24-.22s.76,0,2.68,0h3.22c0-.58,0-1.16,0-1.74a16.35,16.35,0,0,0-.18-2.66,21.06,21.06,0,0,1,2.36.22c.3,0,.4.14.4.28a.84.84,0,0,1-.18.5,5.66,5.66,0,0,0-.16,1.7c0,.54,0,1.12,0,1.7h4.2c1.94,0,2.6,0,2.74,0s.24,0,.24.24c0,.6,0,1.28,0,1.8a57.92,57.92,0,0,1-.62,8.78C116,93,115,93.68,113,93.7a14.18,14.18,0,0,1-1.92-.08c-.62-.06-.62-.08-.74-.72a5,5,0,0,0-.58-1.58,15.7,15.7,0,0,0,3,.26c.74,0,1.26-.28,1.46-1.34a48.36,48.36,0,0,0,.52-8Z"/><path class="cls-1" d="M129,77.12c.34.08.48.18.48.38a1.94,1.94,0,0,1-.2.66A12,12,0,0,0,129,80.6c-.2,3.08-.3,5.12-.3,7.74,0,2,.24,2.48,1.84,2.48,1.78,0,4.56-1.08,7-3.68A7,7,0,0,0,138,89a1.31,1.31,0,0,1,.16.48c0,.18-.08.34-.4.62a11.43,11.43,0,0,1-7.58,3c-2.56,0-3.76-1-3.76-4.08,0-3.36.18-6.24.28-8.64a13.3,13.3,0,0,0-.2-3.66A20.69,20.69,0,0,1,129,77.12Z"/><path class="cls-1" d="M154.13,80.44c-2.44.46-4.58.88-6.72,1.32-.76.18-1,.22-1.26.32a1.17,1.17,0,0,1-.44.16.47.47,0,0,1-.38-.3,13.94,13.94,0,0,1-.74-2.16,27.59,27.59,0,0,0,3.18-.34c2.46-.36,6.86-1,12-1.7.3,0,.4.08.42.22a11.43,11.43,0,0,1,.22,1.76c0,.24-.12.3-.38.3a8.92,8.92,0,0,0-2.44.44c-3.4,1.16-5.1,3.5-5.1,5.9,0,2.58,1.84,4,5.32,4.2.32,0,.44.08.44.3a7.11,7.11,0,0,1-.22,1.72c-.06.3-.14.42-.38.42-3.52,0-7.38-2-7.38-6.18,0-2.84,1.42-4.76,3.84-6.34Z"/><path class="cls-1" d="M178.09,77.82a.49.49,0,0,1,.16.32.4.4,0,0,1-.28.38,3.79,3.79,0,0,0-1,.7c-1.72,1.54-3.92,3.6-5.46,5.2-.18.22-.26.34-.26.44s.08.22.26.36a55.49,55.49,0,0,1,7.44,6.3.48.48,0,0,1,.14.26c0,.08,0,.14-.14.24-.46.5-1,1.08-1.38,1.38-.12.1-.2.16-.28.16s-.14-.06-.24-.18a50.48,50.48,0,0,0-7.28-6.76c-.76-.58-1.06-1-1.06-1.68s.36-1.1,1-1.76c1.7-1.84,3.36-3.5,5.08-5.38a5.77,5.77,0,0,0,1.08-1.5A15.92,15.92,0,0,1,178.09,77.82Z"/><path class="cls-1" d="M197.47,79.36c.22-.06.3,0,.32.2.06.44.12,1,.14,1.44,0,.26,0,.32-.3.38a31.94,31.94,0,0,1-3.48.76c-1.36,4.44-2.38,7.5-3.66,10.82-.1.28-.22.26-.44.2s-1.18-.5-1.6-.74a.32.32,0,0,1-.16-.4,75.07,75.07,0,0,0,3.46-9.48c-1.16.12-2.56.22-3.5.22-.3,0-.38-.06-.42-.32-.08-.42-.18-1.1-.28-1.82a9.23,9.23,0,0,0,1.48.06,27,27,0,0,0,3.24-.2c.2-.8.36-1.68.5-2.5a13.76,13.76,0,0,0,.12-1.84,11.66,11.66,0,0,1,2.52.56.33.33,0,0,1,.22.32.48.48,0,0,1-.1.32,3.81,3.81,0,0,0-.42.8c-.2.72-.34,1.4-.48,1.9C195.41,79.9,196.49,79.64,197.47,79.36Zm-.78,9.56c.2,0,.28.08.3.28.16,1.46,1.14,1.88,3.06,1.88a29.9,29.9,0,0,0,3.36-.28c.16,0,.22,0,.24.18a12.5,12.5,0,0,1,.16,1.74c0,.24,0,.3-.32.32a22.1,22.1,0,0,1-2.78.22c-2.56,0-3.92-.36-4.82-1.3a3.9,3.9,0,0,1-.9-2.74A10.19,10.19,0,0,1,196.69,88.92Zm-.22-5.3c0-.28.06-.34.36-.4a20.89,20.89,0,0,1,3.9-.46,14.56,14.56,0,0,1,2.34.2c.28,0,.34.06.34.3a14.11,14.11,0,0,1,0,1.6c0,.34-.1.42-.38.36a13.37,13.37,0,0,0-2.48-.24,22.13,22.13,0,0,0-4,.46C196.51,84.74,196.47,84,196.47,83.62Zm4.62-5.7c.1-.08.18-.06.3,0a9.2,9.2,0,0,1,1.9,2.14.2.2,0,0,1-.06.32l-.84.62a.21.21,0,0,1-.34-.06,9.92,9.92,0,0,0-2-2.32Zm1.78-1.3c.12-.08.18-.06.3,0a8.35,8.35,0,0,1,1.9,2.06.23.23,0,0,1-.06.36l-.8.62a.21.21,0,0,1-.34-.06,9.46,9.46,0,0,0-2-2.3Z"/><path class="cls-1" d="M215.67,78.3a6.6,6.6,0,0,0-1-1.62,15.74,15.74,0,0,1,2.38-.32c.52,0,.68.14.68.42a2.63,2.63,0,0,0,0,.56,8.62,8.62,0,0,0,.32,1c.24.6.42,1.08.68,1.62a30.78,30.78,0,0,0,4.18-1.24c.2-.1.26-.08.38.14a8.68,8.68,0,0,1,.5,1.54c.06.2,0,.3-.16.34a31.92,31.92,0,0,1-4,1.16,22.78,22.78,0,0,0,3.06,4.22,5.49,5.49,0,0,0,.52.44c.12.1.2.16.2.26a.63.63,0,0,1-.12.34,8,8,0,0,1-.78,1.3c-.16.22-.26.3-.4.3s-.16,0-.32-.16a6.59,6.59,0,0,0-.82-.52,9.15,9.15,0,0,0-4.24-1c-2.08,0-3.34.62-3.34,1.88,0,1.5,1.82,2.12,5,2.12a19.78,19.78,0,0,0,3.2-.28,12.22,12.22,0,0,1-.42,2.14c-.06.2-.14.24-.38.28a17.86,17.86,0,0,1-2.22.14c-4.72,0-7.26-1.5-7.26-4.14,0-2.28,2-3.88,5.26-3.88a10.21,10.21,0,0,1,3.56.54,12.86,12.86,0,0,1-2.58-3.54c-1.26.22-2.42.38-3.86.5-.54,0-1.46.1-2,.1-.18,0-.26-.12-.32-.36a15.64,15.64,0,0,1-.46-1.8,24.86,24.86,0,0,0,2.5,0,27.45,27.45,0,0,0,3.16-.38C216.27,79.64,216,79.06,215.67,78.3Z"/><path class="cls-1" d="M234,79.3c.18.08.32.22.32.36a1.74,1.74,0,0,1-.16.56,9,9,0,0,0-.18,2,25.19,25.19,0,0,0,.36,4.56c.28,1.58.8,2.94,1.64,2.94.64,0,1.14-.7,1.92-2.78a7.65,7.65,0,0,0,1.28,1.54.61.61,0,0,1,.14.74c-.76,2-2,3.12-3.4,3.12-1.56,0-3.2-1.84-3.74-5.22a36.26,36.26,0,0,1-.48-5.82,10.72,10.72,0,0,0-.24-2.62A8.66,8.66,0,0,1,234,79.3Zm9.28,1.26a.59.59,0,0,1,.22-.08.31.31,0,0,1,.22.12,13.22,13.22,0,0,1,3.92,6.84c.06.26-.06.34-.22.44a6.79,6.79,0,0,1-1.56.8c-.24.08-.38,0-.42-.22a13.48,13.48,0,0,0-3.74-7C242.45,81,243,80.72,243.27,80.56Z"/><path class="cls-2" d="M58.76,41.52c-2.07-3.58-5.45-3.58-7.52,0L41.81,57.86c-2.07,3.58-.38,6.51,3.76,6.51H64.43c4.14,0,5.83-2.93,3.76-6.51Z"/><path class="cls-3" d="M53.5,54.47a.27.27,0,0,1-.28-.28V45.45a.27.27,0,0,1,.28-.28h3a.27.27,0,0,1,.28.28v8.74a.27.27,0,0,1-.28.28Zm0,5.74a.27.27,0,0,1-.28-.28v-3a.27.27,0,0,1,.28-.28h3a.27.27,0,0,1,.28.28v3a.27.27,0,0,1-.28.28Z"/></svg>
