<?xml version="1.0" encoding="UTF-8"?>
<svg id="_レイヤー_2" data-name="レイヤー_2" xmlns="http://www.w3.org/2000/svg" viewBox="0 0 400 120">
  <defs>
    <style>
      .cls-1 {
        fill: #78240b;
      }

      .cls-2 {
        fill: #ed6103;
      }
    </style>
  </defs>
  <g id="_レイヤー_1-2" data-name="レイヤー_1" transform="translate(20.145, 32.935)">
    <g>
      <path class="cls-2" d="M53.79,18.1l-14.73-2.13c-.46-.07-.86-.36-1.07-.77L31.42,1.91c-.58-1.17-1.76-1.91-3.07-1.91s-2.49.73-3.07,1.91l-6.57,13.29c-.21.42-.61.71-1.07.78l-14.71,2.13c-1.3.19-2.35,1.08-2.76,2.32-.4,1.25-.07,2.59.87,3.5l10.65,10.35c.33.32.49.79.41,1.25l-2.51,14.6c-.22,1.29.3,2.57,1.36,3.35,1.06.77,2.44.87,3.6.26l13.15-6.9c.42-.22.91-.22,1.33,0l13.15,6.9c.5.26,1.05.39,1.59.39.71,0,1.41-.22,2.01-.66,1.06-.77,1.58-2.05,1.36-3.35l-2.51-14.6c-.08-.46.07-.92.41-1.25l10.65-10.36c.94-.91,1.27-2.25.87-3.49-.4-1.24-1.46-2.13-2.75-2.32Z"/>
      <path class="cls-2" d="M129.54,18.1l-14.73-2.13c-.46-.07-.86-.36-1.07-.77l-6.58-13.29c-.58-1.17-1.76-1.91-3.07-1.91s-2.49.73-3.07,1.91l-6.57,13.29c-.21.42-.61.71-1.07.78l-14.71,2.13c-1.3.19-2.35,1.08-2.76,2.32-.4,1.25-.07,2.59.87,3.5l10.65,10.35c.33.32.49.79.41,1.25l-2.51,14.6c-.22,1.29.3,2.57,1.36,3.35,1.06.77,2.44.87,3.6.26l13.15-6.9c.42-.22.92-.22,1.33,0l13.15,6.9c.5.26,1.05.39,1.59.39.71,0,1.41-.22,2.01-.66,1.06-.77,1.58-2.05,1.36-3.35l-2.51-14.6c-.08-.46.07-.92.41-1.25l10.65-10.36c.94-.91,1.27-2.25.87-3.49-.4-1.24-1.46-2.13-2.75-2.32Z"/>
      <path class="cls-1" d="M205.29,18.1l-14.73-2.13c-.46-.07-.86-.36-1.07-.77l-6.58-13.29c-.58-1.17-1.76-1.91-3.07-1.91s-2.49.73-3.07,1.91l-6.57,13.29c-.21.42-.61.71-1.07.78l-14.71,2.13c-1.3.19-2.35,1.08-2.76,2.32-.4,1.25-.07,2.59.87,3.5l10.65,10.35c.33.32.49.79.41,1.25l-2.51,14.6c-.22,1.29.3,2.57,1.36,3.35,1.06.77,2.44.87,3.6.26l13.15-6.9c.42-.22.92-.22,1.33,0l13.15,6.9c.5.26,1.05.39,1.59.39.71,0,1.41-.22,2.01-.66,1.06-.77,1.58-2.05,1.36-3.35l-2.51-14.6c-.08-.46.07-.92.41-1.25l10.65-10.36c.94-.91,1.27-2.25.87-3.49-.4-1.24-1.46-2.13-2.75-2.32Z"/>
      <path class="cls-2" d="M281.04,18.1l-14.73-2.13c-.46-.07-.86-.36-1.07-.77l-6.58-13.29c-.58-1.17-1.76-1.91-3.07-1.91s-2.49.73-3.07,1.91l-6.57,13.29c-.21.42-.61.71-1.07.78l-14.71,2.13c-1.3.19-2.35,1.08-2.76,2.32-.4,1.25-.07,2.59.87,3.5l10.65,10.35c.33.32.49.79.41,1.25l-2.51,14.6c-.22,1.29.3,2.57,1.36,3.35,1.06.77,2.44.87,3.6.26l13.15-6.9c.42-.22.92-.22,1.33,0l13.15,6.9c.5.26,1.05.39,1.59.39.71,0,1.41-.22,2.01-.66,1.06-.77,1.58-2.05,1.36-3.35l-2.51-14.6c-.08-.46.07-.92.41-1.25l10.65-10.36c.94-.91,1.27-2.25.87-3.49-.4-1.24-1.46-2.13-2.75-2.32ZM281.53,22.48l-10.65,10.36c-.81.78-1.17,1.91-.98,3.02l2.51,14.6c.09.55-.12,1.07-.57,1.39-.45.33-1.01.37-1.5.11l-13.15-6.9c-.5-.26-1.05-.39-1.59-.39s-1.09.13-1.59.39l-13.15,6.9c-.49.26-1.05.22-1.5-.11-.45-.33-.66-.85-.57-1.39l2.51-14.6c.19-1.11-.18-2.24-.98-3.02l-10.65-10.35c-.39-.38-.53-.93-.36-1.45s.6-.88,1.14-.96l14.71-2.13c1.12-.16,2.08-.86,2.58-1.87l6.57-13.29c.25-.5.72-.79,1.28-.79s1.03.3,1.28.79l6.58,13.29c.5,1.01,1.46,1.71,2.57,1.87l14.73,2.13c.54.08.97.44,1.14.96.17.52.04,1.06-.36,1.44Z"/>
      <path class="cls-2" d="M358.68,23.92c.94-.91,1.27-2.25.87-3.49-.4-1.24-1.46-2.13-2.75-2.32l-14.73-2.13c-.46-.07-.86-.36-1.07-.77l-6.58-13.29c-.58-1.17-1.76-1.91-3.07-1.91s-2.49.73-3.07,1.91l-6.57,13.29c-.21.42-.61.71-1.07.78l-14.71,2.13c-1.3.19-2.35,1.08-2.76,2.32-.4,1.25-.07,2.59.87,3.5l10.65,10.35c.33.32.49.79.41,1.25l-2.51,14.6c-.22,1.29.3,2.57,1.36,3.35,1.06.77,2.44.87,3.6.26l13.15-6.9c.42-.22.92-.22,1.33,0l13.15,6.9c.5.26,1.05.39,1.59.39.71,0,1.41-.22,2.01-.66,1.06-.77,1.58-2.05,1.36-3.35l-2.51-14.6c-.08-.46.07-.92.41-1.25l10.65-10.36ZM345.65,35.86l2.51,14.6c.09.55-.12,1.07-.57,1.39-.45.33-1.01.37-1.5.11l-13.15-6.9c-.5-.26-1.05-.39-1.59-.39s-1.09.13-1.59.39l-13.15,6.9c-.49.26-1.05.22-1.5-.11-.45-.33-.66-.85-.57-1.39l2.51-14.6c.19-1.11-.18-2.24-.98-3.02l-10.65-10.35c-.39-.38-.53-.93-.36-1.45s.6-.88,1.14-.96l14.71-2.13c1.12-.16,2.08-.86,2.58-1.87l6.57-13.29c.25-.5.72-.79,1.28-.79s1.03.3,1.28.79l6.58,13.29c.5,1.01,1.46,1.71,2.57,1.87l14.73,2.13c.54.08.97.44,1.14.96.17.52.04,1.06-.36,1.44l-10.65,10.36c-.81.78-1.17,1.91-.98,3.02Z"/>
    </g>
  </g>
</svg>
