<svg xmlns="http://www.w3.org/2000/svg" viewBox="0 0 400 120"><defs><style>.cls-1{fill:#ed6103;}.cls-2{fill:none;stroke:#ed6103;stroke-linecap:round;stroke-linejoin:round;stroke-width:4px;}.cls-3{fill:#fff;}</style></defs><rect class="cls-1" x="28" y="36" width="140" height="48" rx="6"/><polyline class="cls-2" points="199.41 69.22 209.59 60 199.41 50.78"/><line class="cls-2" x1="188.75" y1="60" x2="209" y2="60"/><path class="cls-3" d="M74.44,61c.18.12.3.24.3.38s-.06.2-.22.32a1.88,1.88,0,0,0-.5.68,15.41,15.41,0,0,1-2.22,3.34.55.55,0,0,1-.4.24.58.58,0,0,1-.3-.12A5.76,5.76,0,0,0,69.39,65a13.17,13.17,0,0,0,2.43-3.3A4.43,4.43,0,0,0,72.36,60,9.32,9.32,0,0,1,74.44,61Zm2.66-5.5a15.42,15.42,0,0,0-.22-3.08c.94.08,2,.2,2.49.3q.36.06.36.3a.76.76,0,0,1-.12.36,4.65,4.65,0,0,0-.2,2v1.06h2.46c1.74,0,3.1-.08,4.08-.12.18,0,.26.1.26.32a13.53,13.53,0,0,1,0,1.56c0,.26-.08.4-.28.38-1.24,0-2.76-.1-4.12-.1H79.43l0,4c0,1.06,0,1.92,0,3.48A2.08,2.08,0,0,1,78.3,68a6.21,6.21,0,0,1-2.56.66c-.24,0-.36-.12-.48-.42a4.68,4.68,0,0,0-1.34-1.8,10,10,0,0,0,2.72-.24c.32-.14.46-.36.46-.88v-6.9H74c-1.14,0-2.52.06-3.46.14-.18,0-.26-.16-.26-.4s-.08-1.26-.08-1.92c1.52.12,2.74.14,3.76.14H77.1ZM83,60.23a.39.39,0,0,1,.26-.1.38.38,0,0,1,.3.18A15.69,15.69,0,0,1,86.42,64a.5.5,0,0,1,.09.3.37.37,0,0,1-.2.32,11.12,11.12,0,0,1-1.34,1,.66.66,0,0,1-.24.12c-.08,0-.14-.06-.22-.2a19.39,19.39,0,0,0-3-4.2C82,60.91,82.53,60.57,83,60.23Zm.24-7.88c.1-.08.18-.06.3,0a9.2,9.2,0,0,1,1.9,2.14.2.2,0,0,1-.06.32l-.84.62a.21.21,0,0,1-.34-.06,9.92,9.92,0,0,0-2-2.32ZM85,51.05c.12-.08.18-.06.3,0a8.4,8.4,0,0,1,1.91,2.06.23.23,0,0,1-.06.36l-.81.62a.21.21,0,0,1-.34-.06,9.46,9.46,0,0,0-2-2.3Z"/><path class="cls-3" d="M102.51,54.67a2,2,0,0,0,1.11-.3.58.58,0,0,1,.34-.14.69.69,0,0,1,.36.16,6.48,6.48,0,0,1,1.36,1.22.49.49,0,0,1,.16.36.51.51,0,0,1-.22.38,2.51,2.51,0,0,0-.6.76,30.51,30.51,0,0,1-3,4.84,17.19,17.19,0,0,1,2.17,2,.39.39,0,0,1,.12.28.39.39,0,0,1-.12.26A12.29,12.29,0,0,1,103,65.77a.44.44,0,0,1-.25.1.35.35,0,0,1-.21-.12,23.84,23.84,0,0,0-2-1.94,24.37,24.37,0,0,1-6.38,5,1.16,1.16,0,0,1-.51.18.6.6,0,0,1-.38-.18,5.68,5.68,0,0,0-1.9-1,24.18,24.18,0,0,0,7.37-5.42,16.72,16.72,0,0,0-2.88-1.88c.44-.48.86-1,1.32-1.42a.38.38,0,0,1,.26-.14.52.52,0,0,1,.2.08,20.05,20.05,0,0,1,2.58,1.6,19.79,19.79,0,0,0,2.35-4l-5,.1a23.83,23.83,0,0,1-4.29,4.5.72.72,0,0,1-.4.18.46.46,0,0,1-.32-.14A8.33,8.33,0,0,0,91,60.37a22.37,22.37,0,0,0,5.67-6.28,7.38,7.38,0,0,0,1.08-2.46,12.6,12.6,0,0,1,2.34,1,.35.35,0,0,1,.22.32.54.54,0,0,1-.24.4,1.67,1.67,0,0,0-.42.42c-.16.28-.28.48-.62,1Z"/><path class="cls-3" d="M113.35,54a.37.37,0,0,1,.28-.16.53.53,0,0,1,.26.1,20.86,20.86,0,0,1,3.82,2.84c.12.12.18.2.18.28a.43.43,0,0,1-.12.26c-.3.4-1,1.2-1.24,1.5-.1.1-.16.16-.24.16s-.16-.06-.26-.16A21.17,21.17,0,0,0,112,55.51C112.39,55,113,54.35,113.35,54Zm1.74,10.54a30,30,0,0,0,5.77-3.72,30,30,0,0,0,5.48-5.44,8.93,8.93,0,0,0,.56,2.34,1,1,0,0,1,.1.38c0,.18-.1.34-.32.6a32.69,32.69,0,0,1-4.6,4.24,43.18,43.18,0,0,1-6,3.92,6.9,6.9,0,0,0-1.34.92.55.55,0,0,1-.36.2.52.52,0,0,1-.34-.22,13.86,13.86,0,0,1-1.6-2.22A12,12,0,0,0,115.09,64.49Z"/><rect class="cls-1" x="233" y="36" width="140" height="48" rx="6"/><path class="cls-3" d="M279.44,61c.18.12.3.24.3.38s-.06.2-.22.32a1.88,1.88,0,0,0-.5.68,15.41,15.41,0,0,1-2.22,3.34.55.55,0,0,1-.4.24.58.58,0,0,1-.3-.12,5.76,5.76,0,0,0-1.71-.84,13.43,13.43,0,0,0,2.43-3.3,4.43,4.43,0,0,0,.54-1.62A9.32,9.32,0,0,1,279.44,61Zm2.66-5.5a15.42,15.42,0,0,0-.22-3.08c.94.08,2,.2,2.49.3q.36.06.36.3a.76.76,0,0,1-.12.36,4.65,4.65,0,0,0-.2,2v1.06h2.46c1.74,0,3.1-.08,4.08-.12.18,0,.26.1.26.32a13.53,13.53,0,0,1,0,1.56c0,.26-.08.4-.28.38-1.24,0-2.76-.1-4.12-.1h-2.36l0,4c0,1.06,0,1.92,0,3.48A2.09,2.09,0,0,1,283.3,68a6.21,6.21,0,0,1-2.56.66c-.24,0-.36-.12-.48-.42a4.68,4.68,0,0,0-1.34-1.8,10,10,0,0,0,2.72-.24c.32-.14.46-.36.46-.88v-6.9H279c-1.14,0-2.52.06-3.46.14-.19,0-.27-.16-.27-.4s-.08-1.26-.08-1.92c1.53.12,2.75.14,3.77.14h3.18ZM288,60.23a.39.39,0,0,1,.26-.1.38.38,0,0,1,.3.18A15.42,15.42,0,0,1,291.41,64a.53.53,0,0,1,.1.3.37.37,0,0,1-.2.32,11.12,11.12,0,0,1-1.34,1,.66.66,0,0,1-.24.12c-.08,0-.14-.06-.22-.2a19.39,19.39,0,0,0-3-4.2C287,60.91,287.53,60.57,288,60.23Zm.24-7.88c.1-.08.18-.06.3,0a9.2,9.2,0,0,1,1.9,2.14.2.2,0,0,1-.06.32l-.84.62a.21.21,0,0,1-.34-.06,9.92,9.92,0,0,0-2-2.32Zm1.78-1.3c.12-.08.18-.06.3,0a8.16,8.16,0,0,1,1.9,2.06.23.23,0,0,1,0,.36l-.81.62a.21.21,0,0,1-.34-.06,9.46,9.46,0,0,0-2-2.3Z"/><path class="cls-3" d="M307.51,54.67a2,2,0,0,0,1.11-.3.58.58,0,0,1,.34-.14.69.69,0,0,1,.36.16,6.48,6.48,0,0,1,1.36,1.22.49.49,0,0,1,.16.36.51.51,0,0,1-.22.38,2.51,2.51,0,0,0-.6.76A31.27,31.27,0,0,1,307.07,62a17.91,17.91,0,0,1,2.17,2,.39.39,0,0,1,.12.28.39.39,0,0,1-.12.26A11.44,11.44,0,0,1,308,65.77a.42.42,0,0,1-.24.1.35.35,0,0,1-.21-.12,23.84,23.84,0,0,0-2-1.94,24.37,24.37,0,0,1-6.38,5,1.16,1.16,0,0,1-.51.18.6.6,0,0,1-.38-.18,5.68,5.68,0,0,0-1.9-1,24.18,24.18,0,0,0,7.37-5.42,16.72,16.72,0,0,0-2.88-1.88c.44-.48.86-1,1.32-1.42a.38.38,0,0,1,.26-.14.52.52,0,0,1,.2.08,20.05,20.05,0,0,1,2.58,1.6,19.79,19.79,0,0,0,2.35-4l-5,.1a23.83,23.83,0,0,1-4.29,4.5.72.72,0,0,1-.4.18.46.46,0,0,1-.32-.14,8.33,8.33,0,0,0-1.68-.92,22.37,22.37,0,0,0,5.67-6.28,7.38,7.38,0,0,0,1.08-2.46,12.6,12.6,0,0,1,2.34,1,.35.35,0,0,1,.22.32.54.54,0,0,1-.24.4,1.67,1.67,0,0,0-.42.42c-.16.28-.28.48-.62,1Z"/><path class="cls-3" d="M318.35,54a.37.37,0,0,1,.28-.16.53.53,0,0,1,.26.1,20.86,20.86,0,0,1,3.82,2.84c.12.12.18.2.18.28a.43.43,0,0,1-.12.26c-.3.4-1,1.2-1.24,1.5-.1.1-.16.16-.24.16s-.16-.06-.26-.16A21.17,21.17,0,0,0,317,55.51C317.39,55,318,54.35,318.35,54Zm1.74,10.54a30,30,0,0,0,5.77-3.72,30,30,0,0,0,5.48-5.44,8.93,8.93,0,0,0,.56,2.34,1,1,0,0,1,.1.38c0,.18-.1.34-.32.6a32.69,32.69,0,0,1-4.6,4.24A43.18,43.18,0,0,1,321,66.81a6.9,6.9,0,0,0-1.34.92.55.55,0,0,1-.36.2.52.52,0,0,1-.34-.22,13.86,13.86,0,0,1-1.6-2.22A12,12,0,0,0,320.09,64.49Z"/><path class="cls-1" d="M368,33a8,8,0,0,1,8,8V79a8,8,0,0,1-8,8H238a8,8,0,0,1-8-8V41a8,8,0,0,1,8-8H368m0-2H238a10,10,0,0,0-10,10V79a10,10,0,0,0,10,10H368a10,10,0,0,0,10-10V41a10,10,0,0,0-10-10Z"/></svg>
