<svg xmlns="http://www.w3.org/2000/svg" viewBox="0 0 400 286"><defs><style>.cls-1{fill:#fff;}.cls-2{fill:#626262;}.cls-3{fill:#ed6103;}.cls-4{fill:none;stroke:#ed6103;stroke-linecap:round;stroke-linejoin:round;stroke-width:5px;}</style></defs><rect class="cls-1" x="21.5" y="53.5" width="357" height="45" rx="4.5"/><path class="cls-2" d="M374,55a3,3,0,0,1,3,3V94a3,3,0,0,1-3,3H26a3,3,0,0,1-3-3V58a3,3,0,0,1,3-3H374m0-3H26a6,6,0,0,0-6,6V94a6,6,0,0,0,6,6H374a6,6,0,0,0,6-6V58a6,6,0,0,0-6-6Z"/><path class="cls-2" d="M31.46,30.15a11.42,11.42,0,0,1-1.18,5.1A10.07,10.07,0,0,1,26.76,39a1.22,1.22,0,0,1-.6.24.59.59,0,0,1-.42-.2A5.25,5.25,0,0,0,24,38a8.88,8.88,0,0,0,4-3.56,8.49,8.49,0,0,0,1-4.3h-3.8c-1,0-2,.06-3,.12-.18,0-.24-.12-.26-.38A12.06,12.06,0,0,1,21.74,28c1.12.11,2.24.11,3.4.11h9c1.56,0,2.72,0,3.9-.12.2,0,.22.12.22.39s0,1.28,0,1.55-.12.34-.3.34c-1,0-2.42-.08-3.8-.08Zm-4-4.65c-.92,0-1.72,0-2.84.08-.26,0-.32-.1-.34-.34-.06-.48-.08-1.2-.14-1.92,1.4.08,2.42.1,3.32.1H32c1.12,0,2.38,0,3.38-.08.2,0,.24.12.24.38a8.9,8.9,0,0,1,0,1.46c0,.28,0,.38-.26.38-1.08,0-2.26-.06-3.36-.06Z"/><path class="cls-2" d="M49.22,25.1a9.66,9.66,0,0,0-.8-2.5,18.82,18.82,0,0,1,2.6-.06c.26,0,.4.1.4.3a4.35,4.35,0,0,0,0,1.44l.3,1.68,1.64-.28c1.14-.2,2.54-.44,3.58-.72.1,0,.18.08.22.22a13.78,13.78,0,0,1,.4,1.72c0,.14-.1.2-.3.22-.92.17-2.34.38-3.34.56L52.2,28l.5,2.57,2.9-.5c1.42-.24,2.4-.46,3.14-.66.26-.06.32,0,.34.21a11.37,11.37,0,0,1,.34,1.61.32.32,0,0,1-.3.34c-.6.08-1.8.28-3.22.52l-2.76.48.46,2.22c.28,1.34.62,2.62.88,3.62,0,.1-.08.16-.26.22a13.6,13.6,0,0,1-1.82.42c-.26,0-.38-.08-.4-.24-.14-.74-.36-2.14-.64-3.42L50.86,33l-2.72.48c-1.36.24-2.48.48-3.24.68a.31.31,0,0,1-.46-.22c-.2-.58-.4-1.34-.56-2,1.22-.14,2.28-.3,3.72-.54L50.4,31l-.5-2.58-1.88.3c-1.1.17-2.44.46-3,.6-.2.06-.3,0-.38-.2a16.62,16.62,0,0,1-.56-2c1.08-.08,2.18-.22,3.56-.43l1.82-.29Z"/><path class="cls-2" d="M75.62,24.42A2.94,2.94,0,0,0,77,24.24a.33.33,0,0,1,.22-.08.66.66,0,0,1,.34.16,7.29,7.29,0,0,1,1.3,1.4A.53.53,0,0,1,79,26a.55.55,0,0,1-.26.4,3.66,3.66,0,0,0-.74.88A30.89,30.89,0,0,1,75.4,31a47,47,0,0,1,5.54,4.84.45.45,0,0,1,.16.28.49.49,0,0,1-.14.3,10.72,10.72,0,0,1-1.34,1.36.35.35,0,0,1-.24.12.41.41,0,0,1-.28-.16,36.41,36.41,0,0,0-5.2-5,28.77,28.77,0,0,1-6.72,5.28,1.27,1.27,0,0,1-.46.16.45.45,0,0,1-.34-.18,5.48,5.48,0,0,0-1.68-1.3,24.29,24.29,0,0,0,7-5.1,24.34,24.34,0,0,0,3.76-5l-5.16,0c-1,0-2.08,0-3.16.12-.16,0-.22-.12-.26-.34a11.65,11.65,0,0,1-.18-2.08c1.08.08,2.08.08,3.38.08Z"/><path class="cls-2" d="M94.14,28a27.78,27.78,0,0,1,6.36,2.73c.22.12.32.26.22.52A11.75,11.75,0,0,1,99.86,33c-.08.14-.16.22-.26.22a.31.31,0,0,1-.22-.1,22.15,22.15,0,0,0-5.26-2.56V35c0,1.3,0,2.48.08,3.92,0,.24-.08.3-.36.3a13.22,13.22,0,0,1-1.78,0c-.28,0-.38-.06-.38-.3.06-1.48.08-2.66.08-3.94V25.14a15.26,15.26,0,0,0-.2-3,14.76,14.76,0,0,1,2.5.32c.28.06.38.18.38.34a1.05,1.05,0,0,1-.16.46,5.21,5.21,0,0,0-.14,1.88Z"/><path class="cls-2" d="M73.2,144.15c0-.65,0-1.44,0-2,0-.26,0-.52-.1-.92a42.81,42.81,0,0,1-4.74.64c-.3,0-.42-.22-.5-.44a5.42,5.42,0,0,0-1-1.38,37.8,37.8,0,0,0,5.94-.74,24.86,24.86,0,0,0,3.3-.86,5.73,5.73,0,0,0,1.72-.9,9.72,9.72,0,0,1,1.64,1.4.78.78,0,0,1,.26.56c0,.22-.2.26-.52.28s-.84.24-1.26.34c-1.22.34-2.44.64-3.62.88a5.93,5.93,0,0,1,1.3.26.3.3,0,0,1,.26.28,1,1,0,0,1-.12.34,2,2,0,0,0-.14.68c0,.45,0,.91,0,1.58H78c1.26,0,3-.09,3.86-.13.2,0,.2.09.22.32a14.22,14.22,0,0,1,0,1.6c0,.28,0,.36-.26.36-1.26,0-2.42-.06-3.88-.06H75.5a10.85,10.85,0,0,1-1,4A9.51,9.51,0,0,1,71.32,154a.62.62,0,0,1-.34.14.76.76,0,0,1-.36-.12,8.24,8.24,0,0,0-2.12-.76,8.86,8.86,0,0,0,3.74-3.7,8.25,8.25,0,0,0,.88-3.32H69.56c-.72,0-2.2,0-3.18.08-.26,0-.32-.14-.38-.46a9,9,0,0,1-.2-1.83c1.42.12,2.9.15,3.88.15Z"/><path class="cls-2" d="M96.6,150.89h2.12c1,0,2.14,0,3.22-.08.18,0,.26.12.28.38,0,.42,0,.86,0,1.28,0,.26-.1.38-.34.36-1,0-2.22,0-3.14,0H92.46c-1.2,0-2.1,0-2.94.08-.24,0-.34-.12-.38-.42a9.19,9.19,0,0,1-.1-1.62c1.16.08,2.14.08,3.42.08h2v-5.06h-1.1c-.82,0-1.54,0-2.46,0-.18,0-.28-.1-.32-.4s-.08-.89-.12-1.6c.86.08,1.92.08,2.78.08h4.44c.9,0,1.82,0,2.7,0,.24,0,.3.09.32.34,0,.4,0,.83,0,1.24s-.1.4-.4.38c-.78,0-1.78,0-2.6,0H96.6Z"/><path class="cls-2" d="M112.44,143.1a.36.36,0,0,1,.52.15,10.57,10.57,0,0,1,1.72,3,1.35,1.35,0,0,1,.08.3c0,.12-.08.18-.24.28a8.3,8.3,0,0,1-1.28.62c-.28.1-.4,0-.5-.28a11.82,11.82,0,0,0-1.88-3.22C111.54,143.53,112,143.3,112.44,143.1Zm11,.27c.16.12.26.21.26.34s-.06.21-.22.36a2.8,2.8,0,0,0-.6,1,24.24,24.24,0,0,1-3,5.33,16,16,0,0,1-4.12,3.86.87.87,0,0,1-.48.22.46.46,0,0,1-.32-.14,4.51,4.51,0,0,0-1.7-.84,17.39,17.39,0,0,0,4.8-4.16,20.71,20.71,0,0,0,2.7-4.82,7.28,7.28,0,0,0,.46-2.12A9.51,9.51,0,0,1,123.42,143.37Zm-6.94-1.23a.35.35,0,0,1,.52.16,11.62,11.62,0,0,1,1.54,2.93c.1.3.06.4-.2.54a8.26,8.26,0,0,1-1.38.62c-.22.08-.3,0-.4-.3a13.87,13.87,0,0,0-1.68-3.21Z"/><path class="cls-2" d="M142.44,140.46a1.86,1.86,0,0,0,1-.24.4.4,0,0,1,.26-.08.58.58,0,0,1,.32.12,9.23,9.23,0,0,1,1.36,1.08.67.67,0,0,1,.26.46.58.58,0,0,1-.24.42,2.41,2.41,0,0,0-.66.86,27.43,27.43,0,0,1-4,6.19,25.4,25.4,0,0,1-6.08,5,.54.54,0,0,1-.32.1.7.7,0,0,1-.46-.22,5.26,5.26,0,0,0-1.9-.92,23,23,0,0,0,6.66-5.1,20.29,20.29,0,0,0,3.7-5.69l-4.84.14a28,28,0,0,1-3.78,4.11.62.62,0,0,1-.42.22.48.48,0,0,1-.3-.12,5.43,5.43,0,0,0-1.92-.86A23.74,23.74,0,0,0,136.5,140a8.54,8.54,0,0,0,1.18-2.7,9.84,9.84,0,0,1,2.34,1.06.42.42,0,0,1,.2.34.4.4,0,0,1-.22.34,2.17,2.17,0,0,0-.5.54l-.66,1Z"/><path class="cls-2" d="M156.62,146.31c.18.12.3.24.3.38s-.06.2-.22.32a1.88,1.88,0,0,0-.5.68A15.41,15.41,0,0,1,154,151a.55.55,0,0,1-.4.24.58.58,0,0,1-.3-.12,5.83,5.83,0,0,0-1.7-.84A13.36,13.36,0,0,0,154,147a4.43,4.43,0,0,0,.54-1.62A9.32,9.32,0,0,1,156.62,146.31Zm2.66-5.51a15.42,15.42,0,0,0-.22-3.08c.94.08,2,.2,2.48.3q.36.06.36.3a.76.76,0,0,1-.12.36,4.65,4.65,0,0,0-.2,2v1.07H164c1.74,0,3.1-.08,4.08-.13.18,0,.26.1.26.32a13.51,13.51,0,0,1,0,1.56c0,.26-.08.41-.28.38-1.24,0-2.76-.09-4.12-.09H161.6l0,4c0,1.06,0,1.92,0,3.48a2.08,2.08,0,0,1-1.18,2.06,6.21,6.21,0,0,1-2.56.66c-.24,0-.36-.12-.48-.42a4.68,4.68,0,0,0-1.34-1.8,10,10,0,0,0,2.72-.24c.32-.14.46-.36.46-.88v-6.9h-3.14c-1.14,0-2.52.05-3.46.13-.18,0-.26-.16-.26-.39s-.08-1.27-.08-1.93c1.52.12,2.74.15,3.76.15h3.18Zm5.88,4.79a.39.39,0,0,1,.26-.1.38.38,0,0,1,.3.18,15.42,15.42,0,0,1,2.86,3.66.53.53,0,0,1,.1.3.39.39,0,0,1-.2.32,11.12,11.12,0,0,1-1.34,1,.66.66,0,0,1-.24.12c-.08,0-.14-.06-.22-.2a19.39,19.39,0,0,0-3-4.2C164.18,146.27,164.7,145.93,165.16,145.59Zm.24-7.89c.1-.08.18-.06.3,0a9.2,9.2,0,0,1,1.9,2.14.2.2,0,0,1-.06.32l-.84.62a.21.21,0,0,1-.34-.06,9.92,9.92,0,0,0-2-2.32Zm1.78-1.3c.12-.08.18-.06.3,0a8.35,8.35,0,0,1,1.9,2.06.23.23,0,0,1-.06.36l-.8.62a.21.21,0,0,1-.34-.06,9.46,9.46,0,0,0-2-2.3Z"/><path class="cls-2" d="M177.24,143.1a.36.36,0,0,1,.52.15,10.57,10.57,0,0,1,1.72,3,1.35,1.35,0,0,1,.08.3c0,.12-.08.18-.24.28a8.3,8.3,0,0,1-1.28.62c-.28.1-.4,0-.5-.28a11.82,11.82,0,0,0-1.88-3.22C176.34,143.53,176.82,143.3,177.24,143.1Zm11,.27c.16.12.26.21.26.34s-.06.21-.22.36a2.8,2.8,0,0,0-.6,1,24.24,24.24,0,0,1-3,5.33,16,16,0,0,1-4.12,3.86.87.87,0,0,1-.48.22.46.46,0,0,1-.32-.14,4.51,4.51,0,0,0-1.7-.84,17.39,17.39,0,0,0,4.8-4.16,20.71,20.71,0,0,0,2.7-4.82,7.28,7.28,0,0,0,.46-2.12A9.51,9.51,0,0,1,188.22,143.37Zm-6.94-1.23a.35.35,0,0,1,.52.16,11.62,11.62,0,0,1,1.54,2.93c.1.3.06.4-.2.54a8.26,8.26,0,0,1-1.38.62c-.22.08-.3,0-.4-.3a13.87,13.87,0,0,0-1.68-3.21Z"/><path class="cls-2" d="M207.24,140.46a1.86,1.86,0,0,0,1-.24.4.4,0,0,1,.26-.08.58.58,0,0,1,.32.12,9.23,9.23,0,0,1,1.36,1.08.67.67,0,0,1,.26.46.58.58,0,0,1-.24.42,2.41,2.41,0,0,0-.66.86,27.43,27.43,0,0,1-4,6.19,25.4,25.4,0,0,1-6.08,5,.54.54,0,0,1-.32.1.7.7,0,0,1-.46-.22,5.26,5.26,0,0,0-1.9-.92,23,23,0,0,0,6.66-5.1,20.29,20.29,0,0,0,3.7-5.69l-4.84.14a28,28,0,0,1-3.78,4.11.62.62,0,0,1-.42.22.48.48,0,0,1-.3-.12,5.43,5.43,0,0,0-1.92-.86A23.74,23.74,0,0,0,201.3,140a8.54,8.54,0,0,0,1.18-2.7,9.84,9.84,0,0,1,2.34,1.06.42.42,0,0,1,.2.34.4.4,0,0,1-.22.34,2.17,2.17,0,0,0-.5.54l-.66,1Z"/><path class="cls-2" d="M227.62,139.42a2.94,2.94,0,0,0,1.38-.18.33.33,0,0,1,.22-.08.66.66,0,0,1,.34.16,7.29,7.29,0,0,1,1.3,1.4.53.53,0,0,1,.1.26.55.55,0,0,1-.26.4,3.66,3.66,0,0,0-.74.88A30.89,30.89,0,0,1,227.4,146a47,47,0,0,1,5.54,4.84.45.45,0,0,1,.16.28.49.49,0,0,1-.14.3,10.72,10.72,0,0,1-1.34,1.36.35.35,0,0,1-.24.12.41.41,0,0,1-.28-.16,36.41,36.41,0,0,0-5.2-5,28.77,28.77,0,0,1-6.72,5.28,1.27,1.27,0,0,1-.46.16.45.45,0,0,1-.34-.18,5.48,5.48,0,0,0-1.68-1.3,24.9,24.9,0,0,0,10.8-10.13l-5.16,0c-1,0-2.08,0-3.16.12-.16,0-.22-.12-.26-.34a11.65,11.65,0,0,1-.18-2.08c1.08.08,2.08.08,3.38.08Z"/><path class="cls-2" d="M70.72,196.54c-1,0-2,0-3,.08-.18,0-.26-.12-.3-.37a15.34,15.34,0,0,1-.22-2,35.39,35.39,0,0,0,3.68.16h6.86a2.31,2.31,0,0,0,1.06-.21.4.4,0,0,1,.26-.13.51.51,0,0,1,.3.14,12.8,12.8,0,0,1,1.34,1.24.63.63,0,0,1,.2.42.5.5,0,0,1-.22.39,2.29,2.29,0,0,0-.68.94A17.48,17.48,0,0,1,71.84,206a1,1,0,0,1-.4.14.65.65,0,0,1-.44-.24,5.86,5.86,0,0,0-1.86-1c3.7-1.72,7-4.48,8.4-8.34Zm1.34-4.3c-.9,0-1.9,0-2.74.08-.2,0-.26-.12-.28-.44a17.43,17.43,0,0,1-.1-1.92,27.55,27.55,0,0,0,3.28.14h3.6c1.3,0,2.36-.06,3.14-.1.18,0,.24.1.24.32a10.15,10.15,0,0,1,0,1.56c0,.34-.06.42-.36.4-.66,0-1.6,0-2.82,0Z"/><path class="cls-2" d="M88.64,195.12c.1-.13.2-.24.38-.2a13.9,13.9,0,0,1,3.84,2c.14.1.22.18.22.3a.59.59,0,0,1-.08.22,8.14,8.14,0,0,1-.88,1.52c-.1.12-.18.2-.26.2a.39.39,0,0,1-.24-.12,17.54,17.54,0,0,0-4-2.18C88.08,196,88.4,195.45,88.64,195.12Zm3.24,7.43a33.5,33.5,0,0,0,5.48-3.46,36.08,36.08,0,0,0,5.76-5.59,10.21,10.21,0,0,0,.58,2.25.89.89,0,0,1,.1.37.61.61,0,0,1-.22.46,36.72,36.72,0,0,1-5.08,4.63,46.43,46.43,0,0,1-6,3.76,6.57,6.57,0,0,0-1.16.68.44.44,0,0,1-.32.16.51.51,0,0,1-.4-.24,12.63,12.63,0,0,1-1.48-2A9.25,9.25,0,0,0,91.88,202.55Zm-.82-12c.14-.24.26-.28.5-.16a13.6,13.6,0,0,1,3.76,2.22.32.32,0,0,1,.16.26.48.48,0,0,1-.08.26,8.2,8.2,0,0,1-1,1.5.2.2,0,0,1-.2.12.46.46,0,0,1-.3-.14A19.34,19.34,0,0,0,90,192.12Zm9.16-.62c.1-.08.18-.06.3,0a9.2,9.2,0,0,1,1.9,2.14.2.2,0,0,1-.06.32l-.84.62a.21.21,0,0,1-.34-.06,9.92,9.92,0,0,0-2-2.32Zm1.78-1.3c.12-.08.18-.06.3,0a8.35,8.35,0,0,1,1.9,2.06.23.23,0,0,1-.06.36l-.8.62a.21.21,0,0,1-.34-.06,9.46,9.46,0,0,0-2-2.3Z"/><path class="cls-2" d="M117.66,197.25a16.56,16.56,0,0,1-2.82,3.08,22.55,22.55,0,0,1-3.78,2.8.84.84,0,0,1-.46.18.42.42,0,0,1-.34-.2,4.53,4.53,0,0,0-1.64-1.18,23.57,23.57,0,0,0,4.66-3.16,19.23,19.23,0,0,0,2.94-3.1l-3.5,0c-1,0-2.16,0-3.2.1-.18,0-.26-.12-.28-.34a17.85,17.85,0,0,1-.16-1.95c1.2.08,2.38.1,3.58.1h4.76l-.08-1.78a10,10,0,0,0-.32-2.36,17.52,17.52,0,0,1,2.52.22c.2,0,.26.12.26.24a1.12,1.12,0,0,1-.08.3,5.68,5.68,0,0,0-.08,1.84l.06,1.52h1.74c1.4,0,2.4,0,3.88-.1.2,0,.3.1.3.24,0,.57,0,1.19,0,1.74a.26.26,0,0,1-.28.29c-1.46-.06-2.6-.1-3.84-.1h-1.62l.36,7.52a2.1,2.1,0,0,1-1,2.12,6.13,6.13,0,0,1-2.76.7c-.38,0-.52-.08-.62-.34a4.06,4.06,0,0,0-1.4-1.78,14.34,14.34,0,0,0,2.82-.2c.46-.1.62-.3.58-1.18Z"/><path class="cls-2" d="M135,198.31c.18.12.3.24.3.38s-.06.2-.22.32a1.88,1.88,0,0,0-.5.68,15.41,15.41,0,0,1-2.22,3.34.55.55,0,0,1-.4.24.58.58,0,0,1-.3-.12,5.83,5.83,0,0,0-1.7-.84,13.36,13.36,0,0,0,2.42-3.3,4.43,4.43,0,0,0,.54-1.62A9.32,9.32,0,0,1,135,198.31Zm2.66-5.51a15.42,15.42,0,0,0-.22-3.08c.94.08,2,.2,2.48.3q.36.06.36.3a.76.76,0,0,1-.12.36,4.65,4.65,0,0,0-.2,2v1.07h2.46c1.74,0,3.1-.08,4.08-.13.18,0,.26.1.26.32a13.51,13.51,0,0,1,0,1.56c0,.26-.08.41-.28.38-1.24,0-2.76-.09-4.12-.09H140l0,4c0,1.06,0,1.92,0,3.48a2.08,2.08,0,0,1-1.18,2.06,6.21,6.21,0,0,1-2.56.66c-.24,0-.36-.12-.48-.42a4.68,4.68,0,0,0-1.34-1.8,10,10,0,0,0,2.72-.24c.32-.14.46-.36.46-.88v-6.9h-3.14c-1.14,0-2.52.05-3.46.13-.18,0-.26-.16-.26-.39s-.08-1.27-.08-1.93c1.52.12,2.74.15,3.76.15h3.18Zm5.88,4.79a.39.39,0,0,1,.26-.1.38.38,0,0,1,.3.18,15.42,15.42,0,0,1,2.86,3.66.53.53,0,0,1,.1.3.39.39,0,0,1-.2.32,11.12,11.12,0,0,1-1.34,1,.66.66,0,0,1-.24.12c-.08,0-.14-.06-.22-.2a19.39,19.39,0,0,0-3-4.2C142.58,198.27,143.1,197.93,143.56,197.59Zm.24-7.89c.1-.08.18-.06.3,0a9.2,9.2,0,0,1,1.9,2.14.2.2,0,0,1-.06.32l-.84.62a.21.21,0,0,1-.34-.06,9.92,9.92,0,0,0-2-2.32Zm1.78-1.3c.12-.08.18-.06.3,0a8.35,8.35,0,0,1,1.9,2.06.23.23,0,0,1-.06.36l-.8.62a.21.21,0,0,1-.34-.06,9.46,9.46,0,0,0-2-2.3Z"/><path class="cls-2" d="M164.16,192a2,2,0,0,0,1.1-.3.58.58,0,0,1,.34-.14.69.69,0,0,1,.36.16,6.48,6.48,0,0,1,1.36,1.22.49.49,0,0,1,.16.36.54.54,0,0,1-.22.39,2.33,2.33,0,0,0-.6.75,30.85,30.85,0,0,1-2.94,4.85,17.78,17.78,0,0,1,2.16,2,.39.39,0,0,1,.12.28.39.39,0,0,1-.12.26,12.29,12.29,0,0,1-1.24,1.26.42.42,0,0,1-.24.1.35.35,0,0,1-.22-.12,22.17,22.17,0,0,0-1.94-1.94,24.37,24.37,0,0,1-6.38,5,1.09,1.09,0,0,1-.5.18.6.6,0,0,1-.38-.18,5.68,5.68,0,0,0-1.9-1,24.25,24.25,0,0,0,7.36-5.42,16.72,16.72,0,0,0-2.88-1.88c.44-.48.86-1,1.32-1.43a.41.41,0,0,1,.26-.13.52.52,0,0,1,.2.08,20.05,20.05,0,0,1,2.58,1.6,19.35,19.35,0,0,0,2.34-4l-5,.1a23.94,23.94,0,0,1-4.28,4.51.72.72,0,0,1-.4.18.46.46,0,0,1-.32-.14,8.33,8.33,0,0,0-1.68-.92,22.34,22.34,0,0,0,5.66-6.29,7.38,7.38,0,0,0,1.08-2.46,12.6,12.6,0,0,1,2.34,1,.35.35,0,0,1,.22.32.54.54,0,0,1-.24.4,1.67,1.67,0,0,0-.42.42c-.16.28-.28.48-.62,1Z"/><path class="cls-2" d="M176.08,191.3a.37.37,0,0,1,.28-.16.53.53,0,0,1,.26.1,20.86,20.86,0,0,1,3.82,2.84c.12.13.18.21.18.29a.43.43,0,0,1-.12.25c-.3.41-1,1.21-1.24,1.5-.1.11-.16.17-.24.17s-.16-.06-.26-.17a21.56,21.56,0,0,0-4.08-3.26C175.12,192.32,175.7,191.7,176.08,191.3Zm1.74,10.55a34.92,34.92,0,0,0,11.24-9.17,9,9,0,0,0,.56,2.35,1,1,0,0,1,.1.38,1,1,0,0,1-.32.59,32.11,32.11,0,0,1-4.6,4.25,43,43,0,0,1-6,3.92,6.9,6.9,0,0,0-1.34.92.55.55,0,0,1-.36.2.52.52,0,0,1-.34-.22,13.86,13.86,0,0,1-1.6-2.22A12,12,0,0,0,177.82,201.85Z"/><circle class="cls-1" cx="36" cy="198" r="14.5"/><path class="cls-2" d="M36,185a13,13,0,1,1-13,13,13,13,0,0,1,13-13m0-3a16,16,0,1,0,16,16,16,16,0,0,0-16-16Z"/><path class="cls-2" d="M98.34,247a27.78,27.78,0,0,1,6.36,2.73c.22.12.32.26.22.52a11.75,11.75,0,0,1-.86,1.74c-.08.14-.16.22-.26.22a.31.31,0,0,1-.22-.1,22.15,22.15,0,0,0-5.26-2.56V254c0,1.3,0,2.48.08,3.92,0,.24-.08.3-.36.3a13.22,13.22,0,0,1-1.78,0c-.28,0-.38-.06-.38-.3.06-1.48.08-2.66.08-3.94v-9.85a15.26,15.26,0,0,0-.2-3,14.76,14.76,0,0,1,2.5.32c.28.06.38.18.38.34a1.05,1.05,0,0,1-.16.46,5.21,5.21,0,0,0-.14,1.88Z"/><path class="cls-2" d="M123.82,244.64a1.86,1.86,0,0,0,1-.24.4.4,0,0,1,.26-.08.58.58,0,0,1,.32.12,9.23,9.23,0,0,1,1.36,1.08.65.65,0,0,1,.26.46.6.6,0,0,1-.24.43,2.37,2.37,0,0,0-.66.85,27.43,27.43,0,0,1-4,6.19,25.4,25.4,0,0,1-6.08,5,.54.54,0,0,1-.32.1.7.7,0,0,1-.46-.22,5.26,5.26,0,0,0-1.9-.92,23,23,0,0,0,6.66-5.1,20.29,20.29,0,0,0,3.7-5.69l-4.84.15a27.85,27.85,0,0,1-3.78,4.1.62.62,0,0,1-.42.22.48.48,0,0,1-.3-.12,5.43,5.43,0,0,0-1.92-.86,23.92,23.92,0,0,0,5.38-6,8.54,8.54,0,0,0,1.18-2.7,9.84,9.84,0,0,1,2.34,1.06.42.42,0,0,1,.2.34.4.4,0,0,1-.22.34,2.17,2.17,0,0,0-.5.54l-.66,1Zm2.48-2.7c.1-.08.18-.06.3,0a9.2,9.2,0,0,1,1.9,2.14.2.2,0,0,1-.06.32l-.84.62c-.14.11-.24.08-.34-.06a9.92,9.92,0,0,0-2-2.32Zm1.78-1.3c.12-.08.18-.06.3,0a8.35,8.35,0,0,1,1.9,2.06.23.23,0,0,1-.06.36l-.8.62a.21.21,0,0,1-.34-.06,9.46,9.46,0,0,0-2-2.3Z"/><path class="cls-2" d="M139.8,244.64c.34.1.38.34.26.62a2.91,2.91,0,0,0-.24,1.36,15,15,0,0,1-1.08,5.89,10.3,10.3,0,0,1-2.84,3.76.91.91,0,0,1-.52.26.68.68,0,0,1-.38-.16,7.09,7.09,0,0,0-1.7-.84,9.93,9.93,0,0,0,3.32-4c.56-1.36.82-2.47.84-5.67a5.38,5.38,0,0,0-.2-1.68A16.17,16.17,0,0,1,139.8,244.64Zm4.44,8.47a20.33,20.33,0,0,0,2.84-1.86,18.94,18.94,0,0,0,3.5-3.41,5.82,5.82,0,0,0,.62,2,1,1,0,0,1,.12.34c0,.14-.08.28-.3.5a25.28,25.28,0,0,1-3,2.62,33.21,33.21,0,0,1-3.56,2.4,6.64,6.64,0,0,0-.58.42.64.64,0,0,1-.4.16.85.85,0,0,1-.42-.16,5.78,5.78,0,0,1-1.2-1.22.8.8,0,0,1-.18-.42.61.61,0,0,1,.08-.3c.14-.26.12-.5.12-1.52v-6.27a16,16,0,0,0-.2-3.48,19.09,19.09,0,0,1,2.5.42c.26.06.36.18.36.34a1.28,1.28,0,0,1-.16.5,5.53,5.53,0,0,0-.18,2.22Z"/><path class="cls-2" d="M160,250.31c.18.12.3.24.3.38s-.06.2-.22.32a1.88,1.88,0,0,0-.5.68,15.41,15.41,0,0,1-2.22,3.34.55.55,0,0,1-.4.24.58.58,0,0,1-.3-.12,5.83,5.83,0,0,0-1.7-.84,13.36,13.36,0,0,0,2.42-3.3,4.43,4.43,0,0,0,.54-1.62A9.32,9.32,0,0,1,160,250.31Zm2.66-5.51a15.42,15.42,0,0,0-.22-3.08c.94.08,2,.2,2.48.3q.36.06.36.3a.76.76,0,0,1-.12.36,4.65,4.65,0,0,0-.2,2v1.07h2.46c1.74,0,3.1-.08,4.08-.13.18,0,.26.1.26.32a13.51,13.51,0,0,1,0,1.56c0,.26-.08.41-.28.38-1.24,0-2.76-.09-4.12-.09H165l0,4c0,1.06,0,1.92,0,3.48a2.08,2.08,0,0,1-1.18,2.06,6.21,6.21,0,0,1-2.56.66c-.24,0-.36-.12-.48-.42a4.68,4.68,0,0,0-1.34-1.8,10,10,0,0,0,2.72-.24c.32-.14.46-.36.46-.88v-6.9h-3.14c-1.14,0-2.52.05-3.46.13-.18,0-.26-.16-.26-.39s-.08-1.27-.08-1.93c1.52.12,2.74.15,3.76.15h3.18Zm5.88,4.79a.39.39,0,0,1,.26-.1.38.38,0,0,1,.3.18,15.42,15.42,0,0,1,2.86,3.66.53.53,0,0,1,.1.3.39.39,0,0,1-.2.32,11.12,11.12,0,0,1-1.34,1,.66.66,0,0,1-.24.12c-.08,0-.14-.06-.22-.2a19.39,19.39,0,0,0-3-4.2C167.58,250.27,168.1,249.93,168.56,249.59Zm.24-7.89c.1-.08.18-.06.3,0a9.2,9.2,0,0,1,1.9,2.14.2.2,0,0,1-.06.32l-.84.62a.21.21,0,0,1-.34-.06,9.92,9.92,0,0,0-2-2.32Zm1.78-1.3c.12-.08.18-.06.3,0a8.35,8.35,0,0,1,1.9,2.06.23.23,0,0,1-.06.36l-.8.62a.21.21,0,0,1-.34-.06,9.46,9.46,0,0,0-2-2.3Z"/><path class="cls-2" d="M189.16,244a2,2,0,0,0,1.1-.3.58.58,0,0,1,.34-.14.69.69,0,0,1,.36.16,6.48,6.48,0,0,1,1.36,1.22.49.49,0,0,1,.16.36.54.54,0,0,1-.22.39,2.33,2.33,0,0,0-.6.75,30.85,30.85,0,0,1-2.94,4.85,17.78,17.78,0,0,1,2.16,2,.39.39,0,0,1,.12.28.39.39,0,0,1-.12.26,12.29,12.29,0,0,1-1.24,1.26.42.42,0,0,1-.24.1.35.35,0,0,1-.22-.12,22.17,22.17,0,0,0-1.94-1.94,24.37,24.37,0,0,1-6.38,5,1.09,1.09,0,0,1-.5.18.6.6,0,0,1-.38-.18,5.68,5.68,0,0,0-1.9-1,24.25,24.25,0,0,0,7.36-5.42,16.72,16.72,0,0,0-2.88-1.88c.44-.48.86-1,1.32-1.43a.41.41,0,0,1,.26-.13.52.52,0,0,1,.2.08,20.05,20.05,0,0,1,2.58,1.6,19.35,19.35,0,0,0,2.34-4l-5,.1a23.94,23.94,0,0,1-4.28,4.51.72.72,0,0,1-.4.18.46.46,0,0,1-.32-.14,8.33,8.33,0,0,0-1.68-.92,22.34,22.34,0,0,0,5.66-6.29,7.38,7.38,0,0,0,1.08-2.46,12.6,12.6,0,0,1,2.34,1,.35.35,0,0,1,.22.32.54.54,0,0,1-.24.4,1.67,1.67,0,0,0-.42.42c-.16.28-.28.48-.62,1Z"/><path class="cls-2" d="M201.08,243.3a.37.37,0,0,1,.28-.16.53.53,0,0,1,.26.1,20.86,20.86,0,0,1,3.82,2.84c.12.13.18.21.18.29a.43.43,0,0,1-.12.25c-.3.41-1,1.21-1.24,1.5-.1.11-.16.17-.24.17s-.16-.06-.26-.17a21.56,21.56,0,0,0-4.08-3.26C200.12,244.32,200.7,243.7,201.08,243.3Zm1.74,10.55a34.92,34.92,0,0,0,11.24-9.17,9,9,0,0,0,.56,2.35,1,1,0,0,1,.1.38,1,1,0,0,1-.32.59,32.11,32.11,0,0,1-4.6,4.25,43,43,0,0,1-6,3.92,6.9,6.9,0,0,0-1.34.92.55.55,0,0,1-.36.2.52.52,0,0,1-.34-.22,13.86,13.86,0,0,1-1.6-2.22A12,12,0,0,0,202.82,253.85Z"/><path class="cls-3" d="M36,264.5a14.5,14.5,0,0,1,0-29H60a14.5,14.5,0,0,1,0,29Z"/><path class="cls-2" d="M60,237a13,13,0,0,1,0,26H36a13,13,0,0,1,0-26H60m0-3H36a16,16,0,0,0,0,32H60a16,16,0,0,0,0-32Z"/><circle class="cls-1" cx="60" cy="250" r="14.5"/><path class="cls-2" d="M60,237a13,13,0,1,1-13,13,13,13,0,0,1,13-13m0-3a16,16,0,1,0,16,16,16,16,0,0,0-16-16Z"/><rect class="cls-1" x="21.5" y="131.5" width="29" height="29" rx="4.5"/><path class="cls-2" d="M46,133a3,3,0,0,1,3,3v20a3,3,0,0,1-3,3H26a3,3,0,0,1-3-3V136a3,3,0,0,1,3-3H46m0-3H26a6,6,0,0,0-6,6v20a6,6,0,0,0,6,6H46a6,6,0,0,0,6-6V136a6,6,0,0,0-6-6Z"/><polyline class="cls-4" points="44 141.2 34.4 150.8 28.58 144.98"/><circle class="cls-3" cx="36" cy="198" r="8"/></svg>
