<svg xmlns="http://www.w3.org/2000/svg" viewBox="0 0 400 135"><defs><style>.cls-1{fill:#fff;}.cls-2{fill:#626262;}.cls-3{fill:#a5a5a5;}</style></defs><rect class="cls-1" x="21.5" y="45" width="357" height="45" rx="4.5"/><path class="cls-2" d="M374,46.5a3,3,0,0,1,3,3v36a3,3,0,0,1-3,3H26a3,3,0,0,1-3-3v-36a3,3,0,0,1,3-3H374m0-3H26a6,6,0,0,0-6,6v36a6,6,0,0,0,6,6H374a6,6,0,0,0,6-6v-36a6,6,0,0,0-6-6Z"/><path class="cls-3" d="M40.94,72.37A50.18,50.18,0,0,0,45.8,71a11.56,11.56,0,0,0-.06,1.44c0,.66,0,.66-.62.84-2.08.7-4.32,1.3-6.5,1.84a3.2,3.2,0,0,0-.8.28.58.58,0,0,1-.32.12c-.12,0-.22-.12-.28-.28a16.9,16.9,0,0,1-.44-2c.58-.06,1.16-.14,1.86-.28a.88.88,0,0,0,.2,0V63.11a30.71,30.71,0,0,0-.12-3.38c.68.12,1.38.32,2,.5a46.07,46.07,0,0,0,8.7-1.78,4.92,4.92,0,0,0,1.32-.58,11.26,11.26,0,0,1,1.58,1.36.48.48,0,0,1,.2.36c0,.16-.14.22-.42.24a7,7,0,0,0-1,.26c-1.26.38-2.52.7-3.78,1q.09,2.22.3,4l3.3-.16c1.84-.08,2.54-.14,2.78-.16s.2,0,.2.24l0,1.6c0,.22,0,.24-.22.24s-.94,0-2.8.08L48,67a17.76,17.76,0,0,0,1,3.38c.76,1.74,2,2.84,2.7,2.84s.92-.94,1-2.84a4.4,4.4,0,0,0,1.34.82c.6.26.63.28.52.88-.46,2.64-1.4,3.48-2.86,3.48S48.26,74,47,71a19.28,19.28,0,0,1-1.1-3.88l-5,.24Zm4.68-7.24c-.16-1.14-.28-2.36-.34-3.64-1.4.26-2.82.44-4.34.6v3.26Z"/><path class="cls-3" d="M65.06,61.67a22.88,22.88,0,0,1-4.8,3.68,1,1,0,0,1-.46.2c-.14,0-.24-.14-.42-.46a4.32,4.32,0,0,0-1-1.12,18.1,18.1,0,0,0,6.52-5.26,5,5,0,0,0,.68-1.18,14.16,14.16,0,0,1,2.06.5c.2.06.28.14.28.28a.41.41,0,0,1-.26.36,2.33,2.33,0,0,0-.6.64l-.4.54H71a1.9,1.9,0,0,0,.58,0,1,1,0,0,1,.36-.1c.18,0,.4.12.84.52s.62.68.62.84-.06.28-.28.4a2.73,2.73,0,0,0-.66.64,25.88,25.88,0,0,1-5.66,5.48h5.14c1.72,0,2.6,0,2.72,0s.22,0,.22.2,0,.72,0,2.58v1.84c0,2.8,0,3.36,0,3.48s0,.22-.22.22H73c-.22,0-.24,0-.24-.22v-.9h-7v1c0,.2,0,.22-.2.22H63.76c-.2,0-.22,0-.22-.22s0-.74,0-3.54V69.59a40.09,40.09,0,0,1-3.7,1.78,1.38,1.38,0,0,1-.46.16c-.16,0-.22-.16-.4-.52a4.57,4.57,0,0,0-1-1.28,29,29,0,0,0,7-3.34A16.84,16.84,0,0,0,63,64.53c-.08-.06-.14-.12-.14-.16s.06-.12.16-.2l1.06-.86a.44.44,0,0,1,.24-.12.47.47,0,0,1,.24.1,18,18,0,0,1,2.2,1.82,23.81,23.81,0,0,0,3.38-3.44Zm.62,7.74V73h7V69.41Z"/></svg>
