<svg xmlns="http://www.w3.org/2000/svg" viewBox="0 0 400 262"><defs><style>.cls-1{fill:#626262;}.cls-2{fill:#0052e8;}</style></defs><path class="cls-1" d="M29.83,26.17a14.44,14.44,0,0,1-.7,1.58c-.14.28-.2.4-.32.4s-.22-.08-.46-.26a4.06,4.06,0,0,0-1.14-.58A12.36,12.36,0,0,0,28.89,23,5.72,5.72,0,0,0,29,21.77a12.35,12.35,0,0,1,1.72.36c.18.06.32.12.32.26a.74.74,0,0,1-.16.38,2.2,2.2,0,0,0-.24.74c-.06.28-.14.56-.22.86h1.44v-.64a19.69,19.69,0,0,0-.14-2.9c.75,0,1.35.06,2,.14.22,0,.34.1.34.2a1.11,1.11,0,0,1-.12.44,6,6,0,0,0-.14,2.08v.68h1.46c1.72,0,2.3,0,2.42,0s.22,0,.22.24V26c0,.2,0,.22-.22.22s-.7,0-2.42,0H33.86v2.62h2.06c1.9,0,2.56,0,2.68,0s.2,0,.2.2v1.44c0,.22,0,.24-.2.24s-.78,0-2.68,0H34.5a16.6,16.6,0,0,0,4.76,5A5.42,5.42,0,0,0,38.42,37c-.12.28-.2.4-.32.4s-.22-.08-.42-.26a17.68,17.68,0,0,1-3.88-4.92c0,3.16.12,6.22.12,6.62,0,.18,0,.2-.22.2H32.05c-.2,0-.22,0-.22-.2,0-.4.08-3.38.12-6.46a15.26,15.26,0,0,1-4.14,4.86c-.22.18-.36.28-.46.28s-.2-.14-.34-.44a3.81,3.81,0,0,0-.86-1.16,14.84,14.84,0,0,0,5-5.3h-.66c-1.92,0-2.58,0-2.7,0s-.18,0-.2-.06c-.2.38-.4.76-.52,1.06S27,32,26.87,32s-.14-.12-.26-.36A17.23,17.23,0,0,1,25.49,29c0,5.28.14,9.5.14,9.86,0,.2,0,.22-.22.22H23.78c-.22,0-.24,0-.24-.22,0-.36.1-4.36.14-9.1a18.1,18.1,0,0,1-2,4.66c-.12.2-.22.32-.3.32s-.16-.12-.24-.34a6.7,6.7,0,0,0-.68-1.5,18.59,18.59,0,0,0,3-6.42H23c-1.34,0-1.76,0-1.88,0s-.22,0-.22-.22V24.87c0-.2,0-.22.22-.22s.54,0,1.88,0h.6v-1.2a15,15,0,0,0-.16-2.72,18.82,18.82,0,0,1,2,.14c.2,0,.34.1.34.2a.94.94,0,0,1-.12.42,5.12,5.12,0,0,0-.14,1.94v1.22c1.14,0,1.52,0,1.64,0s.22,0,.22.22v1.42c0,.2,0,.22-.22.22l-1.52,0a15.07,15.07,0,0,0,1.94,3.3V29c0-.18,0-.2.22-.2s.78,0,2.7,0h1.36V26.17Z"/><path class="cls-1" d="M44.53,26.53c-1.82,0-2.44,0-2.56,0s-.2,0-.2-.24V24.75c0-.22,0-.24.2-.24s.74,0,2.56,0h7.19c0-.26,0-.54,0-.82a19.06,19.06,0,0,0-.16-2.86c.72,0,1.5,0,2.18.12.2,0,.32.12.32.24a1.29,1.29,0,0,1-.12.42,6.75,6.75,0,0,0-.1,2v.88h2.46c1.83,0,2.45,0,2.57,0s.22,0,.22.24v1.58c0,.22,0,.24-.22.24s-.74,0-2.57,0H53.9A25.3,25.3,0,0,0,55,33.37c.58,1.8,1.2,3,1.8,3s.79-1.1.91-2.92a6.47,6.47,0,0,0,1.3.9c.58.32.58.32.5.94-.4,2.56-1.24,3.64-2.42,3.62-1.53,0-2.93-1.44-3.93-4.4a31.43,31.43,0,0,1-1.38-7.94ZM47.77,31v3.92c1.33-.32,2.71-.7,3.91-1.12,0,.36-.06.86-.06,1.26,0,.66,0,.66-.6.84-2,.66-5,1.48-7.17,1.94a2.68,2.68,0,0,0-.84.3.75.75,0,0,1-.36.14c-.12,0-.22-.08-.28-.26-.16-.48-.36-1.32-.52-2a11,11,0,0,0,1.92-.24l1.92-.36V31H45c-1.7,0-2.26,0-2.38,0s-.22,0-.22-.2v-1.5c0-.22,0-.24.22-.24s.68,0,2.38,0h3.54c1.69,0,2.25,0,2.37,0s.24,0,.24.24v1.5c0,.18,0,.2-.24.2s-.68,0-2.37,0Zm8.07-9.76c.12-.08.18-.12.24-.12s.12,0,.2.12A9.18,9.18,0,0,1,58,23.05c.12.16.1.24-.14.4l-.95.64a.58.58,0,0,1-.25.12c-.07,0-.13-.06-.19-.16a8.91,8.91,0,0,0-1.56-1.9c-.16-.16-.12-.22.08-.36Z"/><path class="cls-1" d="M66.88,27.09a23.49,23.49,0,0,1-3.63,2.16,1.31,1.31,0,0,1-.48.18c-.14,0-.2-.14-.36-.5a4.68,4.68,0,0,0-.9-1.32,16.73,16.73,0,0,0,7.69-5.82,6,6,0,0,0,.7-1.3,15.33,15.33,0,0,1,2.16.42c.24.06.36.14.36.28a.33.33,0,0,1-.2.32,1.7,1.7,0,0,0-.28.18,18.09,18.09,0,0,0,8.47,5.72,5.94,5.94,0,0,0-.86,1.5c-.14.36-.2.5-.34.5a1.38,1.38,0,0,1-.46-.16,22,22,0,0,1-3.82-2.12v1.48c0,.2,0,.22-.22.22s-.66,0-2.27,0H69.36c-1.6,0-2.14,0-2.26,0s-.22,0-.22-.22ZM65.6,32.51c-1.89,0-2.53,0-2.65,0s-.24,0-.24-.22v-1.5c0-.2,0-.22.24-.22s.76,0,2.65,0H76.27c1.88,0,2.52,0,2.64,0s.24,0,.24.22v1.5c0,.2,0,.22-.24.22s-.76,0-2.64,0H70.08a37.44,37.44,0,0,1-1.78,3.76c2.08-.12,4.26-.3,6.17-.5-.46-.56-.93-1.12-1.47-1.7-.14-.16-.12-.24.12-.36l1.29-.66c.22-.12.28-.1.42,0a35.3,35.3,0,0,1,3.72,4.64c.1.16.1.24-.1.38l-1.38.9c-.12.08-.18.12-.24.12s-.1,0-.16-.14c-.34-.56-.68-1.08-1-1.56-3.33.42-7.41.76-10.82,1a1.78,1.78,0,0,0-.72.18.5.5,0,0,1-.34.12c-.14,0-.24-.1-.28-.28-.18-.66-.3-1.36-.42-2.06a16,16,0,0,0,2.19,0l.64,0a32.31,32.31,0,0,0,1.76-3.88Zm6.84-5.58c1.35,0,2,0,2.17,0a18,18,0,0,1-3.79-3.66,18.66,18.66,0,0,1-3.66,3.66c.18,0,.74,0,2.2,0Z"/><path class="cls-1" d="M85.32,31.73a20.9,20.9,0,0,1-1.9,1.66c-.2.16-.32.26-.42.26s-.2-.16-.32-.46a5.52,5.52,0,0,0-.7-1.42,13.81,13.81,0,0,0,5.22-5.92H84.94c-1.52,0-2,0-2.12,0s-.22,0-.22-.22V24.19c0-.2,0-.22.22-.22s.6,0,2.12,0h.38v-.82a12.33,12.33,0,0,0-.16-2.44c.76,0,1.36.06,2.08.14.2,0,.32.12.32.2a.94.94,0,0,1-.12.42,4.24,4.24,0,0,0-.12,1.6V24h.84a.67.67,0,0,0,.38-.08.59.59,0,0,1,.22-.08c.12,0,.32.12.74.52s.55.58.55.72a.39.39,0,0,1-.2.32,2,2,0,0,0-.47.58,20.21,20.21,0,0,1-1.7,2.92,11.29,11.29,0,0,0,2.95,2.34,4.8,4.8,0,0,0-.8,1.3c-.15.3-.25.44-.39.44s-.22-.08-.4-.24a14.93,14.93,0,0,1-1.72-1.86v5.62c0,1.48,0,2.26,0,2.36s0,.22-.24.22h-1.6c-.22,0-.24,0-.24-.22s0-.88,0-2.36ZM92,38.33c-1.9,0-2.57,0-2.69,0s-.22,0-.22-.22V36.57c0-.2,0-.22.22-.22s.79,0,2.69,0h1.68V28.91h-.9c-1.78,0-2.4,0-2.52,0s-.2,0-.2-.2V27.15c0-.2,0-.2.2-.2s.74,0,2.52,0h.9V23.79a18.1,18.1,0,0,0-.16-3c.76,0,1.52.06,2.22.14.18,0,.32.1.32.2a.81.81,0,0,1-.1.42,6.53,6.53,0,0,0-.16,2.2V27h1.26c1.79,0,2.41,0,2.53,0s.22,0,.22.2v1.58c0,.2,0,.2-.22.2s-.74,0-2.53,0H95.81v7.48h1.82c1.91,0,2.55,0,2.67,0s.24,0,.24.22v1.58c0,.2,0,.22-.24.22s-.76,0-2.67,0Z"/><path class="cls-1" d="M110.74,22.33a.19.19,0,0,1,.21.2V35.05a.43.43,0,0,0,.43.44h8.54a.19.19,0,0,1,.21.2v2a.19.19,0,0,1-.21.2H109.69a1.14,1.14,0,0,1-1.14-1.13V22.53a.19.19,0,0,1,.21-.2Z"/><path class="cls-1" d="M123.39,37.88a.2.2,0,0,1-.21-.2V22.53a.2.2,0,0,1,.21-.2h2a.19.19,0,0,1,.2.2V37.68a.19.19,0,0,1-.2.2Z"/><path class="cls-1" d="M129.55,37.88a.19.19,0,0,1-.21-.2V23.46a1.14,1.14,0,0,1,1.14-1.13H140.7a.19.19,0,0,1,.2.21v2a.2.2,0,0,1-.2.21h-8.52a.42.42,0,0,0-.44.43v3.67a.09.09,0,0,0,.09.08h8.87a.19.19,0,0,1,.2.2v2a.19.19,0,0,1-.2.2h-8.87a.1.1,0,0,0-.09.09v6.29a.19.19,0,0,1-.2.2Z"/><path class="cls-1" d="M144.31,22.53a.19.19,0,0,1,.21-.2h2a.19.19,0,0,1,.2.2v7.55a5.6,5.6,0,1,0,11.2,0V22.53a.19.19,0,0,1,.21-.2h2a.19.19,0,0,1,.21.2v7.55a8,8,0,1,1-16,0Z"/><path class="cls-1" d="M166.15,22.33a.19.19,0,0,1,.21.2V35.05a.43.43,0,0,0,.43.44h8.54a.19.19,0,0,1,.21.2v2a.19.19,0,0,1-.21.2H165.1A1.14,1.14,0,0,1,164,36.75V22.53a.19.19,0,0,1,.21-.2Z"/><path class="cls-1" d="M180.81,22.33a.2.2,0,0,1,.21.2V35.05a.42.42,0,0,0,.43.44H190a.2.2,0,0,1,.21.2v2a.2.2,0,0,1-.21.2H179.75a1.14,1.14,0,0,1-1.13-1.13V22.53a.19.19,0,0,1,.2-.2Z"/><path class="cls-1" d="M210.91,20.73a11,11,0,0,0-4.5,9.16,11,11,0,0,0,4.5,9.16l-.52.62c-3.85-2.8-5.43-5.84-5.43-9.78s1.58-7,5.43-9.78Z"/><path class="cls-1" d="M218.88,28.71c-1,0-2,0-3,.08-.18,0-.26-.12-.3-.38a15.16,15.16,0,0,1-.22-2,35.39,35.39,0,0,0,3.68.16h6.87a2.2,2.2,0,0,0,1.06-.22.43.43,0,0,1,.26-.12.51.51,0,0,1,.3.14,11.8,11.8,0,0,1,1.34,1.24.59.59,0,0,1,.2.42.48.48,0,0,1-.22.38,2.29,2.29,0,0,0-.68.94A17.46,17.46,0,0,1,220,38.17a1,1,0,0,1-.4.14.65.65,0,0,1-.44-.24,5.86,5.86,0,0,0-1.86-1c3.7-1.72,7-4.48,8.41-8.34Zm1.34-4.3c-.9,0-1.9,0-2.74.08-.2,0-.26-.12-.28-.44a17.43,17.43,0,0,1-.1-1.92,27.55,27.55,0,0,0,3.28.14H224c1.3,0,2.36-.06,3.14-.1.18,0,.24.1.24.32a10.16,10.16,0,0,1,0,1.56c0,.34-.06.42-.36.4-.66,0-1.6,0-2.82,0Z"/><path class="cls-1" d="M245,33.75c0,1.38,0,2.56.06,4.16,0,.26-.08.34-.3.34a16.68,16.68,0,0,1-2,0c-.22,0-.3-.08-.28-.32,0-1.44.08-2.74.08-4.1V29.17A34.65,34.65,0,0,1,237,33a.56.56,0,0,1-.3.08.56.56,0,0,1-.42-.2,7.49,7.49,0,0,0-1.72-1.18,32.21,32.21,0,0,0,6.31-4.1,32.45,32.45,0,0,0,4.26-4.18,5.8,5.8,0,0,0,1.26-2.06,17.3,17.3,0,0,1,2.23,1.4.35.35,0,0,1,.16.3.57.57,0,0,1-.28.44,6.59,6.59,0,0,0-1.2,1.1A33.72,33.72,0,0,1,245,27.13Z"/><path class="cls-1" d="M260,25.85c-1.3,0-2.44.06-3.3.1-.26,0-.34-.12-.38-.4s-.14-1.44-.18-2a35,35,0,0,0,3.84.14h7.15a1.91,1.91,0,0,0,1.1-.2.56.56,0,0,1,.3-.08,1,1,0,0,1,.38.1,6.15,6.15,0,0,1,1.46,1.32.5.5,0,0,1,.14.34.68.68,0,0,1-.28.5,2.41,2.41,0,0,0-.46.78,23.55,23.55,0,0,1-3.88,6.5,22.47,22.47,0,0,1-5.69,4.76,1,1,0,0,1-.54.18.7.7,0,0,1-.5-.22,6,6,0,0,0-1.86-1.1,19.33,19.33,0,0,0,6.54-5,16.7,16.7,0,0,0,3.39-5.7Z"/><path class="cls-1" d="M281.34,24.81c.34.1.38.34.26.62a2.89,2.89,0,0,0-.24,1.36,15,15,0,0,1-1.08,5.88,10.46,10.46,0,0,1-2.85,3.76.91.91,0,0,1-.52.26.68.68,0,0,1-.38-.16,7.09,7.09,0,0,0-1.7-.84,9.93,9.93,0,0,0,3.32-4c.56-1.36.82-2.46.84-5.66a5.38,5.38,0,0,0-.2-1.68A16.35,16.35,0,0,1,281.34,24.81Zm4.44,8.46a21,21,0,0,0,2.85-1.86,19.19,19.19,0,0,0,3.5-3.4,5.77,5.77,0,0,0,.62,2,1,1,0,0,1,.12.34c0,.14-.08.28-.3.5a25.28,25.28,0,0,1-3,2.62,33.41,33.41,0,0,1-3.57,2.4,6.64,6.64,0,0,0-.58.42.64.64,0,0,1-.4.16.85.85,0,0,1-.42-.16,5.78,5.78,0,0,1-1.2-1.22.8.8,0,0,1-.18-.42.61.61,0,0,1,.08-.3c.14-.26.12-.5.12-1.52V26.59a16,16,0,0,0-.2-3.48,19.09,19.09,0,0,1,2.5.42c.26.06.36.18.36.34a1.28,1.28,0,0,1-.16.5,5.53,5.53,0,0,0-.18,2.22Z"/><path class="cls-1" d="M295.51,20.11c3.85,2.8,5.43,5.84,5.43,9.78s-1.58,7-5.43,9.78l-.52-.62a11,11,0,0,0,4.51-9.16A11,11,0,0,0,295,20.73Z"/><path class="cls-1" d="M320.66,22.59c.22.12.3.24.3.4a1,1,0,0,1-.14.44,4.06,4.06,0,0,0-.36,1.1,39.71,39.71,0,0,0-1,7.28c0,.8,0,1.72.06,2.56.4-.92.82-1.78,1.24-2.78a5.29,5.29,0,0,0,.71,1.26.43.43,0,0,1,.12.28.58.58,0,0,1-.12.32,11.61,11.61,0,0,0-1,3,3.78,3.78,0,0,0,0,1.06c0,.14-.06.2-.24.26a8.38,8.38,0,0,1-1.5.34c-.22.06-.3,0-.4-.24a18.63,18.63,0,0,1-.86-6.1,43.44,43.44,0,0,1,.82-7.58,10.06,10.06,0,0,0,.14-2.36A15.62,15.62,0,0,1,320.66,22.59Zm6.89,5.34a40.44,40.44,0,0,1-4.12,0c-.26,0-.34-.06-.36-.26a12.25,12.25,0,0,1-.14-1.82,28.93,28.93,0,0,0,4.56.06c0-.72,0-1.36,0-2.1a8.24,8.24,0,0,0-.26-2,11.35,11.35,0,0,1,2.43.38c.22.06.36.16.36.34a.86.86,0,0,1-.12.34,2.26,2.26,0,0,0-.16.7c0,.68,0,1.2,0,2.12.94-.08,2-.22,2.84-.36.24-.06.28,0,.32.24A8,8,0,0,1,333,27c0,.18-.08.28-.22.3a22.54,22.54,0,0,1-3.08.42c0,2.24,0,3.64.14,5.36A13.09,13.09,0,0,1,333.12,35c.18.12.2.18.1.4A10.8,10.8,0,0,1,332.3,37a.24.24,0,0,1-.18.12.28.28,0,0,1-.18-.1,11.88,11.88,0,0,0-2.16-1.6c-.16,1.68-1.31,2.6-3.67,2.6s-3.58-1.08-3.58-2.8,1.48-2.82,3.5-2.82a8.35,8.35,0,0,1,1.6.16C327.59,31,327.57,29.51,327.55,27.93Zm-1.62,6.22c-.94,0-1.5.34-1.5,1s.44,1,1.62,1c1,0,1.64-.58,1.64-1.3a2.82,2.82,0,0,0,0-.4A5.57,5.57,0,0,0,325.93,34.15Z"/><path class="cls-1" d="M337.3,34a.46.46,0,0,1,.31-.16.4.4,0,0,1,.26.12,14.89,14.89,0,0,1,4,3.66c.12.16.14.22.14.3s0,.18-.2.32l-1.22,1c-.14.12-.22.18-.28.18s-.18,0-.28-.2a14.81,14.81,0,0,0-3.79-3.82c-.12-.08-.18-.14-.18-.2s0-.12.14-.24Z"/><path class="cls-1" d="M358.57,31.45c0-.76,0-1.74,0-2.68-.34.5-.72,1-1.12,1.46-.16.16-.26.26-.34.26s-.18-.12-.24-.36a7.94,7.94,0,0,0-.66-1.66,17.68,17.68,0,0,0,3.52-6.32,5.66,5.66,0,0,0,.34-1.42,13.41,13.41,0,0,1,1.84.54c.23.08.35.14.35.3s-.08.22-.23.36a1.78,1.78,0,0,0-.42.82c-.34.92-.68,1.78-1,2.56V35.79c0,2,0,2.94,0,3s0,.22-.22.22h-1.66c-.2,0-.22,0-.22-.22s0-1.08,0-3ZM362.42,39c-.21,0-.22,0-.22-.22s0-1.42,0-6.74V27c0-3.56,0-4.88,0-5s0-.22.22-.22.82,0,2.74,0h6.13c1.94,0,2.64,0,2.76,0s.22,0,.22.22,0,1.5,0,4.58V32c0,5.24,0,6.54,0,6.66s0,.2-.22.2h-1.54c-.2,0-.22,0-.22-.2v-.82h-8.15v.94c0,.2,0,.22-.22.22Zm1.72-3h8.15V23.63h-8.15Zm4.9-8v1.78h0c1.18,0,1.54,0,1.69,0s.22,0,.22.22,0,.54,0,1.54v1.76c0,1,0,1.42,0,1.54s0,.2-.22.2-.51,0-1.69,0H367.3c-1.18,0-1.54,0-1.68,0s-.22,0-.22-.2,0-.54,0-1.54V31.53c0-1,0-1.4,0-1.54s0-.22.22-.22.52,0,1.7,0V28H367c-1.48,0-2,0-2.12,0s-.22,0-.22-.22V26.63c0-.2,0-.22.22-.22s.64,0,2.12,0h.3v-.16a12.55,12.55,0,0,0-.12-2.18c.62,0,1.22.06,1.76.12.18,0,.28.08.28.2a1.53,1.53,0,0,1-.1.34,7.17,7.17,0,0,0-.1,1.5v.18h.38c1.47,0,2,0,2.11,0s.22,0,.22.22v1.22c0,.2,0,.22-.22.22s-.64,0-2.11,0Zm.28,3.26h-2.26v2.18h2.26Z"/><path class="cls-1" d="M37.8,71.76c-.16.34-.22.49-.36.49s-.22-.08-.46-.25a16,16,0,0,1-7.07-9.55A14.9,14.9,0,0,1,22.66,72a1.41,1.41,0,0,1-.46.19c-.14,0-.22-.14-.4-.47a5.15,5.15,0,0,0-1.16-1.34c5.27-2.45,7.83-7.45,7.79-13,0-.88,0-1.73-.14-2.61.78,0,1.74.15,2.46.24.26,0,.38.17.38.33a.89.89,0,0,1-.2.5,3.21,3.21,0,0,0-.16,1.31c0,.24,0,.48,0,.73.86,5.85,3.39,9.73,8.17,12.34A5.26,5.26,0,0,0,37.8,71.76Z"/><path class="cls-1" d="M47.35,57.34a13.51,13.51,0,0,0,.2-2.22,14.72,14.72,0,0,1,2.41.67.4.4,0,0,1,.32.39.44.44,0,0,1-.14.31,2.42,2.42,0,0,0-.4.76c-.26.81-.46,1.55-.72,2.39a15.28,15.28,0,0,1,1.6-.08c1.86,0,2.86,1.31,2.86,3.86a17,17,0,0,1-1.08,6.26,2.86,2.86,0,0,1-2.7,1.88,5.36,5.36,0,0,1-2.09-.3.52.52,0,0,1-.36-.55,5.72,5.72,0,0,0-.38-1.87,5.36,5.36,0,0,0,2.31.53c.66,0,1-.25,1.28-1.07a15.38,15.38,0,0,0,.78-5c0-1.41-.26-1.84-1.14-1.84a13.12,13.12,0,0,0-1.68.13,56.51,56.51,0,0,1-4,9.41.33.33,0,0,1-.52.18,9.94,9.94,0,0,1-1.38-.88.45.45,0,0,1-.16-.3.38.38,0,0,1,.08-.23A41.58,41.58,0,0,0,46.07,62c-.78.12-1.42.25-2,.34a8,8,0,0,0-1.1.32c-.28.1-.52.06-.64-.25a18.56,18.56,0,0,1-.62-2.07c.88,0,1.76,0,2.64-.13s1.58-.18,2.36-.3C47.07,58.72,47.21,58,47.35,57.34Zm7.93,1.34c.14-.08.24,0,.38.11A13.16,13.16,0,0,1,59,63.64c.08.19.06.28-.08.4a7.68,7.68,0,0,1-1.5,1c-.2.1-.41.08-.46-.16a13.64,13.64,0,0,0-3.29-5.17A17.05,17.05,0,0,1,55.28,58.68Zm.54-2.8c.1-.08.18-.05.3,0A9.42,9.42,0,0,1,58,58.06a.2.2,0,0,1-.06.32l-.84.62a.21.21,0,0,1-.34,0,10.25,10.25,0,0,0-2-2.33Zm1.79-1.3c.12-.08.18,0,.3,0a8.53,8.53,0,0,1,1.9,2.06.23.23,0,0,1-.06.36l-.8.63c-.16.12-.26,0-.34-.07a9.67,9.67,0,0,0-2-2.3Z"/><path class="cls-1" d="M67.64,60c-.22,0-.6,0-1.32,0v3.26c.62-.23,1.24-.5,1.82-.77a12.59,12.59,0,0,0-.08,1.3c0,.63,0,.63-.56.89-.38.16-.76.35-1.18.5V66c0,1.91.06,3,.06,4s-.16,1.59-.64,2a3.61,3.61,0,0,1-2.15.42c-.64,0-.64,0-.76-.58a5.78,5.78,0,0,0-.52-1.49,9.77,9.77,0,0,0,1.58.08c.3,0,.46-.13.46-.54v-4c-.34.12-.66.22-.94.3a2.6,2.6,0,0,0-.7.32.57.57,0,0,1-.32.14c-.12,0-.22-.08-.26-.26a16.15,16.15,0,0,1-.32-1.88,16.85,16.85,0,0,0,1.84-.38l.7-.17V60h-.42c-1.3,0-1.7,0-1.82,0s-.2,0-.2-.21V58.37c0-.2,0-.23.2-.23s.52,0,1.82,0h.42v-1a18.8,18.8,0,0,0-.16-2.83c.74,0,1.37.07,2,.12.2,0,.32.12.32.22a.9.9,0,0,1-.12.42,6.14,6.14,0,0,0-.12,2v1.06c1.06,0,1.4,0,1.52,0s.22,0,.22.23v1.19a12.77,12.77,0,0,0,2.3-4.07,4.2,4.2,0,0,0,.24-1.19c.68.11,1.34.19,1.94.32.22.06.36.14.36.29s-.06.21-.2.38a2.08,2.08,0,0,0-.4.77c-.1.27-.18.52-.3.77h4.91c1.5,0,2,0,2.12,0s.24,0,.24.24c0,.5-.08,1-.08,1.5a43.73,43.73,0,0,1-.48,8.11c-.18.92-.5,1.46-1.18,1.69a6.05,6.05,0,0,1-1.74.17c-.64,0-.64,0-.72-.44a6.28,6.28,0,0,0-.4-1.48c.74.06,1.12.09,1.42.09s.66-.26.78-.92a54.54,54.54,0,0,0,.36-7.17H71.12a17.54,17.54,0,0,1-2,2.8c-.2.22-.3.33-.42.33s-.2-.13-.36-.41a4,4,0,0,0-.9-1Zm4.22,2c-1.24,0-1.6,0-1.72,0s-.2,0-.2-.22V60.5c0-.17,0-.2.2-.2s.48,0,1.72,0h2c.9,0,1.24,0,1.36,0s.22,0,.22.2,0,.64,0,1.76V64.1c0,1.11,0,1.61,0,1.74s0,.22-.22.22-.46,0-1.36,0H71.16v3.22c0,.47,0,.83.18,1s1,.25,3.13.25,3,0,3.3-.36.38-.77.42-1.88a6.3,6.3,0,0,0,1.38.54c.62.19.66.19.58.82a2.94,2.94,0,0,1-.88,2.09c-.6.51-2,.66-4.86.66-3.59,0-4.31-.16-4.71-.5S69.18,71,69.18,70V66.33c0-1.16,0-1.71,0-1.84s0-.2.22-.2.52,0,1.4,0h2.62V62.06Z"/><path class="cls-1" d="M88.9,60.42c1.55-.24,2.67-.46,3.49-.63a3.26,3.26,0,0,0,.8-.33.83.83,0,0,1,.44-.13.63.63,0,0,1,.34.13,4.57,4.57,0,0,1,1.18,1.07.75.75,0,0,1,.22.46.54.54,0,0,1-.36.46,2.49,2.49,0,0,0-.64.46c-1.48,1.39-2.3,2.23-3.64,3.67a2.44,2.44,0,0,1,.72-.09,2.27,2.27,0,0,1,2.18,2c.4,1.64.72,2,2.2,2a13,13,0,0,0,3.11-.36c.22,0,.32.08.36.31a10.34,10.34,0,0,1,.14,1.76c0,.2-.1.28-.36.32a18.71,18.71,0,0,1-3,.26c-2.94,0-3.9-.79-4.32-2.76-.32-1.37-.56-1.93-1.26-1.93a2.86,2.86,0,0,0-1.89,1c-.9.93-2.36,2.69-3,3.52a.32.32,0,0,1-.28.14.32.32,0,0,1-.22-.08,9.57,9.57,0,0,1-1.4-1.22.28.28,0,0,1-.1-.2.45.45,0,0,1,.16-.31l3.78-3.85c.78-.8,1.82-2,4-4.26-1.5.41-2.85.73-4.17,1.07a6.94,6.94,0,0,0-1.08.35.9.9,0,0,1-.42.12c-.14,0-.24-.09-.34-.34a14.14,14.14,0,0,1-.8-2.24A22.25,22.25,0,0,0,88.9,60.42Zm5.59-4.28c.2,0,.28.16.22.44a11.68,11.68,0,0,1-.54,1.64c-.06.16-.18.27-.34.23a30.93,30.93,0,0,1-5.59-1.69.26.26,0,0,1-.18-.35,18.55,18.55,0,0,1,.68-1.87A35.77,35.77,0,0,0,94.49,56.14Z"/><path class="cls-1" d="M110.67,62.67a6,6,0,0,1,3.18-.91,4.64,4.64,0,0,1,5,4.8c0,3.35-2.7,5.48-7,5.48-2.52,0-4-1.08-4-2.94a2.65,2.65,0,0,1,2.82-2.43,3.64,3.64,0,0,1,3.76,2.91,3,3,0,0,0,2-3,2.91,2.91,0,0,0-3.15-3,8.13,8.13,0,0,0-5.12,2.11c-.58.53-1.14,1.11-1.74,1.7-.15.15-.24.22-.35.22a.49.49,0,0,1-.3-.18,8.51,8.51,0,0,1-1.18-1.3c-.12-.16-.06-.29.1-.46a46.85,46.85,0,0,0,4.75-4.41c1.24-1.29,2.18-2.29,3.1-3.42-1.2.21-2.62.5-3.86.75a6.32,6.32,0,0,0-.84.25,1.44,1.44,0,0,1-.4.09.44.44,0,0,1-.44-.34,9.39,9.39,0,0,1-.7-2.16,9.64,9.64,0,0,0,1.86,0c1.22-.12,3-.38,4.54-.67a7,7,0,0,0,1.1-.3.89.89,0,0,1,.38-.16.65.65,0,0,1,.46.16A7.32,7.32,0,0,1,116,56.72a.71.71,0,0,1,.22.49.52.52,0,0,1-.34.47,3.29,3.29,0,0,0-.88.65c-1.47,1.42-2.81,2.81-4.33,4.27Zm0,5.7c-.58,0-1,.34-1,.75,0,.63.54,1,1.74,1a4.35,4.35,0,0,0,.92-.09C112.13,69,111.53,68.37,110.69,68.37Z"/><path class="cls-1" d="M127.85,57.83c1.54,0,2,0,2.14,0s.22,0,.22.21v1.42c0,.22,0,.25-.22.25s-.6-.05-2.14-.05h-2.1c-1.54,0-2,.05-2.14.05s-.22,0-.22-.25V58c0-.2,0-.21.22-.21s.6,0,2.14,0Zm7.27,14.81c-.2,0-.22,0-.22-.22,0-.38.08-2.54.1-5a15.45,15.45,0,0,1-3.6,3.84c-.22.17-.34.25-.44.25s-.21-.12-.41-.42a9,9,0,0,0-.76-.9c0,1.32,0,1.74,0,1.84s0,.23-.2.23h-1.44c-.2,0-.22,0-.22-.23v-.53h-1.9v.92c0,.19,0,.22-.22.22h-1.42c-.22,0-.24,0-.24-.22s0-.61,0-3V68.14c0-1.26,0-1.73,0-1.88s0-.22.24-.22.54,0,1.82,0h1.54c1.28,0,1.7,0,1.84,0s.2,0,.2.22,0,.61,0,1.54V70a13,13,0,0,0,4.11-3.69h-.66c-1.9,0-2.57,0-2.69,0s-.22,0-.22-.22v-1.4c0-.19,0-.22.22-.22s.79,0,2.69,0h1.7V63.08h-1c-1.76,0-2.34,0-2.48,0s-.22,0-.22-.21,0-.69,0-2V57.26c0-1.31,0-1.88,0-2s0-.23.22-.23.72,0,2.48,0h4c1.77,0,2.37,0,2.51,0s.22,0,.22.23,0,.69,0,2v3.65c0,1.31,0,1.89,0,2s0,.21-.22.21-.74,0-2.51,0h-1.12V64.5h1.94c1.93,0,2.59,0,2.71,0s.22,0,.22.22v1.4c0,.21,0,.22-.22.22s-.78,0-2.71,0h-.88a12.3,12.3,0,0,0,4.25,3.38,6.05,6.05,0,0,0-.9,1.31c-.16.3-.22.42-.34.42s-.2-.11-.44-.27a13.4,13.4,0,0,1-3.67-3.77c0,2.5.1,4.7.1,5.09,0,.2,0,.22-.22.22Zm-7.37-17.56c1.28,0,1.68,0,1.8,0s.24,0,.24.22V56.6c0,.2,0,.23-.24.23s-.52,0-1.8,0h-1.48c-1.3,0-1.7,0-1.82,0s-.22,0-.22-.23V55.26c0-.2,0-.22.22-.22s.52,0,1.82,0Zm-.06,5.6c1.2,0,1.56,0,1.68,0s.24,0,.24.23v1.27c0,.2,0,.23-.24.23s-.48,0-1.68,0h-1.34c-1.22,0-1.58,0-1.7,0s-.22,0-.22-.23V60.87c0-.2,0-.23.22-.23s.48,0,1.7,0Zm0,2.69c1.2,0,1.56,0,1.68,0s.24,0,.24.21v1.29c0,.2,0,.21-.24.21s-.48,0-1.68,0h-1.34c-1.22,0-1.58,0-1.7,0s-.22,0-.22-.21V63.54c0-.2,0-.21.22-.21s.48,0,1.7,0Zm-1.64,4.38v2.12H128V67.75Zm9-9.37V56.71h-1.9v1.67Zm0,3.12V59.87h-1.9V61.5Zm1.78-4.79v1.67h2V56.71Zm2,3.16h-2V61.5h2Z"/><path class="cls-1" d="M158.61,67c.12-.11.18-.15.26-.15s.1,0,.18.11a8.47,8.47,0,0,0,3.12,1.73,4.45,4.45,0,0,0-.7.89c-.24.42-.28.46-.4.51.46,0,1-.09,1.48-.17A6.45,6.45,0,0,0,162,71.3c-.12.66-.12.66-.76.7-2,.18-4,.22-6.21.22-3.1,0-5.26-.35-6.74-1.23a6,6,0,0,1-1.87-1.7,11,11,0,0,1-1,2.63c-.16.26-.24.38-.34.38s-.2-.08-.4-.27a5.64,5.64,0,0,0-1.18-.82A9.53,9.53,0,0,0,145.15,66a10,10,0,0,0,0-1.12c.54,0,1.12.17,1.66.27.25,0,.35.12.35.23a.66.66,0,0,1-.13.35,1.89,1.89,0,0,0-.13.57l-.15,1.08a5.74,5.74,0,0,0,1.31,1.46v-4.7h-1.51c-1.72,0-2.3,0-2.42,0s-.2,0-.2-.22V62.62c0-.2,0-.21.2-.21s.7,0,2.42,0h3.81c1.72,0,2.3,0,2.42,0s.22,0,.22.21V64c0,.19,0,.22-.22.22s-.7,0-2.42,0H150v1.7h.88c1.08,0,1.36,0,1.48,0s.22,0,.22.21v1.3c0,.2,0,.22-.22.22s-.4,0-1.48,0H150v2.3a18,18,0,0,0,5,.51,55.08,55.08,0,0,0,6-.3,1.14,1.14,0,0,1-.46-.16,11,11,0,0,1-2.78-2c-.16-.16-.12-.21.08-.38Zm-8.73-11.87c1.5,0,2,0,2.14,0s.2,0,.2.22,0,.61,0,1.74v2.46c0,1.16,0,1.64,0,1.76s0,.23-.2.23-.64,0-2.14,0h-2.64c-1.51,0-2,0-2.17,0s-.22,0-.22-.23,0-.6,0-1.76V57c0-1.13,0-1.62,0-1.74s0-.22.22-.22.66,0,2.17,0Zm.42,2.48V56.49h-3.55v1.07Zm0,1.35h-3.55V60h3.55Zm6.13,8.73c.14.12.22.19.22.31s-.1.19-.24.26a1.45,1.45,0,0,0-.42.32A13.1,13.1,0,0,1,153.54,70a1.53,1.53,0,0,1-.48.17c-.14,0-.2-.13-.36-.37a5.29,5.29,0,0,0-.74-.92,9.07,9.07,0,0,0,2.64-1.42,4.08,4.08,0,0,0,.65-.66A12.82,12.82,0,0,1,156.43,67.64Zm-.86-10.84c-1.73,0-2.31,0-2.43,0s-.24,0-.24-.2V55.26c0-.2,0-.22.24-.22s.7,0,2.43,0h3.84c1.72,0,2.3,0,2.42,0s.22,0,.22.22v1.38c0,.19,0,.2-.22.2s-.7,0-2.42,0h-1.1a10.45,10.45,0,0,1-.5,1.3h.9c1.52,0,2,0,2.16,0s.22,0,.22.23,0,.7,0,2.09V64.5c0,1.38,0,2,0,2.1s0,.23-.22.23-.64,0-2.16,0H156c-1.53,0-2,0-2.15,0s-.22,0-.22-.23,0-.72,0-2.1V60.38c0-1.39,0-2,0-2.09s0-.23.22-.23.6,0,2,0a10.41,10.41,0,0,0,.44-1.3Zm-.11,3.78h3.75v-1h-3.75ZM159.21,63V61.88h-3.75V63Zm0,1.3h-3.75v1.12h3.75Z"/><path class="cls-1" d="M170.76,57.34a13.51,13.51,0,0,0,.2-2.22,14.72,14.72,0,0,1,2.41.67.4.4,0,0,1,.32.39.44.44,0,0,1-.14.31,2.42,2.42,0,0,0-.4.76c-.26.81-.46,1.55-.72,2.39a15.08,15.08,0,0,1,1.56-.08c1.88,0,2.9,1.28,2.9,3.7a17.14,17.14,0,0,1-1.08,6.42,2.86,2.86,0,0,1-2.7,1.88,6.29,6.29,0,0,1-2-.22.51.51,0,0,1-.36-.55,5.72,5.72,0,0,0-.38-1.87,6.05,6.05,0,0,0,2.21.45c.66,0,1-.25,1.28-1.07a15.36,15.36,0,0,0,.78-5c0-1.42-.26-1.85-1.14-1.85a13.4,13.4,0,0,0-1.69.13,55.71,55.71,0,0,1-4,9.41.33.33,0,0,1-.52.18,9.94,9.94,0,0,1-1.38-.88.45.45,0,0,1-.16-.3.38.38,0,0,1,.08-.23A41.58,41.58,0,0,0,169.48,62c-.78.12-1.42.25-2,.34a8,8,0,0,0-1.1.32c-.28.1-.52.06-.64-.25a18.56,18.56,0,0,1-.62-2.07c.88,0,1.76,0,2.64-.13s1.58-.18,2.36-.3C170.48,58.72,170.62,58,170.76,57.34Zm8.15,1.34c.14-.08.24,0,.38.11a13.16,13.16,0,0,1,3.33,4.85c.08.19.06.28-.08.4a7.68,7.68,0,0,1-1.5,1c-.2.1-.4.08-.46-.16a13.64,13.64,0,0,0-3.29-5.17A17.05,17.05,0,0,1,178.91,58.68Z"/><path class="cls-1" d="M190.61,59.83c.22.09.32.21.32.38a.56.56,0,0,1-.1.29,3.87,3.87,0,0,0-.4,1.06,33.24,33.24,0,0,0-.48,3.65A9.72,9.72,0,0,1,196.64,62c2.92,0,4.66,1.71,4.66,4.29a4.89,4.89,0,0,1-3,4.47,17.11,17.11,0,0,1-5.13,1.38c-.44.07-.62,0-.8-.26a5.32,5.32,0,0,0-1.36-1.7,16.47,16.47,0,0,0,5.51-1.12c1.62-.69,2.36-1.73,2.36-3,0-1.08-.68-2-2.4-2s-3.89,1.14-5.77,3a5.26,5.26,0,0,0-.86,1.11c-.12.2-.2.2-.46.13-.46-.16-.94-.34-1.37-.54-.2-.08-.28-.12-.28-.39.12-2.33.38-4.69.63-6.46a12.61,12.61,0,0,0,.18-1.81A11.19,11.19,0,0,1,190.61,59.83Zm.5-5.07a.33.33,0,0,1,.38-.09A13.09,13.09,0,0,1,195.41,57c.1.08.14.14.14.22a.47.47,0,0,1-.1.24,14.29,14.29,0,0,1-1,1.41.37.37,0,0,1-.22.15c-.08,0-.14,0-.24-.14a16.21,16.21,0,0,0-4-2.59A10.6,10.6,0,0,1,191.11,54.76Z"/><path class="cls-1" d="M206.53,67.56a.4.4,0,0,1,.3-.15.36.36,0,0,1,.26.12,14.85,14.85,0,0,1,4,3.65c.12.16.14.23.14.31s0,.18-.2.31l-1.22,1c-.14.12-.22.19-.28.19s-.18,0-.28-.2A15,15,0,0,0,205.45,69c-.12-.08-.18-.13-.18-.2s0-.12.14-.24Z"/><path class="cls-1" d="M235.22,63.58c-3,.79-4.88,1.5-6.59,2.1a2,2,0,0,1-.58.23c-.1,0-.3-.15-.4-.41a15.85,15.85,0,0,1-.66-1.63c.44-.12.62-.19,1-.33A9.88,9.88,0,0,0,230,62.37a66,66,0,0,0,5.7-5.25c-1.22.34-2.3.55-3.56.79-.3.05-.46.08-.76.15a2.1,2.1,0,0,1-.56.2c-.18,0-.34-.18-.48-.43a11.75,11.75,0,0,1-.72-2,11.91,11.91,0,0,0,2,0c1.34-.09,2.8-.34,4.56-.59a2.79,2.79,0,0,0,1.06-.34.6.6,0,0,1,.38-.15c.19,0,.31.11.55.3a6.67,6.67,0,0,1,1,1,.93.93,0,0,1,.24.57c0,.2-.12.33-.36.45a5.39,5.39,0,0,0-.82.6c-2.09,1.84-3.79,3.32-6.07,5l0,.07a78.23,78.23,0,0,1,9.65-2.21c.26,0,.34.1.38.33a8.68,8.68,0,0,1,.22,1.61c0,.2-.1.27-.32.28a14,14,0,0,0-3.72.65c-2.33.8-3.43,2.22-3.43,3.65,0,1.92,2.1,2.5,5,2.5.2,0,.32.11.3.36,0,.5-.2,1.33-.26,1.68s-.16.44-.44.44a11.52,11.52,0,0,1-1.32-.12c-3.77-.38-5.41-2.09-5.41-4.51a4.68,4.68,0,0,1,2.44-3.87Z"/><path class="cls-1" d="M256.87,58.79a25.18,25.18,0,0,1-2.5,8.62,3.82,3.82,0,0,1-3.41,2.3c-1.76,0-3.54-1.88-3.54-5.15a7.33,7.33,0,0,1,2.26-5.19,8.73,8.73,0,0,1,6.51-2.57c4.8,0,7.63,3,7.63,7,0,3.71-2.11,6-6.17,7.28-.42.11-.6,0-.86-.36a4.24,4.24,0,0,0-1.4-1.26c3.38-.81,6-2.2,6-6A4.53,4.53,0,0,0,257,58.79Zm-5.75,1.93a5.76,5.76,0,0,0-1.56,3.7c0,1.84.74,2.87,1.36,2.87s1-.26,1.5-1.23a22.77,22.77,0,0,0,2.13-7.15A6,6,0,0,0,251.12,60.72Z"/><path class="cls-1" d="M279.26,69.18c0,.66,0,.82.18,1a2.32,2.32,0,0,0,1.44.28c1,0,1.4-.16,1.68-.45s.48-1,.5-2.71a4.28,4.28,0,0,0,1.46.59c.5.12.5.12.48.62a4.28,4.28,0,0,1-1,3c-.56.57-1.32.85-3.3.85s-2.69-.21-3.09-.59-.48-.75-.48-2v-5.5h-2.42a9,9,0,0,1-1.42,5A8.46,8.46,0,0,1,269,72.49a2.1,2.1,0,0,1-.46.13c-.16,0-.24-.13-.42-.48a6.14,6.14,0,0,0-1.06-1.3,7.29,7.29,0,0,0,4.39-2.51,6.69,6.69,0,0,0,1.16-4h-2.57c-1.8,0-2.4,0-2.52,0s-.24,0-.24-.21V62.6c0-.18,0-.19.24-.19s.72,0,2.52,0H275V59.58h-3.82a14.45,14.45,0,0,1-1.43,1.84c-.2.22-.32.34-.42.34s-.22-.12-.44-.34a5.42,5.42,0,0,0-1.18-.86,12.75,12.75,0,0,0,2.95-4.19,5.08,5.08,0,0,0,.48-1.58,12.9,12.9,0,0,1,1.86.58c.18.08.32.17.32.3a.35.35,0,0,1-.18.29,1.52,1.52,0,0,0-.36.58c-.18.41-.34.8-.52,1.17H275V56.6a10.64,10.64,0,0,0-.14-2.22c.76,0,1.44.08,2.14.16.18,0,.32.1.32.22a1.18,1.18,0,0,1-.12.41,3.39,3.39,0,0,0-.12,1.32v1.22h3.17c1.94,0,2.62,0,2.74,0s.22,0,.22.24v1.5c0,.19,0,.21-.22.21s-.8,0-2.74,0h-3.17v2.87h5.19c1.78,0,2.4,0,2.52,0s.2,0,.2.19v1.57c0,.2,0,.21-.2.21s-.74,0-2.52,0h-3Z"/><path class="cls-1" d="M292.45,56.54c.34.18.46.3.46.49s0,.19-.3.59a4.83,4.83,0,0,0-.48,1.42,32.58,32.58,0,0,0-.84,6.46,19.17,19.17,0,0,0,.12,2.34c.42-.92.78-1.58,1.36-3a5.13,5.13,0,0,0,.7,1.25.8.8,0,0,1,.14.3.61.61,0,0,1-.1.33,19.44,19.44,0,0,0-1.14,3,2.27,2.27,0,0,0-.06.62c0,.24,0,.41,0,.57s-.08.22-.26.26a12.54,12.54,0,0,1-1.64.32c-.14,0-.22-.08-.26-.23a18.66,18.66,0,0,1-.92-6,38.08,38.08,0,0,1,.68-6.55,16.32,16.32,0,0,0,.36-3A9.3,9.3,0,0,1,292.45,56.54ZM296.74,66c.16,0,.2.08.2.3.12,1.38,1.08,1.88,3.26,1.88a28.94,28.94,0,0,0,3.83-.26c.2,0,.24,0,.28.26a14.84,14.84,0,0,1,.12,1.73c0,.23,0,.25-.34.3a26.84,26.84,0,0,1-3.27.21c-3,0-4.34-.47-5.2-1.66a4.41,4.41,0,0,1-.7-2.6Zm-1.12-7.47c0-.24.08-.31.28-.35a31.82,31.82,0,0,1,4.34-.35c1.2,0,2.12,0,3,.12.42,0,.46.05.46.26,0,.59,0,1.13,0,1.7,0,.17-.08.25-.26.23-1.21-.07-2.25-.11-3.27-.11a23.62,23.62,0,0,0-4.54.46C295.58,59.33,295.58,58.83,295.62,58.49Z"/><path class="cls-1" d="M316.58,55.25c.24.08.36.2.36.35a.41.41,0,0,1-.1.32,1.55,1.55,0,0,0-.28.72c-.06.36-.1.66-.16,1a37.07,37.07,0,0,0,5.21-.84c.24,0,.3,0,.34.2a6.21,6.21,0,0,1,.2,1.37c0,.25-.2.35-.42.39a41.18,41.18,0,0,1-5.69.84c-.08.85-.12,1.32-.14,2a13,13,0,0,1,3.06-.44,4.48,4.48,0,0,0,.34-1.46,8.46,8.46,0,0,1,1.79.74c.24.16.36.33.36.45a.33.33,0,0,1-.12.23,2.31,2.31,0,0,0-.26.4c2.58.68,4.1,2.38,4.1,4.88,0,2.91-2.38,4.79-5.56,5.64a.63.63,0,0,1-.89-.38,5.29,5.29,0,0,0-1.18-1.23A12.06,12.06,0,0,0,321.27,69a3.45,3.45,0,0,0,1.6-3,3,3,0,0,0-2.48-2.91,21.31,21.31,0,0,1-3.79,5.25,5.91,5.91,0,0,0,.36.89c.12.27,0,.36-.16.5a6.36,6.36,0,0,1-1.2.7c-.2.11-.28.11-.4-.09a4.37,4.37,0,0,1-.34-.79A6.24,6.24,0,0,1,311.38,71a2.19,2.19,0,0,1-2.23-2.49c0-2.55,2.23-5,4.69-6.21,0-.87.06-1.75.1-2.5-1.18,0-1.72,0-2.06,0a8,8,0,0,1-1.15,0c-.22,0-.34-.12-.36-.46s-.06-1-.1-1.51a34.94,34.94,0,0,0,3.89.08c.08-.73.16-1.62.16-2.19a4.53,4.53,0,0,0-.08-.89A9.81,9.81,0,0,1,316.58,55.25Zm-5.33,12.83a.69.69,0,0,0,.67.76,4.21,4.21,0,0,0,2.32-1.16,25.6,25.6,0,0,1-.4-3.43C312.3,65.34,311.25,66.79,311.25,68.08Zm7.11-5.2a9.78,9.78,0,0,0-2.56.46,21.3,21.3,0,0,0,.24,3A18,18,0,0,0,318.36,62.88Z"/><path class="cls-1" d="M336.45,62.67a6,6,0,0,1,3.18-.91,4.65,4.65,0,0,1,5,4.8c0,3.35-2.71,5.48-7,5.48-2.53,0-4.05-1.08-4.05-2.94a2.65,2.65,0,0,1,2.83-2.43,3.64,3.64,0,0,1,3.76,2.91,3,3,0,0,0,2-3,2.91,2.91,0,0,0-3.14-3,8.15,8.15,0,0,0-5.13,2.11c-.58.53-1.14,1.11-1.74,1.7-.14.15-.24.22-.34.22a.49.49,0,0,1-.3-.18,8.51,8.51,0,0,1-1.18-1.3c-.12-.16-.06-.29.1-.46a47.93,47.93,0,0,0,4.74-4.41c1.25-1.29,2.19-2.29,3.11-3.42-1.2.21-2.63.5-3.87.75a6.32,6.32,0,0,0-.84.25,1.44,1.44,0,0,1-.4.09.44.44,0,0,1-.44-.34,9.39,9.39,0,0,1-.7-2.16,9.64,9.64,0,0,0,1.86,0c1.22-.12,3-.38,4.55-.67a7,7,0,0,0,1.1-.3.89.89,0,0,1,.38-.16.66.66,0,0,1,.46.16,7.55,7.55,0,0,1,1.34,1.27.71.71,0,0,1,.22.49.52.52,0,0,1-.34.47,3.29,3.29,0,0,0-.88.65c-1.46,1.42-2.8,2.81-4.32,4.27Zm0,5.7c-.59,0-1,.34-1,.75,0,.63.54,1,1.75,1a4.35,4.35,0,0,0,.92-.09C337.91,69,337.31,68.37,336.47,68.37Z"/><path class="cls-1" d="M351.74,61.25c-1.74,0-2.34,0-2.46,0s-.2,0-.2-.23V59.5c0-.2,0-.21.2-.21s.72,0,2.46,0h.08V57.8a25.31,25.31,0,0,0-.14-2.89,16.5,16.5,0,0,1,2.19.15c.2,0,.3.12.3.23a2.76,2.76,0,0,1-.12.5,11.44,11.44,0,0,0-.08,2v1.54h3.1V57.54a23.61,23.61,0,0,0-.14-2.71A20.77,20.77,0,0,1,359,55c.18,0,.28.12.28.22a3.77,3.77,0,0,1-.12.53,10.32,10.32,0,0,0-.08,1.83v1.79h3.21V57.56a23.73,23.73,0,0,0-.14-2.73,20.8,20.8,0,0,1,2.12.13c.2,0,.3.12.3.22a2.17,2.17,0,0,1-.14.53,10.6,10.6,0,0,0-.08,1.87v1.75h.3c1.74,0,2.32,0,2.46,0s.2,0,.2.21v1.56c0,.2,0,.23-.2.23s-.72,0-2.46,0h-.3v2.63c0,2.22,0,3.33,0,3.45s0,.21-.22.21h-1.66c-.2,0-.22,0-.22-.21v-.92h-3.21v1c0,.19,0,.21-.22.21h-1.66c-.18,0-.2,0-.2-.21s0-1.2,0-3.38V61.25H354v8.21h9.47c2,0,2.64,0,2.76,0s.22,0,.22.22v1.61c0,.2,0,.21-.22.21s-.8,0-2.76,0H354v.88c0,.2,0,.23-.24.23H352c-.2,0-.22,0-.22-.23s0-1,0-2.76V61.25Zm10.58,0h-3.21V64.6h3.21Z"/><path class="cls-1" d="M31.09,92.34a25,25,0,0,1-2.5,8.62,3.8,3.8,0,0,1-3.4,2.3c-1.77,0-3.55-1.88-3.55-5.14a7.37,7.37,0,0,1,2.26-5.2,8.79,8.79,0,0,1,6.51-2.56c4.81,0,7.63,3,7.63,6.94,0,3.72-2.1,6.06-6.17,7.28-.42.12-.6,0-.86-.36a4.24,4.24,0,0,0-1.4-1.26c3.39-.8,6-2.2,6-6a4.54,4.54,0,0,0-4.49-4.64Zm-5.74,1.94A5.77,5.77,0,0,0,23.78,98c0,1.84.75,2.86,1.37,2.86s1-.26,1.5-1.22a22.85,22.85,0,0,0,2.12-7.16A6,6,0,0,0,25.35,94.28Z"/><path class="cls-1" d="M49.14,90.4A15,15,0,0,0,49,87.84c.74,0,1.54.06,2.22.14.18,0,.34.1.34.24a.91.91,0,0,1-.1.4,4.76,4.76,0,0,0-.16,1.62v1.5h3.88c1.93,0,2.59,0,2.73,0s.22,0,.22.22,0,.74,0,2.48v2.32c0,3.2,0,3.78,0,3.9s0,.22-.22.22H56.18c-.2,0-.22,0-.22-.22v-.84H51.28v2.46c0,2.38,0,3.6,0,3.7s0,.22-.22.22H49.32c-.2,0-.22,0-.22-.22s0-1.3,0-3.66v-2.5H44.71v.92c0,.22,0,.24-.22.24h-1.7c-.2,0-.22,0-.22-.24s0-.72,0-3.92V94.72c0-2,0-2.68,0-2.8s0-.22.22-.22.8,0,2.72,0h3.63Zm-4.43,7.44h4.43V93.68H44.71Zm6.57-4.16v4.16H56V93.68Z"/><path class="cls-1" d="M72.14,92.34a25,25,0,0,1-2.5,8.62,3.8,3.8,0,0,1-3.4,2.3c-1.77,0-3.55-1.88-3.55-5.14A7.37,7.37,0,0,1,65,92.92a8.79,8.79,0,0,1,6.51-2.56c4.81,0,7.63,3,7.63,6.94,0,3.72-2.1,6.06-6.17,7.28-.42.12-.6,0-.86-.36a4.24,4.24,0,0,0-1.4-1.26c3.39-.8,6-2.2,6-6a4.54,4.54,0,0,0-4.49-4.64ZM66.4,94.28A5.77,5.77,0,0,0,64.83,98c0,1.84.75,2.86,1.37,2.86s1-.26,1.5-1.22a22.85,22.85,0,0,0,2.12-7.16A6,6,0,0,0,66.4,94.28Z"/><path class="cls-1" d="M86.8,91.38c1.54,0,2,0,2.14,0s.22,0,.22.22V93c0,.22,0,.24-.22.24s-.6,0-2.14,0H84.7c-1.54,0-2,0-2.14,0s-.22,0-.22-.24V91.56c0-.2,0-.22.22-.22s.6,0,2.14,0Zm7.27,14.82c-.2,0-.22,0-.22-.22,0-.38.08-2.54.1-5a15.27,15.27,0,0,1-3.6,3.84c-.22.18-.34.26-.44.26s-.2-.12-.41-.42a9,9,0,0,0-.76-.9c0,1.32,0,1.74,0,1.84s0,.22-.2.22H87.12c-.2,0-.22,0-.22-.22v-.54H85V106c0,.2,0,.22-.22.22H83.36c-.22,0-.24,0-.24-.22s0-.6,0-3V101.7c0-1.26,0-1.74,0-1.88s0-.22.24-.22.54,0,1.82,0h1.54c1.28,0,1.7,0,1.84,0s.2,0,.2.22,0,.6,0,1.54v2.14a13,13,0,0,0,4.11-3.68h-.66c-1.9,0-2.57,0-2.69,0s-.22,0-.22-.22v-1.4c0-.2,0-.22.22-.22s.79,0,2.69,0h1.7V96.64h-1c-1.76,0-2.34,0-2.48,0s-.22,0-.22-.22,0-.68,0-2V90.82c0-1.32,0-1.88,0-2s0-.24.22-.24.72,0,2.48,0h4c1.77,0,2.37,0,2.51,0s.22,0,.22.24,0,.68,0,2v3.64c0,1.32,0,1.9,0,2s0,.22-.22.22-.74,0-2.51,0H95.77v1.42h1.94c1.93,0,2.59,0,2.71,0s.22,0,.22.22v1.4c0,.2,0,.22-.22.22s-.78,0-2.71,0h-.88a12.3,12.3,0,0,0,4.25,3.38,6.24,6.24,0,0,0-.9,1.3c-.16.3-.22.42-.34.42s-.2-.1-.44-.26a13.43,13.43,0,0,1-3.67-3.78c0,2.5.1,4.7.1,5.1,0,.2,0,.22-.22.22ZM86.7,88.64c1.28,0,1.68,0,1.8,0s.24,0,.24.22v1.34c0,.2,0,.22-.24.22s-.52,0-1.8,0H85.22c-1.3,0-1.7,0-1.82,0s-.22,0-.22-.22V88.82c0-.2,0-.22.22-.22s.52,0,1.82,0Zm-.06,5.6c1.2,0,1.56,0,1.68,0s.24,0,.24.22V95.7c0,.2,0,.22-.24.22s-.48,0-1.68,0H85.3c-1.22,0-1.58,0-1.7,0s-.22,0-.22-.22V94.42c0-.2,0-.22.22-.22s.48,0,1.7,0Zm0,2.68c1.2,0,1.56,0,1.68,0s.24,0,.24.22v1.28c0,.2,0,.22-.24.22s-.48,0-1.68,0H85.3c-1.22,0-1.58,0-1.7,0s-.22,0-.22-.22V97.1c0-.2,0-.22.22-.22s.48,0,1.7,0ZM85,101.3v2.12h1.9V101.3Zm9-9.36V90.26h-1.9v1.68Zm0,3.12V93.42h-1.9v1.64Zm1.78-4.8v1.68h2V90.26Zm2,3.16h-2v1.64h2Z"/><path class="cls-1" d="M117.56,100.5c.12-.1.18-.14.26-.14s.1,0,.18.1a8.65,8.65,0,0,0,3.12,1.74,4.1,4.1,0,0,0-.7.88c-.24.42-.28.46-.4.52.46,0,1-.1,1.48-.18a6.53,6.53,0,0,0-.56,1.44c-.12.66-.12.66-.76.7-2,.18-4,.22-6.21.22-3.1,0-5.26-.36-6.74-1.24a5.88,5.88,0,0,1-1.87-1.7,11.11,11.11,0,0,1-1,2.64c-.16.26-.24.38-.34.38s-.2-.08-.4-.28a6,6,0,0,0-1.18-.82,9.47,9.47,0,0,0,1.68-5.18,10,10,0,0,0,0-1.12c.54.06,1.12.18,1.66.28.24,0,.34.12.34.22a.65.65,0,0,1-.12.36,1.55,1.55,0,0,0-.14.56l-.14,1.08a5.4,5.4,0,0,0,1.31,1.46v-4.7h-1.51c-1.72,0-2.3,0-2.42,0s-.2,0-.2-.22V96.18c0-.2,0-.22.2-.22s.7,0,2.42,0h3.81c1.72,0,2.3,0,2.42,0s.22,0,.22.22v1.36c0,.2,0,.22-.22.22s-.7,0-2.42,0h-.42v1.7h.88c1.08,0,1.36,0,1.48,0s.22,0,.22.22v1.3c0,.2,0,.22-.22.22s-.4,0-1.48,0h-.88v2.3a17.59,17.59,0,0,0,5,.52,55.08,55.08,0,0,0,6-.3,1.57,1.57,0,0,1-.46-.16,11,11,0,0,1-2.78-2c-.16-.16-.12-.22.08-.38Zm-8.73-11.86c1.5,0,2,0,2.14,0s.2,0,.2.22,0,.6,0,1.74V93c0,1.16,0,1.64,0,1.76s0,.22-.2.22-.64,0-2.14,0h-2.65c-1.5,0-2,0-2.16,0s-.22,0-.22-.22,0-.6,0-1.76V90.56c0-1.14,0-1.62,0-1.74s0-.22.22-.22.66,0,2.16,0Zm.42,2.48V90H105.7v1.08Zm0,1.34H105.7V93.6h3.55Zm6.13,8.74c.14.12.22.18.22.3s-.1.2-.24.26a1.66,1.66,0,0,0-.42.32,12.89,12.89,0,0,1-2.45,1.48,1.44,1.44,0,0,1-.48.16c-.14,0-.2-.12-.36-.36a4.62,4.62,0,0,0-.74-.92,9.58,9.58,0,0,0,2.64-1.42,4,4,0,0,0,.64-.66A11.32,11.32,0,0,1,115.38,101.2Zm-.87-10.84c-1.72,0-2.3,0-2.42,0s-.24,0-.24-.2V88.82c0-.2,0-.22.24-.22s.7,0,2.42,0h3.85c1.72,0,2.3,0,2.42,0s.22,0,.22.22V90.2c0,.18,0,.2-.22.2s-.7,0-2.42,0h-1.1a10.45,10.45,0,0,1-.5,1.3h.9c1.52,0,2,0,2.16,0s.22,0,.22.22,0,.7,0,2.1v4.12c0,1.38,0,2,0,2.1s0,.22-.22.22-.64,0-2.16,0h-2.72c-1.53,0-2,0-2.15,0s-.22,0-.22-.22,0-.72,0-2.1V93.94c0-1.4,0-2,0-2.1s0-.22.22-.22.6,0,2,0a11,11,0,0,0,.44-1.3Zm-.1,3.78h3.75v-1h-3.75Zm3.75,2.36V95.44h-3.75V96.5Zm0,1.3h-3.75v1.12h3.75Z"/><path class="cls-1" d="M131.52,97.82a35.54,35.54,0,0,1-4.13-.08c-.22,0-.3-.08-.32-.34a11.94,11.94,0,0,1-.12-1.7,28.22,28.22,0,0,0,4.51.16c0-.76,0-1.54,0-2.3a33,33,0,0,1-4.79-.1c-.22,0-.32-.08-.34-.28-.06-.5-.1-1-.14-1.8a45.81,45.81,0,0,0,5.25.2c0-.74,0-1.26,0-1.94a5.75,5.75,0,0,0-.24-1.34,11.59,11.59,0,0,1,2.52.36.41.41,0,0,1,.22.6,2.57,2.57,0,0,0-.3,1c0,.4,0,.68,0,1.28a33.65,33.65,0,0,0,4.38-.6c.24-.06.32,0,.34.24a10.69,10.69,0,0,1,.1,1.46c0,.26-.06.3-.22.32a40.91,40.91,0,0,1-4.62.52c0,.8,0,1.54,0,2.26,1.52-.1,2.48-.3,3.92-.52.24-.06.3,0,.32.16,0,.38.06,1,.06,1.64,0,.2-.08.26-.3.28a36.22,36.22,0,0,1-3.92.48c0,.92.08,1.9.14,2.82A17.83,17.83,0,0,1,139,103c.21.18.21.24.15.48a6.4,6.4,0,0,1-.89,1.48.29.29,0,0,1-.26.16.31.31,0,0,1-.22-.1,15.87,15.87,0,0,0-4-2.28c0,2.16-1.32,3-4.07,3s-4.08-1.14-4.08-2.8,1.58-2.84,4-2.84c.5,0,1,0,1.93.08C131.58,99.32,131.54,98.5,131.52,97.82Zm-1.73,4c-1.46,0-2.16.42-2.16,1.06s.6.9,2,.9a2.5,2.5,0,0,0,1.83-.6,1.92,1.92,0,0,0,.22-1.12A8.72,8.72,0,0,0,129.79,101.86Z"/><path class="cls-1" d="M154.18,92.6c-2.44.46-4.58.88-6.72,1.32-.77.18-1,.22-1.27.32a1.17,1.17,0,0,1-.44.16.47.47,0,0,1-.38-.3,13.94,13.94,0,0,1-.74-2.16,28,28,0,0,0,3.19-.34c2.46-.36,6.86-1,12-1.7.3,0,.4.08.42.22a11.43,11.43,0,0,1,.22,1.76c0,.24-.12.3-.38.3a8.92,8.92,0,0,0-2.44.44c-3.41,1.16-5.11,3.5-5.11,5.9,0,2.58,1.84,4,5.33,4.2.32,0,.44.08.44.3a7.11,7.11,0,0,1-.22,1.72c-.06.3-.14.42-.38.42-3.53,0-7.39-2-7.39-6.18,0-2.84,1.42-4.76,3.84-6.34Zm4,2.16c.1-.08.18-.06.3,0a9.2,9.2,0,0,1,1.9,2.14.2.2,0,0,1-.06.32l-.84.62a.21.21,0,0,1-.34-.06,9.92,9.92,0,0,0-2-2.32Zm1.78-1.3c.12-.08.18-.06.3,0a8.35,8.35,0,0,1,1.9,2.06.23.23,0,0,1-.06.36l-.8.62a.21.21,0,0,1-.34-.06,9.46,9.46,0,0,0-2-2.3Z"/><path class="cls-1" d="M170.08,103.7a2.9,2.9,0,1,1-2.9-2.88A2.89,2.89,0,0,1,170.08,103.7Zm-4.56,0a1.66,1.66,0,1,0,1.66-1.66A1.63,1.63,0,0,0,165.52,103.7Z"/><path class="cls-1" d="M201,105.88a.28.28,0,0,1-.44.1,43,43,0,0,0-5.49-3c-2,1.58-4.74,2.48-8.23,3-.62.06-.64.06-.86-.5a4.91,4.91,0,0,0-.76-1.36,18.08,18.08,0,0,0,7.63-2,29.78,29.78,0,0,0-2.94-1l-.5.66c-.14.16-.24.2-.52.08l-1.23-.5c-.34-.14-.32-.22-.18-.4a14.94,14.94,0,0,0,1-1.24c.46-.7,1-1.52,1.44-2.4h-2c-1.78,0-2.38,0-2.5,0s-.22,0-.22-.22V95.58c0-.2,0-.22.22-.22s.72,0,2.5,0h3c.16-.32.32-.66.46-1a10.25,10.25,0,0,0,.7-2,21,21,0,0,1,2.14.52c.16,0,.26.14.26.26a.48.48,0,0,1-.24.36,1.74,1.74,0,0,0-.52.76l-.52,1.1h7.09c1.78,0,2.36,0,2.5,0s.22,0,.22.22V97.1c0,.2,0,.22-.22.22s-.72,0-2.5,0H199a13.4,13.4,0,0,1-2.32,4.2,58.9,58.9,0,0,1,5.32,2.58c.1.06.14.1.14.18a.53.53,0,0,1-.12.28ZM199.4,90c1.88,0,2.56,0,2.68,0s.22,0,.22.2,0,.48,0,1V92c0,1.76,0,2.06,0,2.18s0,.22-.22.22h-1.66c-.2,0-.22,0-.22-.22V91.88H187.84v2.34c0,.2,0,.22-.22.22H186c-.2,0-.22,0-.22-.22s0-.42,0-2.18v-.66c0-.7,0-1.06,0-1.18s0-.2.22-.2.8,0,2.69,0h4.18V89.8a8,8,0,0,0-.16-1.9c.74,0,1.48.06,2.16.12.22,0,.32.08.32.18a1.13,1.13,0,0,1-.12.4,3.74,3.74,0,0,0-.1,1.2V90Zm-7.17,7.24c-.4.76-.84,1.5-1.3,2.24,1.26.34,2.5.72,3.7,1.16a9.68,9.68,0,0,0,2.11-3.4Z"/><path class="cls-1" d="M209.19,95.56c.28.08.32.12.3.32a25.14,25.14,0,0,1-1.84,6.8c-.08.18-.14.24-.42.12l-1.46-.66c-.28-.14-.3-.22-.22-.38a21,21,0,0,0,1.86-6.42c0-.24.06-.24.36-.14Zm3.85,6.92c0,.46.12.74.38.86a4.44,4.44,0,0,0,1.74.2c1,0,1.58-.1,1.9-.42s.58-.92.58-3.24a6.82,6.82,0,0,0,1.66.64c.52.14.52.14.5.66-.08,2.26-.38,3.1-1.08,3.66s-1.8.84-3.72.84-2.85-.16-3.33-.48-.82-.82-.82-2V95.54a14.3,14.3,0,0,0-.12-2.28,18.1,18.1,0,0,1,2.13.2c.32,0,.44.16.44.3a.65.65,0,0,1-.12.36c-.1.18-.14.44-.14,1.42Zm-1-14.18c.16-.22.2-.24.41-.18a25.9,25.9,0,0,1,5.44,2.6c.2.12.2.16.06.4l-.84,1.44c-.16.28-.2.3-.38.18a24,24,0,0,0-5.47-2.84c-.12,0-.16-.06-.16-.12a.67.67,0,0,1,.1-.24Zm8.63,6.4c.27-.1.31-.12.4.08a27.25,27.25,0,0,1,2.71,6.12c.06.22,0,.26-.22.4l-1.52.74c-.28.14-.34.14-.4-.08a23.93,23.93,0,0,0-2.59-6.3c-.1-.18-.06-.26.2-.36Z"/><path class="cls-1" d="M233.84,89c.24.06.36.16.36.32s-.14.56-.14.84.06.88.1,1.34a28.12,28.12,0,0,0,.64,3.44l2.85-1.52A5,5,0,0,0,239,92.32a10.27,10.27,0,0,1,1.46,1.88.81.81,0,0,1,.14.42c0,.2-.12.36-.4.4a9.6,9.6,0,0,0-1.92.6A27.57,27.57,0,0,0,233.6,98c-1.74,1.14-2.36,2.08-2.36,3,0,1.18.88,1.68,3.18,1.68a35.06,35.06,0,0,0,6.11-.46c.22,0,.32,0,.36.24a17.66,17.66,0,0,1,.2,1.86c0,.22-.12.32-.36.34a42.89,42.89,0,0,1-6,.3c-3.78,0-5.79-1.24-5.79-3.84,0-2.22,1.47-3.68,3.81-5.16a30.35,30.35,0,0,1-1-4.88,9,9,0,0,0-.52-2.32A11.58,11.58,0,0,1,233.84,89Z"/><path class="cls-1" d="M249.36,100.56c-1.76,0-2.38,0-2.5,0s-.2,0-.2-.24V99.2c0-.2,0-.22.2-.22s.74,0,2.5,0h2.54a7,7,0,0,0-.72-1.16l-1.5,0c-.2,0-.22,0-.22-.22s0-.38,0-1.12V95.5c0-.68,0-.92,0-1.06s0-.22.22-.22.82,0,2.76,0h6.37c1.92,0,2.6,0,2.74,0s.22,0,.22.22,0,.38,0,1.06v1.06c0,.74,0,1,0,1.12s0,.22-.22.22l-1.92,0A13.1,13.1,0,0,1,259,99h2.86c1.77,0,2.37,0,2.49,0s.2,0,.2.22v1.16c0,.22,0,.24-.2.24s-.72,0-2.49,0Zm1.84-7.06c-1.94,0-2.6,0-2.72,0s-.22,0-.22-.22V92.2c0-.18,0-.2.22-.2s.78,0,2.72,0h3.19v-.88h-4.51c-1.82,0-2.46,0-2.58,0s-.22,0-.22-.24V89.8c0-.2,0-.22.22-.22s.76,0,2.58,0h4.51a7.15,7.15,0,0,0-.16-1.84c.74,0,1.52.06,2.2.14.18,0,.32.12.32.2a1,1,0,0,1-.14.42,3.14,3.14,0,0,0-.1,1.08h4.94c1.85,0,2.47,0,2.59,0s.22,0,.22.22v1.14c0,.22,0,.24-.22.24s-.74,0-2.59,0h-4.94V92h3.56c2,0,2.63,0,2.75,0s.22,0,.22.2v1.12c0,.2,0,.22-.22.22s-.78,0-2.75,0Zm-1.92,12.68c-.2,0-.22,0-.22-.22s0-.44,0-2.32v-.84c0-.74,0-1.1,0-1.24s0-.22.22-.22.82,0,2.78,0h7.13c2,0,2.66,0,2.81,0s.21,0,.21.22,0,.48,0,1.1v.92c0,1.84,0,2.16,0,2.28s0,.22-.21.22h-1.63c-.22,0-.24,0-.24-.22v-.46h-9V106c0,.2,0,.22-.22.22Zm1.86-2.24h9v-1.12h-9Zm8.63-8.36h-8.31v1h8.31Zm-6.45,2.28A10.84,10.84,0,0,1,254,99h3c.2-.38.38-.78.54-1.16Z"/><path class="cls-1" d="M280.42,94.76a19,19,0,0,1,.28,3.06,9.15,9.15,0,0,1-1.8,5.78,5.77,5.77,0,0,1-4.87,2.08c-3.12,0-5.21-2.22-5.21-5.68a11.12,11.12,0,0,1,1.85-5.92,8.19,8.19,0,0,1,1.2-1.46c-.66.1-1.37.16-2.25.32-.34.06-.64.2-.8.2a.4.4,0,0,1-.34-.3,13.55,13.55,0,0,1-.54-2,10.14,10.14,0,0,0,2.06,0,26,26,0,0,0,2.63-.34,3.44,3.44,0,0,0,1.4-.42.67.67,0,0,1,.32-.16.41.41,0,0,1,.28.16,5.15,5.15,0,0,1,.84,1.06,1,1,0,0,1,.18.46c0,.16-.1.28-.32.4a7.5,7.5,0,0,0-1.9,1.74,9.37,9.37,0,0,0-2.46,6c0,2.56,1.28,3.72,3,3.72a3.92,3.92,0,0,0,3.58-1.82,10.11,10.11,0,0,0,1.24-5.44,27.27,27.27,0,0,0-.12-3c0-.42-.1-.8-.14-1s-.12-.5-.22-.82-.1-.44.2-.54a12.35,12.35,0,0,1,1.51-.38c.16,0,.26.08.3.22a24.27,24.27,0,0,0,1.34,3,20.28,20.28,0,0,0,3.28,4.54.39.39,0,0,1,.12.26.63.63,0,0,1-.14.32,9,9,0,0,1-1.1,1.26.31.31,0,0,1-.22.1.38.38,0,0,1-.32-.24,22.38,22.38,0,0,1-2.76-5.16Zm1.18-6c.1-.08.18-.06.3,0A9.2,9.2,0,0,1,283.8,91a.2.2,0,0,1-.06.32l-.84.62a.21.21,0,0,1-.34-.06,9.92,9.92,0,0,0-2-2.32Zm1.78-1.3c.12-.08.18-.06.3,0a8.35,8.35,0,0,1,1.9,2.06.23.23,0,0,1-.06.36l-.8.62a.21.21,0,0,1-.34-.06,9.46,9.46,0,0,0-2-2.3Z"/><path class="cls-1" d="M298.8,101.72c0,.22-.12.32-.38.36a10.82,10.82,0,0,1-1.42.1c-.18,0-.26-.12-.26-.32,0-.72,0-1.72,0-2.44-1.79.92-2.43,1.7-2.43,2.66s.69,1.38,2.79,1.38a34.18,34.18,0,0,0,5-.4c.18,0,.26,0,.28.22a9,9,0,0,1,.18,1.64c0,.24-.06.38-.22.38a35.57,35.57,0,0,1-5,.26c-3.29,0-5-1-5-3.3,0-1.92,1.2-3.32,4.23-4.88-.06-1-.3-1.42-1.2-1.38a4.82,4.82,0,0,0-2.77,1.44,27,27,0,0,0-2,2.18c-.1.12-.16.18-.24.18a.4.4,0,0,1-.22-.14A9.51,9.51,0,0,1,289,98.34a.33.33,0,0,1-.08-.18c0-.08,0-.14.14-.22a20.44,20.44,0,0,0,4.18-5c-.94,0-2,.06-3.2.06-.18,0-.24-.1-.28-.32s-.14-1.06-.2-1.66a44.11,44.11,0,0,0,4.6,0,15.41,15.41,0,0,0,.6-1.72,4.81,4.81,0,0,0,.15-1.22,12.63,12.63,0,0,1,2.28.56.36.36,0,0,1,.24.34.39.39,0,0,1-.14.3,1.56,1.56,0,0,0-.34.48c-.12.28-.22.54-.46,1.08a32.17,32.17,0,0,0,3.64-.62c.22,0,.28,0,.32.2a6.74,6.74,0,0,1,.2,1.44c0,.2-.06.28-.34.32-1.5.22-3.22.44-4.68.6A20.77,20.77,0,0,1,294.13,95l0,0a4,4,0,0,1,2-.62,2.21,2.21,0,0,1,2.44,2.16c.78-.36,1.92-.88,2.94-1.4a6,6,0,0,0,1.52-1.08,11.85,11.85,0,0,1,1.41,1.76.79.79,0,0,1,.16.44c0,.16-.1.24-.3.28a6.69,6.69,0,0,0-1.23.3c-1.3.46-2.6.9-4.3,1.6Z"/><path class="cls-1" d="M315.32,90.36a6.6,6.6,0,0,0-1-1.62,15.74,15.74,0,0,1,2.38-.32c.52,0,.68.14.68.42a2.63,2.63,0,0,0,0,.56,8.62,8.62,0,0,0,.32,1c.24.6.42,1.08.68,1.62a30.55,30.55,0,0,0,4.19-1.24c.2-.1.26-.08.38.14a8.68,8.68,0,0,1,.5,1.54c.06.2,0,.3-.16.34a31.92,31.92,0,0,1-4,1.16,22.78,22.78,0,0,0,3.06,4.22,5.49,5.49,0,0,0,.52.44c.12.1.2.16.2.26a.63.63,0,0,1-.12.34,8,8,0,0,1-.78,1.3c-.16.22-.26.3-.4.3s-.16,0-.32-.16a6.59,6.59,0,0,0-.82-.52,9.19,9.19,0,0,0-4.25-1c-2.08,0-3.34.62-3.34,1.88,0,1.5,1.82,2.12,5,2.12a19.9,19.9,0,0,0,3.21-.28,12.22,12.22,0,0,1-.42,2.14c-.06.2-.14.24-.38.28a18,18,0,0,1-2.23.14c-4.72,0-7.26-1.5-7.26-4.14,0-2.28,2-3.88,5.26-3.88a10.31,10.31,0,0,1,3.57.54,12.68,12.68,0,0,1-2.59-3.54c-1.26.22-2.42.38-3.86.5-.54,0-1.46.1-2,.1-.18,0-.26-.12-.33-.36a15.64,15.64,0,0,1-.46-1.8,25,25,0,0,0,2.51,0,27.45,27.45,0,0,0,3.16-.38C315.92,91.7,315.64,91.12,315.32,90.36Z"/><path class="cls-1" d="M336.77,97.82a35.54,35.54,0,0,1-4.13-.08c-.22,0-.3-.08-.32-.34a11.94,11.94,0,0,1-.12-1.7,28.22,28.22,0,0,0,4.51.16c0-.76,0-1.54,0-2.3a33,33,0,0,1-4.79-.1c-.22,0-.32-.08-.34-.28-.06-.5-.1-1-.14-1.8a45.81,45.81,0,0,0,5.25.2c0-.74,0-1.26,0-1.94a5.75,5.75,0,0,0-.24-1.34,11.59,11.59,0,0,1,2.52.36.41.41,0,0,1,.22.6,2.57,2.57,0,0,0-.3,1c0,.4,0,.68,0,1.28a33.65,33.65,0,0,0,4.38-.6c.24-.06.32,0,.34.24a10.69,10.69,0,0,1,.1,1.46c0,.26-.06.3-.22.32a40.91,40.91,0,0,1-4.62.52c0,.8,0,1.54,0,2.26,1.52-.1,2.48-.3,3.92-.52.24-.06.3,0,.32.16,0,.38.06,1,.06,1.64,0,.2-.08.26-.3.28a36.22,36.22,0,0,1-3.92.48c0,.92.08,1.9.14,2.82a17.83,17.83,0,0,1,5.3,2.42c.21.18.21.24.15.48a6.4,6.4,0,0,1-.89,1.48.29.29,0,0,1-.26.16.31.31,0,0,1-.22-.1,15.87,15.87,0,0,0-4-2.28c0,2.16-1.32,3-4.07,3-2.6,0-4.08-1.14-4.08-2.8s1.58-2.84,4-2.84c.5,0,1,0,1.93.08C336.83,99.32,336.79,98.5,336.77,97.82Zm-1.73,4c-1.46,0-2.16.42-2.16,1.06s.6.9,2,.9a2.5,2.5,0,0,0,1.83-.6,1.92,1.92,0,0,0,.22-1.12A8.72,8.72,0,0,0,335,101.86Z"/><path class="cls-1" d="M359.83,91.42c.22-.06.3,0,.32.2.06.44.12,1,.14,1.44,0,.26,0,.32-.3.38a31.94,31.94,0,0,1-3.48.76c-1.36,4.44-2.38,7.5-3.66,10.82-.1.28-.22.26-.44.2s-1.19-.5-1.61-.74a.32.32,0,0,1-.16-.4,73.65,73.65,0,0,0,3.47-9.48c-1.16.12-2.57.22-3.51.22-.3,0-.38-.06-.42-.32-.08-.42-.18-1.1-.28-1.82a9.23,9.23,0,0,0,1.48.06,27.19,27.19,0,0,0,3.25-.2c.2-.8.36-1.68.5-2.5a13.76,13.76,0,0,0,.12-1.84,11.66,11.66,0,0,1,2.52.56.33.33,0,0,1,.22.32.48.48,0,0,1-.1.32,3.81,3.81,0,0,0-.42.8c-.2.72-.34,1.4-.48,1.9C357.77,92,358.85,91.7,359.83,91.42Zm-.78,9.56c.2,0,.28.08.3.28.16,1.46,1.15,1.88,3.07,1.88a29.9,29.9,0,0,0,3.36-.28c.16,0,.22,0,.24.18a12.5,12.5,0,0,1,.16,1.74c0,.24,0,.3-.32.32a23.77,23.77,0,0,1-2.72.22c-2.63,0-4-.36-4.89-1.3a3.9,3.9,0,0,1-.9-2.74A10.19,10.19,0,0,1,359.05,101Zm-.22-5.3c0-.28.06-.34.36-.4a21.09,21.09,0,0,1,3.91-.46,14.56,14.56,0,0,1,2.34.2c.28,0,.34.06.34.3a14.11,14.11,0,0,1,0,1.6c0,.34-.1.42-.38.36a13.37,13.37,0,0,0-2.48-.24,22.24,22.24,0,0,0-4,.46C358.87,96.8,358.83,96.08,358.83,95.68Z"/><path class="cls-1" d="M25.53,138c0,.14-.06.2-.26.28a4.9,4.9,0,0,1-1.39.42c-.24,0-.34,0-.46-.26a17,17,0,0,1-1.18-6.16,45.55,45.55,0,0,1,.6-6.44,21.62,21.62,0,0,0,.22-3,9.93,9.93,0,0,1,2.11.7c.32.16.44.3.44.44a.72.72,0,0,1-.12.4,11.36,11.36,0,0,0-.38,1.48,37.27,37.27,0,0,0-.76,6,17,17,0,0,0,.2,3.16c.5-1.06.86-1.74,1.34-2.86a5.81,5.81,0,0,0,.66,1.34.6.6,0,0,1,.18.38,1.5,1.5,0,0,1-.24.66,15,15,0,0,0-.9,2.44,2.44,2.44,0,0,0-.06.52Zm6.93-9.06c-1.07.08-1.83.12-2.41.12-.42,0-.94,0-1.68,0-.28,0-.44-.1-.46-.32-.08-.4-.12-.94-.22-1.82.74.08,1.74.1,2.48.1.56,0,1.5,0,2.23-.08,0-1,0-1.9-.13-2.66a6.24,6.24,0,0,0-.34-1.64,12.21,12.21,0,0,1,2.59.28c.22.06.32.16.32.32a.81.81,0,0,1-.14.4,2.44,2.44,0,0,0-.1.84v2.22c.86-.12,1.72-.26,2.56-.44.24-.06.34,0,.36.18.08.5.12,1,.16,1.5,0,.26-.08.34-.26.36-1,.18-1.84.3-2.76.4l0,3.08a10.44,10.44,0,0,1-.88,4.64,7.06,7.06,0,0,1-2.87,3.1.89.89,0,0,1-.5.18.42.42,0,0,1-.4-.18,6.6,6.6,0,0,0-1.56-1,6.49,6.49,0,0,0,3.38-3.32,11,11,0,0,0,.63-4.46Zm3.52-7.1a.21.21,0,0,1,.28.08,9.33,9.33,0,0,1,1.54,2.42c.06.14,0,.22-.12.3l-.82.42a.22.22,0,0,1-.34-.12,9.52,9.52,0,0,0-1.62-2.6Zm1.84-.84c.12-.06.18,0,.28.08a8.45,8.45,0,0,1,1.54,2.34.22.22,0,0,1-.12.34l-.8.4c-.18.08-.26,0-.32-.1a9.58,9.58,0,0,0-1.62-2.6Z"/><path class="cls-1" d="M49.1,129.78a6,6,0,0,1,3.18-.9,4.65,4.65,0,0,1,5,4.8c0,3.34-2.71,5.48-7,5.48-2.53,0-4-1.08-4-2.94A2.66,2.66,0,0,1,49,133.78a3.64,3.64,0,0,1,3.76,2.92,3,3,0,0,0,2-3,2.92,2.92,0,0,0-3.14-3,8.17,8.17,0,0,0-5.13,2.12c-.58.52-1.14,1.1-1.74,1.7-.14.14-.24.22-.34.22a.49.49,0,0,1-.3-.18A9,9,0,0,1,43,133.2c-.12-.16-.06-.3.1-.46a48.14,48.14,0,0,0,4.74-4.42C49.1,127,50,126,51,124.9c-1.2.22-2.63.5-3.87.76a6.16,6.16,0,0,0-.84.24,1.47,1.47,0,0,1-.4.1.45.45,0,0,1-.44-.34,9.58,9.58,0,0,1-.7-2.16,9.64,9.64,0,0,0,1.86,0c1.22-.12,3-.38,4.55-.68a5.31,5.31,0,0,0,1.1-.3,1,1,0,0,1,.38-.16.71.71,0,0,1,.46.16,7.57,7.57,0,0,1,1.34,1.28.69.69,0,0,1,.22.48.53.53,0,0,1-.34.48,3.23,3.23,0,0,0-.88.64c-1.46,1.42-2.8,2.82-4.32,4.28Zm0,5.7c-.58,0-1,.34-1,.76,0,.62.55,1,1.75,1a4.38,4.38,0,0,0,.92-.08C50.56,136.1,50,135.48,49.12,135.48Z"/><path class="cls-1" d="M64.79,132.4a20.9,20.9,0,0,1-1.9,1.66c-.2.16-.32.26-.42.26s-.2-.16-.32-.46a5.52,5.52,0,0,0-.7-1.42,13.84,13.84,0,0,0,5.23-5.92H64.41c-1.52,0-2,0-2.12,0s-.22,0-.22-.22v-1.48c0-.2,0-.22.22-.22s.6,0,2.12,0h.38v-.82a12.33,12.33,0,0,0-.16-2.44c.77,0,1.37.06,2.09.14.2,0,.32.12.32.2a.94.94,0,0,1-.12.42,4.24,4.24,0,0,0-.12,1.6v.9h.84a.67.67,0,0,0,.38-.08.59.59,0,0,1,.22-.08c.12,0,.32.12.74.52s.54.58.54.72a.39.39,0,0,1-.2.32,2,2,0,0,0-.46.58,20.21,20.21,0,0,1-1.7,2.92,11.4,11.4,0,0,0,2.94,2.34,4.8,4.8,0,0,0-.8,1.3c-.14.3-.24.44-.38.44s-.22-.08-.4-.24a14.93,14.93,0,0,1-1.72-1.86v5.62c0,1.48,0,2.26,0,2.36s0,.22-.24.22H65c-.22,0-.24,0-.24-.22s0-.88,0-2.36Zm6.69,6.6c-1.9,0-2.56,0-2.68,0s-.22,0-.22-.22v-1.58c0-.2,0-.22.22-.22s.78,0,2.68,0h1.68v-7.48h-.9c-1.78,0-2.4,0-2.52,0s-.2,0-.2-.2v-1.58c0-.2,0-.2.2-.2s.74,0,2.52,0h.9v-3.18a18.1,18.1,0,0,0-.16-3c.77,0,1.53.06,2.23.14.18,0,.32.1.32.2a.81.81,0,0,1-.1.42,6.53,6.53,0,0,0-.16,2.2v3.24h1.26c1.78,0,2.4,0,2.52,0s.22,0,.22.2v1.58c0,.2,0,.2-.22.2s-.74,0-2.52,0H75.29v7.48h1.82c1.9,0,2.54,0,2.66,0s.24,0,.24.22v1.58c0,.2,0,.22-.24.22s-.76,0-2.66,0Z"/><path class="cls-1" d="M87.4,127.76a23.39,23.39,0,0,1-3.62,2.16,1.31,1.31,0,0,1-.48.18c-.14,0-.2-.14-.36-.5a4.68,4.68,0,0,0-.9-1.32,16.69,16.69,0,0,0,7.68-5.82,5.63,5.63,0,0,0,.71-1.3,15.33,15.33,0,0,1,2.16.42c.24.06.36.14.36.28a.33.33,0,0,1-.2.32,1.7,1.7,0,0,0-.28.18,18,18,0,0,0,8.47,5.72,5.94,5.94,0,0,0-.86,1.5c-.14.36-.2.5-.34.5a1.38,1.38,0,0,1-.46-.16,22.13,22.13,0,0,1-3.83-2.12v1.48c0,.2,0,.22-.22.22s-.66,0-2.26,0H89.89c-1.61,0-2.15,0-2.27,0s-.22,0-.22-.22Zm-1.28,5.42c-1.88,0-2.52,0-2.64,0s-.24,0-.24-.22v-1.5c0-.2,0-.22.24-.22s.76,0,2.64,0H96.79c1.89,0,2.53,0,2.65,0s.24,0,.24.22V133c0,.2,0,.22-.24.22s-.76,0-2.65,0H90.61a37.57,37.57,0,0,1-1.79,3.76c2.09-.12,4.27-.3,6.17-.5-.46-.56-.92-1.12-1.46-1.7-.14-.16-.12-.24.12-.36l1.28-.66c.22-.12.28-.1.42,0a36.18,36.18,0,0,1,3.73,4.64c.1.16.1.24-.1.38l-1.39.9c-.12.08-.18.12-.24.12s-.1,0-.16-.14c-.34-.56-.68-1.08-1-1.56-3.32.42-7.41.76-10.81,1a1.78,1.78,0,0,0-.72.18.5.5,0,0,1-.34.12c-.14,0-.24-.1-.28-.28-.18-.66-.3-1.36-.42-2.06a15.86,15.86,0,0,0,2.18,0l.64,0a32.31,32.31,0,0,0,1.76-3.88ZM93,127.6c1.34,0,1.94,0,2.16,0a18.22,18.22,0,0,1-3.78-3.66,18.71,18.71,0,0,1-3.67,3.66c.18,0,.74,0,2.21,0Z"/><path class="cls-1" d="M107.33,124.94c1.54,0,2,0,2.14,0s.22,0,.22.22v1.42c0,.22,0,.24-.22.24s-.6,0-2.14,0h-2.11c-1.54,0-2,0-2.14,0s-.22,0-.22-.24v-1.42c0-.2,0-.22.22-.22s.6,0,2.14,0Zm7.26,14.82c-.2,0-.22,0-.22-.22,0-.38.08-2.54.1-5a15.27,15.27,0,0,1-3.6,3.84c-.22.18-.34.26-.44.26s-.2-.12-.4-.42a9,9,0,0,0-.76-.9c0,1.32,0,1.74,0,1.84s0,.22-.2.22h-1.44c-.2,0-.22,0-.22-.22v-.54h-1.91v.92c0,.2,0,.22-.22.22h-1.42c-.22,0-.24,0-.24-.22s0-.6,0-3v-1.28c0-1.26,0-1.74,0-1.88s0-.22.24-.22.54,0,1.82,0h1.55c1.28,0,1.7,0,1.84,0s.2,0,.2.22,0,.6,0,1.54v2.14a13.06,13.06,0,0,0,4.1-3.68h-.66c-1.9,0-2.56,0-2.68,0s-.22,0-.22-.22v-1.4c0-.2,0-.22.22-.22s.78,0,2.68,0h1.7V130.2h-1c-1.76,0-2.34,0-2.48,0s-.22,0-.22-.22,0-.68,0-2v-3.64c0-1.32,0-1.88,0-2s0-.24.22-.24.72,0,2.48,0h4c1.76,0,2.36,0,2.5,0s.22,0,.22.24,0,.68,0,2V128c0,1.32,0,1.9,0,2s0,.22-.22.22-.74,0-2.5,0H116.3v1.42h1.94c1.92,0,2.58,0,2.7,0s.22,0,.22.22v1.4c0,.2,0,.22-.22.22s-.78,0-2.7,0h-.88a12.26,12.26,0,0,0,4.24,3.38,6.24,6.24,0,0,0-.9,1.3c-.16.3-.22.42-.34.42s-.2-.1-.44-.26a13.4,13.4,0,0,1-3.66-3.78c0,2.5.1,4.7.1,5.1,0,.2,0,.22-.22.22Zm-7.36-17.56c1.28,0,1.68,0,1.8,0s.24,0,.24.22v1.34c0,.2,0,.22-.24.22s-.52,0-1.8,0h-1.49c-1.3,0-1.7,0-1.82,0s-.22,0-.22-.22v-1.34c0-.2,0-.22.22-.22s.52,0,1.82,0Zm-.06,5.6c1.2,0,1.56,0,1.68,0s.24,0,.24.22v1.28c0,.2,0,.22-.24.22s-.48,0-1.68,0h-1.35c-1.22,0-1.58,0-1.7,0s-.22,0-.22-.22V128c0-.2,0-.22.22-.22s.48,0,1.7,0Zm0,2.68c1.2,0,1.56,0,1.68,0s.24,0,.24.22v1.28c0,.2,0,.22-.24.22s-.48,0-1.68,0h-1.35c-1.22,0-1.58,0-1.7,0s-.22,0-.22-.22v-1.28c0-.2,0-.22.22-.22s.48,0,1.7,0Zm-1.65,4.38V137h1.91v-2.12Zm9-9.36v-1.68h-1.9v1.68Zm0,3.12V127h-1.9v1.64Zm1.79-4.8v1.68h2v-1.68Zm2,3.16h-2v1.64h2Z"/><path class="cls-1" d="M138.08,134.06c.12-.1.18-.14.26-.14s.1,0,.18.1a8.77,8.77,0,0,0,3.13,1.74,4.1,4.1,0,0,0-.7.88c-.24.42-.28.46-.4.52.46,0,1-.1,1.48-.18a6.53,6.53,0,0,0-.56,1.44c-.12.66-.12.66-.76.7-2.05.18-4,.22-6.21.22-3.1,0-5.27-.36-6.75-1.24a6,6,0,0,1-1.86-1.7,11.11,11.11,0,0,1-1,2.64c-.16.26-.24.38-.34.38s-.2-.08-.4-.28a6,6,0,0,0-1.18-.82,9.47,9.47,0,0,0,1.68-5.18,10,10,0,0,0,0-1.12c.54.06,1.12.18,1.66.28.24,0,.34.12.34.22a.65.65,0,0,1-.12.36,1.55,1.55,0,0,0-.14.56l-.14,1.08a5.37,5.37,0,0,0,1.3,1.46v-4.7h-1.5c-1.72,0-2.3,0-2.42,0s-.2,0-.2-.22v-1.36c0-.2,0-.22.2-.22s.7,0,2.42,0h3.8c1.73,0,2.31,0,2.43,0s.22,0,.22.22v1.36c0,.2,0,.22-.22.22s-.7,0-2.43,0h-.42V133h.88c1.09,0,1.37,0,1.49,0s.22,0,.22.22v1.3c0,.2,0,.22-.22.22s-.4,0-1.49,0h-.88v2.3a17.67,17.67,0,0,0,5,.52,55.33,55.33,0,0,0,6.05-.3A1.57,1.57,0,0,1,140,137a10.88,10.88,0,0,1-2.79-2c-.16-.16-.12-.22.08-.38Zm-8.73-11.86c1.51,0,2,0,2.15,0s.2,0,.2.22,0,.6,0,1.74v2.46c0,1.16,0,1.64,0,1.76s0,.22-.2.22-.64,0-2.15,0h-2.64c-1.5,0-2,0-2.16,0s-.22,0-.22-.22,0-.6,0-1.76v-2.46c0-1.14,0-1.62,0-1.74s0-.22.22-.22.66,0,2.16,0Zm.42,2.48V123.6h-3.54v1.08Zm0,1.34h-3.54v1.14h3.54Zm6.13,8.74c.14.12.22.18.22.3s-.1.2-.24.26a1.66,1.66,0,0,0-.42.32,12.49,12.49,0,0,1-2.44,1.48,1.44,1.44,0,0,1-.48.16c-.14,0-.2-.12-.36-.36a4.62,4.62,0,0,0-.74-.92,9.58,9.58,0,0,0,2.64-1.42,4,4,0,0,0,.64-.66A11.16,11.16,0,0,1,135.9,134.76ZM135,123.92c-1.72,0-2.3,0-2.42,0s-.24,0-.24-.2v-1.38c0-.2,0-.22.24-.22s.7,0,2.42,0h3.84c1.73,0,2.31,0,2.43,0s.22,0,.22.22v1.38c0,.18,0,.2-.22.2s-.7,0-2.43,0h-1.1a10.45,10.45,0,0,1-.5,1.3h.9c1.53,0,2,0,2.17,0s.22,0,.22.22,0,.7,0,2.1v4.12c0,1.38,0,2,0,2.1s0,.22-.22.22-.64,0-2.17,0h-2.72c-1.52,0-2,0-2.14,0s-.22,0-.22-.22,0-.72,0-2.1V127.5c0-1.4,0-2,0-2.1s0-.22.22-.22.6,0,2,0a11,11,0,0,0,.44-1.3Zm-.1,3.78h3.74v-1h-3.74Zm3.74,2.36V129h-3.74v1.06Zm0,1.3h-3.74v1.12h3.74Z"/><path class="cls-1" d="M155.12,135.28c0,.22-.12.32-.38.36a10.82,10.82,0,0,1-1.42.1c-.18,0-.26-.12-.26-.32,0-.72,0-1.72,0-2.44-1.78.92-2.42,1.7-2.42,2.66s.68,1.38,2.78,1.38a34.21,34.21,0,0,0,5-.4c.18,0,.26,0,.28.22a9,9,0,0,1,.18,1.64c0,.24-.06.38-.22.38a35.64,35.64,0,0,1-5,.26c-3.28,0-5-1-5-3.3,0-1.92,1.2-3.32,4.22-4.88-.06-1-.3-1.42-1.2-1.38a4.83,4.83,0,0,0-2.76,1.44,29.2,29.2,0,0,0-2,2.18c-.1.12-.16.18-.24.18a.4.4,0,0,1-.22-.14,9.51,9.51,0,0,1-1.14-1.32.33.33,0,0,1-.08-.18c0-.08,0-.14.14-.22a20.47,20.47,0,0,0,4.19-5c-.94,0-2,.06-3.21.06-.18,0-.24-.1-.28-.32s-.14-1.06-.2-1.66a44.29,44.29,0,0,0,4.61,0,15.41,15.41,0,0,0,.6-1.72,4.87,4.87,0,0,0,.14-1.22,12.63,12.63,0,0,1,2.28.56.36.36,0,0,1,.24.34.39.39,0,0,1-.14.3,1.56,1.56,0,0,0-.34.48c-.12.28-.22.54-.46,1.08a32.73,32.73,0,0,0,3.65-.62c.22,0,.28,0,.32.2a6.74,6.74,0,0,1,.2,1.44c0,.2-.06.28-.34.32-1.51.22-3.23.44-4.69.6a20.64,20.64,0,0,1-1.5,2.22l0,0a4,4,0,0,1,2-.62,2.21,2.21,0,0,1,2.44,2.16c.79-.36,1.93-.88,3-1.4a6,6,0,0,0,1.52-1.08,12.32,12.32,0,0,1,1.4,1.76.79.79,0,0,1,.16.44c0,.16-.1.24-.3.28a6.4,6.4,0,0,0-1.22.3c-1.3.46-2.6.9-4.31,1.6Z"/><path class="cls-1" d="M165.48,134.68a.43.43,0,0,1,.3-.16.4.4,0,0,1,.26.12,14.89,14.89,0,0,1,4,3.66c.12.16.14.22.14.3s0,.18-.2.32l-1.22,1c-.14.12-.22.18-.28.18s-.18,0-.28-.2a14.93,14.93,0,0,0-3.78-3.82c-.12-.08-.18-.14-.18-.2s0-.12.14-.24Z"/><path class="cls-2" d="M190.17,124.68a.63.63,0,0,0,.38-.08.46.46,0,0,1,.24-.12c.16,0,.36.12.84.56s.54.54.54.68a.48.48,0,0,1-.24.44,1.92,1.92,0,0,0-.48.74,15.27,15.27,0,0,1-1.44,2.64,8.49,8.49,0,0,0,2.54,2.32,5.27,5.27,0,0,0-1,1.46c-.1.16-.18.26-.28.26s-.18-.08-.32-.24a11.65,11.65,0,0,1-1.3-1.64v4.88c0,1.48,0,2.86,0,3s0,.22-.24.22h-1.59c-.22,0-.24,0-.24-.22s0-1.48,0-3v-4.1c-.56.6-1.14,1.16-1.74,1.7-.2.18-.34.28-.44.28s-.16-.12-.22-.32a5.16,5.16,0,0,0-.7-1.62,14,14,0,0,0,5-6H187.4c-1.46,0-1.94,0-2.06,0s-.22,0-.22-.22v-1.48c0-.2,0-.22.22-.22s.6,0,2.06,0h.22v-.82a9.94,9.94,0,0,0-.2-2.44,18.86,18.86,0,0,1,2.17.18c.2,0,.32.1.32.2a.94.94,0,0,1-.12.42,3.47,3.47,0,0,0-.18,1.56v.9Zm9.41,12.16c0,.42,0,.56.22.64a3,3,0,0,0,.66,0c.34,0,.5,0,.72-.22s.36-.78.4-2.3a3.39,3.39,0,0,0,1.28.62c.46.14.5.2.46.72a3.71,3.71,0,0,1-.82,2.52,2.88,2.88,0,0,1-2.14.6,5,5,0,0,1-2.16-.28,1.4,1.4,0,0,1-.6-1.36v-4.54h-.92c-.26,3.84-2.21,5.16-4.63,6.18a1.66,1.66,0,0,1-.48.14c-.16,0-.24-.12-.44-.42a2.94,2.94,0,0,0-1-1.12c2.68-.68,4.38-1.84,4.58-4.78l-1.8,0c-.2,0-.22,0-.22-.22s0-.86,0-2.44v-5.74c0-1.58,0-2.32,0-2.44s0-.24.22-.24.72,0,2.48,0h4c1.76,0,2.36,0,2.5,0s.22,0,.22.24,0,.86,0,2.44v5.74c0,1.58,0,2.32,0,2.44s0,.22-.22.22-.7,0-2.26,0Zm-4.89-12.76v1.42H200v-1.42Zm5.31,4.44v-1.4h-5.31v1.4Zm0,1.62h-5.31v1.44H200Z"/><path class="cls-2" d="M205.79,138.8c-.28-.16-.28-.22-.14-.38a11.53,11.53,0,0,0,2.14-3.38c.08-.22.14-.2.42-.1l1.16.44c.24.1.3.12.22.32a12.65,12.65,0,0,1-2.1,3.76c-.06.1-.1.14-.18.14a.47.47,0,0,1-.26-.1ZM213.08,124a17,17,0,0,0-.16-2.58,19.64,19.64,0,0,1,2.22.16c.2,0,.3.08.3.2a1,1,0,0,1-.08.4,3.42,3.42,0,0,0-.14,1.4v.16h4.52c1.85,0,2.49,0,2.61,0s.22,0,.22.22v1.6c0,.18,0,.2-.22.2s-.76,0-2.61,0h-4.52v1.8h2.66c1.94,0,2.64,0,2.79,0s.21,0,.21.2,0,.64,0,1.8v2.78c0,1.16,0,1.66,0,1.78s0,.22-.21.22-.85,0-2.79,0h-6.65c-2,0-2.66,0-2.78,0s-.22,0-.22-.22,0-.62,0-1.78v-2.78c0-1.16,0-1.66,0-1.8s0-.2.22-.2.82,0,2.78,0h1.85Zm-2.69,8.28h8.33v-2.9h-8.33Zm2.36,3c.27,0,.31,0,.35.22a22.25,22.25,0,0,1,.54,3.6c0,.2,0,.28-.28.3l-1.49.08c-.28,0-.34,0-.34-.2a23.37,23.37,0,0,0-.36-3.62c0-.2,0-.26.28-.28Zm3.85-.18c.26-.06.28,0,.36.18a21.23,21.23,0,0,1,1.18,3.56c0,.22,0,.26-.24.32l-1.42.3c-.3,0-.34,0-.38-.16a18.52,18.52,0,0,0-1-3.62c-.08-.18,0-.22.24-.28Zm4-.28c.26-.1.3-.12.45.06a19.19,19.19,0,0,1,2.1,3.62c.08.18.08.24-.18.36l-1.34.56c-.26.08-.3.1-.36-.08a19.18,19.18,0,0,0-1.95-3.76c-.12-.16-.06-.22.18-.32Z"/><path class="cls-2" d="M237.22,135.28c0,.22-.12.32-.38.36a10.82,10.82,0,0,1-1.42.1c-.18,0-.26-.12-.26-.32,0-.72,0-1.72,0-2.44-1.78.92-2.42,1.7-2.42,2.66s.68,1.38,2.78,1.38a34.32,34.32,0,0,0,5-.4c.18,0,.26,0,.28.22a9,9,0,0,1,.18,1.64c0,.24-.06.38-.22.38a35.64,35.64,0,0,1-5,.26c-3.28,0-5-1-5-3.3,0-1.92,1.2-3.32,4.22-4.88-.06-1-.3-1.42-1.2-1.38A4.83,4.83,0,0,0,231,131a29.2,29.2,0,0,0-2,2.18c-.1.12-.16.18-.24.18a.4.4,0,0,1-.22-.14,9.51,9.51,0,0,1-1.14-1.32.33.33,0,0,1-.08-.18c0-.08,0-.14.14-.22a20.47,20.47,0,0,0,4.19-5c-.94,0-2,.06-3.21.06-.18,0-.24-.1-.28-.32s-.14-1.06-.2-1.66a44.29,44.29,0,0,0,4.61,0,15.41,15.41,0,0,0,.6-1.72,4.87,4.87,0,0,0,.14-1.22,12.63,12.63,0,0,1,2.28.56.36.36,0,0,1,.24.34.39.39,0,0,1-.14.3,1.56,1.56,0,0,0-.34.48c-.12.28-.22.54-.46,1.08a32.73,32.73,0,0,0,3.65-.62c.22,0,.28,0,.32.2a6.74,6.74,0,0,1,.2,1.44c0,.2-.06.28-.34.32-1.51.22-3.23.44-4.69.6a20.64,20.64,0,0,1-1.5,2.22l0,0a4,4,0,0,1,2-.62,2.21,2.21,0,0,1,2.44,2.16c.79-.36,1.93-.88,2.95-1.4a6,6,0,0,0,1.52-1.08,12.32,12.32,0,0,1,1.4,1.76.79.79,0,0,1,.16.44c0,.16-.1.24-.3.28a6.4,6.4,0,0,0-1.22.3c-1.3.46-2.6.9-4.31,1.6Z"/><path class="cls-2" d="M249.22,126.9a4.09,4.09,0,0,0,.5-1.08,10,10,0,0,1,1.6.76c.14.08.26.22.26.32a.4.4,0,0,1-.18.36,1.83,1.83,0,0,0-.56.6,13.79,13.79,0,0,1-2.34,2.72c-.22.18-.34.28-.46.28s-.26-.14-.5-.4a5.32,5.32,0,0,0-1-.84A9,9,0,0,0,249.22,126.9Zm9.43,5.08a1.3,1.3,0,0,0,.6-.08.66.66,0,0,1,.32-.1c.2,0,.3.14.82.64s.56.68.56.86a.4.4,0,0,1-.28.4,2.52,2.52,0,0,0-.62.5,18.52,18.52,0,0,1-2.5,2.12,27,27,0,0,0,7.29,1.28,5.11,5.11,0,0,0-.72,1.44c-.2.62-.2.62-.82.56a22.49,22.49,0,0,1-7.69-2.1,22.43,22.43,0,0,1-7.33,2.16c-.62.06-.62.06-.88-.52a4.29,4.29,0,0,0-.7-1.18,24.84,24.84,0,0,0,7.05-1.58,13,13,0,0,1-2-1.72,16.22,16.22,0,0,1-2.9,1.78,1.52,1.52,0,0,1-.44.18c-.14,0-.24-.14-.42-.48a3.85,3.85,0,0,0-.9-1,13.49,13.49,0,0,0,6-4.3,3.52,3.52,0,0,0,.52-.88,11.49,11.49,0,0,1,1.71.5c.18.08.28.16.28.3s-.1.24-.3.34a3.42,3.42,0,0,0-.52.58,2,2,0,0,1-.26.32Zm-3.72-6.64c-.14,3.2-1.21,4.74-3.45,6a1.36,1.36,0,0,1-.52.22c-.12,0-.22-.12-.44-.38a3.66,3.66,0,0,0-1.08-.8c2.38-1.12,3.4-2,3.5-5H249.7c-1.82,0-2.44,0-2.56,0s-.22,0-.22-.22v-1.48c0-.18,0-.2.22-.2s.74,0,2.56,0h4.77v-.28a9.21,9.21,0,0,0-.14-1.88c.7,0,1.44.06,2.14.12.2,0,.3.1.3.2a.9.9,0,0,1-.1.38,3.12,3.12,0,0,0-.1,1.16v.3h4.88c1.83,0,2.45,0,2.57,0s.22,0,.22.2v1.48c0,.2,0,.22-.22.22s-.74,0-2.57,0h-2.6V127c0,1.08,0,1.64,0,2.08a1.57,1.57,0,0,1-.66,1.46,2.91,2.91,0,0,1-1.72.36c-.64,0-.64,0-.8-.6a5.44,5.44,0,0,0-.52-1.22,6.22,6.22,0,0,0,1,.1c.54,0,.7-.22.7-.7v-3.16Zm-1.77,8.16,0,0a13.35,13.35,0,0,0,2.49,1.88,12,12,0,0,0,2.46-1.92Zm8-7.44a.62.62,0,0,1,.22-.1c.08,0,.12,0,.22.12a13.59,13.59,0,0,1,2.69,3.4c.1.18.08.24-.16.38l-1.22.76a.55.55,0,0,1-.24.1s-.08,0-.14-.14A15,15,0,0,0,260,127c-.14-.16-.14-.22.08-.36Z"/><path class="cls-2" d="M273.63,127.54c1.54-.24,2.66-.46,3.48-.64a2.91,2.91,0,0,0,.8-.32.76.76,0,0,1,.44-.14c.12,0,.18,0,.35.14a4.7,4.7,0,0,1,1.18,1.06.75.75,0,0,1,.22.46.54.54,0,0,1-.36.46,3.08,3.08,0,0,0-.64.46c-1.49,1.4-2.31,2.24-3.65,3.68a2.48,2.48,0,0,1,.72-.1,2.28,2.28,0,0,1,2.18,2c.4,1.64.73,2,2.21,2a13.46,13.46,0,0,0,3.1-.36c.22,0,.32.08.36.3a10.44,10.44,0,0,1,.14,1.76c0,.2-.1.28-.36.32a17.47,17.47,0,0,1-2.94.26c-2.95,0-3.91-.78-4.33-2.76-.32-1.36-.56-1.92-1.26-1.92a2.85,2.85,0,0,0-1.88,1c-.9.92-2.36,2.68-3.05,3.52a.35.35,0,0,1-.28.14.37.37,0,0,1-.22-.08,10.93,10.93,0,0,1-1.4-1.22.32.32,0,0,1-.1-.2.49.49,0,0,1,.16-.32l3.79-3.84c.78-.8,1.82-2,4-4.26-1.5.4-2.84.72-4.16,1.06a7.74,7.74,0,0,0-1.08.36.9.9,0,0,1-.43.12c-.13,0-.24-.1-.34-.34a14.14,14.14,0,0,1-.8-2.24A22.29,22.29,0,0,0,273.63,127.54Zm5.59-4.28c.2,0,.28.16.22.44a12.13,12.13,0,0,1-.54,1.64c-.07.16-.19.26-.35.22a30.81,30.81,0,0,1-5.58-1.68.27.27,0,0,1-.18-.36,17.67,17.67,0,0,1,.68-1.86A36.24,36.24,0,0,0,279.22,123.26Z"/><path class="cls-2" d="M295.4,129.78a6,6,0,0,1,3.18-.9,4.65,4.65,0,0,1,5,4.8c0,3.34-2.71,5.48-7,5.48-2.53,0-4.05-1.08-4.05-2.94a2.66,2.66,0,0,1,2.83-2.44,3.64,3.64,0,0,1,3.76,2.92,3,3,0,0,0,2-3,2.92,2.92,0,0,0-3.14-3,8.17,8.17,0,0,0-5.13,2.12c-.58.52-1.14,1.1-1.74,1.7-.14.14-.24.22-.34.22a.49.49,0,0,1-.3-.18,9,9,0,0,1-1.18-1.3c-.12-.16-.06-.3.1-.46a48.14,48.14,0,0,0,4.74-4.42c1.25-1.28,2.19-2.28,3.11-3.42-1.2.22-2.63.5-3.87.76a6.16,6.16,0,0,0-.84.24,1.47,1.47,0,0,1-.4.1.45.45,0,0,1-.44-.34,9.58,9.58,0,0,1-.7-2.16,9.64,9.64,0,0,0,1.86,0c1.22-.12,3-.38,4.55-.68a5.31,5.31,0,0,0,1.1-.3,1,1,0,0,1,.38-.16.71.71,0,0,1,.46.16,7.57,7.57,0,0,1,1.34,1.28.69.69,0,0,1,.22.48.53.53,0,0,1-.34.48,3.23,3.23,0,0,0-.88.64c-1.46,1.42-2.8,2.82-4.32,4.28Zm0,5.7c-.59,0-1,.34-1,.76,0,.62.55,1,1.75,1a4.38,4.38,0,0,0,.92-.08C296.86,136.1,296.26,135.48,295.42,135.48Z"/><path class="cls-2" d="M320.19,136.7c0,.38.06.58.22.7s.56.2,1.46.2,1.34-.1,1.58-.32.42-.7.5-2a4.33,4.33,0,0,0,1.36.56c.54.14.58.16.5.68-.2,1.42-.46,2-1.06,2.4a5.5,5.5,0,0,1-2.88.5c-1.64,0-2.58-.08-3.11-.44s-.62-.68-.62-1.68V134h-2.46c-.56,2.78-2.1,4.28-5.41,5.48a1.7,1.7,0,0,1-.44.14c-.16,0-.24-.14-.44-.5a4.6,4.6,0,0,0-1-1.3c3.13-.82,4.57-1.76,5.15-3.82H312c-1.91,0-2.57,0-2.69,0s-.24,0-.24-.22v-1.44c0-.2,0-.22.24-.22s.78,0,2.69,0h1.8c0-.44,0-.92,0-1.46v-.68l-1.3,0c-.22,0-.24,0-.24-.22v-.76a26.58,26.58,0,0,1-2.69,1.48,1.38,1.38,0,0,1-.46.16c-.16,0-.24-.16-.42-.52a4.38,4.38,0,0,0-.82-1.1,22.5,22.5,0,0,0,3.71-1.84,16.68,16.68,0,0,0-2-1.94c-.1-.08-.16-.14-.16-.2s.06-.1.16-.18l1-.8c.18-.14.22-.18.4,0a25,25,0,0,1,2.19,2,12,12,0,0,0,2.24-2.38H313.2c-1.5,0-2,0-2.11,0s-.24,0-.24-.22v-1.38c0-.2,0-.22.24-.22s.61,0,2.11,0H316c1.12,0,1.68,0,1.82,0s.24,0,.34.24A6.2,6.2,0,0,0,319,124a3.35,3.35,0,0,0,.29.4,10,10,0,0,0,1.2-1.28,5.09,5.09,0,0,0,.56-.84,14.85,14.85,0,0,1,1.54.92c.18.12.22.22.22.32s-.08.22-.26.3a2,2,0,0,0-.68.54,17.73,17.73,0,0,1-1.38,1.32c.36.32.72.64,1.1.92a17,17,0,0,0,1.7-1.66,4.92,4.92,0,0,0,.56-.86c.58.32,1.1.62,1.56.92.18.12.24.22.24.34s-.1.22-.26.28a1.83,1.83,0,0,0-.7.54c-.44.44-1,.92-1.54,1.42a19.2,19.2,0,0,0,3.26,1.36,5.57,5.57,0,0,0-.72,1.26c-.16.38-.22.52-.38.52a1.22,1.22,0,0,1-.46-.14,21,21,0,0,1-3.08-1.6v.94c0,.2,0,.22-.22.22l-1.4,0v2.14h2c1.92,0,2.56,0,2.7,0s.22,0,.22.22v1.44c0,.2,0,.22-.22.22s-.78,0-2.7,0h-2Zm.68-8.4a13.67,13.67,0,0,1-3.63-4,14.91,14.91,0,0,1-3.76,4Zm-2.73,3.9v-2.14h-2.2v.68c0,.52,0,1,0,1.46Z"/><path class="cls-2" d="M332.42,123.24a8.62,8.62,0,0,0-.12-1.78c.7,0,1.28,0,1.94.1.18,0,.26.08.26.2a1.24,1.24,0,0,1-.08.32,3.8,3.8,0,0,0-.1,1.14v.88h.26c1.61,0,2.11,0,2.23,0s.24,0,.24.22v1.42c0,.2,0,.22-.24.22s-.62,0-2.23,0h0a10.7,10.7,0,0,0,2.77,2.9,5,5,0,0,0-.7,1.18c-.12.28-.2.42-.32.42s-.22-.1-.41-.3a9.83,9.83,0,0,1-1.64-2.22c0,2.52.1,4.34.1,4.72,0,.22,0,.24-.22.24H332.6c-.2,0-.22,0-.22-.24s.06-2,.08-4.32a10.94,10.94,0,0,1-2.4,3.06c-.18.16-.3.24-.4.24s-.24-.14-.4-.44a4.61,4.61,0,0,0-.86-1.18,11.37,11.37,0,0,0,3.7-4.06h-.66c-1.62,0-2.14,0-2.26,0s-.22,0-.22-.22v-1.42c0-.2,0-.22.22-.22s.64,0,2.26,0h1ZM329,137.74c-.26-.18-.24-.26-.12-.4a11,11,0,0,0,1.68-3.54c.06-.22.1-.2.36-.1l1.26.48c.26.1.28.14.22.36a14.52,14.52,0,0,1-1.8,4c-.06.1-.1.14-.16.14a.38.38,0,0,1-.24-.1Zm6.78-1.18c0,.4.08.66.28.78a4.46,4.46,0,0,0,1.87.22,4.92,4.92,0,0,0,2.38-.3,2.49,2.49,0,0,0,.5-1.8,5.1,5.1,0,0,0,1.5.58c.52.1.5.16.42.7-.18,1.3-.5,1.8-1.1,2.14s-1.78.5-3.88.5c-1.85,0-2.87-.12-3.35-.44s-.68-.68-.68-1.7V135a11.18,11.18,0,0,0-.12-1.66c.66,0,1.46,0,2,.1.26,0,.36.12.36.22a.69.69,0,0,1-.08.32,2.25,2.25,0,0,0-.14.9Zm7.33-14.26c1.57,0,2.09,0,2.23,0s.22,0,.22.22,0,.82,0,2.34v5.28c0,1.52,0,2.22,0,2.34s0,.24-.22.24-.66,0-2.23,0h-2.84c-1,0-1.52,0-1.84,0a13.15,13.15,0,0,1,1.94,2.26c.1.16.1.22-.12.36l-1.16.72a.55.55,0,0,1-.26.12c-.06,0-.1,0-.16-.14a11.12,11.12,0,0,0-2-2.6c-.12-.14-.1-.22.1-.34l1.06-.62c0-.16,0-.86,0-2.32v-5.28c0-1.52,0-2.2,0-2.34s0-.22.24-.22.62,0,2.2,0Zm-3.36,3h3.86v-1.36h-3.86Zm3.86,2.82v-1.34h-3.86v1.34Zm0,1.48h-3.86V131h3.86Zm.52,3.86c.24-.1.31-.08.43.08a15.54,15.54,0,0,1,2.18,3.6c.06.16,0,.22-.18.36l-1.34.78a.55.55,0,0,1-.26.12c-.06,0-.1-.06-.14-.18a12.82,12.82,0,0,0-2.07-3.76c-.14-.18-.12-.22.14-.36Z"/><path class="cls-1" d="M359.43,126.16c-2.44.46-4.58.88-6.72,1.32-.77.18-1,.22-1.27.32a1.17,1.17,0,0,1-.44.16.47.47,0,0,1-.38-.3,13.94,13.94,0,0,1-.74-2.16,28,28,0,0,0,3.19-.34c2.46-.36,6.86-1,12-1.7.3,0,.4.08.42.22a11.43,11.43,0,0,1,.22,1.76c0,.24-.12.3-.38.3a8.92,8.92,0,0,0-2.44.44c-3.41,1.16-5.11,3.5-5.11,5.9,0,2.58,1.84,4,5.33,4.2.32,0,.44.08.44.3a7.11,7.11,0,0,1-.22,1.72c-.06.3-.14.42-.38.42-3.53,0-7.39-2-7.39-6.18,0-2.84,1.42-4.76,3.84-6.34Zm4,2.16c.1-.08.18-.06.3,0a9.2,9.2,0,0,1,1.9,2.14.2.2,0,0,1-.06.32l-.84.62a.21.21,0,0,1-.34-.06,9.92,9.92,0,0,0-2-2.32Zm1.78-1.3c.12-.08.18-.06.3,0a8.35,8.35,0,0,1,1.9,2.06.23.23,0,0,1-.06.36l-.8.62a.21.21,0,0,1-.34-.06,9.46,9.46,0,0,0-2-2.3Z"/><path class="cls-1" d="M29.11,168.36c0,.9,0,1.88,0,2.68a2.08,2.08,0,0,1-.5,1.66c-.38.3-.86.4-2.16.42-.62,0-.62,0-.76-.6a4.27,4.27,0,0,0-.5-1.28c.7.06,1.24.08,1.72.08s.52-.16.52-.64V167.9h-4a12.45,12.45,0,0,1-1.18,4.82c-.14.26-.22.38-.32.38s-.16-.08-.28-.22a4.93,4.93,0,0,0-1.14-1.06c1-1.92,1.38-3.74,1.38-7.66v-2.7l-.16.18c-.16.18-.26.28-.34.28s-.18-.14-.32-.4a4.1,4.1,0,0,0-.78-1,12.64,12.64,0,0,0,2.7-4.2,5.15,5.15,0,0,0,.38-1.36,12.46,12.46,0,0,1,1.69.4c.22.06.32.16.32.28a.42.42,0,0,1-.16.32,2.11,2.11,0,0,0-.42.68h2a.94.94,0,0,0,.38-.06.5.5,0,0,1,.26-.08c.1,0,.22.06.66.42s.5.46.5.58,0,.22-.22.36a1.75,1.75,0,0,0-.4.56c-.26.54-.52,1-.78,1.48,1.18,0,1.6,0,1.72,0s.24,0,.24.22,0,.86,0,2.32Zm-3.8-8.48a15.55,15.55,0,0,0,.84-1.74h-2a19.6,19.6,0,0,1-1.05,1.74Zm-.56,6.48v-1.74H23.6c0,.62,0,1.22,0,1.74Zm0-3.28V161.4H23.6v1.68Zm1.58-1.68v1.68h1.14V161.4Zm1.14,5v-1.74H26.33v1.74Zm6.07-2.62a8,8,0,0,0-.12-1.54c.66,0,1.36.06,1.92.12.18,0,.26.08.26.2a1,1,0,0,1-.1.34,2.56,2.56,0,0,0-.1.88v.52c2,0,2.68,0,2.8,0s.22,0,.22.22v1.34c0,.22,0,.24-.22.24s-.82,0-2.8,0v1.86h.9c1.74,0,2.32,0,2.44,0s.22,0,.22.22v1.38c0,.22,0,.24-.22.24s-.7,0-2.44,0h-.9v.8c0,1.66,0,2.48,0,2.58s0,.22-.22.22H33.74c-.22,0-.24,0-.24-.22s0-.92,0-2.58v-.8H32.38c-1.75,0-2.35,0-2.47,0s-.22,0-.22-.24V168c0-.2,0-.22.22-.22s.72,0,2.47,0h1.16V166H31.67c-.14.36-.3.68-.44,1s-.24.44-.36.44a1,1,0,0,1-.46-.24,6.29,6.29,0,0,0-1.12-.48,12.78,12.78,0,0,0,1.34-3,5.23,5.23,0,0,0,.2-1.08,14.14,14.14,0,0,1,1.5.42c.23.08.33.14.33.24a.32.32,0,0,1-.06.22,1.66,1.66,0,0,0-.27.62l0,.1h1.25Zm-3.71-7.58c0-.2,0-.22.22-.22s.66,0,2.33,0h3.38c1.64,0,2.2,0,2.32,0s.26.06.24.24l0,1a10.58,10.58,0,0,1-.5,3.66,1.93,1.93,0,0,1-1.88,1,10.31,10.31,0,0,1-1.06,0c-.54-.06-.6-.06-.64-.52a3.86,3.86,0,0,0-.38-1.4,7.9,7.9,0,0,0,1.42.16c.58,0,.74-.1.86-.5a8.33,8.33,0,0,0,.22-1.88h-2.2a6.1,6.1,0,0,1-3,4.58c-.22.14-.34.22-.44.22s-.2-.12-.38-.4a3.89,3.89,0,0,0-1-1,4.36,4.36,0,0,0,2.84-3.4c-1.48,0-2,0-2.1,0s-.22,0-.22-.22Z"/><path class="cls-1" d="M42.27,160.48c.16-.2.22-.2.4-.1a15.41,15.41,0,0,1,2.88,2.08c.08.08.12.12.12.16s0,.12-.12.24l-.9,1.28c-.06.1-.1.14-.16.14s-.1,0-.18-.12a16.52,16.52,0,0,0-2.84-2.22c-.1-.06-.16-.1-.16-.14a.51.51,0,0,1,.14-.24Zm.2,9.8a37.26,37.26,0,0,0,1.82-4.68,9.4,9.4,0,0,0,1.12,1c.32.24.42.34.42.52a2,2,0,0,1-.1.44c-.56,1.6-1.16,3.14-1.78,4.48a3.77,3.77,0,0,0-.3.8c0,.16-.12.28-.24.28A.91.91,0,0,1,43,173a11.79,11.79,0,0,1-1.52-1.06A10,10,0,0,0,42.47,170.28Zm.7-14.9c.16-.18.22-.18.38-.08a17.63,17.63,0,0,1,2.92,2.14.24.24,0,0,1,.12.18c0,.06,0,.12-.12.24l-.92,1.26c-.14.2-.18.18-.34.06a17.67,17.67,0,0,0-3-2.34c-.1-.06-.14-.1-.14-.14s0-.12.14-.24Zm6,10.28c-2,0-2.67,0-2.79,0s-.22,0-.22-.22V164c0-.22,0-.24.22-.24s.8,0,2.79,0h1.54a32,32,0,0,0,.2-3.44H50c-1.85,0-2.49,0-2.59,0s-.22,0-.22-.22v-1.52c0-.2,0-.22.22-.22s.74,0,2.59,0h1v-1.16a14.16,14.16,0,0,0-.14-2.32c.7,0,1.5.08,2.18.16.2,0,.34.12.34.24a1,1,0,0,1-.14.42,2.91,2.91,0,0,0-.14,1.2v1.46h1.82c1.87,0,2.51,0,2.63,0s.22,0,.22.22,0,.62,0,1.76v3.38c1,0,1.46,0,1.56,0s.22,0,.22.24v1.48c0,.2,0,.22-.22.22s-.8,0-2.77,0h-3a10.63,10.63,0,0,0,6,5.62,5.82,5.82,0,0,0-.88,1.5c-.14.34-.22.48-.36.48a1.49,1.49,0,0,1-.48-.2A12.44,12.44,0,0,1,52.1,167,11.05,11.05,0,0,1,47,173.12a1.2,1.2,0,0,1-.5.22c-.14,0-.22-.14-.4-.46a4.24,4.24,0,0,0-1-1.24c3.08-1.56,4.67-3.4,5.35-6Zm6.44-1.86v-3.44H53c0,1.34-.08,2.46-.18,3.44Z"/><path class="cls-1" d="M68.7,156.3c.34.08.48.18.48.38a1.94,1.94,0,0,1-.2.66,12,12,0,0,0-.28,2.44c-.2,3.08-.3,5.12-.3,7.74,0,2,.24,2.48,1.84,2.48,1.78,0,4.57-1.08,7-3.68a7,7,0,0,0,.46,1.9,1.31,1.31,0,0,1,.16.48c0,.18-.08.34-.4.62a11.45,11.45,0,0,1-7.59,3c-2.56,0-3.76-1-3.76-4.08,0-3.36.18-6.24.28-8.64a13.3,13.3,0,0,0-.2-3.66A20.69,20.69,0,0,1,68.7,156.3Z"/><path class="cls-1" d="M92.81,159.62c-2.44.46-4.59.88-6.73,1.32-.76.18-1,.22-1.26.32a1.17,1.17,0,0,1-.44.16.47.47,0,0,1-.38-.3,13.94,13.94,0,0,1-.74-2.16,27.59,27.59,0,0,0,3.18-.34c2.46-.36,6.87-1,12-1.7.3,0,.4.08.42.22a11.43,11.43,0,0,1,.22,1.76c0,.24-.12.3-.38.3a8.93,8.93,0,0,0-2.45.44c-3.4,1.16-5.1,3.5-5.1,5.9,0,2.58,1.84,4,5.32,4.2.32,0,.44.08.44.3a7.11,7.11,0,0,1-.22,1.72c-.06.3-.14.42-.38.42-3.52,0-7.39-2-7.39-6.18,0-2.84,1.43-4.76,3.85-6.34Z"/><path class="cls-1" d="M106.79,158.48c.18.08.32.22.32.36a1.74,1.74,0,0,1-.16.56,9,9,0,0,0-.18,2,25.19,25.19,0,0,0,.36,4.56c.28,1.58.8,2.94,1.64,2.94.64,0,1.14-.7,1.92-2.78a7.65,7.65,0,0,0,1.28,1.54.61.61,0,0,1,.14.74c-.76,2-2,3.12-3.4,3.12-1.56,0-3.21-1.84-3.75-5.22a36.26,36.26,0,0,1-.48-5.82,10.72,10.72,0,0,0-.24-2.62A8.82,8.82,0,0,1,106.79,158.48Zm9.29,1.26a.59.59,0,0,1,.22-.08.31.31,0,0,1,.22.12,13.22,13.22,0,0,1,3.92,6.84c.06.26-.06.34-.22.44a6.79,6.79,0,0,1-1.56.8c-.24.08-.38,0-.42-.22a13.48,13.48,0,0,0-3.74-7C115.26,160.18,115.76,159.9,116.08,159.74Z"/><path class="cls-1" d="M136.22,157a.49.49,0,0,1,.16.32.4.4,0,0,1-.28.38,3.79,3.79,0,0,0-1,.7c-1.72,1.54-3.92,3.6-5.47,5.2-.18.22-.26.34-.26.44s.08.22.26.36a55,55,0,0,1,7.45,6.3.48.48,0,0,1,.14.26c0,.08,0,.14-.14.24-.46.5-1,1.08-1.38,1.38-.12.1-.2.16-.28.16s-.14-.06-.24-.18a50.56,50.56,0,0,0-7.29-6.76c-.76-.58-1.06-1-1.06-1.68s.36-1.1,1-1.76c1.7-1.84,3.37-3.5,5.09-5.38a5.77,5.77,0,0,0,1.08-1.5A15.92,15.92,0,0,1,136.22,157Z"/><path class="cls-1" d="M149.56,170.82a2.91,2.91,0,1,1-2.91-2.88A2.89,2.89,0,0,1,149.56,170.82Zm-4.57,0a1.67,1.67,0,1,0,1.66-1.66A1.63,1.63,0,0,0,145,170.82Z"/><path class="cls-1" d="M29.71,190.52a6.36,6.36,0,0,0-.24-1.46,20.32,20.32,0,0,1,2.34.28c.34.06.57.2.57.38a.87.87,0,0,1-.19.46,2.09,2.09,0,0,0-.16.58c0,.26,0,.52,0,1.28,2.17-.08,4.23-.1,6.15-.1.24,0,.28,0,.3.3,0,.5,0,1,0,1.52,0,.22-.1.28-.34.26-2.08-.06-4-.06-6.11,0,0,1.22,0,2.5,0,3.72a6.23,6.23,0,0,1,.3,2,7.47,7.47,0,0,1-3.56,6.46,1.91,1.91,0,0,1-.78.38,1.13,1.13,0,0,1-.6-.3,4.46,4.46,0,0,0-1.52-.8A6.68,6.68,0,0,0,30,201a2.31,2.31,0,0,1-1.88.8,2.77,2.77,0,0,1-2.78-3.06,2.91,2.91,0,0,1,3-3,2.45,2.45,0,0,1,1.52.4c0-.7,0-1.38,0-2-2.52.14-5.34.38-6.93.6-.44.06-.76.24-.94.24s-.28-.08-.34-.28a14,14,0,0,1-.5-2,13.19,13.19,0,0,0,2.44-.08c1.23-.1,3.81-.26,6.21-.4C29.73,191.56,29.73,191.06,29.71,190.52Zm-2.56,8.1A1.24,1.24,0,0,0,28.43,200a1.28,1.28,0,0,0,1.36-1.38,1.2,1.2,0,0,0-1.32-1.28A1.27,1.27,0,0,0,27.15,198.62Z"/><path class="cls-1" d="M43.09,197.4c.66-.52,2.1-1.76,3.58-3.1a2.52,2.52,0,0,1,1.75-.84,2.39,2.39,0,0,1,1.74.74c1.5,1.2,2.36,2,4.32,3.44a46.15,46.15,0,0,0,4.73,2.94c.2.08.3.24.2.42a8.41,8.41,0,0,1-1,1.88c-.1.14-.18.2-.26.2a.48.48,0,0,1-.28-.1c-1-.56-3.15-2.16-4.33-3.08-1.44-1.08-2.88-2.36-4.2-3.54a1.28,1.28,0,0,0-.89-.46c-.22,0-.42.18-.68.42-1,1-2.42,2.36-3.36,3.3a5,5,0,0,0-.72.88.43.43,0,0,1-.36.24.52.52,0,0,1-.38-.18,18.45,18.45,0,0,1-1.64-2.08A6.86,6.86,0,0,0,43.09,197.4Zm11.17-5.66c.1-.08.18-.06.3,0a9.2,9.2,0,0,1,1.9,2.14.2.2,0,0,1-.06.32l-.84.62a.21.21,0,0,1-.34-.06,9.92,9.92,0,0,0-2-2.32Zm1.78-1.3c.12-.08.18-.06.3,0a8.21,8.21,0,0,1,1.91,2.06.23.23,0,0,1-.06.36l-.8.62c-.16.12-.26.06-.35-.06a9.46,9.46,0,0,0-2-2.3Z"/><path class="cls-1" d="M72.28,193.18c-2.44.46-4.58.88-6.72,1.32-.77.18-1,.22-1.27.32a1.17,1.17,0,0,1-.44.16.47.47,0,0,1-.38-.3,13.94,13.94,0,0,1-.74-2.16,28,28,0,0,0,3.19-.34c2.46-.36,6.86-1,12-1.7.3,0,.4.08.42.22a11.43,11.43,0,0,1,.22,1.76c0,.24-.12.3-.38.3a8.92,8.92,0,0,0-2.44.44c-3.41,1.16-5.11,3.5-5.11,5.9,0,2.58,1.84,4,5.33,4.2.32,0,.44.08.44.3a7.11,7.11,0,0,1-.22,1.72c-.06.3-.14.42-.38.42-3.53,0-7.39-2-7.39-6.18,0-2.84,1.42-4.76,3.84-6.34Z"/><path class="cls-1" d="M87.26,190.38c.22.12.3.24.3.4a1,1,0,0,1-.14.44,4.06,4.06,0,0,0-.36,1.1,39.71,39.71,0,0,0-1,7.28c0,.8,0,1.72.06,2.56.4-.92.82-1.78,1.24-2.78a5.32,5.32,0,0,0,.7,1.26.43.43,0,0,1,.12.28.58.58,0,0,1-.12.32,11.85,11.85,0,0,0-1,3,3.78,3.78,0,0,0,0,1.06c0,.14-.06.2-.24.26a8.38,8.38,0,0,1-1.5.34c-.22.06-.3,0-.4-.24a18.63,18.63,0,0,1-.86-6.1,43.44,43.44,0,0,1,.82-7.58,10.06,10.06,0,0,0,.14-2.36A15.62,15.62,0,0,1,87.26,190.38Zm6.89,5.34a40.44,40.44,0,0,1-4.12,0c-.26,0-.35-.06-.36-.26a11,11,0,0,1-.15-1.82,29.08,29.08,0,0,0,4.57.06c0-.72,0-1.36,0-2.1a8.24,8.24,0,0,0-.26-2,11.13,11.13,0,0,1,2.42.38c.22.06.36.16.36.34a.86.86,0,0,1-.12.34,2.26,2.26,0,0,0-.16.7c0,.68,0,1.2,0,2.12.94-.08,2-.22,2.85-.36.24-.06.28,0,.32.24a8,8,0,0,1,.12,1.42c0,.18-.08.28-.22.3a22.7,22.7,0,0,1-3.09.42c0,2.24,0,3.64.14,5.36a13.14,13.14,0,0,1,3.33,1.92c.18.12.2.18.1.4a10.8,10.8,0,0,1-.92,1.54.24.24,0,0,1-.18.12.28.28,0,0,1-.18-.1,12,12,0,0,0-2.17-1.6c-.16,1.68-1.3,2.6-3.66,2.6s-3.59-1.08-3.59-2.8,1.49-2.82,3.51-2.82a8.35,8.35,0,0,1,1.6.16C94.19,198.76,94.17,197.3,94.15,195.72Zm-1.62,6.22c-.94,0-1.5.34-1.5,1s.44,1,1.62,1c1,0,1.64-.58,1.64-1.3a2.82,2.82,0,0,0,0-.4A5.57,5.57,0,0,0,92.53,201.94Z"/><path class="cls-1" d="M103.9,201.8a.43.43,0,0,1,.3-.16.4.4,0,0,1,.26.12,14.93,14.93,0,0,1,4,3.66c.12.16.14.22.14.3s0,.18-.2.32l-1.22,1c-.14.12-.22.18-.28.18s-.18,0-.28-.2a15.13,15.13,0,0,0-3.79-3.82c-.12-.08-.18-.14-.18-.2s0-.12.14-.24Z"/><path class="cls-1" d="M116,195.48c-1.75,0-2.35,0-2.47,0s-.2,0-.2-.22v-1.56c0-.2,0-.22.2-.22s.72,0,2.47,0H116V192a25.61,25.61,0,0,0-.14-2.9,18.28,18.28,0,0,1,2.18.16c.2,0,.3.12.3.22a2.58,2.58,0,0,1-.12.5,11.53,11.53,0,0,0-.08,2v1.54h3.1v-1.78a23.79,23.79,0,0,0-.14-2.72c.72,0,1.4.06,2.11.14.18,0,.28.12.28.22a3.33,3.33,0,0,1-.12.52,10.55,10.55,0,0,0-.08,1.84v1.78h3.2V191.8a23.91,23.91,0,0,0-.14-2.74c.74,0,1.42.06,2.12.14.2,0,.3.12.3.22a2,2,0,0,1-.14.52,10.83,10.83,0,0,0-.08,1.88v1.74h.3c1.74,0,2.33,0,2.47,0s.2,0,.2.22v1.56c0,.2,0,.22-.2.22s-.73,0-2.47,0h-.3v2.64c0,2.22,0,3.32,0,3.44s0,.22-.22.22h-1.66c-.2,0-.22,0-.22-.22v-.92h-3.2v1c0,.2,0,.22-.22.22h-1.67c-.18,0-.2,0-.2-.22s0-1.2,0-3.38v-2.74h-3.1v8.22h9.47c2,0,2.64,0,2.77,0s.21,0,.21.22v1.6c0,.2,0,.22-.21.22s-.81,0-2.77,0h-9.47v.88c0,.2,0,.22-.24.22h-1.72c-.2,0-.22,0-.22-.22s0-1,0-2.76v-8.3Zm10.57,0h-3.2v3.36h3.2Z"/><path class="cls-1" d="M144.37,202.3a19.92,19.92,0,0,0-.14-2.72c.64,0,1.26.06,1.84.12a12,12,0,0,1-2.22-2.52h-2.1a12.65,12.65,0,0,1-2,2.4c.54,0,1.16.08,1.66.14.24,0,.38.1.38.28a1,1,0,0,1-.12.38,2.77,2.77,0,0,0-.16.88c-.18,2.62-1.48,4.38-4.25,5.52a1.31,1.31,0,0,1-.48.16c-.16,0-.24-.14-.46-.48a4.5,4.5,0,0,0-1.08-1.14c3-.84,4.09-2.08,4.23-4.22a6.38,6.38,0,0,0,0-1.24,14.17,14.17,0,0,1-4.15,2.48,1.39,1.39,0,0,1-.48.14c-.18,0-.24-.14-.42-.5a5.09,5.09,0,0,0-.88-1.26,11.4,11.4,0,0,0,5.83-3.54h-.45c-1.94,0-2.64,0-2.78,0s-.2,0-.2-.2,0-.68,0-2v-3.52c0-1.3,0-1.86,0-2s0-.22.2-.22.84,0,2.78,0H147c2,0,2.67,0,2.79,0s.22,0,.22.22,0,.68,0,2V195c0,1.3,0,1.86,0,2s0,.2-.22.2-.82,0-2.79,0h-.8a12.34,12.34,0,0,0,6.11,3.38,5.14,5.14,0,0,0-.9,1.38c-.16.38-.22.52-.38.52a1.78,1.78,0,0,1-.46-.14,15.62,15.62,0,0,1-3.89-2.18,1.76,1.76,0,0,1-.1.3,9,9,0,0,0-.08,1.84v2c0,1.5,0,2.2,0,2.32s0,.24-.24.24h-1.72c-.2,0-.22,0-.22-.24s0-.82,0-2.32Zm-2.48-9.78V191H138v1.5Zm0,3V194H138v1.5Zm2-4.52v1.5h4V191Zm4,3h-4v1.5h4Z"/><path class="cls-1" d="M162.27,191.08a15,15,0,0,0-.16-2.56c.74,0,1.55.06,2.23.14.18,0,.34.1.34.24a.91.91,0,0,1-.1.4,4.76,4.76,0,0,0-.16,1.62v1.5h3.88c1.92,0,2.58,0,2.72,0s.22,0,.22.22,0,.74,0,2.48v2.32c0,3.2,0,3.78,0,3.9s0,.22-.22.22h-1.7c-.2,0-.22,0-.22-.22v-.84h-4.68v2.46c0,2.38,0,3.6,0,3.7s0,.22-.22.22h-1.79c-.2,0-.22,0-.22-.22s0-1.3,0-3.66v-2.5h-4.42v.92c0,.22,0,.24-.22.24h-1.7c-.2,0-.22,0-.22-.24s0-.72,0-3.92V195.4c0-2,0-2.68,0-2.8s0-.22.22-.22.8,0,2.72,0h3.62Zm-4.42,7.44h4.42v-4.16h-4.42Zm6.57-4.16v4.16h4.68v-4.16Z"/><path class="cls-1" d="M185.28,193a25,25,0,0,1-2.5,8.62,3.8,3.8,0,0,1-3.4,2.3c-1.77,0-3.55-1.88-3.55-5.14a7.37,7.37,0,0,1,2.26-5.2A8.79,8.79,0,0,1,184.6,191c4.81,0,7.63,3,7.63,6.94,0,3.72-2.1,6.06-6.17,7.28-.42.12-.6,0-.86-.36a4.24,4.24,0,0,0-1.4-1.26c3.38-.8,6-2.2,6-6a4.55,4.55,0,0,0-4.49-4.64ZM179.54,195a5.72,5.72,0,0,0-1.57,3.7c0,1.84.74,2.86,1.36,2.86s1-.26,1.51-1.22a22.85,22.85,0,0,0,2.12-7.16A6,6,0,0,0,179.54,195Z"/><path class="cls-1" d="M203.94,189.48q.36.12.36.36a.44.44,0,0,1-.1.32,1.55,1.55,0,0,0-.28.72c-.06.36-.1.66-.16,1A38.34,38.34,0,0,0,209,191c.24-.06.3,0,.34.2a6.2,6.2,0,0,1,.2,1.36c0,.26-.2.36-.42.4a42.32,42.32,0,0,1-5.69.84c-.08.84-.12,1.32-.14,2a12.09,12.09,0,0,1,3.07-.44,4.91,4.91,0,0,0,.34-1.46,8,8,0,0,1,1.78.74c.24.16.36.32.36.44a.35.35,0,0,1-.12.24,1.73,1.73,0,0,0-.26.4c2.58.68,4.1,2.38,4.1,4.88,0,2.9-2.38,4.78-5.56,5.64-.44.12-.66.06-.88-.38a5.08,5.08,0,0,0-1.18-1.24,11.51,11.51,0,0,0,3.72-1.46,3.44,3.44,0,0,0,1.6-3,3,3,0,0,0-2.48-2.9,20.92,20.92,0,0,1-3.79,5.24,6,6,0,0,0,.36.9c.12.26,0,.36-.16.5a6.36,6.36,0,0,1-1.2.7c-.2.1-.28.1-.4-.1a4,4,0,0,1-.34-.78,6.29,6.29,0,0,1-3.48,1.44,2.19,2.19,0,0,1-2.23-2.48c0-2.56,2.23-5,4.69-6.22,0-.86.06-1.74.1-2.5-1.18,0-1.72,0-2.06,0a8,8,0,0,1-1.14,0c-.22,0-.34-.12-.36-.46s-.06-1-.1-1.52a30.5,30.5,0,0,0,3.88.08c.08-.72.16-1.62.16-2.18a4.7,4.7,0,0,0-.08-.9A11,11,0,0,1,203.94,189.48Zm-5.32,12.84a.68.68,0,0,0,.66.76,4.29,4.29,0,0,0,2.32-1.16,25.93,25.93,0,0,1-.4-3.44C199.66,199.58,198.62,201,198.62,202.32Zm7.11-5.2a9.45,9.45,0,0,0-2.57.46,21.42,21.42,0,0,0,.24,3A18.4,18.4,0,0,0,205.73,197.12Z"/><path class="cls-1" d="M221.65,194.06c.22.1.32.22.32.38a.6.6,0,0,1-.1.3,3.75,3.75,0,0,0-.4,1.06,33.38,33.38,0,0,0-.48,3.64,9.75,9.75,0,0,1,6.68-3.16c2.93,0,4.67,1.7,4.67,4.28a4.9,4.9,0,0,1-3,4.48,17.49,17.49,0,0,1-5.13,1.38c-.44.06-.62,0-.8-.26a5.12,5.12,0,0,0-1.36-1.7,16.6,16.6,0,0,0,5.5-1.12c1.63-.7,2.37-1.74,2.37-3,0-1.08-.69-2.06-2.41-2.06s-3.88,1.14-5.76,3a5.47,5.47,0,0,0-.86,1.1c-.12.2-.2.2-.47.14A13.75,13.75,0,0,1,219,202c-.2-.08-.28-.12-.28-.4.12-2.32.38-4.68.62-6.46a12.46,12.46,0,0,0,.18-1.8A11.38,11.38,0,0,1,221.65,194.06Zm.5-5.06a.33.33,0,0,1,.38-.1,13.12,13.12,0,0,1,3.92,2.38c.1.08.14.14.14.22a.55.55,0,0,1-.1.24,13.1,13.1,0,0,1-1,1.4c-.08.1-.16.16-.22.16s-.14,0-.24-.14a15.84,15.84,0,0,0-4-2.6A11.66,11.66,0,0,1,222.15,189Z"/><path class="cls-1" d="M247.78,203.16A9.79,9.79,0,0,1,245,206.4a.83.83,0,0,1-.48.2.64.64,0,0,1-.4-.18,4.91,4.91,0,0,0-1.56-.82,8,8,0,0,0,3-2.8,5.1,5.1,0,0,1-1.74-1,4.34,4.34,0,0,1-1-1.36.76.76,0,0,1-.08-.26.57.57,0,0,1,.14-.32,6.47,6.47,0,0,0,.68-1.58,4.76,4.76,0,0,0,1.26,1.84,4,4,0,0,0,1.59.82,18.41,18.41,0,0,0,.36-3.7c0-1,0-1.7-.12-2.7a7,7,0,0,0-3.57,2.06,10.82,10.82,0,0,0-2.3,3.44,5.49,5.49,0,0,0-.34,2.44c0,.22-.12.3-.38.36a11.72,11.72,0,0,1-1.4.26.34.34,0,0,1-.36-.32,18.29,18.29,0,0,1-.46-4c0-1.08.1-2.86.34-5.08.06-.7.12-1.42.12-1.92a3.18,3.18,0,0,0-.06-.82,11,11,0,0,1,2.3.66.37.37,0,0,1,.28.38,1.17,1.17,0,0,1-.08.36,2.65,2.65,0,0,0-.3.78c-.3,1.46-.4,2.3-.48,3s-.1,1.18-.14,2.3a10.8,10.8,0,0,1,2.52-3.74,9.09,9.09,0,0,1,4.17-2.08c-.08-.7-.18-1.3-.28-1.82a3.88,3.88,0,0,0-.53-1.38,8.27,8.27,0,0,1,2.33.06c.36.06.46.18.46.38a4.9,4.9,0,0,0,0,.54c.1.66.2,1.4.26,2.08H249a4.94,4.94,0,0,1,4.9,5,5.36,5.36,0,0,1-2.06,4.4,6.36,6.36,0,0,1-3.66,1.2Zm2.52-2.68a3.42,3.42,0,0,0,1.36-3,2.8,2.8,0,0,0-2.86-3c.06,1.4.08,2.2.08,2.92a21.15,21.15,0,0,1-.36,3.78A3.17,3.17,0,0,0,250.3,200.48Z"/><path class="cls-1" d="M264.86,196.9A6,6,0,0,1,268,196a4.64,4.64,0,0,1,5,4.8c0,3.34-2.71,5.48-7,5.48-2.52,0-4-1.08-4-2.94a2.66,2.66,0,0,1,2.83-2.44,3.64,3.64,0,0,1,3.76,2.92,3,3,0,0,0,2.05-3,2.93,2.93,0,0,0-3.15-3,8.19,8.19,0,0,0-5.13,2.12c-.58.52-1.14,1.1-1.74,1.7-.14.14-.24.22-.34.22a.49.49,0,0,1-.3-.18,9,9,0,0,1-1.18-1.3c-.12-.16-.06-.3.1-.46a49.3,49.3,0,0,0,4.75-4.42c1.24-1.28,2.18-2.28,3.1-3.42-1.2.22-2.62.5-3.86.76a6.26,6.26,0,0,0-.85.24,1.38,1.38,0,0,1-.4.1.45.45,0,0,1-.44-.34,9.58,9.58,0,0,1-.7-2.16,9.64,9.64,0,0,0,1.86,0c1.23-.12,3-.38,4.55-.68a5.31,5.31,0,0,0,1.1-.3,1,1,0,0,1,.38-.16.71.71,0,0,1,.46.16,8,8,0,0,1,1.35,1.28.68.68,0,0,1,.21.48.53.53,0,0,1-.34.48,3.23,3.23,0,0,0-.88.64c-1.46,1.42-2.8,2.82-4.32,4.28Zm0,5.7c-.58,0-1,.34-1,.76,0,.62.54,1,1.74,1a4.38,4.38,0,0,0,.92-.08C266.32,203.22,265.72,202.6,264.88,202.6Z"/><path class="cls-1" d="M286.15,188.1v1.1h-5.08v16.36h-1.21V188.1Z"/><path class="cls-1" d="M291.29,190.12a.21.21,0,0,1,.21.21v12.52a.41.41,0,0,0,.43.43h8.54a.21.21,0,0,1,.21.21v2a.2.2,0,0,1-.21.21H290.23a1.14,1.14,0,0,1-1.13-1.14V190.33a.2.2,0,0,1,.2-.21Z"/><path class="cls-1" d="M303.94,205.68a.2.2,0,0,1-.21-.21V190.33a.21.21,0,0,1,.21-.21h2a.2.2,0,0,1,.2.21v15.14a.19.19,0,0,1-.2.21Z"/><path class="cls-1" d="M310.1,205.68a.19.19,0,0,1-.21-.21V191.26a1.15,1.15,0,0,1,1.14-1.14h10.21a.2.2,0,0,1,.21.21v2a.19.19,0,0,1-.21.2h-8.52a.43.43,0,0,0-.43.44v3.66a.09.09,0,0,0,.08.08h8.87a.2.2,0,0,1,.21.21v2a.19.19,0,0,1-.21.2h-8.87a.09.09,0,0,0-.08.08v6.29a.19.19,0,0,1-.21.21Z"/><path class="cls-1" d="M336.33,190.12a.2.2,0,0,1,.21.21v2a.19.19,0,0,1-.21.2h-8.51a.43.43,0,0,0-.44.44v3.66a.09.09,0,0,0,.08.08h8.87a.2.2,0,0,1,.21.21v2a.19.19,0,0,1-.21.2h-8.87a.09.09,0,0,0-.08.08v3.67a.42.42,0,0,0,.44.43h8.51a.2.2,0,0,1,.21.21v2a.19.19,0,0,1-.21.21H326.12a1.15,1.15,0,0,1-1.14-1.14V191.26a1.15,1.15,0,0,1,1.14-1.14Z"/><path class="cls-1" d="M339.23,207.26v-1.1h5.08V189.8h1.21v17.46Z"/><path class="cls-1" d="M361.44,202.4c0,.22-.12.32-.38.36a10.82,10.82,0,0,1-1.42.1c-.18,0-.26-.12-.26-.32,0-.72,0-1.72,0-2.44-1.78.92-2.42,1.7-2.42,2.66s.68,1.38,2.78,1.38a34.44,34.44,0,0,0,5-.4c.18,0,.26,0,.28.22a9,9,0,0,1,.18,1.64c0,.24-.06.38-.22.38a35.8,35.8,0,0,1-5,.26c-3.28,0-5-1-5-3.3,0-1.92,1.21-3.32,4.23-4.88-.06-1-.3-1.42-1.2-1.38a4.88,4.88,0,0,0-2.77,1.44,27,27,0,0,0-2,2.18c-.1.12-.16.18-.24.18a.4.4,0,0,1-.22-.14,9.51,9.51,0,0,1-1.14-1.32.33.33,0,0,1-.08-.18c0-.08,0-.14.14-.22a20.7,20.7,0,0,0,4.19-5c-.95,0-2,.06-3.21.06-.18,0-.24-.1-.28-.32s-.14-1.06-.2-1.66a44.32,44.32,0,0,0,4.61,0,15.41,15.41,0,0,0,.6-1.72,4.87,4.87,0,0,0,.14-1.22,12.63,12.63,0,0,1,2.28.56.36.36,0,0,1,.24.34.39.39,0,0,1-.14.3,1.56,1.56,0,0,0-.34.48c-.12.28-.22.54-.46,1.08a32.17,32.17,0,0,0,3.64-.62c.22,0,.28,0,.32.2a6.74,6.74,0,0,1,.2,1.44c0,.2-.06.28-.34.32-1.5.22-3.22.44-4.68.6a20.64,20.64,0,0,1-1.5,2.22l0,0a4,4,0,0,1,2-.62,2.21,2.21,0,0,1,2.44,2.16c.78-.36,1.92-.88,2.95-1.4a6,6,0,0,0,1.52-1.08,12.32,12.32,0,0,1,1.4,1.76.79.79,0,0,1,.16.44c0,.16-.1.24-.3.28a6.4,6.4,0,0,0-1.22.3c-1.3.46-2.61.9-4.31,1.6Z"/><path class="cls-1" d="M371.79,201.8a.46.46,0,0,1,.31-.16.4.4,0,0,1,.26.12,14.89,14.89,0,0,1,4,3.66c.12.16.14.22.14.3s0,.18-.2.32l-1.22,1c-.14.12-.22.18-.28.18s-.18,0-.28-.2a14.81,14.81,0,0,0-3.79-3.82c-.12-.08-.18-.14-.18-.2s0-.12.14-.24Z"/><path class="cls-1" d="M21.65,239.24a.2.2,0,0,1-.21-.21V224.82a1.15,1.15,0,0,1,1.14-1.14H32.8a.2.2,0,0,1,.2.21v2a.19.19,0,0,1-.2.2H24.28a.43.43,0,0,0-.44.44v3.66a.09.09,0,0,0,.09.08H32.8a.2.2,0,0,1,.2.21v2a.19.19,0,0,1-.2.2H23.93a.09.09,0,0,0-.09.08V239a.19.19,0,0,1-.2.21Z"/><path class="cls-1" d="M36.41,223.89a.21.21,0,0,1,.21-.21h2a.2.2,0,0,1,.2.21v7.54a5.6,5.6,0,1,0,11.2,0v-7.54a.2.2,0,0,1,.21-.21h2a.2.2,0,0,1,.21.21v7.54a8,8,0,1,1-16,0Z"/><path class="cls-1" d="M58.25,223.68a.2.2,0,0,1,.21.21v12.52a.42.42,0,0,0,.43.43h8.54a.2.2,0,0,1,.21.21v2a.19.19,0,0,1-.21.21H57.2a1.15,1.15,0,0,1-1.14-1.14V223.89a.2.2,0,0,1,.21-.21Z"/><path class="cls-1" d="M72.91,223.68a.21.21,0,0,1,.21.21v12.52a.41.41,0,0,0,.43.43h8.54a.21.21,0,0,1,.21.21v2a.2.2,0,0,1-.21.21H71.85a1.14,1.14,0,0,1-1.13-1.14V223.89a.2.2,0,0,1,.2-.21Z"/><path class="cls-1" d="M94.56,224.34c.34.18.46.3.46.48s0,.2-.3.6a4.72,4.72,0,0,0-.48,1.42,32.41,32.41,0,0,0-.84,6.46,19.29,19.29,0,0,0,.12,2.34c.42-.92.78-1.58,1.36-3a5.19,5.19,0,0,0,.7,1.26.8.8,0,0,1,.14.3.55.55,0,0,1-.1.32,19.55,19.55,0,0,0-1.14,3,2.27,2.27,0,0,0-.06.62c0,.24,0,.4,0,.56s-.08.22-.26.26a9.93,9.93,0,0,1-1.64.32c-.14,0-.22-.08-.26-.22a18.75,18.75,0,0,1-.92-6,38.18,38.18,0,0,1,.68-6.56,16.14,16.14,0,0,0,.36-3A8.85,8.85,0,0,1,94.56,224.34Zm4.29,9.42c.16,0,.2.08.2.3.12,1.38,1.08,1.88,3.26,1.88a28.67,28.67,0,0,0,3.82-.26c.2,0,.25,0,.29.26,0,.42.12,1.2.12,1.72,0,.24,0,.26-.35.3a26.85,26.85,0,0,1-3.26.22c-3,0-4.35-.48-5.21-1.66a4.41,4.41,0,0,1-.7-2.6Zm-1.13-7.48c0-.24.08-.3.28-.34a32.2,32.2,0,0,1,4.35-.36c1.2,0,2.12,0,3,.12.42,0,.46.06.46.26,0,.6,0,1.14,0,1.7,0,.18-.08.26-.26.24-1.2-.08-2.24-.12-3.26-.12a24.63,24.63,0,0,0-4.55.46C97.68,227.12,97.68,226.62,97.72,226.28Z"/><path class="cls-1" d="M119.17,224.08a6.36,6.36,0,0,0-.24-1.46,20.32,20.32,0,0,1,2.34.28c.34.06.56.2.56.38a.84.84,0,0,1-.18.46,2.09,2.09,0,0,0-.16.58c0,.26,0,.52,0,1.28,2.17-.08,4.23-.1,6.15-.1.24,0,.28,0,.3.3,0,.5,0,1,0,1.52,0,.22-.1.28-.34.26-2.08-.06-4-.06-6.11,0,0,1.22,0,2.5,0,3.72a6.23,6.23,0,0,1,.3,2,7.47,7.47,0,0,1-3.56,6.46,1.91,1.91,0,0,1-.78.38,1.13,1.13,0,0,1-.6-.3,4.46,4.46,0,0,0-1.52-.8,6.68,6.68,0,0,0,4.1-4.4,2.31,2.31,0,0,1-1.88.8,2.77,2.77,0,0,1-2.78-3.06,2.91,2.91,0,0,1,3-3,2.45,2.45,0,0,1,1.52.4c0-.7,0-1.38,0-2-2.52.14-5.35.38-6.93.6-.44.06-.76.24-.94.24s-.28-.08-.34-.28a14,14,0,0,1-.5-2,13.19,13.19,0,0,0,2.44-.08c1.22-.1,3.81-.26,6.21-.4C119.19,225.12,119.19,224.62,119.17,224.08Zm-2.56,8.1a1.24,1.24,0,0,0,1.28,1.36,1.28,1.28,0,0,0,1.36-1.38,1.2,1.2,0,0,0-1.32-1.28A1.27,1.27,0,0,0,116.61,232.18Z"/><path class="cls-1" d="M138.55,230.46a6.08,6.08,0,0,1,3.19-.9,4.65,4.65,0,0,1,5,4.8c0,3.34-2.71,5.48-7,5.48-2.53,0-4.05-1.08-4.05-2.94a2.66,2.66,0,0,1,2.83-2.44,3.64,3.64,0,0,1,3.76,2.92,3,3,0,0,0,2-3,2.92,2.92,0,0,0-3.14-3,8.17,8.17,0,0,0-5.13,2.12c-.58.52-1.14,1.1-1.74,1.7-.14.14-.24.22-.34.22a.49.49,0,0,1-.3-.18,9,9,0,0,1-1.18-1.3c-.12-.16-.06-.3.1-.46a48.14,48.14,0,0,0,4.74-4.42c1.24-1.28,2.19-2.28,3.11-3.42-1.2.22-2.63.5-3.87.76a6.16,6.16,0,0,0-.84.24,1.47,1.47,0,0,1-.4.1.45.45,0,0,1-.44-.34,9.58,9.58,0,0,1-.7-2.16,9.64,9.64,0,0,0,1.86,0c1.22-.12,3-.38,4.55-.68a5.31,5.31,0,0,0,1.1-.3,1,1,0,0,1,.38-.16.71.71,0,0,1,.46.16,7.57,7.57,0,0,1,1.34,1.28.69.69,0,0,1,.22.48.53.53,0,0,1-.34.48,3.23,3.23,0,0,0-.88.64c-1.46,1.42-2.8,2.82-4.32,4.28Zm0,5.7c-.59,0-1,.34-1,.76,0,.62.54,1,1.75,1a4.38,4.38,0,0,0,.92-.08C140,236.78,139.42,236.16,138.58,236.16Z"/><path class="cls-1" d="M161.94,225.66c.22-.06.3,0,.32.2.06.44.12,1,.14,1.44,0,.26,0,.32-.3.38a31.94,31.94,0,0,1-3.48.76c-1.36,4.44-2.38,7.5-3.67,10.82-.1.28-.22.26-.44.2s-1.18-.5-1.6-.74a.32.32,0,0,1-.16-.4,76.77,76.77,0,0,0,3.47-9.48c-1.17.12-2.57.22-3.51.22-.3,0-.38-.06-.42-.32-.08-.42-.18-1.1-.28-1.82a9.23,9.23,0,0,0,1.48.06,27.19,27.19,0,0,0,3.25-.2c.2-.8.36-1.68.5-2.5a13.76,13.76,0,0,0,.12-1.84,11.66,11.66,0,0,1,2.52.56.33.33,0,0,1,.22.32.48.48,0,0,1-.1.32,3.81,3.81,0,0,0-.42.8c-.2.72-.34,1.4-.48,1.9C159.88,226.2,161,225.94,161.94,225.66Zm-.78,9.56c.2,0,.28.08.3.28.16,1.46,1.14,1.88,3.07,1.88a29.9,29.9,0,0,0,3.36-.28c.16,0,.22,0,.24.18a12.5,12.5,0,0,1,.16,1.74c0,.24,0,.3-.32.32a23.77,23.77,0,0,1-2.72.22c-2.63,0-4-.36-4.89-1.3a3.9,3.9,0,0,1-.9-2.74A10.19,10.19,0,0,1,161.16,235.22Zm-.22-5.3c0-.28.06-.34.36-.4a20.89,20.89,0,0,1,3.91-.46,14.56,14.56,0,0,1,2.34.2c.28,0,.34.06.34.3a14.11,14.11,0,0,1,0,1.6c0,.34-.1.42-.38.36a13.37,13.37,0,0,0-2.48-.24,22.14,22.14,0,0,0-4,.46C161,231,160.94,230.32,160.94,229.92Z"/><path class="cls-1" d="M182,224.5a5.17,5.17,0,0,0,0-1.36,8.28,8.28,0,0,1,2.36.8c.22.1.32.22.32.36a.69.69,0,0,1-.14.34,3.3,3.3,0,0,0-.4.74c-.12.32-.3.8-.56,1.6,3.16.5,5.35,2.62,5.35,5.8,0,3.56-2.17,5.7-6.15,6.68-.44.1-.58,0-.82-.34a4.09,4.09,0,0,0-1.3-1.32c2.72-.56,6-1.8,6-5.28a3.73,3.73,0,0,0-3.6-3.78,36,36,0,0,1-2.92,5.84,7.06,7.06,0,0,0,.86,1,5.73,5.73,0,0,1-1.24,1.22.51.51,0,0,1-.29.1.43.43,0,0,1-.28-.12c-.16-.16-.32-.32-.54-.58-1.3,1.38-2.26,1.9-3.34,1.9-1.52,0-2.62-1.24-2.62-3.24a7.63,7.63,0,0,1,2.84-5.74c-.22-.76-.42-1.76-.62-2.64a9.05,9.05,0,0,0-.6-1.88,8.68,8.68,0,0,1,2.26.32c.32.08.38.22.38.58a6.51,6.51,0,0,0,.08,1.14c.1.58.16.94.28,1.42a11.5,11.5,0,0,1,4.09-1.14A15.22,15.22,0,0,0,182,224.5Zm-7.23,10.18c0,.68.28,1.22.7,1.22.6,0,1.24-.44,2.08-1.46a20.67,20.67,0,0,1-1.38-3.24A5.6,5.6,0,0,0,174.78,234.68Zm4.16-1.88a24.05,24.05,0,0,0,1.91-4,7.89,7.89,0,0,0-3,1.12A15,15,0,0,0,178.94,232.8Z"/><path class="cls-1" d="M197.19,224.34c.34.18.46.3.46.48s0,.2-.3.6a4.72,4.72,0,0,0-.48,1.42,32.41,32.41,0,0,0-.84,6.46,19.29,19.29,0,0,0,.12,2.34c.42-.92.78-1.58,1.36-3a5.19,5.19,0,0,0,.7,1.26.8.8,0,0,1,.14.3.55.55,0,0,1-.1.32,19.55,19.55,0,0,0-1.14,3,2.27,2.27,0,0,0-.06.62c0,.24,0,.4,0,.56s-.08.22-.26.26a10.05,10.05,0,0,1-1.65.32c-.14,0-.22-.08-.26-.22a18.75,18.75,0,0,1-.92-6,38.18,38.18,0,0,1,.68-6.56,16.14,16.14,0,0,0,.36-3A8.79,8.79,0,0,1,197.19,224.34Zm4.28,9.42c.16,0,.2.08.2.3.12,1.38,1.08,1.88,3.27,1.88a28.67,28.67,0,0,0,3.82-.26c.2,0,.24,0,.28.26a14.82,14.82,0,0,1,.12,1.72c0,.24,0,.26-.34.3a26.85,26.85,0,0,1-3.26.22c-3,0-4.35-.48-5.21-1.66a4.41,4.41,0,0,1-.7-2.6Zm-1.12-7.48c0-.24.08-.3.28-.34a31.94,31.94,0,0,1,4.35-.36c1.2,0,2.12,0,3,.12.42,0,.46.06.46.26,0,.6,0,1.14,0,1.7,0,.18-.08.26-.26.24-1.2-.08-2.24-.12-3.26-.12a24.47,24.47,0,0,0-4.55.46C200.31,227.12,200.31,226.62,200.35,226.28Z"/><path class="cls-1" d="M218.49,237.94a2.91,2.91,0,1,1-2.9-2.88A2.89,2.89,0,0,1,218.49,237.94Zm-4.56,0a1.66,1.66,0,1,0,1.66-1.66A1.63,1.63,0,0,0,213.93,237.94Z"/></svg>
