<svg xmlns="http://www.w3.org/2000/svg" viewBox="0 0 400 180"><defs><style>.ub50b{stroke-width:3px;}.ub50b,.u5e7e,.uf225{fill:none;}.ub50b,.uf225{stroke:#626262;stroke-miterlimit:10;}.ufc7e{fill:#ed6103;}.uf20c{fill:#fff;}.u481e{fill:#626262;}.u5e7e{stroke:#ed6103;stroke-linecap:round;stroke-linejoin:round;stroke-width:4px;}.uf225{stroke-width:2px;}</style></defs><rect class="uf20c" x="20" y="66" width="156.5" height="48" rx="6" ry="6"/><rect class="ub50b" x="20" y="66" width="156.5" height="48" rx="6" ry="6"/><circle class="ufc7e" cx="44.651" cy="89.855" r="6.555"/><circle class="ufc7e" cx="67.787" cy="89.855" r="6.555"/><circle class="ufc7e" cx="90.922" cy="89.855" r="6.555"/><circle class="ufc7e" cx="114.058" cy="89.855" r="6.555"/><path class="u481e" d="m153.63,95.222c1.029,1.782,2.712,1.782,3.741,0l4.691-8.125c1.029-1.782.187-3.24-1.87-3.24h-9.382c-2.057,0-2.899,1.458-1.87,3.24l4.691,8.125Z"/><rect class="uf20c" x="223.5" y="20" width="156.5" height="140" rx="6" ry="6"/><rect class="uf225" x="223.5" y="20" width="156.5" height="140" rx="6" ry="6"/><circle class="ufc7e" cx="249.547" cy="44.355" r="6.555"/><circle class="ufc7e" cx="272.828" cy="44.355" r="6.555"/><circle class="ufc7e" cx="296.109" cy="44.355" r="6.555"/><circle class="ufc7e" cx="319.391" cy="44.355" r="6.555"/><rect class="ufc7e" x="224.5" y="70" width="154.5" height="40"/><circle class="uf20c" cx="249.547" cy="90.855" r="6.555"/><circle class="uf20c" cx="272.828" cy="90.855" r="6.555"/><circle class="uf20c" cx="296.109" cy="90.855" r="6.555"/><circle class="uf20c" cx="319.391" cy="90.855" r="6.555"/><circle class="ufc7e" cx="249.547" cy="133.355" r="6.555"/><circle class="ufc7e" cx="272.828" cy="133.355" r="6.555"/><circle class="ufc7e" cx="296.109" cy="133.355" r="6.555"/><circle class="ufc7e" cx="319.391" cy="133.355" r="6.555"/><path class="u481e" d="m355.13,48.722c1.029,1.782,2.712,1.782,3.741,0l4.691-8.125c1.029-1.782.187-3.24-1.87-3.24h-9.382c-2.057,0-2.899,1.458-1.87,3.24l4.691,8.125Z"/><polyline class="u5e7e" points="199.413 99.224 209.587 90 199.413 80.776"/><line class="u5e7e" x1="188.75" y1="90" x2="209" y2="90"/><rect class="ub50b" x="223.5" y="20" width="156.5" height="140" rx="4" ry="4"/></svg>
