<svg xmlns="http://www.w3.org/2000/svg" viewBox="0 0 400 120"><defs><style>.cls-1{fill:#fff;}.cls-2{fill:#626262;}.cls-3{fill:none;stroke:#ed6103;stroke-linecap:round;stroke-linejoin:round;stroke-width:5px;}</style></defs><rect class="cls-1" x="122.5" y="44" width="33" height="33" rx="4.5"/><path class="cls-2" d="M151,45.5a3,3,0,0,1,3,3v24a3,3,0,0,1-3,3H127a3,3,0,0,1-3-3v-24a3,3,0,0,1,3-3h24m0-3H127a6,6,0,0,0-6,6v24a6,6,0,0,0,6,6h24a6,6,0,0,0,6-6v-24a6,6,0,0,0-6-6Z"/><rect class="cls-1" x="244.5" y="44" width="33" height="33" rx="4.5"/><path class="cls-2" d="M273,45.5a3,3,0,0,1,3,3v24a3,3,0,0,1-3,3H249a3,3,0,0,1-3-3v-24a3,3,0,0,1,3-3h24m0-3H249a6,6,0,0,0-6,6v24a6,6,0,0,0,6,6h24a6,6,0,0,0,6-6v-24a6,6,0,0,0-6-6Z"/><polyline class="cls-3" points="270 55.1 259.2 65.9 252.65 59.35"/></svg>
