<svg xmlns="http://www.w3.org/2000/svg" viewBox="0 0 400 120"><defs><style>.cls-1,.cls-3{fill:#ed6103;}.cls-2{fill:#fff;stroke:#626262;}.cls-2,.cls-3{stroke-miterlimit:10;stroke-width:3px;}.cls-3{stroke:#ed6103;}</style></defs><path class="cls-1" d="M76,56.67,51.21,40.14A4,4,0,0,0,45,43.47V76.53a4,4,0,0,0,6.21,3.33L76,63.33A4,4,0,0,0,76,56.67Z"/><rect class="cls-1" x="121" y="40" width="10" height="40" rx="2"/><rect class="cls-1" x="145" y="40" width="10" height="40" rx="2"/><path class="cls-2" d="M260.05,40.27l5.18,10.45a1.85,1.85,0,0,0,1.42,1l11.58,1.68a1.89,1.89,0,0,1,1,3.22L270.9,64.8a1.88,1.88,0,0,0-.54,1.67l2,11.48a1.9,1.9,0,0,1-2.75,2l-10.34-5.43a1.91,1.91,0,0,0-1.77,0L247.12,80a1.9,1.9,0,0,1-2.75-2l2-11.48a1.86,1.86,0,0,0-.54-1.67l-8.37-8.14a1.89,1.89,0,0,1,1-3.23l11.57-1.68a1.87,1.87,0,0,0,1.43-1l5.17-10.45A1.9,1.9,0,0,1,260.05,40.27Z"/><path class="cls-3" d="M336.06,40.27l5.17,10.45a1.88,1.88,0,0,0,1.43,1l11.57,1.68a1.9,1.9,0,0,1,1,3.23l-8.37,8.14a1.9,1.9,0,0,0-.55,1.68l2,11.47a1.9,1.9,0,0,1-2.76,2l-10.33-5.42a1.91,1.91,0,0,0-1.77,0L323.13,80a1.9,1.9,0,0,1-2.76-2l2-11.47a1.89,1.89,0,0,0-.54-1.68l-8.37-8.14a1.89,1.89,0,0,1,1.05-3.23L326,51.75a1.92,1.92,0,0,0,1.44-1l5.16-10.44A1.91,1.91,0,0,1,336.06,40.27Z"/></svg>
