<svg xmlns="http://www.w3.org/2000/svg" viewBox="0 0 400 120"><defs><style>.cls-1{fill:#fff;}.cls-2{fill:#626262;}</style></defs><rect class="cls-1" x="21.5" y="37.5" width="153" height="45" rx="4.5"/><path class="cls-2" d="M170,39a3,3,0,0,1,3,3V78a3,3,0,0,1-3,3H26a3,3,0,0,1-3-3V42a3,3,0,0,1,3-3H170m0-3H26a6,6,0,0,0-6,6V78a6,6,0,0,0,6,6H170a6,6,0,0,0,6-6V42a6,6,0,0,0-6-6Z"/><path class="cls-2" d="M153.63,65.3c1,1.78,2.71,1.78,3.74,0l4.69-8.13c1-1.78.19-3.24-1.87-3.24h-9.38c-2.06,0-2.9,1.46-1.87,3.24Z"/><rect class="cls-1" x="225.5" y="37.5" width="153" height="45" rx="4.5"/><path class="cls-2" d="M374,39a3,3,0,0,1,3,3V78a3,3,0,0,1-3,3H230a3,3,0,0,1-3-3V42a3,3,0,0,1,3-3H374m0-3H230a6,6,0,0,0-6,6V78a6,6,0,0,0,6,6H374a6,6,0,0,0,6-6V42a6,6,0,0,0-6-6Z"/><path class="cls-2" d="M357.63,54.85c1-1.78,2.71-1.78,3.74,0L366.06,63c1,1.78.19,3.24-1.87,3.24h-9.38c-2.06,0-2.9-1.46-1.87-3.24Z"/></svg>
