<svg xmlns="http://www.w3.org/2000/svg" viewBox="0 0 400 120"><defs><style>.cls-1{fill:#ed6103;}.cls-2{fill:#fff;}</style></defs><path class="cls-1" d="M26,36H126a6,6,0,0,1,6,6V84a0,0,0,0,1,0,0H20a0,0,0,0,1,0,0V42A6,6,0,0,1,26,36Z"/><path class="cls-2" d="M69.85,54.67a2,2,0,0,0,1.1-.3.58.58,0,0,1,.34-.14.75.75,0,0,1,.37.16A6.48,6.48,0,0,1,73,55.61a.49.49,0,0,1,.16.36.51.51,0,0,1-.22.38,2.51,2.51,0,0,0-.6.76,31.27,31.27,0,0,1-3,4.84,18.69,18.69,0,0,1,2.17,2,.39.39,0,0,1,.12.28.39.39,0,0,1-.12.26,13.52,13.52,0,0,1-1.25,1.26.42.42,0,0,1-.24.1.35.35,0,0,1-.22-.12,22.17,22.17,0,0,0-1.94-1.94,24.25,24.25,0,0,1-6.39,5A1.09,1.09,0,0,1,61,69a.6.6,0,0,1-.38-.18,5.68,5.68,0,0,0-1.9-1,24.3,24.3,0,0,0,7.37-5.42,16.72,16.72,0,0,0-2.88-1.88c.44-.48.86-1,1.32-1.42a.38.38,0,0,1,.26-.14A.52.52,0,0,1,65,59a20.05,20.05,0,0,1,2.58,1.6,19.28,19.28,0,0,0,2.34-4l-5,.1a24.48,24.48,0,0,1-4.29,4.5.72.72,0,0,1-.4.18.46.46,0,0,1-.32-.14,8.33,8.33,0,0,0-1.68-.92A22.52,22.52,0,0,0,64,54.09a7.38,7.38,0,0,0,1.08-2.46,12.6,12.6,0,0,1,2.34,1,.35.35,0,0,1,.22.32.54.54,0,0,1-.24.4,1.67,1.67,0,0,0-.42.42c-.16.28-.28.48-.62,1Z"/><path class="cls-2" d="M81.53,56.75c-1.3,0-2.45.06-3.31.1-.26,0-.34-.12-.38-.4s-.14-1.44-.18-2a35.09,35.09,0,0,0,3.85.14h7.15a1.91,1.91,0,0,0,1.1-.2.56.56,0,0,1,.3-.08,1,1,0,0,1,.38.1,6.15,6.15,0,0,1,1.46,1.32.5.5,0,0,1,.14.34.68.68,0,0,1-.28.5,2.41,2.41,0,0,0-.46.78,23.34,23.34,0,0,1-3.89,6.5,22.43,22.43,0,0,1-5.68,4.76,1,1,0,0,1-.54.18.7.7,0,0,1-.5-.22,6,6,0,0,0-1.87-1.1,19.27,19.27,0,0,0,6.55-5,17,17,0,0,0,3.39-5.7ZM91.3,52c.1-.08.18-.06.3,0a9.2,9.2,0,0,1,1.9,2.14.2.2,0,0,1-.06.32l-.74.54a.21.21,0,0,1-.34-.06,9.92,9.92,0,0,0-2-2.32Zm1.64-1.22c.12-.08.18-.06.3,0a8.35,8.35,0,0,1,1.9,2.06c.08.12.1.22-.06.36l-.66.54a.24.24,0,0,1-.16.08.21.21,0,0,1-.18-.14,9.46,9.46,0,0,0-2-2.3Z"/><path class="cls-1" d="M250,39a3,3,0,0,1,3,3V81H147V42a3,3,0,0,1,3-3H250m0-3H150a6,6,0,0,0-6,6V84H256V42a6,6,0,0,0-6-6Z"/><path class="cls-1" d="M193.85,54.67a2,2,0,0,0,1.1-.3.58.58,0,0,1,.34-.14.75.75,0,0,1,.37.16A6.48,6.48,0,0,1,197,55.61a.49.49,0,0,1,.16.36.51.51,0,0,1-.22.38,2.51,2.51,0,0,0-.6.76,31.27,31.27,0,0,1-3,4.84,18.69,18.69,0,0,1,2.17,2,.39.39,0,0,1,.12.28.39.39,0,0,1-.12.26,13.52,13.52,0,0,1-1.25,1.26.42.42,0,0,1-.24.1.35.35,0,0,1-.22-.12,22.17,22.17,0,0,0-1.94-1.94,24.25,24.25,0,0,1-6.39,5,1.09,1.09,0,0,1-.5.18.6.6,0,0,1-.38-.18,5.68,5.68,0,0,0-1.9-1,24.3,24.3,0,0,0,7.37-5.42,16.72,16.72,0,0,0-2.88-1.88c.44-.48.86-1,1.32-1.42a.38.38,0,0,1,.26-.14.52.52,0,0,1,.2.08,20.05,20.05,0,0,1,2.58,1.6,19.28,19.28,0,0,0,2.34-4l-5,.1a24.48,24.48,0,0,1-4.29,4.5.72.72,0,0,1-.4.18.46.46,0,0,1-.32-.14,8.33,8.33,0,0,0-1.68-.92A22.52,22.52,0,0,0,188,54.09a7.38,7.38,0,0,0,1.08-2.46,12.6,12.6,0,0,1,2.34,1,.35.35,0,0,1,.22.32.54.54,0,0,1-.24.4,1.67,1.67,0,0,0-.42.42c-.16.28-.28.48-.62,1Z"/><path class="cls-1" d="M205.53,56.75c-1.3,0-2.45.06-3.31.1-.26,0-.34-.12-.38-.4s-.14-1.44-.18-2a35.09,35.09,0,0,0,3.85.14h7.15a1.91,1.91,0,0,0,1.1-.2.56.56,0,0,1,.3-.08,1,1,0,0,1,.38.1,6.15,6.15,0,0,1,1.46,1.32.5.5,0,0,1,.14.34.68.68,0,0,1-.28.5,2.41,2.41,0,0,0-.46.78,23.34,23.34,0,0,1-3.89,6.5,22.43,22.43,0,0,1-5.68,4.76,1,1,0,0,1-.54.18.7.7,0,0,1-.5-.22,6,6,0,0,0-1.87-1.1,19.27,19.27,0,0,0,6.55-5,17,17,0,0,0,3.39-5.7ZM215.3,52c.1-.08.18-.06.3,0a9.2,9.2,0,0,1,1.9,2.14.2.2,0,0,1-.06.32l-.74.54a.21.21,0,0,1-.34-.06,9.92,9.92,0,0,0-2-2.32Zm1.64-1.22c.12-.08.18-.06.3,0a8.35,8.35,0,0,1,1.9,2.06c.08.12.1.22-.06.36l-.66.54a.24.24,0,0,1-.16.08.21.21,0,0,1-.18-.14,9.46,9.46,0,0,0-2-2.3Z"/><path class="cls-1" d="M374,39a3,3,0,0,1,3,3V81H271V42a3,3,0,0,1,3-3H374m0-3H274a6,6,0,0,0-6,6V84H380V42a6,6,0,0,0-6-6Z"/><path class="cls-1" d="M317.85,54.67a2,2,0,0,0,1.1-.3.58.58,0,0,1,.34-.14.75.75,0,0,1,.37.16A6.48,6.48,0,0,1,321,55.61a.49.49,0,0,1,.16.36.51.51,0,0,1-.22.38,2.51,2.51,0,0,0-.6.76A31.27,31.27,0,0,1,317.41,62a18.69,18.69,0,0,1,2.17,2,.39.39,0,0,1,.12.28.39.39,0,0,1-.12.26,13.52,13.52,0,0,1-1.25,1.26.42.42,0,0,1-.24.1.35.35,0,0,1-.22-.12,22.17,22.17,0,0,0-1.94-1.94,24.25,24.25,0,0,1-6.39,5,1.09,1.09,0,0,1-.5.18.6.6,0,0,1-.38-.18,5.68,5.68,0,0,0-1.9-1,24.3,24.3,0,0,0,7.37-5.42,16.72,16.72,0,0,0-2.88-1.88c.44-.48.86-1,1.32-1.42a.38.38,0,0,1,.26-.14.52.52,0,0,1,.2.08,20.05,20.05,0,0,1,2.58,1.6,19.28,19.28,0,0,0,2.34-4l-5,.1a24.48,24.48,0,0,1-4.29,4.5.72.72,0,0,1-.4.18.46.46,0,0,1-.32-.14,8.33,8.33,0,0,0-1.68-.92A22.52,22.52,0,0,0,312,54.09a7.38,7.38,0,0,0,1.08-2.46,12.6,12.6,0,0,1,2.34,1,.35.35,0,0,1,.22.32.54.54,0,0,1-.24.4,1.67,1.67,0,0,0-.42.42c-.16.28-.28.48-.62,1Z"/><path class="cls-1" d="M329.53,56.75c-1.3,0-2.45.06-3.31.1-.26,0-.34-.12-.38-.4s-.14-1.44-.18-2a35.09,35.09,0,0,0,3.85.14h7.15a1.91,1.91,0,0,0,1.1-.2.56.56,0,0,1,.3-.08,1,1,0,0,1,.38.1,6.15,6.15,0,0,1,1.46,1.32.5.5,0,0,1,.14.34.68.68,0,0,1-.28.5,2.41,2.41,0,0,0-.46.78,23.34,23.34,0,0,1-3.89,6.5,22.43,22.43,0,0,1-5.68,4.76,1,1,0,0,1-.54.18.7.7,0,0,1-.5-.22,6,6,0,0,0-1.87-1.1,19.27,19.27,0,0,0,6.55-5,17,17,0,0,0,3.39-5.7ZM339.3,52c.1-.08.18-.06.3,0a9.2,9.2,0,0,1,1.9,2.14.2.2,0,0,1-.06.32l-.74.54a.21.21,0,0,1-.34-.06,9.92,9.92,0,0,0-2-2.32Zm1.64-1.22c.12-.08.18-.06.3,0a8.35,8.35,0,0,1,1.9,2.06c.08.12.1.22-.06.36l-.66.54a.24.24,0,0,1-.16.08.21.21,0,0,1-.18-.14,9.46,9.46,0,0,0-2-2.3Z"/><rect class="cls-1" x="20" y="81" width="360" height="3"/></svg>
