<svg xmlns="http://www.w3.org/2000/svg" viewBox="0 0 400 220"><defs><style>.cls-1{fill:#fff;}.cls-1,.cls-2,.cls-3{stroke:#626262;stroke-miterlimit:10;stroke-width:2px;}.cls-2{fill:#ed6103;}.cls-3{fill:none;}.cls-4{fill:#626262;}</style></defs><rect class="cls-1" x="20" y="20" width="360" height="180" rx="4"/><path class="cls-2" d="M184-140h36a0,0,0,0,1,0,0V220a0,0,0,0,1,0,0H184a4,4,0,0,1-4-4V-136A4,4,0,0,1,184-140Z" transform="translate(240 -160) rotate(90)"/><line class="cls-3" x1="20" y1="60" x2="380" y2="60"/><rect class="cls-1" x="135" y="115" width="230" height="70" rx="4"/><path class="cls-2" d="M139,115h66a0,0,0,0,1,0,0v70a0,0,0,0,1,0,0H139a4,4,0,0,1-4-4V119A4,4,0,0,1,139,115Z"/><line class="cls-3" x1="135" y1="150" x2="365" y2="150"/><line class="cls-3" x1="120" y1="20" x2="120" y2="200"/><circle class="cls-4" cx="223.86" cy="132.12" r="6.56"/><circle class="cls-4" cx="246" cy="132.12" r="6.56"/><circle class="cls-4" cx="141.56" cy="80.12" r="6.56"/><circle class="cls-4" cx="163.69" cy="80.12" r="6.56"/><circle class="cls-4" cx="223.86" cy="167.12" r="6.56"/><circle class="cls-4" cx="246" cy="167.12" r="6.56"/></svg>
