<svg xmlns="http://www.w3.org/2000/svg" viewBox="0 0 400 120"><defs><style>.cls-1{fill:#fff;}.cls-1,.cls-2,.cls-3{stroke:#626262;stroke-miterlimit:10;stroke-width:2px;}.cls-2{fill:#ed6103;}.cls-3{fill:none;}.cls-4{fill:#626262;}</style></defs><rect class="cls-1" x="60" y="20" width="280" height="80" rx="4"/><path class="cls-2" d="M184-100h36a0,0,0,0,1,0,0V180a0,0,0,0,1,0,0H184a4,4,0,0,1-4-4V-96A4,4,0,0,1,184-100Z" transform="translate(240 -160) rotate(90)"/><line class="cls-3" x1="60" y1="60" x2="340" y2="60"/><line class="cls-3" x1="153.33" y1="20" x2="153.33" y2="100"/><line class="cls-3" x1="246.67" y1="20" x2="246.67" y2="100"/><circle class="cls-4" cx="112.86" cy="80.12" r="6.56"/><circle class="cls-4" cx="135" cy="80.12" r="6.56"/><circle class="cls-4" cx="205.86" cy="80.12" r="6.56"/><circle class="cls-4" cx="228" cy="80.12" r="6.56"/><circle class="cls-4" cx="298.86" cy="80.12" r="6.56"/><circle class="cls-4" cx="321" cy="80.12" r="6.56"/></svg>
