<svg xmlns="http://www.w3.org/2000/svg" viewBox="0 0 400 220"><defs><style>.cls-1{fill:#fff;}.cls-1,.cls-2,.cls-4{stroke:#626262;stroke-miterlimit:10;stroke-width:2px;}.cls-2{fill:#ed6103;}.cls-3{fill:#626262;}.cls-4{fill:none;}</style></defs><rect class="cls-1" x="20" y="20" width="360" height="80" rx="4"/><path class="cls-2" d="M184-140h36a0,0,0,0,1,0,0V220a0,0,0,0,1,0,0H184a4,4,0,0,1-4-4V-136a4,4,0,0,1,4-4Z" transform="translate(240 -160) rotate(90)"/><circle class="cls-3" cx="141.56" cy="80.12" r="6.56"/><circle class="cls-3" cx="163.69" cy="80.12" r="6.56"/><line class="cls-4" x1="20" y1="60" x2="380" y2="60"/><rect class="cls-1" x="20" y="120" width="360" height="80" rx="4"/><path class="cls-2" d="M24,120h96a0,0,0,0,1,0,0v80a0,0,0,0,1,0,0H24a4,4,0,0,1-4-4V124A4,4,0,0,1,24,120Z"/><line class="cls-4" x1="20" y1="161" x2="380" y2="161"/><line class="cls-4" x1="120" y1="20" x2="120" y2="100"/><circle class="cls-3" cx="141.56" cy="140.12" r="6.56"/><circle class="cls-3" cx="163.69" cy="140.12" r="6.56"/><circle class="cls-3" cx="141.56" cy="180.12" r="6.56"/><circle class="cls-3" cx="163.69" cy="180.12" r="6.56"/></svg>
