<svg xmlns="http://www.w3.org/2000/svg" viewBox="0 0 400 160"><defs><style>.cls-1{fill:#fff;}.cls-1,.cls-2,.cls-3{stroke:#626262;stroke-miterlimit:10;stroke-width:2px;}.cls-2{fill:#ed6103;}.cls-3{fill:none;}.cls-4{fill:#626262;}</style></defs><rect class="cls-1" x="60" y="20" width="280" height="119.57" rx="4"/><path class="cls-2" d="M184.07-100.07h35.86a0,0,0,0,1,0,0v280a0,0,0,0,1,0,0H184.07a4,4,0,0,1-4-4v-272A4,4,0,0,1,184.07-100.07Z" transform="translate(239.93 -160.07) rotate(90)"/><line class="cls-3" x1="60" y1="100" x2="200" y2="100"/><line class="cls-3" x1="60" y1="59.86" x2="340" y2="59.86"/><line class="cls-3" x1="200" y1="20" x2="200" y2="140"/><circle class="cls-4" cx="155.38" cy="79.95" r="6.56"/><circle class="cls-4" cx="178.51" cy="79.95" r="6.56"/><circle class="cls-4" cx="294.38" cy="99.95" r="6.56"/><circle class="cls-4" cx="317.51" cy="99.95" r="6.56"/><circle class="cls-4" cx="155.38" cy="119.95" r="6.56"/><circle class="cls-4" cx="178.51" cy="119.95" r="6.56"/></svg>
