<svg xmlns="http://www.w3.org/2000/svg" viewBox="0 0 400 130"><defs><style>.cls-1{fill:#e6e6e6;}.cls-2{fill:#fff;}.cls-3{fill:#626262;}.cls-4{fill:none;stroke:#ed6103;stroke-miterlimit:10;stroke-width:3px;}.cls-5{fill:#ed6103;}</style></defs><rect class="cls-1" width="400" height="130"/><circle class="cls-2" cx="180" cy="59.05" r="20"/><path class="cls-3" d="M187.51,48.11h-15a2.76,2.76,0,0,0-2.75,2.76v15A2.76,2.76,0,0,0,172,68.59v1.3a1,1,0,0,0,1,1h2a1,1,0,0,0,1-1V68.64h8v1.25a1,1,0,0,0,1,1h2a1,1,0,0,0,1-1v-1.3a2.76,2.76,0,0,0,2.25-2.71v-15A2.76,2.76,0,0,0,187.51,48.11Zm-15,1.5h15a1.25,1.25,0,0,1,1.25,1.26v8H171.24v-8A1.25,1.25,0,0,1,172.49,49.61Zm15,17.52h-15a1.25,1.25,0,0,1-1.25-1.25v-5.5h17.52v5.5A1.25,1.25,0,0,1,187.51,67.13Z"/><circle class="cls-3" cx="175.24" cy="63.63" r="1.5"/><circle class="cls-3" cx="184.76" cy="63.63" r="1.5"/><circle class="cls-2" cx="220" cy="59.05" r="20"/><path class="cls-3" d="M229,59.56,227.7,54.4A3.15,3.15,0,0,0,224.64,52h-9.28a3.15,3.15,0,0,0-3.06,2.39L211,59.56a2.67,2.67,0,0,0-2.15,2.61v3.88a2.67,2.67,0,0,0,2.42,2.65v1.22a1,1,0,0,0,1,1h1.94a1,1,0,0,0,1-1V68.71h9.68v1.21a1,1,0,0,0,1,1h1.94a1,1,0,0,0,1-1V68.7a2.67,2.67,0,0,0,2.42-2.65V62.17A2.67,2.67,0,0,0,229,59.56Zm-15.28-4.81a1.7,1.7,0,0,1,1.65-1.29h9.28a1.7,1.7,0,0,1,1.65,1.29l1.19,4.76h-15Zm16,11.3a1.21,1.21,0,0,1-1.21,1.21H211.53a1.21,1.21,0,0,1-1.21-1.21V62.17a1.19,1.19,0,0,1,.49-1h18.38a1.19,1.19,0,0,1,.49,1Z"/><circle class="cls-3" cx="213.71" cy="64.11" r="1.45"/><circle class="cls-3" cx="226.29" cy="64.11" r="1.45"/><line class="cls-4" x1="196" y1="84.5" x2="160" y2="84.5"/><line class="cls-4" x1="154.77" y1="79.05" x2="154.77" y2="39.05"/><path class="cls-5" d="M169.24,98.27a.09.09,0,0,1,.09.1v.93a.09.09,0,0,1-.09.1h-5a.1.1,0,0,1-.08-.17l3.2-3.77c.61-.71.79-1.08.7-1.52a1.34,1.34,0,0,0-1.32-1.09,1.39,1.39,0,0,0-1.46,1.36.12.12,0,0,1-.11.09h-1a.1.1,0,0,1-.1-.11,2.57,2.57,0,0,1,2.63-2.5,2.49,2.49,0,0,1,2.47,2.11,2.57,2.57,0,0,1-.82,2.24l-1.91,2.16s0,.07,0,.07Z"/><path class="cls-5" d="M171.25,94.45a2.77,2.77,0,0,1,5.53,0v2.39a2.77,2.77,0,0,1-5.53,0Zm1.16,2a2,2,0,0,0,.45,1.47,1.54,1.54,0,0,0,2.31,0,1.93,1.93,0,0,0,.45-1.47V94.83a1.9,1.9,0,0,0-.45-1.46,1.54,1.54,0,0,0-2.31,0,1.94,1.94,0,0,0-.45,1.46Z"/><path class="cls-5" d="M179,101.59a.09.09,0,0,1-.1-.1V93.77a.09.09,0,0,1,.1-.1h1a0,0,0,0,1,0,0v.79a2.42,2.42,0,0,1,1.89-.92A3,3,0,0,1,182,99.5a2.47,2.47,0,0,1-2-.92v2.91a.09.09,0,0,1-.1.1Zm3-3.2a1.86,1.86,0,1,0-1.91-1.92A1.85,1.85,0,0,0,182,98.39Z"/><path class="cls-5" d="M187.66,93.67a.09.09,0,0,1,.08,0l1.33,1.82a0,0,0,0,0,0,0l1.33-1.82a.09.09,0,0,1,.08,0h1.12a.1.1,0,0,1,.09.16l-1.94,2.68a0,0,0,0,0,0,0l1.94,2.69a.1.1,0,0,1-.09.16h-1.12a.09.09,0,0,1-.08,0l-1.33-1.83a0,0,0,0,0,0,0l-1.33,1.83a.09.09,0,0,1-.08,0h-1.12a.1.1,0,0,1-.09-.16l1.94-2.69a0,0,0,0,0,0,0l-1.94-2.68a.1.1,0,0,1,.09-.16Z"/><path class="cls-5" d="M125.47,61.18a.09.09,0,0,1,.1.1v.93a.09.09,0,0,1-.1.1h-5a.1.1,0,0,1-.08-.17l3.2-3.77c.61-.72.79-1.08.7-1.53a1.34,1.34,0,0,0-1.32-1.09,1.39,1.39,0,0,0-1.46,1.36.12.12,0,0,1-.11.1h-1a.11.11,0,0,1-.1-.12,2.57,2.57,0,0,1,2.63-2.5,2.5,2.5,0,0,1,2.48,2.11,2.59,2.59,0,0,1-.83,2.25l-1.91,2.16s0,.07,0,.07Z"/><path class="cls-5" d="M127.48,57.35a2.77,2.77,0,0,1,5.54,0v2.4a2.77,2.77,0,0,1-5.54,0Zm1.16,2a2,2,0,0,0,.45,1.47,1.57,1.57,0,0,0,1.16.52,1.59,1.59,0,0,0,1.16-.52,2,2,0,0,0,.45-1.47V57.74a2,2,0,0,0-.45-1.47,1.59,1.59,0,0,0-1.16-.52,1.57,1.57,0,0,0-1.16.52,2,2,0,0,0-.45,1.47Z"/><path class="cls-5" d="M135.21,64.5a.09.09,0,0,1-.1-.1V56.67a.09.09,0,0,1,.1-.1h1a0,0,0,0,1,0,0v.79a2.42,2.42,0,0,1,1.89-.92,3,3,0,0,1,.09,5.93,2.47,2.47,0,0,1-2-.92V64.4a.09.09,0,0,1-.1.1Zm3-3.2a1.86,1.86,0,1,0-1.91-1.92A1.85,1.85,0,0,0,138.23,61.3Z"/><path class="cls-5" d="M143.89,56.57a.09.09,0,0,1,.08,0l1.33,1.83a0,0,0,0,0,0,0l1.33-1.83a.09.09,0,0,1,.08,0h1.12a.1.1,0,0,1,.09.16L146,59.42a0,0,0,0,0,0,0L148,62.15a.1.1,0,0,1-.09.16h-1.12a.09.09,0,0,1-.08,0l-1.33-1.83h0L144,62.27a.09.09,0,0,1-.08,0h-1.12a.1.1,0,0,1-.09-.16l1.94-2.69a0,0,0,0,0,0,0l-1.94-2.69a.1.1,0,0,1,.09-.16Z"/></svg>
