<svg xmlns="http://www.w3.org/2000/svg" viewBox="0 0 400 330"><defs><style>.cls-1{fill:#e6e6e6;}.cls-2{fill:#fff;}.cls-3{fill:#626262;}.cls-4{fill:none;stroke:#ed6103;stroke-miterlimit:10;stroke-width:3px;}.cls-5{fill:#ed6103;}</style></defs><rect class="cls-1" width="400" height="330"/><circle class="cls-2" cx="156" cy="64" r="44"/><path class="cls-3" d="M172.52,39.94h-33A6.07,6.07,0,0,0,133.42,46V79a6.06,6.06,0,0,0,5,5.95v2.86a2.21,2.21,0,0,0,2.2,2.21H145a2.21,2.21,0,0,0,2.2-2.21V85.1h17.62v2.75a2.21,2.21,0,0,0,2.2,2.21h4.41a2.21,2.21,0,0,0,2.2-2.21V85a6.06,6.06,0,0,0,5-5.95V46A6.07,6.07,0,0,0,172.52,39.94Zm-33,3.31h33A2.75,2.75,0,0,1,175.27,46V63.62H136.73V46A2.75,2.75,0,0,1,139.48,43.25Zm33,38.55h-33A2.76,2.76,0,0,1,136.73,79V66.93h38.54V79A2.76,2.76,0,0,1,172.52,81.8Z"/><circle class="cls-3" cx="145.54" cy="74.09" r="3.3"/><circle class="cls-3" cx="166.46" cy="74.09" r="3.3"/><circle class="cls-2" cx="244" cy="64" r="44"/><path class="cls-3" d="M263.78,65.14l-2.84-11.37a6.92,6.92,0,0,0-6.73-5.26H233.79a6.92,6.92,0,0,0-6.73,5.26l-2.84,11.37a5.86,5.86,0,0,0-4.72,5.74V79.4a5.86,5.86,0,0,0,5.33,5.83v2.69A2.13,2.13,0,0,0,227,90.06h4.26a2.14,2.14,0,0,0,2.13-2.14V85.26h21.3v2.66a2.14,2.14,0,0,0,2.13,2.14H261a2.13,2.13,0,0,0,2.13-2.14V85.23a5.86,5.86,0,0,0,5.33-5.83V70.88A5.86,5.86,0,0,0,263.78,65.14ZM230.16,54.55a3.73,3.73,0,0,1,3.63-2.84h20.42a3.73,3.73,0,0,1,3.63,2.84L260.46,65H227.54ZM265.3,79.4a2.67,2.67,0,0,1-2.66,2.67H225.36a2.67,2.67,0,0,1-2.66-2.67V70.88a2.64,2.64,0,0,1,1.08-2.13h40.44a2.64,2.64,0,0,1,1.08,2.13Z"/><circle class="cls-3" cx="230.15" cy="75.14" r="3.2"/><circle class="cls-3" cx="257.85" cy="75.14" r="3.2"/><circle class="cls-2" cx="178" cy="265.05" r="20"/><path class="cls-3" d="M185.51,254.11h-15a2.76,2.76,0,0,0-2.75,2.76v15a2.76,2.76,0,0,0,2.25,2.71v1.3a1,1,0,0,0,1,1h2a1,1,0,0,0,1-1v-1.25h8v1.25a1,1,0,0,0,1,1h2a1,1,0,0,0,1-1v-1.3a2.76,2.76,0,0,0,2.25-2.71v-15A2.76,2.76,0,0,0,185.51,254.11Zm-15,1.5h15a1.25,1.25,0,0,1,1.25,1.26v8H169.24v-8A1.25,1.25,0,0,1,170.49,255.61Zm15,17.52h-15a1.25,1.25,0,0,1-1.25-1.25v-5.5h17.52v5.5A1.25,1.25,0,0,1,185.51,273.13Z"/><circle class="cls-3" cx="173.24" cy="269.63" r="1.5"/><circle class="cls-3" cx="182.76" cy="269.63" r="1.5"/><circle class="cls-2" cx="222" cy="265.05" r="20"/><path class="cls-3" d="M231,265.56l-1.29-5.16a3.15,3.15,0,0,0-3.06-2.39h-9.28a3.15,3.15,0,0,0-3.06,2.39L213,265.56a2.67,2.67,0,0,0-2.15,2.61v3.88a2.67,2.67,0,0,0,2.42,2.65v1.22a1,1,0,0,0,1,1h1.94a1,1,0,0,0,1-1v-1.21h9.68v1.21a1,1,0,0,0,1,1h1.94a1,1,0,0,0,1-1V274.7a2.67,2.67,0,0,0,2.42-2.65v-3.88A2.67,2.67,0,0,0,231,265.56Zm-15.28-4.81a1.7,1.7,0,0,1,1.65-1.29h9.28a1.7,1.7,0,0,1,1.65,1.29l1.19,4.76h-15Zm16,11.3a1.21,1.21,0,0,1-1.21,1.21H213.53a1.21,1.21,0,0,1-1.21-1.21v-3.88a1.19,1.19,0,0,1,.49-1h18.38a1.19,1.19,0,0,1,.49,1Z"/><circle class="cls-3" cx="215.71" cy="270.11" r="1.45"/><circle class="cls-3" cx="228.29" cy="270.11" r="1.45"/><line class="cls-4" x1="194" y1="290.5" x2="158" y2="290.5"/><line class="cls-4" x1="152.77" y1="285.05" x2="152.77" y2="245.05"/><path class="cls-5" d="M158.24,304.27a.09.09,0,0,1,.09.1v.93a.09.09,0,0,1-.09.1h-5a.1.1,0,0,1-.08-.17l3.2-3.77c.61-.71.79-1.08.7-1.52a1.34,1.34,0,0,0-1.32-1.09,1.39,1.39,0,0,0-1.46,1.36.12.12,0,0,1-.11.09h-1a.1.1,0,0,1-.1-.11,2.57,2.57,0,0,1,2.63-2.5,2.49,2.49,0,0,1,2.47,2.11,2.57,2.57,0,0,1-.82,2.24l-1.91,2.16s0,.07,0,.07Z"/><path class="cls-5" d="M160.25,300.45a2.77,2.77,0,0,1,5.53,0v2.39a2.77,2.77,0,0,1-5.53,0Zm1.16,2a2,2,0,0,0,.45,1.47,1.54,1.54,0,0,0,2.31,0,1.93,1.93,0,0,0,.45-1.47v-1.62a1.9,1.9,0,0,0-.45-1.46,1.54,1.54,0,0,0-2.31,0,1.94,1.94,0,0,0-.45,1.46Z"/><path class="cls-5" d="M168,307.59a.09.09,0,0,1-.1-.1v-7.72a.09.09,0,0,1,.1-.1h1a0,0,0,0,1,0,0v.79a2.42,2.42,0,0,1,1.89-.92,3,3,0,0,1,.09,5.92,2.47,2.47,0,0,1-2-.92v2.91a.09.09,0,0,1-.1.1Zm3-3.2a1.86,1.86,0,1,0-1.91-1.92A1.85,1.85,0,0,0,171,304.39Z"/><path class="cls-5" d="M176.66,299.67a.09.09,0,0,1,.08,0l1.33,1.82a0,0,0,0,0,0,0l1.33-1.82a.09.09,0,0,1,.08,0h1.12a.1.1,0,0,1,.09.16l-1.94,2.68a0,0,0,0,0,0,0l1.94,2.69a.1.1,0,0,1-.09.16h-1.12a.09.09,0,0,1-.08,0l-1.33-1.83h0l-1.33,1.83a.09.09,0,0,1-.08,0h-1.12a.1.1,0,0,1-.09-.16l1.94-2.69a0,0,0,0,0,0,0l-1.94-2.68a.1.1,0,0,1,.09-.16Z"/><path class="cls-5" d="M188.74,301.05v-2a.09.09,0,0,1,.1-.1h1a.09.09,0,0,1,.1.1v2h2a.09.09,0,0,1,.09.1v1a.09.09,0,0,1-.09.1h-2v2a.09.09,0,0,1-.1.1h-1a.09.09,0,0,1-.1-.1v-2h-2a.09.09,0,0,1-.1-.1v-1a.09.09,0,0,1,.1-.1Z"/><path class="cls-5" d="M203.8,302.89a.09.09,0,0,1,.1.1v.93a.09.09,0,0,1-.1.1h-1.05a0,0,0,0,0,0,0v1.24a.1.1,0,0,1-.11.1h-.95a.09.09,0,0,1-.1-.1v-1.24a0,0,0,0,0,0,0H198a.1.1,0,0,1-.09-.14l2.43-5.92a.11.11,0,0,1,.1-.07h1a.09.09,0,0,1,.09.14l-2,4.81s0,.05,0,.05h1.87a0,0,0,0,0,0,0v-2c0-.07,0-.11.1-.11h.95a.1.1,0,0,1,.11.11v2a0,0,0,0,0,0,0Z"/><path class="cls-5" d="M206,307.59a.09.09,0,0,1-.1-.1v-7.72a.09.09,0,0,1,.1-.1h1a0,0,0,0,1,0,0v.79a2.42,2.42,0,0,1,1.89-.92,3,3,0,0,1,.09,5.92,2.47,2.47,0,0,1-2-.92v2.91a.09.09,0,0,1-.1.1Zm3-3.2a1.86,1.86,0,1,0-1.91-1.92A1.85,1.85,0,0,0,209,304.39Z"/><path class="cls-5" d="M214.66,299.67a.09.09,0,0,1,.08,0l1.33,1.82a0,0,0,0,0,0,0l1.33-1.82a.09.09,0,0,1,.08,0h1.12a.1.1,0,0,1,.09.16l-1.94,2.68a0,0,0,0,0,0,0l1.94,2.69a.1.1,0,0,1-.09.16h-1.12a.09.09,0,0,1-.08,0l-1.33-1.83h0l-1.33,1.83a.09.09,0,0,1-.08,0h-1.12a.1.1,0,0,1-.09-.16l1.94-2.69a0,0,0,0,0,0,0l-1.94-2.68a.1.1,0,0,1,.09-.16Z"/><path class="cls-5" d="M123.47,267.18a.09.09,0,0,1,.1.1v.93a.09.09,0,0,1-.1.1h-5a.1.1,0,0,1-.08-.17l3.2-3.77c.61-.72.79-1.08.7-1.53a1.34,1.34,0,0,0-1.32-1.09,1.39,1.39,0,0,0-1.46,1.36.12.12,0,0,1-.11.1h-1a.11.11,0,0,1-.1-.12,2.57,2.57,0,0,1,2.63-2.5,2.5,2.5,0,0,1,2.48,2.11,2.59,2.59,0,0,1-.83,2.25l-1.91,2.16s0,.07,0,.07Z"/><path class="cls-5" d="M125.48,263.35a2.77,2.77,0,0,1,5.54,0v2.4a2.77,2.77,0,0,1-5.54,0Zm1.16,2a2,2,0,0,0,.45,1.47,1.57,1.57,0,0,0,1.16.52,1.59,1.59,0,0,0,1.16-.52,2,2,0,0,0,.45-1.47v-1.62a2,2,0,0,0-.45-1.47,1.59,1.59,0,0,0-1.16-.52,1.57,1.57,0,0,0-1.16.52,2,2,0,0,0-.45,1.47Z"/><path class="cls-5" d="M133.21,270.5a.09.09,0,0,1-.1-.1v-7.73a.09.09,0,0,1,.1-.1h1a0,0,0,0,1,0,0v.79a2.42,2.42,0,0,1,1.89-.92,3,3,0,0,1,.09,5.93,2.47,2.47,0,0,1-2-.92v2.91a.09.09,0,0,1-.1.1Zm3-3.2a1.86,1.86,0,1,0-1.91-1.92A1.85,1.85,0,0,0,136.23,267.3Z"/><path class="cls-5" d="M141.89,262.57a.09.09,0,0,1,.08,0l1.33,1.83h0l1.33-1.83a.09.09,0,0,1,.08,0h1.12a.1.1,0,0,1,.09.16L144,265.42a0,0,0,0,0,0,0l1.94,2.69a.1.1,0,0,1-.09.16h-1.12a.09.09,0,0,1-.08,0l-1.33-1.83h0L142,268.27a.09.09,0,0,1-.08,0h-1.12a.1.1,0,0,1-.09-.16l1.94-2.69a0,0,0,0,0,0,0l-1.94-2.69a.1.1,0,0,1,.09-.16Z"/><line class="cls-4" x1="203" y1="290.5" x2="197" y2="290.5"/><circle class="cls-2" cx="176" cy="177" r="24"/><path class="cls-3" d="M185,163.88H167a3.3,3.3,0,0,0-3.3,3.3v18a3.3,3.3,0,0,0,2.7,3.25V190a1.2,1.2,0,0,0,1.2,1.2H170a1.2,1.2,0,0,0,1.2-1.2v-1.5h9.62V190a1.2,1.2,0,0,0,1.2,1.2h2.4a1.2,1.2,0,0,0,1.2-1.2v-1.56a3.3,3.3,0,0,0,2.7-3.25v-18A3.3,3.3,0,0,0,185,163.88Zm-18,1.8h18a1.5,1.5,0,0,1,1.5,1.5v9.61h-21v-9.61A1.5,1.5,0,0,1,167,165.68Zm18,21H167a1.51,1.51,0,0,1-1.5-1.51v-6.6h21v6.6A1.51,1.51,0,0,1,185,186.71Z"/><circle class="cls-3" cx="170.29" cy="182.5" r="1.8"/><circle class="cls-3" cx="181.71" cy="182.5" r="1.8"/><circle class="cls-2" cx="224" cy="177" r="24"/><path class="cls-3" d="M234.79,177.62l-1.55-6.2a3.78,3.78,0,0,0-3.67-2.87H218.43a3.78,3.78,0,0,0-3.67,2.87l-1.55,6.2a3.19,3.19,0,0,0-2.57,3.13v4.65a3.2,3.2,0,0,0,2.9,3.18v1.47a1.16,1.16,0,0,0,1.16,1.16H217a1.16,1.16,0,0,0,1.16-1.16V188.6h11.62v1.45a1.16,1.16,0,0,0,1.16,1.16h2.33a1.16,1.16,0,0,0,1.16-1.16v-1.47a3.2,3.2,0,0,0,2.9-3.18v-4.65A3.19,3.19,0,0,0,234.79,177.62Zm-18.34-5.78a2,2,0,0,1,2-1.55h11.14a2,2,0,0,1,2,1.55l1.43,5.72H215Zm19.17,13.56a1.45,1.45,0,0,1-1.45,1.45H213.83a1.45,1.45,0,0,1-1.45-1.45v-4.65a1.45,1.45,0,0,1,.59-1.16H235a1.45,1.45,0,0,1,.59,1.16Z"/><circle class="cls-3" cx="216.45" cy="183.08" r="1.74"/><circle class="cls-3" cx="231.55" cy="183.08" r="1.74"/><line class="cls-4" x1="200" y1="114.5" x2="112" y2="114.5"/><path class="cls-5" d="M146,125a.1.1,0,0,1,.1.11v1a.09.09,0,0,1-.1.1h-1.1a0,0,0,0,0,0,0v1.29a.1.1,0,0,1-.11.1h-1a.09.09,0,0,1-.1-.1v-1.29a0,0,0,0,0,0,0H140a.1.1,0,0,1-.1-.14l2.52-6.13a.11.11,0,0,1,.1-.08h1a.1.1,0,0,1,.1.15l-2.06,5s0,0,0,0h1.94a0,0,0,0,0,0,0V122.9a.09.09,0,0,1,.1-.1h1a.1.1,0,0,1,.11.1V125a0,0,0,0,0,0,0Z"/><path class="cls-5" d="M153.79,125a.1.1,0,0,1,.11.11v1a.1.1,0,0,1-.11.1H152.7s0,0,0,0v1.29a.09.09,0,0,1-.1.1h-1a.09.09,0,0,1-.1-.1v-1.29a0,0,0,0,0-.05,0h-3.59a.1.1,0,0,1-.09-.14l2.52-6.13a.11.11,0,0,1,.1-.08h1c.09,0,.15.08.11.15l-2.06,5s0,0,0,0h1.93a0,0,0,0,0,.05,0V122.9a.09.09,0,0,1,.1-.1h1a.09.09,0,0,1,.1.1V125s0,0,0,0Z"/><path class="cls-5" d="M156,129.87a.1.1,0,0,1-.11-.1v-8a.1.1,0,0,1,.11-.11h1a0,0,0,0,1,0,0v.81a2.53,2.53,0,0,1,2-1,3.07,3.07,0,0,1,.09,6.13,2.55,2.55,0,0,1-2-1v3a.09.09,0,0,1-.1.1Zm3.12-3.32a1.92,1.92,0,1,0-2-2A1.91,1.91,0,0,0,159.14,126.55Z"/><path class="cls-5" d="M165,121.66a.09.09,0,0,1,.08,0l1.38,1.9a0,0,0,0,0,0,0l1.38-1.9a.09.09,0,0,1,.08,0h1.16a.11.11,0,0,1,.09.17l-2,2.78a0,0,0,0,0,0,0l2,2.79a.1.1,0,0,1-.09.16h-1.16a.09.09,0,0,1-.08,0l-1.38-1.89a0,0,0,0,0,0,0l-1.38,1.89a.09.09,0,0,1-.08,0h-1.16c-.09,0-.15-.1-.09-.16l2-2.79a0,0,0,0,0,0,0l-2-2.78c-.06-.06,0-.17.09-.17Z"/><line class="cls-4" x1="106.77" y1="108" x2="106.77" y2="20"/><path class="cls-5" d="M76.74,68a.1.1,0,0,1,.1.11v1a.09.09,0,0,1-.1.1h-1.1a0,0,0,0,0,0,0V70.5a.09.09,0,0,1-.1.1h-1a.09.09,0,0,1-.1-.1V69.21a0,0,0,0,0,0,0H70.77a.1.1,0,0,1-.1-.14l2.52-6.13a.11.11,0,0,1,.1-.08h1a.1.1,0,0,1,.1.15l-2.06,5s0,0,0,0h1.94a0,0,0,0,0,0,0V65.9a.09.09,0,0,1,.1-.1h1a.09.09,0,0,1,.1.1V68a0,0,0,0,0,0,0Z"/><path class="cls-5" d="M84.56,68a.1.1,0,0,1,.11.11v1a.1.1,0,0,1-.11.1H83.47a0,0,0,0,0,0,0V70.5a.1.1,0,0,1-.11.1h-1a.09.09,0,0,1-.1-.1V69.21a0,0,0,0,0,0,0h-3.6A.1.1,0,0,1,78.5,69L81,62.9a.11.11,0,0,1,.1-.08h1a.1.1,0,0,1,.1.15l-2.06,5s0,0,0,0h1.94a0,0,0,0,0,0,0V65.9a.09.09,0,0,1,.1-.1h1a.1.1,0,0,1,.11.1V68a0,0,0,0,0,0,0Z"/><path class="cls-5" d="M86.79,72.87a.1.1,0,0,1-.11-.1v-8a.1.1,0,0,1,.11-.11h1a0,0,0,0,1,0,0v.81a2.53,2.53,0,0,1,2-1,3.07,3.07,0,0,1,.09,6.13,2.58,2.58,0,0,1-2.05-1v3a.09.09,0,0,1-.1.1Zm3.12-3.32a1.92,1.92,0,1,0-2-2A1.9,1.9,0,0,0,89.91,69.55Z"/><path class="cls-5" d="M95.74,64.66a.09.09,0,0,1,.08,0l1.38,1.9a0,0,0,0,0,0,0l1.38-1.9a.09.09,0,0,1,.08,0h1.16a.11.11,0,0,1,.09.17l-2,2.78a0,0,0,0,0,0,0l2,2.79a.1.1,0,0,1-.09.16H98.7a.09.09,0,0,1-.08,0l-1.38-1.89a0,0,0,0,0,0,0l-1.38,1.89a.09.09,0,0,1-.08,0H94.58a.1.1,0,0,1-.09-.16l2-2.79a0,0,0,0,0,0,0l-2-2.78a.11.11,0,0,1,.09-.17Z"/><line class="cls-4" x1="200" y1="206.5" x2="152" y2="206.5"/><path class="cls-5" d="M166.73,218.44a.09.09,0,0,1,.1.1v1a.09.09,0,0,1-.1.1h-5.22a.1.1,0,0,1-.08-.17l3.31-3.9c.63-.74.82-1.11.73-1.58a1.4,1.4,0,0,0-1.37-1.13,1.44,1.44,0,0,0-1.51,1.41.12.12,0,0,1-.12.1h-1a.11.11,0,0,1-.1-.12,2.66,2.66,0,0,1,2.72-2.59,2.59,2.59,0,0,1,2.56,2.19,2.66,2.66,0,0,1-.85,2.32l-2,2.23s0,.08,0,.08Z"/><path class="cls-5" d="M174.67,217a.1.1,0,0,1,.1.11v1a.09.09,0,0,1-.1.1h-1.1a0,0,0,0,0,0,0v1.29a.1.1,0,0,1-.11.1h-1a.09.09,0,0,1-.1-.1v-1.29a0,0,0,0,0,0,0H168.7a.1.1,0,0,1-.1-.14l2.52-6.13a.11.11,0,0,1,.1-.07h1.05c.08,0,.14.07.1.14l-2.06,5s0,.05,0,.05h1.94a0,0,0,0,0,0,0v-2.05a.1.1,0,0,1,.1-.11h1a.1.1,0,0,1,.11.11V217a0,0,0,0,0,0,0Z"/><path class="cls-5" d="M176.89,221.87a.09.09,0,0,1-.1-.1v-8a.1.1,0,0,1,.1-.11h1a.05.05,0,0,1,.05.05v.82a2.49,2.49,0,0,1,1.95-1,3.07,3.07,0,0,1,.09,6.13,2.54,2.54,0,0,1-2-.95v3a.1.1,0,0,1-.11.1Zm3.12-3.31a1.92,1.92,0,1,0-2-2A1.93,1.93,0,0,0,180,218.56Z"/><path class="cls-5" d="M185.84,213.67a.07.07,0,0,1,.08,0l1.38,1.89a0,0,0,0,0,0,0l1.38-1.89a.07.07,0,0,1,.08,0H190c.09,0,.15.1.09.16l-2,2.78a0,0,0,0,0,0,0l2,2.78c.06.06,0,.16-.09.16H188.8a.09.09,0,0,1-.08,0l-1.38-1.89h0l-1.38,1.89a.09.09,0,0,1-.08,0h-1.16a.1.1,0,0,1-.09-.16l2-2.78a0,0,0,0,0,0,0l-2-2.78a.1.1,0,0,1,.09-.16Z"/><line class="cls-4" x1="146.77" y1="201" x2="146.77" y2="153"/><path class="cls-5" d="M116.62,180.44a.1.1,0,0,1,.11.1v1a.1.1,0,0,1-.11.1h-5.21a.1.1,0,0,1-.08-.17l3.31-3.9c.63-.74.82-1.11.72-1.58a1.38,1.38,0,0,0-1.36-1.13,1.44,1.44,0,0,0-1.51,1.41.12.12,0,0,1-.12.1h-1a.11.11,0,0,1-.1-.12,2.65,2.65,0,0,1,2.72-2.59,2.59,2.59,0,0,1,2.56,2.19,2.66,2.66,0,0,1-.85,2.32l-2,2.23s0,.08,0,.08Z"/><path class="cls-5" d="M124.56,179a.1.1,0,0,1,.11.1v1a.1.1,0,0,1-.11.1h-1.09s0,0,0,0v1.29a.1.1,0,0,1-.11.1h-1a.09.09,0,0,1-.1-.1v-1.29s0,0,0,0h-3.6a.1.1,0,0,1-.09-.14L121,173.9a.11.11,0,0,1,.1-.07h1c.08,0,.14.07.1.14l-2.06,5a0,0,0,0,0,0,.06h1.94s0,0,0,0v-2.05a.1.1,0,0,1,.1-.11h1a.1.1,0,0,1,.11.11V179s0,0,0,0Z"/><path class="cls-5" d="M126.79,183.88a.11.11,0,0,1-.11-.11v-8a.11.11,0,0,1,.11-.11h1s0,0,0,.05v.82a2.54,2.54,0,0,1,2-1,3.07,3.07,0,0,1,.09,6.14,2.62,2.62,0,0,1-2.05-1v3a.1.1,0,0,1-.1.11Zm3.12-3.32a1.92,1.92,0,1,0-2-2A1.91,1.91,0,0,0,129.91,180.56Z"/><path class="cls-5" d="M135.74,175.67a.09.09,0,0,1,.08,0l1.38,1.89a0,0,0,0,0,0,0l1.38-1.89a.09.09,0,0,1,.08,0h1.16a.1.1,0,0,1,.09.16l-2,2.78a0,0,0,0,0,0,0l2,2.78a.1.1,0,0,1-.09.16H138.7a.09.09,0,0,1-.08,0l-1.38-1.89h0l-1.38,1.89a.09.09,0,0,1-.08,0h-1.16a.1.1,0,0,1-.09-.16l2-2.78a0,0,0,0,0,0,0l-2-2.78a.1.1,0,0,1,.09-.16Z"/></svg>
