<svg xmlns="http://www.w3.org/2000/svg" viewBox="0 0 400 228"><defs><style>.cls-1{fill:#626262;}</style></defs><path class="cls-1" d="M36.35,22.33a.19.19,0,0,1,.21.2V37.67a.19.19,0,0,1-.21.2h-2a.19.19,0,0,1-.21-.2v-11c0-.07-.06-.09-.11,0l-4.9,5.79a.19.19,0,0,1-.31,0L23.91,26.6s-.09,0-.09,0v11a.19.19,0,0,1-.2.2h-2a.2.2,0,0,1-.21-.2V22.53a.2.2,0,0,1,.21-.2H23a.35.35,0,0,1,.29.14l5.59,6.47a.1.1,0,0,0,.14,0l5.6-6.47a.38.38,0,0,1,.26-.14Z"/><path class="cls-1" d="M51.73,26a.19.19,0,0,1,.21.21V37.67a.2.2,0,0,1-.21.21h-2a.1.1,0,0,1-.08-.09V36.15a4.79,4.79,0,0,1-3.88,1.9,6.12,6.12,0,0,1-.2-12.23A5.07,5.07,0,0,1,49.6,27.7V26.08a.09.09,0,0,1,.08-.08Zm-2.28,6.08a3.79,3.79,0,0,0-3.91-4,3.83,3.83,0,1,0,3.91,4Z"/><path class="cls-1" d="M55.58,21.68a.2.2,0,0,1,.21-.21h2a.19.19,0,0,1,.2.21v8.89s.05,0,.07,0l5.51-4.48a.38.38,0,0,1,.27-.11h2.84a.19.19,0,0,1,.12.33l-6.65,5.55q-.09.06,0,.12l6.65,5.54a.19.19,0,0,1-.12.33H63.83a.41.41,0,0,1-.27-.1l-5.51-4.49s-.07,0-.07,0v4.37a.19.19,0,0,1-.2.2h-2a.2.2,0,0,1-.21-.2Z"/><path class="cls-1" d="M79.28,27.32a6.44,6.44,0,0,1,1.85,5,2.3,2.3,0,0,0,0,.39c0,.31-.23.48-.42.48H71.53s-.06,0,0,.06A4.19,4.19,0,0,0,78.14,35a.24.24,0,0,1,.32,0l1.28,1.28a.24.24,0,0,1,0,.35,6.37,6.37,0,0,1-4.39,1.59A6.48,6.48,0,0,1,68.9,32a6.1,6.1,0,0,1,5.87-6.3A6.22,6.22,0,0,1,79.28,27.32Zm-.55,4s0,0,0-.08a4,4,0,0,0-1.23-2.38,3.6,3.6,0,0,0-2.48-.9,3.71,3.71,0,0,0-3.76,3.19v.09c0,.06,0,.08.07.08Z"/><path class="cls-1" d="M100.91,27.32a6.47,6.47,0,0,1,1.84,5,2.3,2.3,0,0,0,0,.39c0,.31-.23.48-.41.48H93.15s-.06,0,0,.06A4.2,4.2,0,0,0,99.77,35a.23.23,0,0,1,.31,0l1.28,1.28a.23.23,0,0,1,0,.35A6.37,6.37,0,0,1,97,38.27,6.48,6.48,0,0,1,90.52,32a6.1,6.1,0,0,1,5.87-6.3A6.26,6.26,0,0,1,100.91,27.32Zm-.56,4s0,0,0-.08a4,4,0,0,0-1.23-2.38,3.6,3.6,0,0,0-2.48-.9,3.7,3.7,0,0,0-3.75,3.19v.09c0,.06,0,.08.06.08Z"/><path class="cls-1" d="M109.41,37.87a.21.21,0,0,1-.21-.14l-4.35-11.44a.21.21,0,0,1,.21-.29h2.07a.27.27,0,0,1,.21.15l3.11,8.39s0,0,.06,0l3.11-8.39a.25.25,0,0,1,.2-.15h2.07a.21.21,0,0,1,.21.29l-4.35,11.44a.22.22,0,0,1-.21.14Z"/><path class="cls-1" d="M128.52,27.32a6.43,6.43,0,0,1,1.84,5,2.3,2.3,0,0,0,0,.39c0,.31-.23.48-.41.48h-9.16s-.07,0,0,.06A4.2,4.2,0,0,0,127.38,35a.23.23,0,0,1,.31,0L129,36.33a.23.23,0,0,1,0,.35,6.37,6.37,0,0,1-4.39,1.59A6.49,6.49,0,0,1,118.13,32a6.1,6.1,0,0,1,5.87-6.3A6.26,6.26,0,0,1,128.52,27.32Zm-.56,4s0,0,0-.08a4,4,0,0,0-1.23-2.38,3.6,3.6,0,0,0-2.48-.9,3.7,3.7,0,0,0-3.75,3.19v.09c0,.06,0,.08.06.08Z"/><path class="cls-1" d="M141.09,26a.2.2,0,0,1,.21.21v1.94a.19.19,0,0,1-.21.21h-1.45a3.82,3.82,0,0,0-3.94,3.91v5.4a.19.19,0,0,1-.2.2h-2a.19.19,0,0,1-.21-.2V26.21a.2.2,0,0,1,.21-.21h2.11a.09.09,0,0,1,.08.09v1.59A4.8,4.8,0,0,1,139.56,26Z"/><path class="cls-1" d="M154.49,26a.21.21,0,0,1,.21.29l-5.76,15.09a.26.26,0,0,1-.23.19h-2.05a.25.25,0,0,1-.23-.31l1.37-3.53-4.39-11.44a.2.2,0,0,1,.2-.29h2.06a.23.23,0,0,1,.2.15l3.13,8a.06.06,0,0,0,.1,0l3.13-8a.25.25,0,0,1,.21-.15Z"/><path class="cls-1" d="M166.84,22.33a.19.19,0,0,1,.2.2V35a.43.43,0,0,0,.44.44H176a.19.19,0,0,1,.2.2v2a.19.19,0,0,1-.2.2H165.78a1.14,1.14,0,0,1-1.14-1.13V22.53a.2.2,0,0,1,.21-.2Z"/><path class="cls-1" d="M179.49,37.87a.19.19,0,0,1-.21-.2V22.53a.19.19,0,0,1,.21-.2h2a.19.19,0,0,1,.21.2V37.67a.19.19,0,0,1-.21.2Z"/><path class="cls-1" d="M185.64,37.87a.19.19,0,0,1-.2-.2V23.46a1.14,1.14,0,0,1,1.13-1.13h10.22a.2.2,0,0,1,.21.2v2a.2.2,0,0,1-.21.2h-8.52a.42.42,0,0,0-.43.44v3.66a.09.09,0,0,0,.08.08h8.87a.2.2,0,0,1,.21.21v2a.21.21,0,0,1-.21.21h-8.87a.09.09,0,0,0-.08.08v6.29a.2.2,0,0,1-.21.2Z"/><path class="cls-1" d="M211.88,22.33a.2.2,0,0,1,.21.2v2a.2.2,0,0,1-.21.2h-8.52a.42.42,0,0,0-.43.44v3.66a.09.09,0,0,0,.08.08h8.87a.2.2,0,0,1,.21.21v2a.21.21,0,0,1-.21.21H203a.09.09,0,0,0-.08.08V35a.42.42,0,0,0,.43.44h8.52a.2.2,0,0,1,.21.2v2a.2.2,0,0,1-.21.2H201.67a1.14,1.14,0,0,1-1.14-1.13V23.46a1.14,1.14,0,0,1,1.14-1.13Z"/><path class="cls-1" d="M223,37.87a.19.19,0,0,1-.21-.2V23.46a1.14,1.14,0,0,1,1.14-1.13H234.1a.19.19,0,0,1,.21.2v2a.19.19,0,0,1-.21.2h-8.52a.43.43,0,0,0-.43.44v3.66a.09.09,0,0,0,.08.08h8.87a.19.19,0,0,1,.21.21v2a.2.2,0,0,1-.21.21h-8.87a.09.09,0,0,0-.08.08v6.29a.19.19,0,0,1-.21.2Z"/><path class="cls-1" d="M237.72,22.53a.19.19,0,0,1,.21-.2h2a.19.19,0,0,1,.21.2v7.54a5.6,5.6,0,1,0,11.2,0V22.53a.19.19,0,0,1,.2-.2h2a.2.2,0,0,1,.21.2v7.54a8,8,0,1,1-16,0Z"/><path class="cls-1" d="M259.56,22.33a.2.2,0,0,1,.21.2V35a.42.42,0,0,0,.43.44h8.54a.2.2,0,0,1,.21.2v2a.2.2,0,0,1-.21.2H258.5a1.14,1.14,0,0,1-1.13-1.13V22.53a.19.19,0,0,1,.2-.2Z"/><path class="cls-1" d="M274.22,22.33a.19.19,0,0,1,.2.2V35a.43.43,0,0,0,.44.44h8.54a.19.19,0,0,1,.2.2v2a.19.19,0,0,1-.2.2H273.16A1.14,1.14,0,0,1,272,36.74V22.53a.19.19,0,0,1,.21-.2Z"/><path class="cls-1" d="M286.52,37.87a.19.19,0,0,1-.2-.21V35.44a.19.19,0,0,1,.2-.21h2.23a.19.19,0,0,1,.21.21v2.22a.19.19,0,0,1-.21.21Z"/><path class="cls-1" d="M25.82,71.41a.22.22,0,0,1-.21-.16L20.72,56.13a.2.2,0,0,1,.17-.27h2a.38.38,0,0,1,.35.23l3.6,11.52s.05,0,.07,0l3.54-11.52a.32.32,0,0,1,.31-.23h1.93a.31.31,0,0,1,.31.23l3.54,11.52s0,0,.06,0L40.2,56.09a.38.38,0,0,1,.33-.23h2a.2.2,0,0,1,.17.27L37.82,71.25a.25.25,0,0,1-.23.16H35.54a.24.24,0,0,1-.23-.16L31.75,60s-.05,0-.07,0L28.12,71.25a.21.21,0,0,1-.21.16Z"/><path class="cls-1" d="M45.94,57.78a.2.2,0,0,1-.21-.21V55.21a.2.2,0,0,1,.21-.2h2.11a.19.19,0,0,1,.21.2v2.36a.19.19,0,0,1-.21.21ZM46,71.41a.19.19,0,0,1-.2-.2V59.74a.19.19,0,0,1,.2-.2h2a.2.2,0,0,1,.21.2V71.21a.2.2,0,0,1-.21.2Z"/><path class="cls-1" d="M56.44,66.52a2.65,2.65,0,0,0,.73,2.26,2.91,2.91,0,0,0,1.86.6.18.18,0,0,1,.21.2v2a.21.21,0,0,1-.23.21,5.52,5.52,0,0,1-3.36-1.09A5,5,0,0,1,54,66.52V62a.09.09,0,0,0-.08-.08H51.43a.23.23,0,0,1-.21-.21v-2a.23.23,0,0,1,.21-.21H54a.09.09,0,0,0,.08-.08V55.22a.19.19,0,0,1,.21-.21h2a.19.19,0,0,1,.21.21v4.24a.09.09,0,0,0,.08.08H59a.19.19,0,0,1,.21.21v2a.19.19,0,0,1-.21.21H56.52a.09.09,0,0,0-.08.08Z"/><path class="cls-1" d="M62.43,55.22a.2.2,0,0,1,.2-.21h2a.21.21,0,0,1,.21.21v5.93a5.08,5.08,0,0,1,3.81-1.63,5.86,5.86,0,0,1,5.76,5.89v5.8a.19.19,0,0,1-.21.2h-2a.19.19,0,0,1-.2-.2V65.62A3.53,3.53,0,0,0,68.37,62c-2.18.08-3.54,1.82-3.54,4.12v5.13a.2.2,0,0,1-.21.2h-2a.19.19,0,0,1-.2-.2Z"/><path class="cls-1" d="M92.63,59.54a.19.19,0,0,1,.2.21v1.94a.19.19,0,0,1-.2.21H91.18a3.82,3.82,0,0,0-3.94,3.91v5.4a.19.19,0,0,1-.21.2h-2a.19.19,0,0,1-.21-.2V59.75a.19.19,0,0,1,.21-.21h2.11a.09.09,0,0,1,.08.08v1.6a4.77,4.77,0,0,1,3.85-1.68Z"/><path class="cls-1" d="M105.47,60.86a6.43,6.43,0,0,1,1.84,5,2.3,2.3,0,0,0,0,.39c0,.31-.23.47-.41.47H97.72s-.07,0,0,.07a4.2,4.2,0,0,0,6.66,1.79.23.23,0,0,1,.31,0l1.28,1.28a.23.23,0,0,1,0,.35,6.37,6.37,0,0,1-4.39,1.59,6.49,6.49,0,0,1-6.43-6.31A6.1,6.1,0,0,1,101,59.2,6.25,6.25,0,0,1,105.47,60.86Zm-.56,4s0,0,0-.08a4,4,0,0,0-1.22-2.38,3.64,3.64,0,0,0-2.49-.9,3.7,3.7,0,0,0-3.75,3.19v.09c0,.06,0,.08.06.08Z"/><path class="cls-1" d="M121.78,59.54a.19.19,0,0,1,.2.21V71.21a.2.2,0,0,1-.2.21h-2a.11.11,0,0,1-.09-.1V69.69a4.77,4.77,0,0,1-3.87,1.9,6.12,6.12,0,0,1-.21-12.23,5,5,0,0,1,4.08,1.88V59.62a.1.1,0,0,1,.09-.08Zm-2.28,6.08a3.79,3.79,0,0,0-3.92-4,3.83,3.83,0,1,0,3.92,4Z"/><path class="cls-1" d="M137.34,71.21a.2.2,0,0,1-.21.21h-2a.1.1,0,0,1-.08-.1V69.69a4.93,4.93,0,0,1-3.9,1.92,6.13,6.13,0,1,1-.21-12.25,5.16,5.16,0,0,1,4.11,1.9v-6a.19.19,0,0,1,.21-.2h1.92a.19.19,0,0,1,.21.2Zm-10.19-5.9a3.84,3.84,0,1,0,7.68.27,3.84,3.84,0,0,0-7.68-.27Z"/><path class="cls-1" d="M141.17,57.78a.19.19,0,0,1-.2-.21V55.21a.19.19,0,0,1,.2-.2h2.12a.19.19,0,0,1,.2.2v2.36a.19.19,0,0,1-.2.21Zm.07,13.63a.19.19,0,0,1-.21-.2V59.74a.19.19,0,0,1,.21-.2h2a.19.19,0,0,1,.21.2V71.21a.19.19,0,0,1-.21.2Z"/><path class="cls-1" d="M147.13,59.75a.2.2,0,0,1,.21-.21h2.11a.09.09,0,0,1,.08.09v1.56a5.07,5.07,0,0,1,3.8-1.63A5.84,5.84,0,0,1,159,65.43v5.78a.19.19,0,0,1-.2.2h-2a.2.2,0,0,1-.21-.2V65.64A3.46,3.46,0,0,0,153,62c-2.18.06-3.51,1.84-3.51,4.08v5.13a.19.19,0,0,1-.2.2h-2a.19.19,0,0,1-.21-.2Z"/><path class="cls-1" d="M172.07,60.86a6.44,6.44,0,0,1,1.85,5,2.3,2.3,0,0,0,0,.39c0,.31-.23.47-.42.47h-9.16s-.06,0,0,.07a4.19,4.19,0,0,0,6.65,1.79.23.23,0,0,1,.31,0l1.29,1.28a.24.24,0,0,1,0,.35,6.38,6.38,0,0,1-4.4,1.59,6.48,6.48,0,0,1-6.42-6.31,6.1,6.1,0,0,1,5.86-6.3A6.25,6.25,0,0,1,172.07,60.86Zm-.55,4s0,0,0-.08a4,4,0,0,0-1.23-2.38,3.61,3.61,0,0,0-2.49-.9,3.71,3.71,0,0,0-3.75,3.19v.09c0,.06,0,.08.06.08Z"/><path class="cls-1" d="M185.81,68.57c-.19,1.9-1.91,3.24-4.63,3.24a7,7,0,0,1-4.56-1.47.21.21,0,0,1,0-.33l1.3-1.32a.24.24,0,0,1,.27,0,4.17,4.17,0,0,0,2.68.93c1.45.06,2.51-.25,2.63-1.22s-.93-1.44-3.13-2.06-4.06-1.77-3.79-3.87a3.36,3.36,0,0,1,1.47-2.38,5.39,5.39,0,0,1,3.09-.87,7.29,7.29,0,0,1,4.56,1.45.21.21,0,0,1,0,.31l-1.32,1.34a.21.21,0,0,1-.27,0,5.49,5.49,0,0,0-2.66-.9c-1.2-.07-2.45.26-2.59,1.21-.19,1.2,1.47,1.63,3,2.06C185,65.58,186,66.92,185.81,68.57Z"/><path class="cls-1" d="M197.93,68.57c-.18,1.9-1.9,3.24-4.62,3.24a7,7,0,0,1-4.56-1.47.21.21,0,0,1,0-.33l1.3-1.32a.23.23,0,0,1,.27,0,4.17,4.17,0,0,0,2.68.93c1.45.06,2.51-.25,2.63-1.22s-.93-1.44-3.13-2.06-4.07-1.77-3.8-3.87a3.43,3.43,0,0,1,1.47-2.38,5.4,5.4,0,0,1,3.1-.87,7.31,7.31,0,0,1,4.56,1.45.23.23,0,0,1,0,.31l-1.33,1.34a.2.2,0,0,1-.27,0,5.45,5.45,0,0,0-2.65-.9c-1.21-.07-2.45.26-2.6,1.21-.18,1.2,1.48,1.63,3,2.06C197.17,65.58,198.08,66.92,197.93,68.57Z"/><path class="cls-1" d="M212.79,66.52a2.64,2.64,0,0,0,.72,2.26,2.92,2.92,0,0,0,1.87.6.18.18,0,0,1,.2.2v2a.21.21,0,0,1-.22.21A5.52,5.52,0,0,1,212,70.7a5,5,0,0,1-1.61-4.18V62a.1.1,0,0,0-.09-.08h-2.53a.22.22,0,0,1-.2-.21v-2a.22.22,0,0,1,.2-.21h2.53a.1.1,0,0,0,.09-.08V55.22a.19.19,0,0,1,.2-.21h2a.2.2,0,0,1,.21.21v4.24a.09.09,0,0,0,.08.08h2.51a.19.19,0,0,1,.2.21v2a.19.19,0,0,1-.2.21h-2.51a.09.09,0,0,0-.08.08Z"/><path class="cls-1" d="M224.37,59.18A6.32,6.32,0,1,1,218,65.5,6.32,6.32,0,0,1,224.37,59.18Zm0,10.24a3.92,3.92,0,1,0-3.94-3.92A3.93,3.93,0,0,0,224.37,69.42Z"/><path class="cls-1" d="M240.05,65.31a6.34,6.34,0,0,1,10.63-4.43.22.22,0,0,1,0,.33l-1.31,1.32a.24.24,0,0,1-.33,0,4,4,0,0,0-2.71-1,4,4,0,0,0-.07,8,4.11,4.11,0,0,0,2.78-1,.24.24,0,0,1,.33,0l1.31,1.3a.21.21,0,0,1,0,.31,6.33,6.33,0,0,1-10.63-4.83Z"/><path class="cls-1" d="M253.83,55.22A.2.2,0,0,1,254,55h2a.21.21,0,0,1,.21.21v5.93A5.1,5.1,0,0,1,260,59.52a5.86,5.86,0,0,1,5.76,5.89v5.8a.19.19,0,0,1-.21.2h-2a.19.19,0,0,1-.2-.2V65.62A3.53,3.53,0,0,0,259.77,62c-2.18.08-3.54,1.82-3.54,4.12v5.13a.2.2,0,0,1-.21.2h-2a.19.19,0,0,1-.2-.2Z"/><path class="cls-1" d="M280.63,59.54a.2.2,0,0,1,.21.21V71.21a.21.21,0,0,1-.21.21h-2.05a.1.1,0,0,1-.08-.1V69.69a4.79,4.79,0,0,1-3.88,1.9,6.12,6.12,0,0,1-.2-12.23,5.07,5.07,0,0,1,4.08,1.88V59.62a.09.09,0,0,1,.08-.08Zm-2.28,6.08a3.79,3.79,0,0,0-3.91-4,3.83,3.83,0,1,0,3.91,4Z"/><path class="cls-1" d="M284.38,59.75a.21.21,0,0,1,.21-.21h2.11a.09.09,0,0,1,.08.09v1.56a5.07,5.07,0,0,1,3.8-1.63,5.84,5.84,0,0,1,5.71,5.87v5.78a.19.19,0,0,1-.2.2h-2a.2.2,0,0,1-.21-.2V65.64a3.46,3.46,0,0,0-3.6-3.64c-2.18.06-3.51,1.84-3.51,4.08v5.13a.19.19,0,0,1-.2.2h-2a.2.2,0,0,1-.21-.2Z"/><path class="cls-1" d="M311.14,59.54a.19.19,0,0,1,.21.21V69.86a5.94,5.94,0,0,1-2,4.87A6.25,6.25,0,0,1,305.85,76c-.27,0-.56,0-.85,0a9.39,9.39,0,0,1-4.76-1.41.21.21,0,0,1,0-.35l1.42-1.43a.2.2,0,0,1,.25,0,7.11,7.11,0,0,0,3.17.89,4.2,4.2,0,0,0,2.56-.62A3.53,3.53,0,0,0,309,69.94v-.43a5.3,5.3,0,0,1-3.85,2,6.07,6.07,0,0,1-.31-12.13A5.2,5.2,0,0,1,309,61.26l0-1.64a.09.09,0,0,1,.08-.08Zm-2.27,5.88v-.11a3.71,3.71,0,1,0-3.71,3.79A3.73,3.73,0,0,0,308.87,65.42Z"/><path class="cls-1" d="M324.48,60.86a6.43,6.43,0,0,1,1.84,5,2.3,2.3,0,0,0,0,.39c0,.31-.23.47-.41.47h-9.16s-.07,0-.05.07a4.2,4.2,0,0,0,6.66,1.79.23.23,0,0,1,.31,0l1.28,1.28a.23.23,0,0,1,0,.35,6.37,6.37,0,0,1-4.39,1.59,6.49,6.49,0,0,1-6.43-6.31A6.1,6.1,0,0,1,320,59.2,6.26,6.26,0,0,1,324.48,60.86Zm-.56,4s0,0,0-.08a4,4,0,0,0-1.23-2.38,3.6,3.6,0,0,0-2.48-.9,3.7,3.7,0,0,0-3.75,3.19v.09c0,.06,0,.08.06.08Z"/><path class="cls-1" d="M340.94,66.52a2.67,2.67,0,0,0,.72,2.26,2.94,2.94,0,0,0,1.87.6.19.19,0,0,1,.21.2v2a.22.22,0,0,1-.23.21,5.52,5.52,0,0,1-3.36-1.09,5,5,0,0,1-1.61-4.18V62a.09.09,0,0,0-.09-.08h-2.52a.23.23,0,0,1-.21-.21v-2a.23.23,0,0,1,.21-.21h2.52a.09.09,0,0,0,.09-.08V55.22a.19.19,0,0,1,.2-.21h2a.2.2,0,0,1,.21.21v4.24a.09.09,0,0,0,.08.08h2.51a.2.2,0,0,1,.21.21v2a.2.2,0,0,1-.21.21H341a.09.09,0,0,0-.08.08Z"/><path class="cls-1" d="M346.92,55.22a.2.2,0,0,1,.21-.21h2a.2.2,0,0,1,.2.21v5.93a5.12,5.12,0,0,1,3.82-1.63,5.86,5.86,0,0,1,5.75,5.89v5.8a.19.19,0,0,1-.2.2h-2a.2.2,0,0,1-.21-.2V65.62A3.52,3.52,0,0,0,352.87,62c-2.18.08-3.55,1.82-3.55,4.12v5.13a.19.19,0,0,1-.2.2h-2a.19.19,0,0,1-.21-.2Z"/><path class="cls-1" d="M371.91,60.86a6.43,6.43,0,0,1,1.84,5,2.3,2.3,0,0,0,0,.39c0,.31-.23.47-.41.47h-9.16s-.07,0-.05.07a4.2,4.2,0,0,0,6.66,1.79.23.23,0,0,1,.31,0l1.28,1.28a.23.23,0,0,1,0,.35A6.37,6.37,0,0,1,368,71.81a6.49,6.49,0,0,1-6.43-6.31,6.1,6.1,0,0,1,5.87-6.3A6.25,6.25,0,0,1,371.91,60.86Zm-.56,4s0,0,0-.08a4,4,0,0,0-1.22-2.38,3.64,3.64,0,0,0-2.49-.9,3.7,3.7,0,0,0-3.75,3.19v.09c0,.06,0,.08.06.08Z"/><path class="cls-1" d="M21.53,109.49a.2.2,0,0,1-.21-.21v-16a.2.2,0,0,1,.21-.21h2a.09.09,0,0,1,.08.09V94.8a5.06,5.06,0,0,1,3.92-1.9,6.13,6.13,0,0,1,.19,12.25,5.13,5.13,0,0,1-4.11-1.9v6a.19.19,0,0,1-.2.21Zm6.26-6.63a3.84,3.84,0,1,0-4-4A3.85,3.85,0,0,0,27.79,102.86Z"/><path class="cls-1" d="M46.35,94.39a6.46,6.46,0,0,1,1.84,5,2.3,2.3,0,0,0,0,.39c0,.31-.23.47-.41.47H38.6s-.07,0-.05.07a4.2,4.2,0,0,0,6.66,1.79.23.23,0,0,1,.31,0l1.28,1.28a.23.23,0,0,1,0,.35,6.42,6.42,0,0,1-4.39,1.59A6.49,6.49,0,0,1,36,99a6.08,6.08,0,0,1,5.87-6.3A6.3,6.3,0,0,1,46.35,94.39Zm-.56,4s0,0,0-.08a4,4,0,0,0-1.23-2.38A3.55,3.55,0,0,0,42.1,95a3.7,3.7,0,0,0-3.75,3.19v.09c0,.06,0,.08.06.08Z"/><path class="cls-1" d="M58.92,93.08a.2.2,0,0,1,.21.21v1.94a.21.21,0,0,1-.21.21H57.47a3.82,3.82,0,0,0-3.94,3.91v5.39a.19.19,0,0,1-.2.21h-2a.19.19,0,0,1-.21-.21V93.29a.19.19,0,0,1,.21-.21h2.11a.09.09,0,0,1,.08.08v1.6a4.8,4.8,0,0,1,3.86-1.68Z"/><path class="cls-1" d="M71,102.11c-.18,1.9-1.9,3.24-4.62,3.24a7,7,0,0,1-4.56-1.47.21.21,0,0,1,0-.33l1.3-1.32a.24.24,0,0,1,.27,0,4.17,4.17,0,0,0,2.68.93c1.45.06,2.51-.25,2.63-1.22s-.93-1.44-3.13-2.06S61.51,98.07,61.78,96a3.36,3.36,0,0,1,1.47-2.37,5.37,5.37,0,0,1,3.09-.87,7.29,7.29,0,0,1,4.56,1.45.23.23,0,0,1,0,.31L69.6,95.82a.21.21,0,0,1-.27,0A5.6,5.6,0,0,0,66.67,95c-1.2-.06-2.45.27-2.59,1.22-.19,1.2,1.47,1.63,3,2.06C70.24,99.12,71.15,100.46,71,102.11Z"/><path class="cls-1" d="M74.39,109.49a.19.19,0,0,1-.21-.21v-16a.19.19,0,0,1,.21-.21h2a.09.09,0,0,1,.08.09V94.8a5.06,5.06,0,0,1,3.92-1.9,6.13,6.13,0,0,1,.18,12.25,5.13,5.13,0,0,1-4.1-1.9v6a.19.19,0,0,1-.2.21Zm6.26-6.63a3.84,3.84,0,1,0-4-4A3.83,3.83,0,0,0,80.65,102.86Z"/><path class="cls-1" d="M99.21,94.39a6.46,6.46,0,0,1,1.84,5,2.3,2.3,0,0,0,0,.39c0,.31-.23.47-.41.47H91.46s-.07,0,0,.07a4.2,4.2,0,0,0,6.66,1.79.23.23,0,0,1,.31,0l1.28,1.28a.23.23,0,0,1,0,.35,6.42,6.42,0,0,1-4.39,1.59A6.49,6.49,0,0,1,88.82,99a6.08,6.08,0,0,1,5.87-6.3A6.3,6.3,0,0,1,99.21,94.39Zm-.56,4s0,0,0-.08a4,4,0,0,0-1.23-2.38A3.55,3.55,0,0,0,95,95a3.7,3.7,0,0,0-3.75,3.19v.09c0,.06,0,.08.06.08Z"/><path class="cls-1" d="M103.31,98.85a6.34,6.34,0,0,1,6.22-6.11,6.26,6.26,0,0,1,4.41,1.68.21.21,0,0,1,0,.33l-1.3,1.32a.24.24,0,0,1-.33,0,4,4,0,0,0-2.72-1,4,4,0,0,0-.06,8,4.19,4.19,0,0,0,2.78-1,.24.24,0,0,1,.33,0l1.3,1.3a.2.2,0,0,1,0,.31,6.33,6.33,0,0,1-10.63-4.83Z"/><path class="cls-1" d="M121.53,100.06a2.65,2.65,0,0,0,.73,2.26,2.85,2.85,0,0,0,1.86.59.19.19,0,0,1,.21.21v2a.21.21,0,0,1-.23.21,5.47,5.47,0,0,1-3.35-1.09,5,5,0,0,1-1.62-4.18v-4.5a.09.09,0,0,0-.08-.08h-2.53a.23.23,0,0,1-.21-.21v-2a.23.23,0,0,1,.21-.21h2.53a.09.09,0,0,0,.08-.08V88.76a.19.19,0,0,1,.21-.21h2a.19.19,0,0,1,.2.21V93a.09.09,0,0,0,.09.08h2.5a.19.19,0,0,1,.21.21v2a.2.2,0,0,1-.21.21h-2.5a.09.09,0,0,0-.09.08Z"/><path class="cls-1" d="M127.72,91.32a.2.2,0,0,1-.21-.21V88.75a.2.2,0,0,1,.21-.2h2.11a.19.19,0,0,1,.21.2v2.36a.19.19,0,0,1-.21.21Zm.06,13.63a.19.19,0,0,1-.2-.21V93.28a.19.19,0,0,1,.2-.2h2a.2.2,0,0,1,.21.2v11.46a.2.2,0,0,1-.21.21Z"/><path class="cls-1" d="M137.4,105a.2.2,0,0,1-.21-.14l-4.35-11.44a.21.21,0,0,1,.21-.29h2.07a.25.25,0,0,1,.21.15l3.1,8.39s0,0,.07,0l3.1-8.39a.26.26,0,0,1,.21-.15h2.07a.21.21,0,0,1,.21.29l-4.35,11.44a.22.22,0,0,1-.21.14Z"/><path class="cls-1" d="M156.5,94.39a6.46,6.46,0,0,1,1.85,5,2.3,2.3,0,0,0,0,.39c0,.31-.23.47-.41.47h-9.17s-.06,0,0,.07a4.2,4.2,0,0,0,6.66,1.79.23.23,0,0,1,.31,0l1.28,1.28a.23.23,0,0,1,0,.35A6.55,6.55,0,0,1,146.12,99a6.08,6.08,0,0,1,5.87-6.3A6.26,6.26,0,0,1,156.5,94.39Zm-.55,4s0,0,0-.08a4,4,0,0,0-1.23-2.38,3.55,3.55,0,0,0-2.48-.9,3.71,3.71,0,0,0-3.76,3.19v.09c0,.06,0,.08.07.08Z"/><path class="cls-1" d="M164.37,102.42a.2.2,0,0,1,.18.31l-2.11,5a.23.23,0,0,1-.19.17h-2a.22.22,0,0,1-.21-.31l2.13-5a.22.22,0,0,1,.19-.14Z"/><path class="cls-1" d="M177.05,94.39a6.46,6.46,0,0,1,1.84,5,2.3,2.3,0,0,0,0,.39c0,.31-.22.47-.41.47H169.3s-.06,0,0,.07a4.11,4.11,0,0,0,3.83,2.78,4.17,4.17,0,0,0,2.82-1,.23.23,0,0,1,.31,0l1.28,1.28a.23.23,0,0,1,0,.35A6.54,6.54,0,0,1,166.67,99a6.07,6.07,0,0,1,5.86-6.3A6.28,6.28,0,0,1,177.05,94.39Zm-.55,4s0,0,0-.08a4,4,0,0,0-1.23-2.38,3.58,3.58,0,0,0-2.49-.9,3.7,3.7,0,0,0-3.75,3.19v.09c0,.06,0,.08.06.08Z"/><path class="cls-1" d="M185.55,105a.2.2,0,0,1-.2-.14L181,93.37a.2.2,0,0,1,.2-.29h2.07a.24.24,0,0,1,.21.15l3.11,8.39s0,0,.06,0l3.11-8.39a.24.24,0,0,1,.21-.15H192a.21.21,0,0,1,.21.29l-4.36,11.44a.22.22,0,0,1-.2.14Z"/><path class="cls-1" d="M204.66,94.39a6.5,6.5,0,0,1,1.85,5,2.3,2.3,0,0,0,0,.39c-.05.31-.23.47-.42.47h-9.16s-.06,0,0,.07a4.12,4.12,0,0,0,3.83,2.78,4.17,4.17,0,0,0,2.82-1,.23.23,0,0,1,.31,0l1.29,1.28a.24.24,0,0,1,0,.35A6.55,6.55,0,0,1,194.28,99a6.08,6.08,0,0,1,5.86-6.3A6.28,6.28,0,0,1,204.66,94.39Zm-.55,4s0,0,0-.08a4,4,0,0,0-1.23-2.38,3.56,3.56,0,0,0-2.49-.9,3.7,3.7,0,0,0-3.75,3.19v.09c0,.06,0,.08.06.08Z"/><path class="cls-1" d="M209.45,93.29a.2.2,0,0,1,.2-.21h2.11a.1.1,0,0,1,.09.09v1.56a5,5,0,0,1,3.79-1.63A5.84,5.84,0,0,1,221.36,99v5.77a.19.19,0,0,1-.21.21h-2a.19.19,0,0,1-.2-.21V99.18a3.47,3.47,0,0,0-3.61-3.64c-2.18.06-3.5,1.84-3.5,4.07v5.13a.2.2,0,0,1-.21.21h-2a.19.19,0,0,1-.2-.21Z"/><path class="cls-1" d="M21.18,132.7v-5.87a.2.2,0,0,1,.21-.21h2a.19.19,0,0,1,.2.21v5.64a3.35,3.35,0,0,0,1.06,2.69,3.59,3.59,0,0,0,2.53,1,3.53,3.53,0,0,0,2.34-1A4.07,4.07,0,0,0,30.65,132v-5.21a.2.2,0,0,1,.21-.21h2a.19.19,0,0,1,.2.21v11.45a.19.19,0,0,1-.2.21H30.74a.1.1,0,0,1-.09-.09v-1.46a4.91,4.91,0,0,1-3.73,1.63A5.84,5.84,0,0,1,21.18,132.7Z"/><path class="cls-1" d="M36.54,126.83a.19.19,0,0,1,.21-.21h2.11a.09.09,0,0,1,.08.08v1.57a5,5,0,0,1,3.79-1.63,5.83,5.83,0,0,1,5.72,5.87v5.77a.19.19,0,0,1-.21.21h-2a.19.19,0,0,1-.21-.21v-5.56a3.47,3.47,0,0,0-3.61-3.64c-2.18.06-3.5,1.84-3.5,4.07v5.13a.19.19,0,0,1-.21.21h-2a.19.19,0,0,1-.21-.21Z"/><path class="cls-1" d="M63.3,126.62a.19.19,0,0,1,.2.21v11.46a.19.19,0,0,1-.2.2h-2a.1.1,0,0,1-.09-.09v-1.63a4.79,4.79,0,0,1-3.87,1.9,6.12,6.12,0,0,1-.21-12.23,5,5,0,0,1,4.08,1.88V126.7a.1.1,0,0,1,.09-.08ZM61,132.7a3.79,3.79,0,0,0-3.92-4,3.83,3.83,0,1,0,3.92,4Z"/><path class="cls-1" d="M78.86,138.29a.19.19,0,0,1-.2.2H76.6a.09.09,0,0,1-.08-.09v-1.63a5,5,0,0,1-3.9,1.92,6.13,6.13,0,1,1-.21-12.25,5.13,5.13,0,0,1,4.11,1.9v-6a.2.2,0,0,1,.21-.21h1.93a.2.2,0,0,1,.2.21Zm-10.19-5.9a3.85,3.85,0,1,0,7.69.27,3.85,3.85,0,0,0-7.69-.27Z"/><path class="cls-1" d="M94.2,138.29a.19.19,0,0,1-.21.2h-2a.09.09,0,0,1-.08-.09v-1.63a5,5,0,0,1-3.9,1.92,6.13,6.13,0,1,1-.21-12.25,5.13,5.13,0,0,1,4.11,1.9v-6a.2.2,0,0,1,.21-.21H94a.2.2,0,0,1,.21.21ZM84,132.39a3.84,3.84,0,1,0,7.68.27,3.84,3.84,0,0,0-7.68-.27Z"/><path class="cls-1" d="M105.52,126.62a.2.2,0,0,1,.21.21v1.94a.21.21,0,0,1-.21.21h-1.45a3.82,3.82,0,0,0-3.94,3.91v5.39a.19.19,0,0,1-.21.21h-2a.19.19,0,0,1-.21-.21V126.83a.19.19,0,0,1,.21-.21h2.11a.09.09,0,0,1,.08.08v1.59a4.79,4.79,0,0,1,3.85-1.67Z"/><path class="cls-1" d="M118.36,127.93a6.46,6.46,0,0,1,1.84,5,2.3,2.3,0,0,0,0,.39c0,.31-.22.47-.41.47h-9.16s-.07,0,0,.06a4.1,4.1,0,0,0,3.83,2.79,4.17,4.17,0,0,0,2.82-1,.23.23,0,0,1,.31,0l1.28,1.28a.23.23,0,0,1,0,.35,6.42,6.42,0,0,1-4.39,1.59,6.49,6.49,0,0,1-6.43-6.31,6.08,6.08,0,0,1,5.87-6.3A6.28,6.28,0,0,1,118.36,127.93Zm-.56,4s0,0,0-.09a4,4,0,0,0-1.23-2.37,3.59,3.59,0,0,0-2.49-.91,3.71,3.71,0,0,0-3.75,3.2v.08c0,.07,0,.09.06.09Z"/><path class="cls-1" d="M132.09,135.65c-.18,1.9-1.91,3.24-4.62,3.24a7.05,7.05,0,0,1-4.57-1.47.22.22,0,0,1,0-.33l1.31-1.32a.23.23,0,0,1,.27,0,4.17,4.17,0,0,0,2.68.93c1.45.06,2.51-.25,2.63-1.22s-.93-1.44-3.13-2.06-4.07-1.77-3.8-3.88a3.4,3.4,0,0,1,1.47-2.37,5.4,5.4,0,0,1,3.1-.87,7.31,7.31,0,0,1,4.56,1.45.23.23,0,0,1,0,.31l-1.33,1.34a.2.2,0,0,1-.27,0,5.39,5.39,0,0,0-2.65-.91c-1.21-.06-2.45.27-2.6,1.22-.18,1.2,1.48,1.63,3,2.06C131.33,132.66,132.24,134,132.09,135.65Z"/><path class="cls-1" d="M144.22,135.65c-.19,1.9-1.91,3.24-4.63,3.24a7,7,0,0,1-4.56-1.47.22.22,0,0,1,0-.33l1.31-1.32a.23.23,0,0,1,.27,0,4.12,4.12,0,0,0,2.67.93c1.46.06,2.51-.25,2.64-1.22s-.94-1.44-3.14-2.06-4.06-1.77-3.79-3.88a3.36,3.36,0,0,1,1.47-2.37,5.39,5.39,0,0,1,3.09-.87,7.32,7.32,0,0,1,4.57,1.45.23.23,0,0,1,0,.31l-1.33,1.34a.2.2,0,0,1-.27,0,5.4,5.4,0,0,0-2.66-.91c-1.2-.06-2.44.27-2.59,1.22-.19,1.2,1.47,1.63,3,2.06C143.45,132.66,144.36,134,144.22,135.65Z"/><path class="cls-1" d="M157.1,127.93a6.46,6.46,0,0,1,1.85,5,2.3,2.3,0,0,0,0,.39c-.05.31-.23.47-.42.47h-9.16s-.06,0,0,.06a4.18,4.18,0,0,0,6.65,1.8.23.23,0,0,1,.31,0l1.29,1.28a.24.24,0,0,1,0,.35,6.55,6.55,0,0,1-10.82-4.72,6.08,6.08,0,0,1,5.86-6.3A6.28,6.28,0,0,1,157.1,127.93Zm-.55,4s0,0,0-.09a4,4,0,0,0-1.23-2.37,3.57,3.57,0,0,0-2.49-.91,3.72,3.72,0,0,0-3.75,3.2v.08c0,.07,0,.09.06.09Z"/><path class="cls-1" d="M173.7,138.29a.19.19,0,0,1-.21.2h-2.05a.09.09,0,0,1-.08-.09v-1.63a5,5,0,0,1-3.91,1.92,6.13,6.13,0,1,1-.2-12.25,5.15,5.15,0,0,1,4.11,1.9v-6a.2.2,0,0,1,.2-.21h1.93a.2.2,0,0,1,.21.21Zm-10.19-5.9a3.84,3.84,0,1,0,7.68.27,3.84,3.84,0,0,0-7.68-.27Z"/><path class="cls-1" d="M184.57,143a.2.2,0,0,1-.21-.21v-16a.19.19,0,0,1,.21-.21h2.05a.09.09,0,0,1,.08.09v1.63a5,5,0,0,1,3.91-1.9,6.13,6.13,0,0,1,.19,12.25,5.11,5.11,0,0,1-4.1-1.9v6a.2.2,0,0,1-.21.21Zm6.25-6.63a3.84,3.84,0,1,0-4-4A3.84,3.84,0,0,0,190.82,136.4Z"/><path class="cls-1" d="M207.47,126.62a.19.19,0,0,1,.2.21v1.94a.2.2,0,0,1-.2.21H206a3.82,3.82,0,0,0-3.94,3.91v5.39a.19.19,0,0,1-.21.21h-2a.19.19,0,0,1-.2-.21V126.83a.19.19,0,0,1,.2-.21H202a.09.09,0,0,1,.08.08v1.59a4.79,4.79,0,0,1,3.85-1.67Z"/><path class="cls-1" d="M216.3,126.26a6.32,6.32,0,1,1-6.34,6.32A6.32,6.32,0,0,1,216.3,126.26Zm0,10.23a3.92,3.92,0,1,0-3.94-3.91A3.92,3.92,0,0,0,216.3,136.49Z"/><path class="cls-1" d="M225.53,122.3a.2.2,0,0,1,.2-.21h1.93a.21.21,0,0,1,.21.21v6a5.11,5.11,0,0,1,4.1-1.9,6.13,6.13,0,1,1-.21,12.25,4.94,4.94,0,0,1-3.89-1.92v1.64a.09.09,0,0,1-.09.08h-2.05a.19.19,0,0,1-.2-.21Zm2.5,10.36a3.84,3.84,0,1,0,4-3.92A3.8,3.8,0,0,0,228,132.66Z"/><path class="cls-1" d="M241,122.29a.2.2,0,0,1,.2-.21h2a.21.21,0,0,1,.21.21v16a.2.2,0,0,1-.21.21h-2a.19.19,0,0,1-.2-.21Z"/><path class="cls-1" d="M256.73,127.93a6.46,6.46,0,0,1,1.84,5,2.3,2.3,0,0,0,0,.39c0,.31-.22.47-.41.47H249s-.06,0,0,.06a4.1,4.1,0,0,0,3.83,2.79,4.17,4.17,0,0,0,2.82-1,.23.23,0,0,1,.31,0l1.28,1.28a.23.23,0,0,1,0,.35,6.42,6.42,0,0,1-4.39,1.59,6.49,6.49,0,0,1-6.43-6.31,6.08,6.08,0,0,1,5.87-6.3A6.28,6.28,0,0,1,256.73,127.93Zm-.56,4s0,0,0-.09a4,4,0,0,0-1.23-2.37,3.59,3.59,0,0,0-2.49-.91,3.71,3.71,0,0,0-3.75,3.2v.08c0,.07,0,.09.06.09Z"/><path class="cls-1" d="M261.5,126.83a.21.21,0,0,1,.21-.21h2.12a.09.09,0,0,1,.08.09v1.13a3.68,3.68,0,0,1,2.61-1.09,4.6,4.6,0,0,1,3.85,1.87,4.81,4.81,0,0,1,3.84-1.87,5,5,0,0,1,5,5v6.53a.2.2,0,0,1-.21.21h-2a.19.19,0,0,1-.21-.21V132a2.6,2.6,0,0,0-2.63-2.83,2.7,2.7,0,0,0-2.63,2.83v6.33a.2.2,0,0,1-.21.21h-2a.19.19,0,0,1-.21-.21V132a2.62,2.62,0,0,0-2.63-2.83,2.71,2.71,0,0,0-2.63,2.83v6.33a.19.19,0,0,1-.21.21h-2a.2.2,0,0,1-.21-.21Z"/><path class="cls-1" d="M291.52,135.65c-.18,1.9-1.9,3.24-4.62,3.24a7.05,7.05,0,0,1-4.57-1.47.22.22,0,0,1,0-.33l1.31-1.32a.23.23,0,0,1,.27,0,4.17,4.17,0,0,0,2.68.93c1.45.06,2.51-.25,2.63-1.22s-.93-1.44-3.13-2.06-4.07-1.77-3.8-3.88a3.43,3.43,0,0,1,1.47-2.37,5.4,5.4,0,0,1,3.1-.87,7.31,7.31,0,0,1,4.56,1.45.23.23,0,0,1,0,.31l-1.33,1.34a.2.2,0,0,1-.27,0,5.36,5.36,0,0,0-2.65-.91c-1.21-.06-2.45.27-2.6,1.22-.18,1.2,1.48,1.63,3,2.06C290.76,132.66,291.67,134,291.52,135.65Z"/><path class="cls-1" d="M310.78,135.65c-.19,1.9-1.91,3.24-4.62,3.24a7.05,7.05,0,0,1-4.57-1.47.22.22,0,0,1,0-.33l1.31-1.32a.23.23,0,0,1,.27,0,4.16,4.16,0,0,0,2.67.93c1.46.06,2.52-.25,2.64-1.22s-.93-1.44-3.13-2.06-4.07-1.77-3.8-3.88a3.4,3.4,0,0,1,1.47-2.37,5.4,5.4,0,0,1,3.1-.87,7.31,7.31,0,0,1,4.56,1.45.23.23,0,0,1,0,.31l-1.33,1.34a.2.2,0,0,1-.27,0,5.39,5.39,0,0,0-2.65-.91c-1.21-.06-2.45.27-2.6,1.22-.18,1.2,1.48,1.63,3,2.06C310,132.66,310.93,134,310.78,135.65Z"/><path class="cls-1" d="M314.06,122.3a.19.19,0,0,1,.21-.21h2a.19.19,0,0,1,.21.21v5.93a5.1,5.1,0,0,1,3.81-1.63,5.86,5.86,0,0,1,5.76,5.89v5.79a.19.19,0,0,1-.2.21h-2a.19.19,0,0,1-.21-.21V132.7A3.52,3.52,0,0,0,320,129c-2.17.08-3.54,1.82-3.54,4.11v5.13a.19.19,0,0,1-.21.21h-2a.19.19,0,0,1-.21-.21Z"/><path class="cls-1" d="M335,126.26a6.32,6.32,0,1,1-6.34,6.32A6.32,6.32,0,0,1,335,126.26Zm0,10.23a3.92,3.92,0,1,0-3.94-3.91A3.92,3.92,0,0,0,335,136.49Z"/><path class="cls-1" d="M344.12,132.7v-5.87a.2.2,0,0,1,.21-.21h2a.2.2,0,0,1,.21.21v5.64a3.34,3.34,0,0,0,1.05,2.69,3.61,3.61,0,0,0,2.53,1,3.55,3.55,0,0,0,2.35-1A4.07,4.07,0,0,0,353.6,132v-5.21a.19.19,0,0,1,.2-.21h2a.2.2,0,0,1,.21.21v11.45a.2.2,0,0,1-.21.21h-2.11a.09.09,0,0,1-.08-.09v-1.46a5,5,0,0,1-3.74,1.63A5.84,5.84,0,0,1,344.12,132.7Z"/><path class="cls-1" d="M359.58,122.29a.2.2,0,0,1,.21-.21h2a.2.2,0,0,1,.21.21v16a.19.19,0,0,1-.21.21h-2a.19.19,0,0,1-.21-.21Z"/><path class="cls-1" d="M377.43,138.29a.19.19,0,0,1-.21.2h-2.05a.09.09,0,0,1-.08-.09v-1.63a5,5,0,0,1-3.91,1.92,6.13,6.13,0,1,1-.2-12.25,5.15,5.15,0,0,1,4.11,1.9v-6a.2.2,0,0,1,.2-.21h1.93a.2.2,0,0,1,.21.21Zm-10.19-5.9a3.84,3.84,0,1,0,7.68.27,3.84,3.84,0,0,0-7.68-.27Z"/><path class="cls-1" d="M21.32,155.84a.21.21,0,0,1,.21-.21h1.93a.2.2,0,0,1,.2.21v6a5.13,5.13,0,0,1,4.11-1.9,6.13,6.13,0,1,1-.21,12.25,5,5,0,0,1-3.9-1.92V172a.09.09,0,0,1-.08.08h-2a.2.2,0,0,1-.21-.21Zm2.51,10.36a3.84,3.84,0,1,0,4-3.93A3.83,3.83,0,0,0,23.83,166.2Z"/><path class="cls-1" d="M46.39,161.47a6.44,6.44,0,0,1,1.84,5,2.24,2.24,0,0,0,0,.39c0,.31-.23.47-.41.47H38.64s-.07,0,0,.06a4.12,4.12,0,0,0,3.84,2.79,4.17,4.17,0,0,0,2.82-1,.21.21,0,0,1,.31,0l1.28,1.28a.23.23,0,0,1,0,.35,6.42,6.42,0,0,1-4.39,1.59A6.49,6.49,0,0,1,36,166.12a6.08,6.08,0,0,1,5.87-6.3A6.28,6.28,0,0,1,46.39,161.47Zm-.56,4s0-.05,0-.09A4,4,0,0,0,44.63,163a3.6,3.6,0,0,0-2.49-.91,3.7,3.7,0,0,0-3.75,3.2v.08c0,.07,0,.09.06.09Z"/><path class="cls-1" d="M62.85,167.14a2.66,2.66,0,0,0,.72,2.25,2.9,2.9,0,0,0,1.87.6.19.19,0,0,1,.21.21v2a.22.22,0,0,1-.23.21,5.46,5.46,0,0,1-3.36-1.1,5,5,0,0,1-1.61-4.17v-4.5a.09.09,0,0,0-.08-.08H57.84a.23.23,0,0,1-.21-.21v-2a.22.22,0,0,1,.21-.21h2.53a.09.09,0,0,0,.08-.08v-4.24a.19.19,0,0,1,.21-.21h2a.19.19,0,0,1,.21.21v4.24a.09.09,0,0,0,.08.08h2.51a.2.2,0,0,1,.21.21v2a.21.21,0,0,1-.21.21H62.93a.09.09,0,0,0-.08.08Z"/><path class="cls-1" d="M68.59,166.24v-5.87a.19.19,0,0,1,.21-.21h2a.19.19,0,0,1,.2.21V166a3.36,3.36,0,0,0,1.06,2.69,3.63,3.63,0,0,0,2.53,1,3.53,3.53,0,0,0,2.34-1,4.07,4.07,0,0,0,1.14-3.08v-5.21a.2.2,0,0,1,.21-.21h2a.19.19,0,0,1,.2.21v11.45a.19.19,0,0,1-.2.21H78.15a.09.09,0,0,1-.09-.09v-1.46a4.91,4.91,0,0,1-3.73,1.63A5.84,5.84,0,0,1,68.59,166.24Z"/><path class="cls-1" d="M91.74,160.16a.19.19,0,0,1,.2.21v1.94a.19.19,0,0,1-.2.2H90.29a3.83,3.83,0,0,0-3.94,3.91v5.4a.2.2,0,0,1-.21.21h-2a.19.19,0,0,1-.2-.21V160.37a.19.19,0,0,1,.2-.21h2.11a.09.09,0,0,1,.09.08v1.59a4.79,4.79,0,0,1,3.85-1.67Z"/><path class="cls-1" d="M94.87,160.37a.19.19,0,0,1,.21-.21h2.11a.09.09,0,0,1,.08.08v1.57a5.07,5.07,0,0,1,3.8-1.63,5.83,5.83,0,0,1,5.71,5.87v5.77a.19.19,0,0,1-.2.21h-2a.2.2,0,0,1-.21-.21v-5.56a3.46,3.46,0,0,0-3.6-3.64c-2.18.06-3.51,1.84-3.51,4.07v5.13a.19.19,0,0,1-.2.21h-2a.19.19,0,0,1-.21-.21Z"/><path class="cls-1" d="M119.81,161.47a6.45,6.45,0,0,1,1.85,5,2.24,2.24,0,0,0,0,.39c0,.31-.23.47-.42.47h-9.16s-.06,0,0,.06a4.18,4.18,0,0,0,6.65,1.8.21.21,0,0,1,.31,0l1.29,1.28a.24.24,0,0,1,0,.35,6.55,6.55,0,0,1-10.82-4.72,6.08,6.08,0,0,1,5.86-6.3A6.28,6.28,0,0,1,119.81,161.47Zm-.55,4s0-.05,0-.09a4,4,0,0,0-1.23-2.37,3.57,3.57,0,0,0-2.49-.91,3.71,3.71,0,0,0-3.75,3.2v.08c0,.07,0,.09.06.09Z"/><path class="cls-1" d="M136.41,171.83a.19.19,0,0,1-.21.2h-2a.09.09,0,0,1-.08-.09v-1.63a5,5,0,0,1-3.91,1.92A6.13,6.13,0,1,1,130,160a5.15,5.15,0,0,1,4.11,1.9v-6a.2.2,0,0,1,.21-.21h1.92a.2.2,0,0,1,.21.21Zm-10.19-5.9a3.84,3.84,0,1,0,7.68.27,3.84,3.84,0,0,0-7.68-.27Z"/><path class="cls-1" d="M147.37,158.4a.2.2,0,0,1-.2-.21v-2.36a.2.2,0,0,1,.2-.21h2.11a.2.2,0,0,1,.21.21v2.36a.2.2,0,0,1-.21.21Zm.07,13.63a.19.19,0,0,1-.21-.21V160.36a.2.2,0,0,1,.21-.21h2a.2.2,0,0,1,.21.21v11.46a.19.19,0,0,1-.21.21Z"/><path class="cls-1" d="M153.33,160.37a.19.19,0,0,1,.21-.21h2.11a.09.09,0,0,1,.08.08v1.57a5.07,5.07,0,0,1,3.8-1.63,5.83,5.83,0,0,1,5.71,5.87v5.77a.19.19,0,0,1-.2.21h-2a.2.2,0,0,1-.21-.21v-5.56a3.46,3.46,0,0,0-3.6-3.64c-2.18.06-3.51,1.84-3.51,4.07v5.13a.19.19,0,0,1-.2.21h-2a.19.19,0,0,1-.21-.21Z"/><path class="cls-1" d="M173.11,167.14a2.66,2.66,0,0,0,.72,2.25,2.9,2.9,0,0,0,1.87.6.19.19,0,0,1,.21.21v2a.22.22,0,0,1-.23.21,5.46,5.46,0,0,1-3.36-1.1,5,5,0,0,1-1.61-4.17v-4.5a.09.09,0,0,0-.08-.08H168.1a.23.23,0,0,1-.21-.21v-2a.23.23,0,0,1,.21-.21h2.53a.09.09,0,0,0,.08-.08v-4.24a.19.19,0,0,1,.21-.21h2a.19.19,0,0,1,.21.21v4.24a.09.09,0,0,0,.08.08h2.51a.19.19,0,0,1,.21.21v2a.2.2,0,0,1-.21.21h-2.51a.09.09,0,0,0-.08.08Z"/><path class="cls-1" d="M184.69,159.8a6.32,6.32,0,1,1-6.34,6.31A6.33,6.33,0,0,1,184.69,159.8Zm0,10.23a3.92,3.92,0,1,0-3.94-3.92A3.92,3.92,0,0,0,184.69,170Z"/><path class="cls-1" d="M210,169.19c-.19,1.9-1.91,3.24-4.62,3.24a7,7,0,0,1-4.57-1.47.22.22,0,0,1,0-.33l1.31-1.32a.23.23,0,0,1,.27,0,4.12,4.12,0,0,0,2.67.93c1.46.06,2.52-.25,2.64-1.22s-.93-1.44-3.13-2.06-4.07-1.77-3.8-3.88a3.4,3.4,0,0,1,1.47-2.37,5.39,5.39,0,0,1,3.09-.87,7.32,7.32,0,0,1,4.57,1.45.23.23,0,0,1,0,.31l-1.33,1.34a.2.2,0,0,1-.27,0,5.39,5.39,0,0,0-2.65-.91c-1.21-.06-2.45.27-2.6,1.22-.18,1.19,1.48,1.63,3,2.06C209.23,166.2,210.15,167.54,210,169.19Z"/><path class="cls-1" d="M218.88,159.8a6.32,6.32,0,1,1-6.34,6.31A6.32,6.32,0,0,1,218.88,159.8Zm0,10.23a3.92,3.92,0,1,0-3.94-3.92A3.92,3.92,0,0,0,218.88,170Z"/><path class="cls-1" d="M228,166.24v-5.87a.2.2,0,0,1,.21-.21h2a.19.19,0,0,1,.2.21V166a3.36,3.36,0,0,0,1.06,2.69,3.65,3.65,0,0,0,2.53,1,3.51,3.51,0,0,0,2.34-1,4,4,0,0,0,1.15-3.08v-5.21a.19.19,0,0,1,.2-.21h2a.2.2,0,0,1,.21.21v11.45a.2.2,0,0,1-.21.21h-2.11a.09.09,0,0,1-.08-.09v-1.46a5,5,0,0,1-3.74,1.63A5.84,5.84,0,0,1,228,166.24Z"/><path class="cls-1" d="M251.11,160.16a.2.2,0,0,1,.21.21v1.94a.2.2,0,0,1-.21.2h-1.45a3.83,3.83,0,0,0-3.94,3.91v5.4a.19.19,0,0,1-.21.21h-2a.19.19,0,0,1-.21-.21V160.37a.19.19,0,0,1,.21-.21h2.11a.09.09,0,0,1,.08.08v1.59a4.79,4.79,0,0,1,3.85-1.67Z"/><path class="cls-1" d="M253.56,165.93a6.34,6.34,0,0,1,10.63-4.44.21.21,0,0,1,0,.33l-1.3,1.32c-.13.11-.23.11-.33,0a4,4,0,0,0-2.72-1,4,4,0,0,0-.06,8,4.12,4.12,0,0,0,2.78-1,.26.26,0,0,1,.33,0l1.3,1.3a.2.2,0,0,1,0,.31,6.23,6.23,0,0,1-4.29,1.7A6.33,6.33,0,0,1,253.56,165.93Z"/><path class="cls-1" d="M277,161.47a6.48,6.48,0,0,1,1.84,5,2.24,2.24,0,0,0,0,.39c0,.31-.23.47-.41.47h-9.17s-.06,0,0,.06a4.12,4.12,0,0,0,3.84,2.79,4.17,4.17,0,0,0,2.82-1,.21.21,0,0,1,.31,0l1.28,1.28a.23.23,0,0,1,0,.35,6.55,6.55,0,0,1-10.82-4.72,6.08,6.08,0,0,1,5.87-6.3A6.3,6.3,0,0,1,277,161.47Zm-.56,4s0-.05,0-.09a4,4,0,0,0-1.23-2.37,3.56,3.56,0,0,0-2.48-.91,3.7,3.7,0,0,0-3.75,3.2v.08c0,.07,0,.09.06.09Z"/><path class="cls-1" d="M290.68,169.19c-.19,1.9-1.91,3.24-4.63,3.24a7,7,0,0,1-4.56-1.47.22.22,0,0,1,0-.33l1.31-1.32a.23.23,0,0,1,.27,0,4.12,4.12,0,0,0,2.67.93c1.46.06,2.51-.25,2.64-1.22s-.93-1.44-3.13-2.06-4.07-1.77-3.8-3.88a3.36,3.36,0,0,1,1.47-2.37,5.39,5.39,0,0,1,3.09-.87,7.32,7.32,0,0,1,4.57,1.45.23.23,0,0,1,0,.31l-1.33,1.34a.2.2,0,0,1-.27,0,5.39,5.39,0,0,0-2.65-.91c-1.21-.06-2.45.27-2.6,1.22-.19,1.19,1.47,1.63,3,2.06C289.91,166.2,290.82,167.54,290.68,169.19Z"/><path class="cls-1" d="M306.69,159.8a6.32,6.32,0,1,1-6.34,6.31A6.32,6.32,0,0,1,306.69,159.8Zm0,10.23a3.92,3.92,0,1,0-3.94-3.92A3.92,3.92,0,0,0,306.69,170Z"/><path class="cls-1" d="M323.4,157.39a.21.21,0,0,1-.21.21c-2.22,0-2.57,1.3-2.59,2.52,0,0,0,0,0,0h2.55a.2.2,0,0,1,.21.21v2a.21.21,0,0,1-.21.21h-2.51a.09.09,0,0,0-.08.08v9.18a.19.19,0,0,1-.21.21h-2a.19.19,0,0,1-.21-.21v-9.18a.09.09,0,0,0-.08-.08h-2.53a.2.2,0,0,1-.21-.21v-2a.19.19,0,0,1,.21-.21h2.53a.09.09,0,0,0,.08-.08,4.61,4.61,0,0,1,5-4.88.22.22,0,0,1,.23.21Z"/><path class="cls-1" d="M20.46,194a.22.22,0,0,1,.21-.29h2a.19.19,0,0,1,.2.14l2.59,8.5a0,0,0,0,0,.09,0l2.58-8.5a.23.23,0,0,1,.21-.14h2.28a.22.22,0,0,1,.21.14l2.59,8.5a0,0,0,0,0,.08,0l2.59-8.5a.2.2,0,0,1,.21-.14h2a.22.22,0,0,1,.21.29l-3.83,11.43a.19.19,0,0,1-.19.15h-2a.2.2,0,0,1-.2-.15l-2.74-8.21a0,0,0,0,0-.08,0l-2.73,8.21a.21.21,0,0,1-.21.15h-2a.2.2,0,0,1-.19-.15Z"/><path class="cls-1" d="M50.88,195a6.45,6.45,0,0,1,1.85,5,2.24,2.24,0,0,0,0,.39c0,.31-.23.47-.42.47H43.13s-.06,0,0,.06a4.11,4.11,0,0,0,3.84,2.78,4.21,4.21,0,0,0,2.82-1,.21.21,0,0,1,.31,0L51.34,204a.25.25,0,0,1,0,.36,6.55,6.55,0,0,1-10.82-4.72,6.08,6.08,0,0,1,5.87-6.3A6.17,6.17,0,0,1,50.88,195Zm-.55,4s0,0,0-.08a3.94,3.94,0,0,0-1.23-2.37,3.56,3.56,0,0,0-2.48-.91,3.71,3.71,0,0,0-3.76,3.2v.08c0,.06,0,.08.07.08Z"/><path class="cls-1" d="M67.19,193.7a.19.19,0,0,1,.21.2v11.46a.19.19,0,0,1-.21.21h-2a.09.09,0,0,1-.08-.09v-1.63a4.79,4.79,0,0,1-3.87,1.9A6.12,6.12,0,0,1,61,193.52a5,5,0,0,1,4.08,1.87v-1.61a.09.09,0,0,1,.08-.08Zm-2.27,6.08a3.79,3.79,0,0,0-3.92-4,3.82,3.82,0,1,0,3.92,4Z"/><path class="cls-1" d="M71.05,189.37a.19.19,0,0,1,.2-.21h2a.2.2,0,0,1,.21.21v16a.2.2,0,0,1-.21.21h-2a.19.19,0,0,1-.2-.21Z"/><path class="cls-1" d="M81.63,200.68a2.66,2.66,0,0,0,.72,2.25,2.88,2.88,0,0,0,1.87.6c.14,0,.2.08.2.21v2a.21.21,0,0,1-.22.21,5.53,5.53,0,0,1-3.36-1.1,5,5,0,0,1-1.61-4.17v-4.5a.11.11,0,0,0-.09-.09H76.62a.22.22,0,0,1-.21-.2v-2a.22.22,0,0,1,.21-.21h2.52a.1.1,0,0,0,.09-.08v-4.24a.19.19,0,0,1,.2-.21h2a.2.2,0,0,1,.21.21v4.24a.09.09,0,0,0,.08.08h2.51a.19.19,0,0,1,.2.21v2a.19.19,0,0,1-.2.2H81.71a.1.1,0,0,0-.08.09Z"/><path class="cls-1" d="M87.61,189.38a.19.19,0,0,1,.21-.21h2a.19.19,0,0,1,.21.21v5.93a5.12,5.12,0,0,1,3.82-1.63,5.86,5.86,0,0,1,5.75,5.89v5.79a.19.19,0,0,1-.2.21h-2a.2.2,0,0,1-.21-.21v-5.58a3.51,3.51,0,0,0-3.62-3.66c-2.18.08-3.55,1.82-3.55,4.11v5.13a.19.19,0,0,1-.21.21h-2a.19.19,0,0,1-.21-.21Z"/><path class="cls-1" d="M102.86,205.56a.19.19,0,0,1-.21-.2v-2.23a.19.19,0,0,1,.21-.2h2.23a.19.19,0,0,1,.2.2v2.23a.19.19,0,0,1-.2.2Z"/></svg>
