<svg xmlns="http://www.w3.org/2000/svg" width="400" height="260" viewBox="0 0 400 260"><defs><style>.u6649{fill:none;}.u6649,.u9acc{stroke-miterlimit:10;}.u6649,.u9acc,.u1820{stroke:#626262;stroke-width:3px;}.u6ee2{fill:#ed6103;}.ue9b2,.u9acc,.u1820,.u63eb{fill:#fff;}.uf984{fill:#626262;}.u1820{stroke-linecap:round;stroke-linejoin:round;}.u63eb{font-family:LIFULLFont-ExtraBold, 'LIFULL Font';font-size:26.668px;font-weight:700;}</style></defs><path class="ue9b2" d="m349.426,43.467h-121.808c-3.314,0-6,2.686-6,6v66.828c0,3.314,2.686,6,6,6h21.073c.031,0,.05.032.034.058-2.98,4.92-6.804,13.387-8.734,17.797-.403.922.599,1.823,1.475,1.329l33.291-18.801c.444-.251.946-.383,1.456-.383h73.213c3.314,0,6-2.686,6-6V49.467c0-3.314-2.686-6-6-6Z"/><path class="u6649" d="m349.426,43.467h-121.808c-3.314,0-6,2.686-6,6v66.828c0,3.314,2.686,6,6,6h21.073c.031,0,.05.032.034.058-2.98,4.92-6.804,13.387-8.734,17.797-.403.922.599,1.823,1.475,1.329l33.291-18.801c.444-.251.946-.383,1.456-.383h73.213c3.314,0,6-2.686,6-6V49.467c0-3.314-2.686-6-6-6Z"/><rect class="u6ee2" x="244.846" y="67.364" width="54.315" height="7.154" rx="3.577" ry="3.577"/><rect class="u6ee2" x="244.846" y="91.245" width="87.352" height="7.154" rx="3.577" ry="3.577"/><path class="u9acc" d="m180.286,76.806c.545-2.889.837-5.868.837-8.916h0c0-16.085-7.914-30.317-20.056-39.03-2.222-1.595-4.59-2.996-7.073-4.199-.372-.18-.74-.369-1.118-.54-5.912-2.674-12.463-4.182-19.36-4.24-.136-.001-.272-.005-.408-.005h-2.728c-.015,0-.029,0-.043,0-10.023.009-19.326,3.091-27.021,8.352-12.648,8.647-20.95,23.184-20.95,39.662h0c0,3.164.313,6.254.899,9.246-4.646,2.292-7.775,6.566-7.775,11.469,0,5.989,4.664,11.045,11.064,12.687,1.363,18.75,14.149,34.328,31.441,39.791l-4.622,27.514c-.065.145-.099.291-.099.44,0,.004.001.009.002.013l-.415,1.931h2.47c3.072,1.364,9.27,2.297,16.422,2.297s13.35-.933,16.422-2.297h2.476l-.421-1.959c-.002-.13-.031-.259-.083-.387l-4.594-27.34c17.653-5.256,30.776-20.998,32.156-40.006,6.4-1.643,11.064-6.697,11.064-12.686,0-5.15-3.451-9.605-8.487-11.798Z"/><circle class="u6ee2" cx="132.131" cy="119.068" r="10.042"/><circle class="uf984" cx="115.024" cy="85.658" r="4.1"/><circle class="uf984" cx="149.239" cy="85.658" r="4.1"/><path class="uf984" d="m131.611,168.314c-8.238,0-12.852-1.373-15.81-3.379h-2.378l.387-2.753-23.086,4.651c-26.202,6.221-45.278,28.333-48.001,54.655h89.146v-53.176c-.086,0-.171.003-.258.003Z"/><path class="uf984" d="m173.016,166.832l-23.615-4.777.405,2.88h-2.384c-2.926,1.986-7.424,3.348-15.551,3.377v53.176h89.146c-2.723-26.323-21.799-48.435-48.001-54.655Z"/><rect class="u6ee2" x="20.294" y="194.375" width="359.413" height="45.646" rx="6" ry="6"/><circle class="ue9b2" cx="175.707" cy="218.447" r="6.555"/><circle class="ue9b2" cx="198.843" cy="218.447" r="6.555"/><circle class="ue9b2" cx="221.979" cy="218.447" r="6.555"/><circle class="ue9b2" cx="245.114" cy="218.447" r="6.555"/><circle class="ue9b2" cx="86.535" cy="218.447" r="6.555"/><circle class="ue9b2" cx="110.099" cy="218.447" r="6.555"/><circle class="ue9b2" cx="133.663" cy="218.447" r="6.555"/><text class="u63eb" transform="translate(265.293 228.046)"><tspan x="0" y="0">~</tspan></text><text class="u63eb" transform="translate(297.927 226.333)"><tspan x="0" y="0">!</tspan></text><path class="u1820" d="m172.438,74.722c-7.495-2.779-20.713-10.003-25.986-27.358-10.098,22.112-40.955,27.329-54.051,28.554"/></svg>
