<svg xmlns="http://www.w3.org/2000/svg" viewBox="0 0 400 260"><style>.st0{fill:#FFFFFF;}.st1{fill:none;stroke:#626262;stroke-width:3;stroke-miterlimit:10;}.st2{fill:#ED6103;}.st3{fill:#FFFFFF;stroke:#626262;stroke-width:3;stroke-miterlimit:10;}.st4{fill:#626262;}.st6{fill:#FFFFFF;stroke:#626262;stroke-width:3;stroke-linecap:round;stroke-linejoin:round;}</style><path class="st0" d="M349.4,43.5H227.6c-3.3,0-6,2.7-6,6v66.8c0,3.3,2.7,6,6,6h21.1c0,0,0.1,0,0,0.1c-3,4.9-6.8,13.4-8.7,17.8c-0.4,0.9,0.6,1.8,1.5,1.3l33.3-18.8c0.4-0.3,0.9-0.4,1.5-0.4h73.2c3.3,0,6-2.7,6-6V49.5C355.4,46.2,352.7,43.5,349.4,43.5L349.4,43.5z"/><path class="st1" d="M349.4,43.5H227.6c-3.3,0-6,2.7-6,6v66.8c0,3.3,2.7,6,6,6h21.1c0,0,0.1,0,0,0.1c-3,4.9-6.8,13.4-8.7,17.8c-0.4,0.9,0.6,1.8,1.5,1.3l33.3-18.8c0.4-0.3,0.9-0.4,1.5-0.4h73.2c3.3,0,6-2.7,6-6V49.5C355.4,46.2,352.7,43.5,349.4,43.5L349.4,43.5z"/><path class="st2" d="M248.4,67.4h47.2c2,0,3.6,1.6,3.6,3.6v0c0,2-1.6,3.6-3.6,3.6h-47.2c-2,0-3.6-1.6-3.6-3.6v0C244.8,69,246.4,67.4,248.4,67.4z"/><path class="st2" d="M248.4,91.2h80.2c2,0,3.6,1.6,3.6,3.6v0c0,2-1.6,3.6-3.6,3.6h-80.2c-2,0-3.6-1.6-3.6-3.6v0C244.8,92.8,246.4,91.2,248.4,91.2z"/><path class="st3" d="M180.3,76.8c0.5-2.9,0.8-5.9,0.8-8.9l0,0c0-16.1-7.9-30.3-20.1-39c-2.2-1.6-4.6-3-7.1-4.2c-0.4-0.2-0.7-0.4-1.1-0.5c-5.9-2.7-12.5-4.2-19.4-4.2c-0.1,0-0.3,0-0.4,0h-2.7c0,0,0,0,0,0c-10,0-19.3,3.1-27,8.4c-12.6,8.6-20.9,23.2-20.9,39.7l0,0c0,3.2,0.3,6.3,0.9,9.2c-4.6,2.3-7.8,6.6-7.8,11.5c0,6,4.7,11,11.1,12.7c1.4,18.8,14.1,34.3,31.4,39.8l-4.6,27.5c-0.1,0.1-0.1,0.3-0.1,0.4c0,0,0,0,0,0l-0.4,1.9h2.5c3.1,1.4,9.3,2.3,16.4,2.3s13.4-0.9,16.4-2.3h2.5l-0.4-2c0-0.1,0-0.3-0.1-0.4l-4.6-27.3c17.7-5.3,30.8-21,32.2-40c6.4-1.6,11.1-6.7,11.1-12.7C188.8,83.5,185.3,79,180.3,76.8L180.3,76.8z"/><circle class="st2" cx="132.1" cy="119.1" r="10"/><circle class="st4" cx="115" cy="85.7" r="4.1"/><circle class="st4" cx="149.2" cy="85.7" r="4.1"/><path class="st4" d="M131.6,168.3c-8.2,0-12.9-1.4-15.8-3.4h-2.4l0.4-2.8l-23.1,4.7c-26.2,6.2-45.3,28.3-48,54.7h89.1v-53.2C131.8,168.3,131.7,168.3,131.6,168.3L131.6,168.3z"/><path class="st4" d="M173,166.8l-23.6-4.8l0.4,2.9h-2.4c-2.9,2-7.4,3.3-15.6,3.4v53.2H221C218.3,195.2,199.2,173.1,173,166.8L173,166.8z"/><path class="st2" d="M26.3,194.4h347.4c3.3,0,6,2.7,6,6V234c0,3.3-2.7,6-6,6H26.3c-3.3,0-6-2.7-6-6v-33.6C20.3,197.1,23,194.4,26.3,194.4z"/><circle class="st0" cx="175.7" cy="218.4" r="6.6"/><circle class="st0" cx="198.8" cy="218.4" r="6.6"/><circle class="st0" cx="222" cy="218.4" r="6.6"/><circle class="st0" cx="245.1" cy="218.4" r="6.6"/><circle class="st0" cx="86.5" cy="218.4" r="6.6"/><circle class="st0" cx="110.1" cy="218.4" r="6.6"/><circle class="st0" cx="133.7" cy="218.4" r="6.6"/><path class="st0" d="M286.3,215.3c0.2,0,0.3,0.1,0.3,0.3c-0.5,3.2-3.1,5.8-6.5,5.5c-1.9-0.1-3.2-1.1-4.2-1.9c-0.8-0.7-1.5-1.1-2.3-1.2c-1.7-0.2-3,0.9-3.4,2.5c0,0.1-0.1,0.2-0.3,0.2h-2.5c-0.2,0-0.3-0.1-0.3-0.3c0.4-3.1,3.1-5.7,6.5-5.5c1.9,0.1,3.2,1.1,4.2,1.9c0.8,0.7,1.5,1.1,2.3,1.2c1.7,0.2,3.1-0.9,3.4-2.5c0-0.1,0.1-0.2,0.3-0.2H286.3z"/><path class="st0" d="M300.6,220.1c-0.2,0-0.3-0.1-0.3-0.3v-13.3c0-0.2,0.1-0.3,0.3-0.3h2.6c0.2,0,0.3,0.1,0.3,0.3v13.3c0,0.2-0.1,0.3-0.3,0.3H300.6z M300.6,226.3c-0.2,0-0.3-0.1-0.3-0.3V223c0-0.2,0.1-0.3,0.3-0.3h2.6c0.2,0,0.3,0.1,0.3,0.3v3.1c0,0.2-0.1,0.3-0.3,0.3H300.6z"/><path class="st6" d="M172.4,74.7c-7.5-2.8-20.7-10-26-27.4c-10.1,22.1-41,27.3-54.1,28.6"/></svg>
